G75*
%MOIN*%
%OFA0B0*%
%FSLAX25Y25*%
%IPPOS*%
%LPD*%
%AMOC8*
5,1,8,0,0,1.08239X$1,22.5*
%
%ADD10C,0.00000*%
%ADD11C,0.00300*%
%ADD12C,0.00500*%
%ADD13C,0.00600*%
%ADD14C,0.00400*%
%ADD15C,0.00800*%
%ADD16R,0.00500X0.00500*%
%ADD17R,0.01000X0.00500*%
%ADD18R,0.01500X0.00500*%
%ADD19R,0.02500X0.00500*%
%ADD20R,0.04500X0.00500*%
%ADD21R,0.03500X0.00500*%
%ADD22R,0.02000X0.00500*%
%ADD23R,0.03000X0.00500*%
%ADD24R,0.04000X0.00500*%
%ADD25C,0.01000*%
%ADD26R,0.08268X0.01181*%
%ADD27R,0.01181X0.08268*%
D10*
X0000000Y0000000D02*
X0000000Y0196850D01*
X0196850Y0196850D01*
X0196850Y0000000D01*
X0000000Y0000000D01*
X0017517Y0075572D02*
X0017448Y0075574D01*
X0017380Y0075580D01*
X0017312Y0075590D01*
X0017245Y0075603D01*
X0017179Y0075621D01*
X0017114Y0075642D01*
X0017050Y0075667D01*
X0016988Y0075695D01*
X0016927Y0075727D01*
X0016868Y0075762D01*
X0016812Y0075801D01*
X0016757Y0075843D01*
X0016706Y0075888D01*
X0016656Y0075936D01*
X0016610Y0075986D01*
X0016567Y0076039D01*
X0016526Y0076095D01*
X0016489Y0076152D01*
X0016456Y0076212D01*
X0016425Y0076274D01*
X0016399Y0076337D01*
X0016376Y0076401D01*
X0016356Y0076467D01*
X0016341Y0076534D01*
X0016329Y0076601D01*
X0016321Y0076669D01*
X0016317Y0076738D01*
X0016317Y0076806D01*
X0016321Y0076875D01*
X0016329Y0076943D01*
X0016341Y0077010D01*
X0016356Y0077077D01*
X0016376Y0077143D01*
X0016399Y0077207D01*
X0016425Y0077270D01*
X0016456Y0077332D01*
X0016489Y0077392D01*
X0016526Y0077449D01*
X0016567Y0077505D01*
X0016610Y0077558D01*
X0016656Y0077608D01*
X0016706Y0077656D01*
X0016757Y0077701D01*
X0016812Y0077743D01*
X0016868Y0077782D01*
X0016927Y0077817D01*
X0016988Y0077849D01*
X0017050Y0077877D01*
X0017114Y0077902D01*
X0017179Y0077923D01*
X0017245Y0077941D01*
X0017312Y0077954D01*
X0017380Y0077964D01*
X0017448Y0077970D01*
X0017517Y0077972D01*
X0081477Y0102120D02*
X0081479Y0102051D01*
X0081485Y0101983D01*
X0081495Y0101915D01*
X0081508Y0101848D01*
X0081526Y0101782D01*
X0081547Y0101717D01*
X0081572Y0101653D01*
X0081600Y0101591D01*
X0081632Y0101530D01*
X0081667Y0101471D01*
X0081706Y0101415D01*
X0081748Y0101360D01*
X0081793Y0101309D01*
X0081841Y0101259D01*
X0081891Y0101213D01*
X0081944Y0101170D01*
X0082000Y0101129D01*
X0082057Y0101092D01*
X0082117Y0101059D01*
X0082179Y0101028D01*
X0082242Y0101002D01*
X0082306Y0100979D01*
X0082372Y0100959D01*
X0082439Y0100944D01*
X0082506Y0100932D01*
X0082574Y0100924D01*
X0082643Y0100920D01*
X0082711Y0100920D01*
X0082780Y0100924D01*
X0082848Y0100932D01*
X0082915Y0100944D01*
X0082982Y0100959D01*
X0083048Y0100979D01*
X0083112Y0101002D01*
X0083175Y0101028D01*
X0083237Y0101059D01*
X0083297Y0101092D01*
X0083354Y0101129D01*
X0083410Y0101170D01*
X0083463Y0101213D01*
X0083513Y0101259D01*
X0083561Y0101309D01*
X0083606Y0101360D01*
X0083648Y0101415D01*
X0083687Y0101471D01*
X0083722Y0101530D01*
X0083754Y0101591D01*
X0083782Y0101653D01*
X0083807Y0101717D01*
X0083828Y0101782D01*
X0083846Y0101848D01*
X0083859Y0101915D01*
X0083869Y0101983D01*
X0083875Y0102051D01*
X0083877Y0102120D01*
X0086372Y0054350D02*
X0086303Y0054348D01*
X0086235Y0054342D01*
X0086167Y0054332D01*
X0086100Y0054319D01*
X0086034Y0054301D01*
X0085969Y0054280D01*
X0085905Y0054255D01*
X0085843Y0054227D01*
X0085782Y0054195D01*
X0085723Y0054160D01*
X0085667Y0054121D01*
X0085612Y0054079D01*
X0085561Y0054034D01*
X0085511Y0053986D01*
X0085465Y0053936D01*
X0085422Y0053883D01*
X0085381Y0053827D01*
X0085344Y0053770D01*
X0085311Y0053710D01*
X0085280Y0053648D01*
X0085254Y0053585D01*
X0085231Y0053521D01*
X0085211Y0053455D01*
X0085196Y0053388D01*
X0085184Y0053321D01*
X0085176Y0053253D01*
X0085172Y0053184D01*
X0085172Y0053116D01*
X0085176Y0053047D01*
X0085184Y0052979D01*
X0085196Y0052912D01*
X0085211Y0052845D01*
X0085231Y0052779D01*
X0085254Y0052715D01*
X0085280Y0052652D01*
X0085311Y0052590D01*
X0085344Y0052530D01*
X0085381Y0052473D01*
X0085422Y0052417D01*
X0085465Y0052364D01*
X0085511Y0052314D01*
X0085561Y0052266D01*
X0085612Y0052221D01*
X0085667Y0052179D01*
X0085723Y0052140D01*
X0085782Y0052105D01*
X0085843Y0052073D01*
X0085905Y0052045D01*
X0085969Y0052020D01*
X0086034Y0051999D01*
X0086100Y0051981D01*
X0086167Y0051968D01*
X0086235Y0051958D01*
X0086303Y0051952D01*
X0086372Y0051950D01*
X0181647Y0073603D02*
X0181578Y0073605D01*
X0181510Y0073611D01*
X0181442Y0073621D01*
X0181375Y0073634D01*
X0181309Y0073652D01*
X0181244Y0073673D01*
X0181180Y0073698D01*
X0181118Y0073726D01*
X0181057Y0073758D01*
X0180998Y0073793D01*
X0180942Y0073832D01*
X0180887Y0073874D01*
X0180836Y0073919D01*
X0180786Y0073967D01*
X0180740Y0074017D01*
X0180697Y0074070D01*
X0180656Y0074126D01*
X0180619Y0074183D01*
X0180586Y0074243D01*
X0180555Y0074305D01*
X0180529Y0074368D01*
X0180506Y0074432D01*
X0180486Y0074498D01*
X0180471Y0074565D01*
X0180459Y0074632D01*
X0180451Y0074700D01*
X0180447Y0074769D01*
X0180447Y0074837D01*
X0180451Y0074906D01*
X0180459Y0074974D01*
X0180471Y0075041D01*
X0180486Y0075108D01*
X0180506Y0075174D01*
X0180529Y0075238D01*
X0180555Y0075301D01*
X0180586Y0075363D01*
X0180619Y0075423D01*
X0180656Y0075480D01*
X0180697Y0075536D01*
X0180740Y0075589D01*
X0180786Y0075639D01*
X0180836Y0075687D01*
X0180887Y0075732D01*
X0180942Y0075774D01*
X0180998Y0075813D01*
X0181057Y0075848D01*
X0181118Y0075880D01*
X0181180Y0075908D01*
X0181244Y0075933D01*
X0181309Y0075954D01*
X0181375Y0075972D01*
X0181442Y0075985D01*
X0181510Y0075995D01*
X0181578Y0076001D01*
X0181647Y0076003D01*
X0165112Y0166123D02*
X0165043Y0166125D01*
X0164975Y0166131D01*
X0164907Y0166141D01*
X0164840Y0166154D01*
X0164774Y0166172D01*
X0164709Y0166193D01*
X0164645Y0166218D01*
X0164583Y0166246D01*
X0164522Y0166278D01*
X0164463Y0166313D01*
X0164407Y0166352D01*
X0164352Y0166394D01*
X0164301Y0166439D01*
X0164251Y0166487D01*
X0164205Y0166537D01*
X0164162Y0166590D01*
X0164121Y0166646D01*
X0164084Y0166703D01*
X0164051Y0166763D01*
X0164020Y0166825D01*
X0163994Y0166888D01*
X0163971Y0166952D01*
X0163951Y0167018D01*
X0163936Y0167085D01*
X0163924Y0167152D01*
X0163916Y0167220D01*
X0163912Y0167289D01*
X0163912Y0167357D01*
X0163916Y0167426D01*
X0163924Y0167494D01*
X0163936Y0167561D01*
X0163951Y0167628D01*
X0163971Y0167694D01*
X0163994Y0167758D01*
X0164020Y0167821D01*
X0164051Y0167883D01*
X0164084Y0167943D01*
X0164121Y0168000D01*
X0164162Y0168056D01*
X0164205Y0168109D01*
X0164251Y0168159D01*
X0164301Y0168207D01*
X0164352Y0168252D01*
X0164407Y0168294D01*
X0164463Y0168333D01*
X0164522Y0168368D01*
X0164583Y0168400D01*
X0164645Y0168428D01*
X0164709Y0168453D01*
X0164774Y0168474D01*
X0164840Y0168492D01*
X0164907Y0168505D01*
X0164975Y0168515D01*
X0165043Y0168521D01*
X0165112Y0168523D01*
D11*
X0173241Y0168430D02*
X0175061Y0168430D01*
X0175667Y0169037D01*
X0175667Y0170250D01*
X0175061Y0170857D01*
X0173241Y0170857D01*
X0173241Y0167217D01*
X0174454Y0168430D02*
X0175667Y0167217D01*
X0176866Y0167217D02*
X0179292Y0167217D01*
X0178079Y0167217D02*
X0178079Y0170857D01*
X0176866Y0169644D01*
X0180491Y0169644D02*
X0180491Y0170250D01*
X0181098Y0170857D01*
X0182311Y0170857D01*
X0182918Y0170250D01*
X0182918Y0169644D01*
X0182311Y0169037D01*
X0181098Y0169037D01*
X0180491Y0169644D01*
X0181098Y0169037D02*
X0180491Y0168430D01*
X0180491Y0167824D01*
X0181098Y0167217D01*
X0182311Y0167217D01*
X0182918Y0167824D01*
X0182918Y0168430D01*
X0182311Y0169037D01*
X0182311Y0159046D02*
X0181098Y0159046D01*
X0180491Y0158439D01*
X0180491Y0157833D01*
X0181098Y0157226D01*
X0182311Y0157226D01*
X0182918Y0156619D01*
X0182918Y0156013D01*
X0182311Y0155406D01*
X0181098Y0155406D01*
X0180491Y0156013D01*
X0180491Y0156619D01*
X0181098Y0157226D01*
X0182311Y0157226D02*
X0182918Y0157833D01*
X0182918Y0158439D01*
X0182311Y0159046D01*
X0178079Y0159046D02*
X0178079Y0155406D01*
X0176866Y0155406D02*
X0179292Y0155406D01*
X0176866Y0157833D02*
X0178079Y0159046D01*
X0175667Y0158439D02*
X0175061Y0159046D01*
X0173847Y0159046D01*
X0173241Y0158439D01*
X0173241Y0156013D01*
X0173847Y0155406D01*
X0175061Y0155406D01*
X0175667Y0156013D01*
X0162445Y0150172D02*
X0162445Y0149565D01*
X0161838Y0148958D01*
X0162445Y0148352D01*
X0162445Y0147745D01*
X0161838Y0147138D01*
X0160625Y0147138D01*
X0160018Y0147745D01*
X0158820Y0147138D02*
X0156393Y0147138D01*
X0157607Y0147138D02*
X0157607Y0150778D01*
X0156393Y0149565D01*
X0155195Y0150172D02*
X0154588Y0150778D01*
X0153375Y0150778D01*
X0152768Y0150172D01*
X0152768Y0147745D01*
X0153375Y0147138D01*
X0154588Y0147138D01*
X0155195Y0147745D01*
X0160018Y0150172D02*
X0160625Y0150778D01*
X0161838Y0150778D01*
X0162445Y0150172D01*
X0161838Y0148958D02*
X0161232Y0148958D01*
X0161505Y0140680D02*
X0160898Y0140073D01*
X0160898Y0137646D01*
X0161505Y0137040D01*
X0162718Y0137040D01*
X0163325Y0137646D01*
X0164523Y0137646D02*
X0165130Y0137040D01*
X0166343Y0137040D01*
X0166950Y0137646D01*
X0166950Y0140073D01*
X0166343Y0140680D01*
X0165130Y0140680D01*
X0164523Y0140073D01*
X0164523Y0139466D01*
X0165130Y0138860D01*
X0166950Y0138860D01*
X0163325Y0140073D02*
X0162718Y0140680D01*
X0161505Y0140680D01*
X0160917Y0123337D02*
X0159097Y0123337D01*
X0159097Y0119697D01*
X0159097Y0120911D02*
X0160917Y0120911D01*
X0161524Y0121517D01*
X0161524Y0122731D01*
X0160917Y0123337D01*
X0162723Y0122731D02*
X0163329Y0123337D01*
X0164543Y0123337D01*
X0165149Y0122731D01*
X0165149Y0122124D01*
X0162723Y0119697D01*
X0165149Y0119697D01*
X0166348Y0120304D02*
X0168774Y0122731D01*
X0168774Y0120304D01*
X0168168Y0119697D01*
X0166954Y0119697D01*
X0166348Y0120304D01*
X0166348Y0122731D01*
X0166954Y0123337D01*
X0168168Y0123337D01*
X0168774Y0122731D01*
X0173241Y0119282D02*
X0175061Y0119282D01*
X0175667Y0118676D01*
X0175667Y0117462D01*
X0175061Y0116855D01*
X0173241Y0116855D01*
X0173241Y0115642D02*
X0173241Y0119282D01*
X0174454Y0116855D02*
X0175667Y0115642D01*
X0176866Y0117462D02*
X0179292Y0117462D01*
X0180491Y0116249D02*
X0180491Y0115642D01*
X0180491Y0116249D02*
X0182918Y0118676D01*
X0182918Y0119282D01*
X0180491Y0119282D01*
X0178686Y0119282D02*
X0178686Y0115642D01*
X0176866Y0117462D02*
X0178686Y0119282D01*
X0167350Y0115739D02*
X0167350Y0112099D01*
X0167957Y0113919D02*
X0165530Y0113919D01*
X0167350Y0115739D01*
X0163118Y0115739D02*
X0163118Y0112099D01*
X0161905Y0112099D02*
X0164332Y0112099D01*
X0161905Y0114526D02*
X0163118Y0115739D01*
X0160707Y0115132D02*
X0160100Y0115739D01*
X0158887Y0115739D01*
X0158280Y0115132D01*
X0158280Y0112705D01*
X0158887Y0112099D01*
X0160100Y0112099D01*
X0160707Y0112705D01*
X0161524Y0119697D02*
X0160311Y0120911D01*
X0154595Y0098239D02*
X0154595Y0094599D01*
X0155808Y0094599D02*
X0153381Y0094599D01*
X0152183Y0095205D02*
X0152183Y0097632D01*
X0151576Y0098239D01*
X0149756Y0098239D01*
X0149756Y0094599D01*
X0151576Y0094599D01*
X0152183Y0095205D01*
X0153381Y0097026D02*
X0154595Y0098239D01*
X0155638Y0087786D02*
X0154425Y0086573D01*
X0153226Y0087179D02*
X0152620Y0087786D01*
X0151406Y0087786D01*
X0150800Y0087179D01*
X0150800Y0084753D01*
X0151406Y0084146D01*
X0152620Y0084146D01*
X0153226Y0084753D01*
X0154425Y0084146D02*
X0156851Y0084146D01*
X0158050Y0084146D02*
X0160477Y0086573D01*
X0160477Y0087179D01*
X0159870Y0087786D01*
X0158657Y0087786D01*
X0158050Y0087179D01*
X0155638Y0087786D02*
X0155638Y0084146D01*
X0158050Y0084146D02*
X0160477Y0084146D01*
X0149453Y0077156D02*
X0149453Y0076550D01*
X0147026Y0074123D01*
X0147026Y0073516D01*
X0145828Y0073516D02*
X0143401Y0073516D01*
X0144614Y0073516D02*
X0144614Y0077156D01*
X0143401Y0075943D01*
X0142203Y0076550D02*
X0141596Y0077156D01*
X0140383Y0077156D01*
X0139776Y0076550D01*
X0139776Y0074123D01*
X0140383Y0073516D01*
X0141596Y0073516D01*
X0142203Y0074123D01*
X0142926Y0070463D02*
X0142926Y0066823D01*
X0145352Y0066823D01*
X0146551Y0066823D02*
X0148977Y0069250D01*
X0148977Y0069857D01*
X0148371Y0070463D01*
X0147157Y0070463D01*
X0146551Y0069857D01*
X0146551Y0066823D02*
X0148977Y0066823D01*
X0148764Y0065345D02*
X0146944Y0063525D01*
X0149371Y0063525D01*
X0148764Y0061705D02*
X0148764Y0065345D01*
X0145746Y0064739D02*
X0145139Y0065345D01*
X0143926Y0065345D01*
X0143319Y0064739D01*
X0143319Y0062312D01*
X0143926Y0061705D01*
X0145139Y0061705D01*
X0145746Y0062312D01*
X0135198Y0063099D02*
X0134591Y0062493D01*
X0133378Y0062493D01*
X0132771Y0063099D01*
X0131573Y0063099D02*
X0130966Y0062493D01*
X0129753Y0062493D01*
X0129146Y0063099D01*
X0129146Y0065526D01*
X0129753Y0066133D01*
X0130966Y0066133D01*
X0131573Y0065526D01*
X0132771Y0066133D02*
X0132771Y0064313D01*
X0133985Y0064919D01*
X0134591Y0064919D01*
X0135198Y0064313D01*
X0135198Y0063099D01*
X0135198Y0066133D02*
X0132771Y0066133D01*
X0124962Y0065526D02*
X0124962Y0064919D01*
X0124355Y0064313D01*
X0123142Y0064313D01*
X0122535Y0064919D01*
X0122535Y0065526D01*
X0123142Y0066133D01*
X0124355Y0066133D01*
X0124962Y0065526D01*
X0124355Y0064313D02*
X0124962Y0063706D01*
X0124962Y0063099D01*
X0124355Y0062493D01*
X0123142Y0062493D01*
X0122535Y0063099D01*
X0122535Y0063706D01*
X0123142Y0064313D01*
X0121337Y0065526D02*
X0120730Y0066133D01*
X0119517Y0066133D01*
X0118910Y0065526D01*
X0118910Y0063099D01*
X0119517Y0062493D01*
X0120730Y0062493D01*
X0121337Y0063099D01*
X0116776Y0063099D02*
X0116169Y0062493D01*
X0114956Y0062493D01*
X0114349Y0063099D01*
X0116776Y0065526D01*
X0116776Y0063099D01*
X0114349Y0063099D02*
X0114349Y0065526D01*
X0114956Y0066133D01*
X0116169Y0066133D01*
X0116776Y0065526D01*
X0113151Y0062493D02*
X0110724Y0062493D01*
X0111937Y0062493D02*
X0111937Y0066133D01*
X0110724Y0064919D01*
X0109526Y0065526D02*
X0108919Y0066133D01*
X0107705Y0066133D01*
X0107099Y0065526D01*
X0107099Y0063099D01*
X0107705Y0062493D01*
X0108919Y0062493D01*
X0109526Y0063099D01*
X0107544Y0067099D02*
X0106331Y0067099D01*
X0105724Y0067705D01*
X0105724Y0068919D02*
X0106937Y0069526D01*
X0107544Y0069526D01*
X0108151Y0068919D01*
X0108151Y0067705D01*
X0107544Y0067099D01*
X0105724Y0068919D02*
X0105724Y0070739D01*
X0108151Y0070739D01*
X0104526Y0070739D02*
X0104526Y0068312D01*
X0103312Y0067099D01*
X0102099Y0068312D01*
X0102099Y0070739D01*
X0102093Y0077178D02*
X0104519Y0079604D01*
X0104519Y0080211D01*
X0103913Y0080818D01*
X0102699Y0080818D01*
X0102093Y0080211D01*
X0100894Y0080211D02*
X0100288Y0080818D01*
X0099074Y0080818D01*
X0098467Y0080211D01*
X0098467Y0077784D01*
X0099074Y0077178D01*
X0100288Y0077178D01*
X0100894Y0077784D01*
X0102093Y0077178D02*
X0104519Y0077178D01*
X0105718Y0077784D02*
X0106324Y0077178D01*
X0107538Y0077178D01*
X0108144Y0077784D01*
X0108144Y0078391D01*
X0107538Y0078998D01*
X0106931Y0078998D01*
X0107538Y0078998D02*
X0108144Y0079604D01*
X0108144Y0080211D01*
X0107538Y0080818D01*
X0106324Y0080818D01*
X0105718Y0080211D01*
X0101956Y0084507D02*
X0101956Y0085721D01*
X0101350Y0086327D01*
X0101956Y0087526D02*
X0101956Y0089952D01*
X0101956Y0088739D02*
X0098316Y0088739D01*
X0099530Y0087526D01*
X0098923Y0086327D02*
X0098316Y0085721D01*
X0098316Y0084507D01*
X0098923Y0083901D01*
X0101350Y0083901D01*
X0101956Y0084507D01*
X0101350Y0091151D02*
X0101956Y0091758D01*
X0101956Y0092971D01*
X0101350Y0093578D01*
X0100136Y0093578D01*
X0099530Y0092971D01*
X0099530Y0092364D01*
X0100136Y0091151D01*
X0098316Y0091151D01*
X0098316Y0093578D01*
X0102587Y0099894D02*
X0101981Y0100501D01*
X0101981Y0102928D01*
X0102587Y0103534D01*
X0103801Y0103534D01*
X0104407Y0102928D01*
X0105606Y0102321D02*
X0106819Y0103534D01*
X0106819Y0099894D01*
X0105606Y0099894D02*
X0108033Y0099894D01*
X0109231Y0099894D02*
X0111658Y0099894D01*
X0110444Y0099894D02*
X0110444Y0103534D01*
X0109231Y0102321D01*
X0104407Y0100501D02*
X0103801Y0099894D01*
X0102587Y0099894D01*
X0102783Y0114855D02*
X0101570Y0114855D01*
X0100963Y0115461D01*
X0099765Y0114855D02*
X0097338Y0114855D01*
X0096140Y0114855D02*
X0094926Y0116068D01*
X0095533Y0116068D02*
X0093713Y0116068D01*
X0093713Y0114855D02*
X0093713Y0118495D01*
X0095533Y0118495D01*
X0096140Y0117888D01*
X0096140Y0116675D01*
X0095533Y0116068D01*
X0097338Y0117281D02*
X0098551Y0118495D01*
X0098551Y0114855D01*
X0100963Y0117281D02*
X0101570Y0116675D01*
X0103390Y0116675D01*
X0103390Y0117888D02*
X0103390Y0115461D01*
X0102783Y0114855D01*
X0100963Y0117281D02*
X0100963Y0117888D01*
X0101570Y0118495D01*
X0102783Y0118495D01*
X0103390Y0117888D01*
X0090792Y0117888D02*
X0088365Y0115461D01*
X0088365Y0114855D01*
X0087166Y0114855D02*
X0084740Y0114855D01*
X0087166Y0117281D01*
X0087166Y0117888D01*
X0086560Y0118495D01*
X0085346Y0118495D01*
X0084740Y0117888D01*
X0083541Y0117888D02*
X0083541Y0116675D01*
X0082935Y0116068D01*
X0081115Y0116068D01*
X0082328Y0116068D02*
X0083541Y0114855D01*
X0081115Y0114855D02*
X0081115Y0118495D01*
X0082935Y0118495D01*
X0083541Y0117888D01*
X0088365Y0118495D02*
X0090792Y0118495D01*
X0090792Y0117888D01*
X0077406Y0117888D02*
X0077406Y0115461D01*
X0076799Y0114855D01*
X0075586Y0114855D01*
X0074979Y0115461D01*
X0077406Y0117888D01*
X0076799Y0118495D01*
X0075586Y0118495D01*
X0074979Y0117888D01*
X0074979Y0115461D01*
X0073781Y0115461D02*
X0073174Y0114855D01*
X0071961Y0114855D01*
X0071354Y0115461D01*
X0070155Y0114855D02*
X0068942Y0116068D01*
X0069549Y0116068D02*
X0067729Y0116068D01*
X0067729Y0114855D02*
X0067729Y0118495D01*
X0069549Y0118495D01*
X0070155Y0117888D01*
X0070155Y0116675D01*
X0069549Y0116068D01*
X0071354Y0117888D02*
X0071961Y0118495D01*
X0073174Y0118495D01*
X0073781Y0117888D01*
X0073781Y0117281D01*
X0073174Y0116675D01*
X0073781Y0116068D01*
X0073781Y0115461D01*
X0073174Y0116675D02*
X0072567Y0116675D01*
X0051540Y0105172D02*
X0051540Y0102745D01*
X0050933Y0102138D01*
X0049720Y0102138D01*
X0049113Y0102745D01*
X0051540Y0105172D01*
X0050933Y0105778D01*
X0049720Y0105778D01*
X0049113Y0105172D01*
X0049113Y0102745D01*
X0047914Y0102138D02*
X0045488Y0102138D01*
X0046701Y0102138D02*
X0046701Y0105778D01*
X0045488Y0104565D01*
X0044289Y0105172D02*
X0044289Y0102745D01*
X0043683Y0102138D01*
X0041863Y0102138D01*
X0041863Y0105778D01*
X0043683Y0105778D01*
X0044289Y0105172D01*
X0057883Y0093154D02*
X0058490Y0091940D01*
X0059703Y0090727D01*
X0059703Y0092547D01*
X0060310Y0093154D01*
X0060917Y0093154D01*
X0061523Y0092547D01*
X0061523Y0091334D01*
X0060917Y0090727D01*
X0059703Y0090727D01*
X0061523Y0089529D02*
X0061523Y0087102D01*
X0061523Y0085904D02*
X0060310Y0084690D01*
X0060310Y0085297D02*
X0060310Y0083477D01*
X0061523Y0083477D02*
X0057883Y0083477D01*
X0057883Y0085297D01*
X0058490Y0085904D01*
X0059703Y0085904D01*
X0060310Y0085297D01*
X0059096Y0087102D02*
X0057883Y0088315D01*
X0061523Y0088315D01*
X0060969Y0081487D02*
X0059149Y0079667D01*
X0061576Y0079667D01*
X0062774Y0078454D02*
X0062774Y0077847D01*
X0062774Y0078454D02*
X0065201Y0080880D01*
X0065201Y0081487D01*
X0062774Y0081487D01*
X0060969Y0081487D02*
X0060969Y0077847D01*
X0060661Y0077038D02*
X0061875Y0077038D01*
X0062481Y0076431D01*
X0062481Y0075825D01*
X0061875Y0075218D01*
X0062481Y0074611D01*
X0062481Y0074005D01*
X0061875Y0073398D01*
X0060661Y0073398D01*
X0060055Y0074005D01*
X0058856Y0074611D02*
X0058856Y0077038D01*
X0060055Y0076431D02*
X0060661Y0077038D01*
X0061268Y0075218D02*
X0061875Y0075218D01*
X0058856Y0074611D02*
X0057643Y0073398D01*
X0056430Y0074611D01*
X0056430Y0077038D01*
X0056131Y0077847D02*
X0057344Y0077847D01*
X0057951Y0078454D01*
X0056131Y0077847D02*
X0055524Y0078454D01*
X0055524Y0080880D01*
X0056131Y0081487D01*
X0057344Y0081487D01*
X0057951Y0080880D01*
X0065367Y0077944D02*
X0065367Y0074304D01*
X0065367Y0075517D02*
X0067187Y0075517D01*
X0067793Y0076124D01*
X0067793Y0077337D01*
X0067187Y0077944D01*
X0065367Y0077944D01*
X0066580Y0075517D02*
X0067793Y0074304D01*
X0068992Y0074304D02*
X0071418Y0074304D01*
X0072617Y0074304D02*
X0075044Y0076730D01*
X0075044Y0077337D01*
X0074437Y0077944D01*
X0073223Y0077944D01*
X0072617Y0077337D01*
X0070205Y0077944D02*
X0070205Y0074304D01*
X0072617Y0074304D02*
X0075044Y0074304D01*
X0079146Y0074304D02*
X0079146Y0077944D01*
X0080966Y0077944D01*
X0081573Y0077337D01*
X0081573Y0076124D01*
X0080966Y0075517D01*
X0079146Y0075517D01*
X0080359Y0075517D02*
X0081573Y0074304D01*
X0082771Y0074910D02*
X0083378Y0074304D01*
X0084591Y0074304D01*
X0085198Y0074910D01*
X0085198Y0075517D01*
X0084591Y0076124D01*
X0083985Y0076124D01*
X0084591Y0076124D02*
X0085198Y0076730D01*
X0085198Y0077337D01*
X0084591Y0077944D01*
X0083378Y0077944D01*
X0082771Y0077337D01*
X0070205Y0077944D02*
X0068992Y0076730D01*
X0048807Y0069743D02*
X0048200Y0070349D01*
X0047593Y0070349D01*
X0046987Y0069743D01*
X0046987Y0067922D01*
X0048200Y0067922D01*
X0048807Y0068529D01*
X0048807Y0069743D01*
X0046987Y0067922D02*
X0045773Y0069136D01*
X0045167Y0070349D01*
X0045773Y0066724D02*
X0045167Y0066117D01*
X0045167Y0064904D01*
X0045773Y0064297D01*
X0045773Y0063099D02*
X0045167Y0062492D01*
X0045167Y0060672D01*
X0048807Y0060672D01*
X0047593Y0060672D02*
X0047593Y0062492D01*
X0046987Y0063099D01*
X0045773Y0063099D01*
X0047593Y0061886D02*
X0048807Y0063099D01*
X0048200Y0064297D02*
X0048807Y0064904D01*
X0048807Y0066117D01*
X0048200Y0066724D01*
X0047593Y0066724D01*
X0046987Y0066117D01*
X0046987Y0065511D01*
X0046987Y0066117D02*
X0046380Y0066724D01*
X0045773Y0066724D01*
X0040178Y0071292D02*
X0037752Y0071292D01*
X0038965Y0071292D02*
X0038965Y0074932D01*
X0037752Y0073718D01*
X0036553Y0074325D02*
X0035946Y0074932D01*
X0034733Y0074932D01*
X0034126Y0074325D01*
X0034126Y0071898D01*
X0034733Y0071292D01*
X0035946Y0071292D01*
X0036553Y0071898D01*
X0032304Y0071292D02*
X0029877Y0071292D01*
X0032304Y0073718D01*
X0032304Y0074325D01*
X0031698Y0074932D01*
X0030484Y0074932D01*
X0029877Y0074325D01*
X0028679Y0074325D02*
X0028072Y0074932D01*
X0026859Y0074932D01*
X0026252Y0074325D01*
X0026252Y0071898D01*
X0026859Y0071292D01*
X0028072Y0071292D01*
X0028679Y0071898D01*
X0027547Y0068381D02*
X0027547Y0065954D01*
X0025120Y0068381D01*
X0024513Y0068381D01*
X0023907Y0067774D01*
X0023907Y0066561D01*
X0024513Y0065954D01*
X0024513Y0064756D02*
X0025727Y0064756D01*
X0026333Y0064149D01*
X0026333Y0062329D01*
X0026333Y0063542D02*
X0027547Y0064756D01*
X0027547Y0062329D02*
X0023907Y0062329D01*
X0023907Y0064149D01*
X0024513Y0064756D01*
X0026646Y0051703D02*
X0028466Y0051703D01*
X0029073Y0051097D01*
X0029073Y0049883D01*
X0028466Y0049277D01*
X0026646Y0049277D01*
X0027859Y0049277D02*
X0029073Y0048063D01*
X0030271Y0048670D02*
X0030878Y0048063D01*
X0032091Y0048063D01*
X0032698Y0048670D01*
X0032698Y0049277D01*
X0032091Y0049883D01*
X0031485Y0049883D01*
X0032091Y0049883D02*
X0032698Y0050490D01*
X0032698Y0051097D01*
X0032091Y0051703D01*
X0030878Y0051703D01*
X0030271Y0051097D01*
X0033896Y0051703D02*
X0033896Y0049883D01*
X0035110Y0050490D01*
X0035716Y0050490D01*
X0036323Y0049883D01*
X0036323Y0048670D01*
X0035716Y0048063D01*
X0034503Y0048063D01*
X0033896Y0048670D01*
X0033896Y0051703D02*
X0036323Y0051703D01*
X0040419Y0048396D02*
X0042846Y0048396D01*
X0044045Y0047183D02*
X0045258Y0048396D01*
X0045258Y0044756D01*
X0044045Y0044756D02*
X0046471Y0044756D01*
X0041633Y0046576D02*
X0040419Y0046576D01*
X0040419Y0044756D02*
X0040419Y0048396D01*
X0026646Y0048063D02*
X0026646Y0051703D01*
X0011832Y0051703D02*
X0010618Y0051097D01*
X0009405Y0049883D01*
X0011225Y0049883D01*
X0011832Y0049277D01*
X0011832Y0048670D01*
X0011225Y0048063D01*
X0010012Y0048063D01*
X0009405Y0048670D01*
X0009405Y0049883D01*
X0008207Y0048670D02*
X0007600Y0048063D01*
X0006387Y0048063D01*
X0005780Y0048670D01*
X0005780Y0051097D01*
X0006387Y0051703D01*
X0007600Y0051703D01*
X0008207Y0051097D01*
X0005011Y0064185D02*
X0002584Y0064185D01*
X0001978Y0064792D01*
X0001978Y0066005D01*
X0002584Y0066612D01*
X0001978Y0067811D02*
X0001978Y0070237D01*
X0002584Y0070237D01*
X0005011Y0067811D01*
X0005618Y0067811D01*
X0005011Y0066612D02*
X0005618Y0066005D01*
X0005618Y0064792D01*
X0005011Y0064185D01*
X0004655Y0073970D02*
X0001015Y0073970D01*
X0004655Y0076396D01*
X0001015Y0076396D01*
X0002228Y0077595D02*
X0001015Y0078808D01*
X0004655Y0078808D01*
X0004655Y0077595D02*
X0004655Y0080022D01*
X0021049Y0078890D02*
X0023476Y0078890D01*
X0024674Y0078890D02*
X0027101Y0078890D01*
X0025888Y0078890D02*
X0025888Y0082530D01*
X0024674Y0081317D01*
X0021049Y0082530D02*
X0021049Y0078890D01*
X0030721Y0082965D02*
X0030721Y0086605D01*
X0032541Y0086605D01*
X0033148Y0085998D01*
X0033148Y0084785D01*
X0032541Y0084178D01*
X0030721Y0084178D01*
X0031934Y0084178D02*
X0033148Y0082965D01*
X0034346Y0082965D02*
X0036773Y0082965D01*
X0035559Y0082965D02*
X0035559Y0086605D01*
X0034346Y0085392D01*
X0014487Y0121804D02*
X0014487Y0125444D01*
X0012667Y0123624D01*
X0015093Y0123624D01*
X0011468Y0125444D02*
X0009041Y0121804D01*
X0011468Y0121804D02*
X0009041Y0125444D01*
X0022959Y0124028D02*
X0025386Y0124028D01*
X0026584Y0124635D02*
X0027191Y0124028D01*
X0028404Y0124028D01*
X0029011Y0124635D01*
X0029011Y0125241D01*
X0028404Y0125848D01*
X0027797Y0125848D01*
X0028404Y0125848D02*
X0029011Y0126455D01*
X0029011Y0127061D01*
X0028404Y0127668D01*
X0027191Y0127668D01*
X0026584Y0127061D01*
X0022959Y0127668D02*
X0022959Y0124028D01*
X0026390Y0151863D02*
X0026390Y0155503D01*
X0028210Y0155503D01*
X0028817Y0154896D01*
X0028817Y0153683D01*
X0028210Y0153076D01*
X0026390Y0153076D01*
X0027604Y0153076D02*
X0028817Y0151863D01*
X0030015Y0151863D02*
X0030015Y0152469D01*
X0032442Y0154896D01*
X0032442Y0155503D01*
X0030015Y0155503D01*
X0030146Y0178930D02*
X0030146Y0182570D01*
X0028933Y0181356D01*
X0027734Y0181356D02*
X0027734Y0178930D01*
X0028933Y0178930D02*
X0031359Y0178930D01*
X0027734Y0180750D02*
X0025307Y0180750D01*
X0025307Y0181356D02*
X0025307Y0178930D01*
X0025307Y0181356D02*
X0026521Y0182570D01*
X0027734Y0181356D01*
X0087414Y0190839D02*
X0087414Y0194479D01*
X0089234Y0194479D01*
X0089841Y0193872D01*
X0089841Y0192659D01*
X0089234Y0192052D01*
X0087414Y0192052D01*
X0088627Y0192052D02*
X0089841Y0190839D01*
X0091039Y0190839D02*
X0093466Y0193266D01*
X0093466Y0193872D01*
X0092859Y0194479D01*
X0091646Y0194479D01*
X0091039Y0193872D01*
X0091039Y0190839D02*
X0093466Y0190839D01*
X0094664Y0190839D02*
X0097091Y0193266D01*
X0097091Y0193872D01*
X0096484Y0194479D01*
X0095271Y0194479D01*
X0094664Y0193872D01*
X0094664Y0190839D02*
X0097091Y0190839D01*
X0111823Y0189361D02*
X0111823Y0185721D01*
X0111823Y0186934D02*
X0113643Y0186934D01*
X0114250Y0187541D01*
X0114250Y0188754D01*
X0113643Y0189361D01*
X0111823Y0189361D01*
X0115448Y0187541D02*
X0117268Y0187541D01*
X0117875Y0186934D01*
X0117875Y0186328D01*
X0117268Y0185721D01*
X0116055Y0185721D01*
X0115448Y0186328D01*
X0115448Y0187541D01*
X0116662Y0188754D01*
X0117875Y0189361D01*
X0114250Y0185721D02*
X0113037Y0186934D01*
X0120226Y0180480D02*
X0120226Y0179267D01*
X0120832Y0178660D01*
X0121439Y0178660D01*
X0122046Y0179267D01*
X0122046Y0180480D01*
X0122652Y0181087D01*
X0123259Y0181087D01*
X0123866Y0180480D01*
X0123866Y0179267D01*
X0123259Y0178660D01*
X0122046Y0177462D02*
X0122652Y0176855D01*
X0122652Y0175035D01*
X0123866Y0175035D02*
X0120226Y0175035D01*
X0120226Y0176855D01*
X0120832Y0177462D01*
X0122046Y0177462D01*
X0120226Y0180480D02*
X0120832Y0181087D01*
X0126131Y0180480D02*
X0126131Y0178660D01*
X0129771Y0178660D01*
X0129771Y0177462D02*
X0128558Y0176248D01*
X0128558Y0176855D02*
X0128558Y0175035D01*
X0129771Y0175035D02*
X0126131Y0175035D01*
X0126131Y0176855D01*
X0126738Y0177462D01*
X0127951Y0177462D01*
X0128558Y0176855D01*
X0128558Y0178660D02*
X0128558Y0180480D01*
X0127951Y0181087D01*
X0126738Y0181087D01*
X0126131Y0180480D01*
X0128558Y0179873D02*
X0129771Y0181087D01*
X0132037Y0181087D02*
X0135677Y0181087D01*
X0132037Y0178660D01*
X0135677Y0178660D01*
X0135070Y0177462D02*
X0135677Y0176855D01*
X0135677Y0175642D01*
X0135070Y0175035D01*
X0132037Y0175035D01*
X0132643Y0173837D02*
X0133857Y0173837D01*
X0134463Y0173230D01*
X0134463Y0171410D01*
X0134463Y0172623D02*
X0135677Y0173837D01*
X0137942Y0173230D02*
X0137942Y0171410D01*
X0141582Y0171410D01*
X0140369Y0171410D02*
X0140369Y0173230D01*
X0139762Y0173837D01*
X0138549Y0173837D01*
X0137942Y0173230D01*
X0137942Y0175035D02*
X0141582Y0175035D01*
X0140369Y0176248D01*
X0141582Y0177462D01*
X0137942Y0177462D01*
X0137942Y0178660D02*
X0137942Y0180480D01*
X0138549Y0181087D01*
X0139762Y0181087D01*
X0140369Y0180480D01*
X0140369Y0178660D01*
X0141582Y0178660D02*
X0137942Y0178660D01*
X0140369Y0179873D02*
X0141582Y0181087D01*
X0135070Y0177462D02*
X0132037Y0177462D01*
X0132643Y0173837D02*
X0132037Y0173230D01*
X0132037Y0171410D01*
X0135677Y0171410D01*
X0129771Y0171410D02*
X0129771Y0173837D01*
X0127951Y0172623D02*
X0127951Y0171410D01*
X0126131Y0171410D02*
X0126131Y0173837D01*
X0126131Y0171410D02*
X0129771Y0171410D01*
X0123866Y0171410D02*
X0120226Y0171410D01*
X0120226Y0173230D01*
X0120832Y0173837D01*
X0122046Y0173837D01*
X0122652Y0173230D01*
X0122652Y0171410D01*
X0118271Y0166940D02*
X0115844Y0166940D01*
X0115844Y0165120D01*
X0117058Y0165726D01*
X0117664Y0165726D01*
X0118271Y0165120D01*
X0118271Y0163906D01*
X0117664Y0163300D01*
X0116451Y0163300D01*
X0115844Y0163906D01*
X0114646Y0163906D02*
X0114646Y0166333D01*
X0114039Y0166940D01*
X0112219Y0166940D01*
X0112219Y0163300D01*
X0114039Y0163300D01*
X0114646Y0163906D01*
X0114431Y0153928D02*
X0113217Y0153928D01*
X0112611Y0153321D01*
X0112611Y0150894D01*
X0113217Y0150288D01*
X0114431Y0150288D01*
X0115037Y0150894D01*
X0116236Y0150288D02*
X0118662Y0150288D01*
X0117449Y0150288D02*
X0117449Y0153928D01*
X0116236Y0152715D01*
X0115037Y0153321D02*
X0114431Y0153928D01*
X0119861Y0153321D02*
X0119861Y0152715D01*
X0120468Y0152108D01*
X0122288Y0152108D01*
X0122288Y0153321D02*
X0122288Y0150894D01*
X0121681Y0150288D01*
X0120468Y0150288D01*
X0119861Y0150894D01*
X0119861Y0153321D02*
X0120468Y0153928D01*
X0121681Y0153928D01*
X0122288Y0153321D01*
X0109689Y0140542D02*
X0108476Y0139935D01*
X0107262Y0138722D01*
X0109083Y0138722D01*
X0109689Y0138115D01*
X0109689Y0137509D01*
X0109083Y0136902D01*
X0107869Y0136902D01*
X0107262Y0137509D01*
X0107262Y0138722D01*
X0106064Y0136902D02*
X0103637Y0136902D01*
X0104851Y0136902D02*
X0104851Y0140542D01*
X0103637Y0139329D01*
X0102439Y0139935D02*
X0101832Y0140542D01*
X0100619Y0140542D01*
X0100012Y0139935D01*
X0100012Y0137509D01*
X0100619Y0136902D01*
X0101832Y0136902D01*
X0102439Y0137509D01*
X0096222Y0139083D02*
X0095615Y0138477D01*
X0094402Y0138477D01*
X0093795Y0139083D01*
X0093795Y0139690D01*
X0094402Y0140297D01*
X0095615Y0140297D01*
X0096222Y0139690D01*
X0096222Y0139083D01*
X0095615Y0140297D02*
X0096222Y0140904D01*
X0096222Y0141510D01*
X0095615Y0142117D01*
X0094402Y0142117D01*
X0093795Y0141510D01*
X0093795Y0140904D01*
X0094402Y0140297D01*
X0092596Y0140297D02*
X0091990Y0139690D01*
X0090170Y0139690D01*
X0091383Y0139690D02*
X0092596Y0138477D01*
X0092596Y0140297D02*
X0092596Y0141510D01*
X0091990Y0142117D01*
X0090170Y0142117D01*
X0090170Y0138477D01*
X0090776Y0169973D02*
X0091990Y0169973D01*
X0092596Y0170580D01*
X0093795Y0170580D02*
X0094402Y0169973D01*
X0095615Y0169973D01*
X0096222Y0170580D01*
X0096222Y0171186D01*
X0095615Y0171793D01*
X0095008Y0171793D01*
X0095615Y0171793D02*
X0096222Y0172400D01*
X0096222Y0173006D01*
X0095615Y0173613D01*
X0094402Y0173613D01*
X0093795Y0173006D01*
X0092596Y0173006D02*
X0091990Y0173613D01*
X0090776Y0173613D01*
X0090170Y0173006D01*
X0090170Y0170580D01*
X0090776Y0169973D01*
X0158310Y0185445D02*
X0158310Y0189085D01*
X0160130Y0189085D01*
X0160737Y0188479D01*
X0160737Y0187265D01*
X0160130Y0186659D01*
X0158310Y0186659D01*
X0159523Y0186659D02*
X0160737Y0185445D01*
X0161935Y0185445D02*
X0164362Y0187872D01*
X0164362Y0188479D01*
X0163755Y0189085D01*
X0162542Y0189085D01*
X0161935Y0188479D01*
X0161935Y0185445D02*
X0164362Y0185445D01*
X0165560Y0186052D02*
X0166167Y0185445D01*
X0167380Y0185445D01*
X0167987Y0186052D01*
X0167987Y0186659D01*
X0167380Y0187265D01*
X0165560Y0187265D01*
X0165560Y0186052D01*
X0165560Y0187265D02*
X0166774Y0188479D01*
X0167987Y0189085D01*
X0167380Y0191351D02*
X0166167Y0191351D01*
X0165560Y0191957D01*
X0164362Y0191351D02*
X0161935Y0191351D01*
X0164362Y0193778D01*
X0164362Y0194384D01*
X0163755Y0194991D01*
X0162542Y0194991D01*
X0161935Y0194384D01*
X0160737Y0194384D02*
X0160737Y0193171D01*
X0160130Y0192564D01*
X0158310Y0192564D01*
X0158310Y0191351D02*
X0158310Y0194991D01*
X0160130Y0194991D01*
X0160737Y0194384D01*
X0159523Y0192564D02*
X0160737Y0191351D01*
X0165560Y0194384D02*
X0166167Y0194991D01*
X0167380Y0194991D01*
X0167987Y0194384D01*
X0167987Y0193778D01*
X0167380Y0193171D01*
X0167987Y0192564D01*
X0167987Y0191957D01*
X0167380Y0191351D01*
X0167380Y0193171D02*
X0166774Y0193171D01*
X0171666Y0098416D02*
X0173486Y0098416D01*
X0174092Y0097809D01*
X0174092Y0096596D01*
X0173486Y0095989D01*
X0171666Y0095989D01*
X0171666Y0094776D02*
X0171666Y0098416D01*
X0172879Y0095989D02*
X0174092Y0094776D01*
X0175291Y0096596D02*
X0177718Y0096596D01*
X0178916Y0097809D02*
X0179523Y0098416D01*
X0180736Y0098416D01*
X0181343Y0097809D01*
X0181343Y0097203D01*
X0178916Y0094776D01*
X0181343Y0094776D01*
X0177111Y0094776D02*
X0177111Y0098416D01*
X0175291Y0096596D01*
X0183901Y0081605D02*
X0185721Y0081605D01*
X0186327Y0080998D01*
X0186327Y0079785D01*
X0185721Y0079178D01*
X0183901Y0079178D01*
X0185114Y0079178D02*
X0186327Y0077965D01*
X0187526Y0078572D02*
X0188132Y0077965D01*
X0189346Y0077965D01*
X0189952Y0078572D01*
X0189952Y0079785D01*
X0189346Y0080392D01*
X0188739Y0080392D01*
X0187526Y0079785D01*
X0187526Y0081605D01*
X0189952Y0081605D01*
X0191151Y0080998D02*
X0191151Y0080392D01*
X0191758Y0079785D01*
X0193578Y0079785D01*
X0193578Y0078572D02*
X0193578Y0080998D01*
X0192971Y0081605D01*
X0191758Y0081605D01*
X0191151Y0080998D01*
X0191151Y0078572D02*
X0191758Y0077965D01*
X0192971Y0077965D01*
X0193578Y0078572D01*
X0194090Y0072038D02*
X0193483Y0071431D01*
X0193483Y0070825D01*
X0194090Y0070218D01*
X0195910Y0070218D01*
X0195910Y0069005D02*
X0195910Y0071431D01*
X0195303Y0072038D01*
X0194090Y0072038D01*
X0191678Y0072038D02*
X0191678Y0068398D01*
X0193483Y0069005D02*
X0194090Y0068398D01*
X0195303Y0068398D01*
X0195910Y0069005D01*
X0192285Y0070218D02*
X0189858Y0070218D01*
X0191678Y0072038D01*
X0188659Y0071431D02*
X0188053Y0072038D01*
X0186839Y0072038D01*
X0186233Y0071431D01*
X0186233Y0069005D01*
X0186839Y0068398D01*
X0188053Y0068398D01*
X0188659Y0069005D01*
X0183901Y0077965D02*
X0183901Y0081605D01*
X0183191Y0056034D02*
X0181370Y0056034D01*
X0181370Y0052394D01*
X0181370Y0053607D02*
X0183191Y0053607D01*
X0183797Y0054214D01*
X0183797Y0055428D01*
X0183191Y0056034D01*
X0184996Y0056034D02*
X0184996Y0054214D01*
X0186209Y0054821D01*
X0186816Y0054821D01*
X0187422Y0054214D01*
X0187422Y0053001D01*
X0186816Y0052394D01*
X0185602Y0052394D01*
X0184996Y0053001D01*
X0183797Y0052394D02*
X0182584Y0053607D01*
X0184996Y0056034D02*
X0187422Y0056034D01*
X0188621Y0055428D02*
X0188621Y0054821D01*
X0189227Y0054214D01*
X0190441Y0054214D01*
X0191047Y0053607D01*
X0191047Y0053001D01*
X0190441Y0052394D01*
X0189227Y0052394D01*
X0188621Y0053001D01*
X0188621Y0053607D01*
X0189227Y0054214D01*
X0190441Y0054214D02*
X0191047Y0054821D01*
X0191047Y0055428D01*
X0190441Y0056034D01*
X0189227Y0056034D01*
X0188621Y0055428D01*
X0175342Y0032156D02*
X0174129Y0032156D01*
X0173522Y0031550D01*
X0172324Y0031550D02*
X0172324Y0030943D01*
X0169897Y0028516D01*
X0172324Y0028516D01*
X0173522Y0029123D02*
X0174129Y0028516D01*
X0175342Y0028516D01*
X0175949Y0029123D01*
X0175949Y0029730D01*
X0175342Y0030336D01*
X0174736Y0030336D01*
X0175342Y0030336D02*
X0175949Y0030943D01*
X0175949Y0031550D01*
X0175342Y0032156D01*
X0172324Y0031550D02*
X0171717Y0032156D01*
X0170504Y0032156D01*
X0169897Y0031550D01*
X0168699Y0032156D02*
X0168699Y0029730D01*
X0167485Y0028516D01*
X0166272Y0029730D01*
X0166272Y0032156D01*
X0151307Y0036482D02*
X0147667Y0036482D01*
X0147667Y0038302D01*
X0148273Y0038909D01*
X0149487Y0038909D01*
X0150093Y0038302D01*
X0150093Y0036482D01*
X0150093Y0037696D02*
X0151307Y0038909D01*
X0150700Y0040108D02*
X0151307Y0040714D01*
X0151307Y0041928D01*
X0150700Y0042534D01*
X0149487Y0042534D01*
X0148880Y0041928D01*
X0148880Y0041321D01*
X0149487Y0040108D01*
X0147667Y0040108D01*
X0147667Y0042534D01*
X0136389Y0075633D02*
X0133962Y0075633D01*
X0133356Y0076240D01*
X0133356Y0077453D01*
X0133962Y0078060D01*
X0133962Y0079258D02*
X0133356Y0079865D01*
X0133356Y0081078D01*
X0133962Y0081685D01*
X0134569Y0081685D01*
X0136996Y0079258D01*
X0136996Y0081685D01*
X0135176Y0082883D02*
X0135176Y0085310D01*
X0136996Y0084703D02*
X0133356Y0084703D01*
X0135176Y0082883D01*
X0132816Y0088103D02*
X0130389Y0088103D01*
X0131603Y0088103D02*
X0131603Y0091743D01*
X0130389Y0090529D01*
X0129191Y0089923D02*
X0127978Y0089923D01*
X0129191Y0089923D02*
X0129191Y0088709D01*
X0128584Y0088103D01*
X0127371Y0088103D01*
X0126764Y0088709D01*
X0126764Y0091136D01*
X0127371Y0091743D01*
X0128584Y0091743D01*
X0129191Y0091136D01*
X0136389Y0078060D02*
X0136996Y0077453D01*
X0136996Y0076240D01*
X0136389Y0075633D01*
X0147026Y0077156D02*
X0149453Y0077156D01*
X0091189Y0042046D02*
X0090582Y0042046D01*
X0088155Y0044473D01*
X0087548Y0044473D01*
X0087548Y0042046D01*
X0088155Y0040848D02*
X0087548Y0040241D01*
X0087548Y0039027D01*
X0088155Y0038421D01*
X0087548Y0037222D02*
X0089975Y0037222D01*
X0091189Y0036009D01*
X0089975Y0034796D01*
X0087548Y0034796D01*
X0091189Y0038421D02*
X0088762Y0040848D01*
X0088155Y0040848D01*
X0091189Y0040848D02*
X0091189Y0038421D01*
X0064276Y0034168D02*
X0064276Y0033561D01*
X0063669Y0032954D01*
X0064276Y0032348D01*
X0064276Y0031741D01*
X0063669Y0031134D01*
X0062456Y0031134D01*
X0061849Y0031741D01*
X0060651Y0031741D02*
X0060044Y0031134D01*
X0058831Y0031134D01*
X0058224Y0031741D01*
X0057026Y0031741D02*
X0056419Y0031134D01*
X0055205Y0031134D01*
X0054599Y0031741D01*
X0054599Y0034168D01*
X0055205Y0034774D01*
X0056419Y0034774D01*
X0057026Y0034168D01*
X0058224Y0034774D02*
X0058224Y0032954D01*
X0059437Y0033561D01*
X0060044Y0033561D01*
X0060651Y0032954D01*
X0060651Y0031741D01*
X0063062Y0032954D02*
X0063669Y0032954D01*
X0064276Y0034168D02*
X0063669Y0034774D01*
X0062456Y0034774D01*
X0061849Y0034168D01*
X0060651Y0034774D02*
X0058224Y0034774D01*
X0068103Y0005680D02*
X0070529Y0002040D01*
X0071728Y0002040D02*
X0074155Y0002040D01*
X0072941Y0002040D02*
X0072941Y0005680D01*
X0071728Y0004466D01*
X0070529Y0005680D02*
X0068103Y0002040D01*
X0081945Y0001733D02*
X0084372Y0005373D01*
X0085570Y0004766D02*
X0086177Y0005373D01*
X0087390Y0005373D01*
X0087997Y0004766D01*
X0087997Y0004159D01*
X0085570Y0001733D01*
X0087997Y0001733D01*
X0084372Y0001733D02*
X0081945Y0005373D01*
D12*
X0089957Y0001280D02*
X0089957Y0026280D01*
X0172957Y0026280D01*
X0172957Y0001280D01*
X0089957Y0001280D01*
X0094457Y0001780D02*
X0094457Y0008780D01*
X0098457Y0008780D02*
X0098457Y0001780D01*
X0104457Y0001780D02*
X0104457Y0008780D01*
X0108457Y0008780D02*
X0108457Y0001780D01*
X0114457Y0001780D02*
X0114457Y0008780D01*
X0118457Y0008780D02*
X0118457Y0001780D01*
X0124457Y0001780D02*
X0124457Y0008780D01*
X0128457Y0008780D02*
X0128457Y0001780D01*
X0134457Y0001780D02*
X0134457Y0008780D01*
X0138457Y0008780D02*
X0138457Y0001780D01*
X0144457Y0001780D02*
X0144457Y0008780D01*
X0148457Y0008780D02*
X0148457Y0001780D01*
X0154457Y0001780D02*
X0154457Y0008780D01*
X0158457Y0008780D02*
X0158457Y0001780D01*
X0164457Y0001780D02*
X0164457Y0008780D01*
X0168457Y0008780D02*
X0168457Y0001780D01*
X0146063Y0032677D02*
X0146063Y0046063D01*
X0148669Y0050650D02*
X0142669Y0050650D01*
X0142669Y0055650D02*
X0148669Y0055650D01*
X0148169Y0056949D02*
X0143169Y0056949D01*
X0143169Y0061161D02*
X0148169Y0061161D01*
X0152512Y0066398D02*
X0158512Y0066398D01*
X0158512Y0071398D02*
X0152512Y0071398D01*
X0153012Y0072697D02*
X0158012Y0072697D01*
X0158012Y0076909D02*
X0153012Y0076909D01*
X0153012Y0078602D02*
X0158012Y0078602D01*
X0158012Y0082815D02*
X0153012Y0082815D01*
X0151181Y0099961D02*
X0151181Y0139331D01*
X0111811Y0139331D01*
X0111811Y0103898D01*
X0115748Y0099961D01*
X0151181Y0099961D01*
X0161280Y0106555D02*
X0166280Y0106555D01*
X0166280Y0110768D02*
X0161280Y0110768D01*
X0174165Y0109705D02*
X0180165Y0109705D01*
X0180165Y0114705D02*
X0174165Y0114705D01*
X0174165Y0104862D02*
X0180165Y0104862D01*
X0180165Y0099862D02*
X0174165Y0099862D01*
X0178547Y0090303D02*
X0181047Y0091303D01*
X0181047Y0089303D02*
X0178547Y0090303D01*
X0178429Y0078303D02*
X0178431Y0078369D01*
X0178437Y0078435D01*
X0178447Y0078501D01*
X0178460Y0078566D01*
X0178478Y0078630D01*
X0178499Y0078692D01*
X0178524Y0078754D01*
X0178552Y0078814D01*
X0178584Y0078872D01*
X0178620Y0078928D01*
X0178658Y0078981D01*
X0178700Y0079033D01*
X0178745Y0079082D01*
X0178792Y0079128D01*
X0178843Y0079171D01*
X0178895Y0079211D01*
X0178950Y0079248D01*
X0179007Y0079282D01*
X0179066Y0079312D01*
X0179127Y0079339D01*
X0179189Y0079362D01*
X0179252Y0079381D01*
X0179317Y0079397D01*
X0179382Y0079409D01*
X0179448Y0079417D01*
X0179514Y0079421D01*
X0179580Y0079421D01*
X0179646Y0079417D01*
X0179712Y0079409D01*
X0179777Y0079397D01*
X0179842Y0079381D01*
X0179905Y0079362D01*
X0179967Y0079339D01*
X0180028Y0079312D01*
X0180087Y0079282D01*
X0180144Y0079248D01*
X0180199Y0079211D01*
X0180251Y0079171D01*
X0180302Y0079128D01*
X0180349Y0079082D01*
X0180394Y0079033D01*
X0180436Y0078981D01*
X0180474Y0078928D01*
X0180510Y0078872D01*
X0180542Y0078814D01*
X0180570Y0078754D01*
X0180595Y0078692D01*
X0180616Y0078630D01*
X0180634Y0078566D01*
X0180647Y0078501D01*
X0180657Y0078435D01*
X0180663Y0078369D01*
X0180665Y0078303D01*
X0180663Y0078237D01*
X0180657Y0078171D01*
X0180647Y0078105D01*
X0180634Y0078040D01*
X0180616Y0077976D01*
X0180595Y0077914D01*
X0180570Y0077852D01*
X0180542Y0077792D01*
X0180510Y0077734D01*
X0180474Y0077678D01*
X0180436Y0077625D01*
X0180394Y0077573D01*
X0180349Y0077524D01*
X0180302Y0077478D01*
X0180251Y0077435D01*
X0180199Y0077395D01*
X0180144Y0077358D01*
X0180087Y0077324D01*
X0180028Y0077294D01*
X0179967Y0077267D01*
X0179905Y0077244D01*
X0179842Y0077225D01*
X0179777Y0077209D01*
X0179712Y0077197D01*
X0179646Y0077189D01*
X0179580Y0077185D01*
X0179514Y0077185D01*
X0179448Y0077189D01*
X0179382Y0077197D01*
X0179317Y0077209D01*
X0179252Y0077225D01*
X0179189Y0077244D01*
X0179127Y0077267D01*
X0179066Y0077294D01*
X0179007Y0077324D01*
X0178950Y0077358D01*
X0178895Y0077395D01*
X0178843Y0077435D01*
X0178792Y0077478D01*
X0178745Y0077524D01*
X0178700Y0077573D01*
X0178658Y0077625D01*
X0178620Y0077678D01*
X0178584Y0077734D01*
X0178552Y0077792D01*
X0178524Y0077852D01*
X0178499Y0077914D01*
X0178478Y0077976D01*
X0178460Y0078040D01*
X0178447Y0078105D01*
X0178437Y0078171D01*
X0178431Y0078237D01*
X0178429Y0078303D01*
X0185976Y0077303D02*
X0191976Y0077303D01*
X0191976Y0072303D02*
X0185976Y0072303D01*
X0186083Y0067854D02*
X0191083Y0067854D01*
X0191083Y0063642D02*
X0186083Y0063642D01*
X0177953Y0058661D02*
X0164567Y0058661D01*
X0164567Y0050000D02*
X0177953Y0050000D01*
X0137402Y0046063D02*
X0137402Y0032677D01*
X0136220Y0032677D02*
X0136220Y0046063D01*
X0135283Y0050650D02*
X0129283Y0050650D01*
X0125047Y0050650D02*
X0119047Y0050650D01*
X0117717Y0046063D02*
X0117717Y0032677D01*
X0116535Y0032677D02*
X0116535Y0046063D01*
X0113236Y0050650D02*
X0107236Y0050650D01*
X0107874Y0046063D02*
X0107874Y0032677D01*
X0104331Y0034646D02*
X0092520Y0034646D01*
X0092520Y0038189D01*
X0093701Y0038189D01*
X0093701Y0040551D01*
X0092520Y0040551D01*
X0092520Y0044488D01*
X0104331Y0044488D01*
X0104331Y0034646D01*
X0096063Y0029528D02*
X0093701Y0028346D01*
X0093701Y0030709D02*
X0096063Y0029528D01*
X0097488Y0050650D02*
X0091488Y0050650D01*
X0091488Y0055650D02*
X0097488Y0055650D01*
X0107236Y0055650D02*
X0113236Y0055650D01*
X0112736Y0056949D02*
X0107736Y0056949D01*
X0107736Y0061161D02*
X0112736Y0061161D01*
X0119547Y0061161D02*
X0124547Y0061161D01*
X0124547Y0056949D02*
X0119547Y0056949D01*
X0119047Y0055650D02*
X0125047Y0055650D01*
X0129283Y0055650D02*
X0135283Y0055650D01*
X0134783Y0056949D02*
X0129783Y0056949D01*
X0129783Y0061161D02*
X0134783Y0061161D01*
X0127559Y0046063D02*
X0127559Y0032677D01*
X0126378Y0032677D02*
X0126378Y0046063D01*
X0127815Y0078209D02*
X0127815Y0083209D01*
X0132028Y0083209D02*
X0132028Y0078209D01*
X0117323Y0080709D02*
X0111811Y0080709D01*
X0109193Y0084508D02*
X0109193Y0089508D01*
X0104980Y0089508D02*
X0104980Y0084508D01*
X0115748Y0089134D02*
X0119685Y0091102D01*
X0115748Y0093071D01*
X0117323Y0090157D02*
X0117323Y0080709D01*
X0108799Y0094350D02*
X0103799Y0094350D01*
X0103799Y0098563D02*
X0108799Y0098563D01*
X0111811Y0099961D02*
X0111811Y0103898D01*
X0111811Y0099961D02*
X0115748Y0099961D01*
X0115684Y0102717D02*
X0115686Y0102787D01*
X0115692Y0102858D01*
X0115702Y0102927D01*
X0115716Y0102996D01*
X0115734Y0103065D01*
X0115755Y0103132D01*
X0115780Y0103198D01*
X0115809Y0103262D01*
X0115842Y0103324D01*
X0115878Y0103385D01*
X0115918Y0103443D01*
X0115960Y0103499D01*
X0116006Y0103553D01*
X0116055Y0103604D01*
X0116106Y0103652D01*
X0116161Y0103697D01*
X0116217Y0103739D01*
X0116276Y0103777D01*
X0116337Y0103812D01*
X0116400Y0103844D01*
X0116465Y0103872D01*
X0116531Y0103897D01*
X0116598Y0103917D01*
X0116667Y0103934D01*
X0116736Y0103947D01*
X0116806Y0103956D01*
X0116876Y0103961D01*
X0116947Y0103962D01*
X0117017Y0103959D01*
X0117087Y0103952D01*
X0117157Y0103941D01*
X0117226Y0103926D01*
X0117294Y0103907D01*
X0117360Y0103885D01*
X0117426Y0103859D01*
X0117490Y0103829D01*
X0117552Y0103795D01*
X0117612Y0103758D01*
X0117669Y0103718D01*
X0117725Y0103674D01*
X0117778Y0103628D01*
X0117828Y0103578D01*
X0117875Y0103526D01*
X0117919Y0103471D01*
X0117960Y0103414D01*
X0117998Y0103355D01*
X0118033Y0103293D01*
X0118063Y0103230D01*
X0118091Y0103165D01*
X0118114Y0103098D01*
X0118134Y0103031D01*
X0118150Y0102962D01*
X0118162Y0102893D01*
X0118170Y0102823D01*
X0118174Y0102752D01*
X0118174Y0102682D01*
X0118170Y0102611D01*
X0118162Y0102541D01*
X0118150Y0102472D01*
X0118134Y0102403D01*
X0118114Y0102336D01*
X0118091Y0102269D01*
X0118063Y0102204D01*
X0118033Y0102141D01*
X0117998Y0102079D01*
X0117960Y0102020D01*
X0117919Y0101963D01*
X0117875Y0101908D01*
X0117828Y0101856D01*
X0117778Y0101806D01*
X0117725Y0101760D01*
X0117669Y0101716D01*
X0117612Y0101676D01*
X0117551Y0101639D01*
X0117490Y0101605D01*
X0117426Y0101575D01*
X0117360Y0101549D01*
X0117294Y0101527D01*
X0117226Y0101508D01*
X0117157Y0101493D01*
X0117087Y0101482D01*
X0117017Y0101475D01*
X0116947Y0101472D01*
X0116876Y0101473D01*
X0116806Y0101478D01*
X0116736Y0101487D01*
X0116667Y0101500D01*
X0116598Y0101517D01*
X0116531Y0101537D01*
X0116465Y0101562D01*
X0116400Y0101590D01*
X0116337Y0101622D01*
X0116276Y0101657D01*
X0116217Y0101695D01*
X0116161Y0101737D01*
X0116106Y0101782D01*
X0116055Y0101830D01*
X0116006Y0101881D01*
X0115960Y0101935D01*
X0115918Y0101991D01*
X0115878Y0102049D01*
X0115842Y0102110D01*
X0115809Y0102172D01*
X0115780Y0102236D01*
X0115755Y0102302D01*
X0115734Y0102369D01*
X0115716Y0102438D01*
X0115702Y0102507D01*
X0115692Y0102576D01*
X0115686Y0102647D01*
X0115684Y0102717D01*
X0098957Y0102224D02*
X0093957Y0102224D01*
X0093957Y0106437D02*
X0098957Y0106437D01*
X0099850Y0108917D02*
X0093850Y0108917D01*
X0090689Y0111661D02*
X0090689Y0105661D01*
X0085689Y0105661D02*
X0085689Y0111661D01*
X0078484Y0111661D02*
X0078484Y0105661D01*
X0073484Y0105661D02*
X0073484Y0111661D01*
X0068177Y0101520D02*
X0067177Y0099020D01*
X0066177Y0101520D01*
X0057224Y0091189D02*
X0057224Y0085189D01*
X0052224Y0085189D02*
X0052224Y0091189D01*
X0048957Y0078984D02*
X0048957Y0072984D01*
X0049469Y0073484D02*
X0049469Y0078484D01*
X0053681Y0078484D02*
X0053681Y0073484D01*
X0043957Y0072984D02*
X0043957Y0078984D01*
X0041339Y0078740D02*
X0041339Y0066929D01*
X0042126Y0061417D02*
X0028740Y0061417D01*
X0023760Y0063929D02*
X0023760Y0069929D01*
X0024803Y0066929D02*
X0024803Y0078740D01*
X0023760Y0081740D02*
X0023760Y0075740D01*
X0018760Y0075740D02*
X0018760Y0081740D01*
X0019291Y0080709D02*
X0017323Y0082677D01*
X0019291Y0084646D01*
X0028937Y0085236D02*
X0028937Y0111614D01*
X0005709Y0111614D01*
X0005709Y0085236D01*
X0028937Y0085236D01*
X0032677Y0078740D02*
X0032677Y0066929D01*
X0033465Y0066929D02*
X0033465Y0078740D01*
X0018760Y0069929D02*
X0018760Y0063929D01*
X0021260Y0061417D02*
X0009449Y0061417D01*
X0008917Y0062854D02*
X0013917Y0062854D01*
X0013917Y0067067D02*
X0008917Y0067067D01*
X0009449Y0052756D02*
X0021260Y0052756D01*
X0028740Y0052756D02*
X0042126Y0052756D01*
X0036614Y0043701D02*
X0050000Y0043701D01*
X0055906Y0044094D02*
X0055906Y0038189D01*
X0050000Y0035039D02*
X0036614Y0035039D01*
X0025433Y0031496D02*
X0025433Y0000000D01*
X0065433Y0000000D01*
X0065433Y0031496D01*
X0025433Y0031496D01*
X0056055Y0050650D02*
X0062055Y0050650D01*
X0062055Y0055650D02*
X0056055Y0055650D01*
X0062205Y0044094D02*
X0062205Y0038189D01*
X0083154Y0056650D02*
X0083156Y0056716D01*
X0083162Y0056782D01*
X0083172Y0056848D01*
X0083185Y0056913D01*
X0083203Y0056977D01*
X0083224Y0057039D01*
X0083249Y0057101D01*
X0083277Y0057161D01*
X0083309Y0057219D01*
X0083345Y0057275D01*
X0083383Y0057328D01*
X0083425Y0057380D01*
X0083470Y0057429D01*
X0083517Y0057475D01*
X0083568Y0057518D01*
X0083620Y0057558D01*
X0083675Y0057595D01*
X0083732Y0057629D01*
X0083791Y0057659D01*
X0083852Y0057686D01*
X0083914Y0057709D01*
X0083977Y0057728D01*
X0084042Y0057744D01*
X0084107Y0057756D01*
X0084173Y0057764D01*
X0084239Y0057768D01*
X0084305Y0057768D01*
X0084371Y0057764D01*
X0084437Y0057756D01*
X0084502Y0057744D01*
X0084567Y0057728D01*
X0084630Y0057709D01*
X0084692Y0057686D01*
X0084753Y0057659D01*
X0084812Y0057629D01*
X0084869Y0057595D01*
X0084924Y0057558D01*
X0084976Y0057518D01*
X0085027Y0057475D01*
X0085074Y0057429D01*
X0085119Y0057380D01*
X0085161Y0057328D01*
X0085199Y0057275D01*
X0085235Y0057219D01*
X0085267Y0057161D01*
X0085295Y0057101D01*
X0085320Y0057039D01*
X0085341Y0056977D01*
X0085359Y0056913D01*
X0085372Y0056848D01*
X0085382Y0056782D01*
X0085388Y0056716D01*
X0085390Y0056650D01*
X0085388Y0056584D01*
X0085382Y0056518D01*
X0085372Y0056452D01*
X0085359Y0056387D01*
X0085341Y0056323D01*
X0085320Y0056261D01*
X0085295Y0056199D01*
X0085267Y0056139D01*
X0085235Y0056081D01*
X0085199Y0056025D01*
X0085161Y0055972D01*
X0085119Y0055920D01*
X0085074Y0055871D01*
X0085027Y0055825D01*
X0084976Y0055782D01*
X0084924Y0055742D01*
X0084869Y0055705D01*
X0084812Y0055671D01*
X0084753Y0055641D01*
X0084692Y0055614D01*
X0084630Y0055591D01*
X0084567Y0055572D01*
X0084502Y0055556D01*
X0084437Y0055544D01*
X0084371Y0055536D01*
X0084305Y0055532D01*
X0084239Y0055532D01*
X0084173Y0055536D01*
X0084107Y0055544D01*
X0084042Y0055556D01*
X0083977Y0055572D01*
X0083914Y0055591D01*
X0083852Y0055614D01*
X0083791Y0055641D01*
X0083732Y0055671D01*
X0083675Y0055705D01*
X0083620Y0055742D01*
X0083568Y0055782D01*
X0083517Y0055825D01*
X0083470Y0055871D01*
X0083425Y0055920D01*
X0083383Y0055972D01*
X0083345Y0056025D01*
X0083309Y0056081D01*
X0083277Y0056139D01*
X0083249Y0056199D01*
X0083224Y0056261D01*
X0083203Y0056323D01*
X0083185Y0056387D01*
X0083172Y0056452D01*
X0083162Y0056518D01*
X0083156Y0056584D01*
X0083154Y0056650D01*
X0085772Y0067650D02*
X0083272Y0068650D01*
X0085772Y0069650D01*
X0085283Y0068366D02*
X0079283Y0068366D01*
X0079283Y0073366D02*
X0085283Y0073366D01*
X0073866Y0073366D02*
X0067866Y0073366D01*
X0067866Y0068366D02*
X0073866Y0068366D01*
X0078059Y0100020D02*
X0078061Y0100086D01*
X0078067Y0100152D01*
X0078077Y0100218D01*
X0078090Y0100283D01*
X0078108Y0100347D01*
X0078129Y0100409D01*
X0078154Y0100471D01*
X0078182Y0100531D01*
X0078214Y0100589D01*
X0078250Y0100645D01*
X0078288Y0100698D01*
X0078330Y0100750D01*
X0078375Y0100799D01*
X0078422Y0100845D01*
X0078473Y0100888D01*
X0078525Y0100928D01*
X0078580Y0100965D01*
X0078637Y0100999D01*
X0078696Y0101029D01*
X0078757Y0101056D01*
X0078819Y0101079D01*
X0078882Y0101098D01*
X0078947Y0101114D01*
X0079012Y0101126D01*
X0079078Y0101134D01*
X0079144Y0101138D01*
X0079210Y0101138D01*
X0079276Y0101134D01*
X0079342Y0101126D01*
X0079407Y0101114D01*
X0079472Y0101098D01*
X0079535Y0101079D01*
X0079597Y0101056D01*
X0079658Y0101029D01*
X0079717Y0100999D01*
X0079774Y0100965D01*
X0079829Y0100928D01*
X0079881Y0100888D01*
X0079932Y0100845D01*
X0079979Y0100799D01*
X0080024Y0100750D01*
X0080066Y0100698D01*
X0080104Y0100645D01*
X0080140Y0100589D01*
X0080172Y0100531D01*
X0080200Y0100471D01*
X0080225Y0100409D01*
X0080246Y0100347D01*
X0080264Y0100283D01*
X0080277Y0100218D01*
X0080287Y0100152D01*
X0080293Y0100086D01*
X0080295Y0100020D01*
X0080293Y0099954D01*
X0080287Y0099888D01*
X0080277Y0099822D01*
X0080264Y0099757D01*
X0080246Y0099693D01*
X0080225Y0099631D01*
X0080200Y0099569D01*
X0080172Y0099509D01*
X0080140Y0099451D01*
X0080104Y0099395D01*
X0080066Y0099342D01*
X0080024Y0099290D01*
X0079979Y0099241D01*
X0079932Y0099195D01*
X0079881Y0099152D01*
X0079829Y0099112D01*
X0079774Y0099075D01*
X0079717Y0099041D01*
X0079658Y0099011D01*
X0079597Y0098984D01*
X0079535Y0098961D01*
X0079472Y0098942D01*
X0079407Y0098926D01*
X0079342Y0098914D01*
X0079276Y0098906D01*
X0079210Y0098902D01*
X0079144Y0098902D01*
X0079078Y0098906D01*
X0079012Y0098914D01*
X0078947Y0098926D01*
X0078882Y0098942D01*
X0078819Y0098961D01*
X0078757Y0098984D01*
X0078696Y0099011D01*
X0078637Y0099041D01*
X0078580Y0099075D01*
X0078525Y0099112D01*
X0078473Y0099152D01*
X0078422Y0099195D01*
X0078375Y0099241D01*
X0078330Y0099290D01*
X0078288Y0099342D01*
X0078250Y0099395D01*
X0078214Y0099451D01*
X0078182Y0099509D01*
X0078154Y0099569D01*
X0078129Y0099631D01*
X0078108Y0099693D01*
X0078090Y0099757D01*
X0078077Y0099822D01*
X0078067Y0099888D01*
X0078061Y0099954D01*
X0078059Y0100020D01*
X0093850Y0113917D02*
X0099850Y0113917D01*
X0085866Y0122874D02*
X0034685Y0122874D01*
X0034685Y0193740D01*
X0085866Y0193740D01*
X0085866Y0122874D01*
X0090020Y0128890D02*
X0090020Y0134890D01*
X0095020Y0134890D02*
X0095020Y0128890D01*
X0103799Y0141594D02*
X0108799Y0141594D01*
X0108799Y0145807D02*
X0103799Y0145807D01*
X0103799Y0149469D02*
X0108799Y0149469D01*
X0108799Y0153681D02*
X0103799Y0153681D01*
X0108335Y0174409D02*
X0108337Y0174476D01*
X0108343Y0174542D01*
X0108353Y0174608D01*
X0108367Y0174673D01*
X0108384Y0174737D01*
X0108406Y0174800D01*
X0108431Y0174862D01*
X0108460Y0174922D01*
X0108493Y0174980D01*
X0108529Y0175037D01*
X0108568Y0175090D01*
X0108610Y0175142D01*
X0108655Y0175191D01*
X0108704Y0175237D01*
X0108754Y0175280D01*
X0108808Y0175320D01*
X0108863Y0175357D01*
X0108921Y0175390D01*
X0108981Y0175420D01*
X0109042Y0175446D01*
X0109105Y0175468D01*
X0109169Y0175487D01*
X0109234Y0175502D01*
X0109299Y0175513D01*
X0109366Y0175520D01*
X0109432Y0175523D01*
X0109499Y0175522D01*
X0109565Y0175517D01*
X0109631Y0175508D01*
X0109697Y0175495D01*
X0109761Y0175478D01*
X0109825Y0175458D01*
X0109887Y0175433D01*
X0109947Y0175405D01*
X0110006Y0175374D01*
X0110063Y0175339D01*
X0110117Y0175300D01*
X0110169Y0175259D01*
X0110219Y0175214D01*
X0110266Y0175167D01*
X0110309Y0175117D01*
X0110350Y0175064D01*
X0110388Y0175009D01*
X0110422Y0174952D01*
X0110453Y0174892D01*
X0110480Y0174831D01*
X0110503Y0174769D01*
X0110523Y0174705D01*
X0110539Y0174641D01*
X0110551Y0174575D01*
X0110559Y0174509D01*
X0110563Y0174442D01*
X0110563Y0174376D01*
X0110559Y0174309D01*
X0110551Y0174243D01*
X0110539Y0174177D01*
X0110523Y0174113D01*
X0110503Y0174049D01*
X0110480Y0173987D01*
X0110453Y0173926D01*
X0110422Y0173866D01*
X0110388Y0173809D01*
X0110350Y0173754D01*
X0110309Y0173701D01*
X0110266Y0173651D01*
X0110219Y0173604D01*
X0110169Y0173559D01*
X0110117Y0173518D01*
X0110063Y0173479D01*
X0110006Y0173444D01*
X0109947Y0173413D01*
X0109887Y0173385D01*
X0109825Y0173360D01*
X0109761Y0173340D01*
X0109697Y0173323D01*
X0109631Y0173310D01*
X0109565Y0173301D01*
X0109499Y0173296D01*
X0109432Y0173295D01*
X0109366Y0173298D01*
X0109299Y0173305D01*
X0109234Y0173316D01*
X0109169Y0173331D01*
X0109105Y0173350D01*
X0109042Y0173372D01*
X0108981Y0173398D01*
X0108921Y0173428D01*
X0108863Y0173461D01*
X0108808Y0173498D01*
X0108754Y0173538D01*
X0108704Y0173581D01*
X0108655Y0173627D01*
X0108610Y0173676D01*
X0108568Y0173728D01*
X0108529Y0173781D01*
X0108493Y0173838D01*
X0108460Y0173896D01*
X0108431Y0173956D01*
X0108406Y0174018D01*
X0108384Y0174081D01*
X0108367Y0174145D01*
X0108353Y0174210D01*
X0108343Y0174276D01*
X0108337Y0174342D01*
X0108335Y0174409D01*
X0111024Y0178268D02*
X0112205Y0177087D01*
X0111024Y0178268D02*
X0112205Y0179449D01*
X0109299Y0185295D02*
X0103299Y0185295D01*
X0103299Y0190295D02*
X0109299Y0190295D01*
X0109299Y0190413D02*
X0103299Y0190413D01*
X0103299Y0195413D02*
X0109299Y0195413D01*
X0119685Y0189764D02*
X0119685Y0184646D01*
X0120866Y0187795D02*
X0123228Y0187795D01*
X0124409Y0189764D02*
X0124409Y0184646D01*
X0125591Y0184646D02*
X0125591Y0189764D01*
X0126772Y0187795D02*
X0129134Y0187795D01*
X0130315Y0189764D02*
X0130315Y0184646D01*
X0131496Y0184646D02*
X0131496Y0189764D01*
X0132677Y0187795D02*
X0135039Y0187795D01*
X0136220Y0189764D02*
X0136220Y0184646D01*
X0137402Y0184646D02*
X0137402Y0189764D01*
X0138583Y0187795D02*
X0140945Y0187795D01*
X0142126Y0189764D02*
X0142126Y0184646D01*
X0148575Y0185295D02*
X0154575Y0185295D01*
X0154575Y0190295D02*
X0148575Y0190295D01*
X0148575Y0190413D02*
X0154575Y0190413D01*
X0154575Y0195413D02*
X0148575Y0195413D01*
X0141339Y0192126D02*
X0138189Y0192126D01*
X0135433Y0192126D02*
X0132283Y0192126D01*
X0129528Y0192126D02*
X0126378Y0192126D01*
X0123622Y0192126D02*
X0120472Y0192126D01*
X0094626Y0185571D02*
X0094626Y0180571D01*
X0090413Y0180571D02*
X0090413Y0185571D01*
X0030748Y0187835D02*
X0028780Y0183898D01*
X0026811Y0187835D01*
X0028591Y0150138D02*
X0022591Y0150138D01*
X0022591Y0145138D02*
X0028591Y0145138D01*
X0028091Y0140795D02*
X0028091Y0134795D01*
X0023091Y0134795D02*
X0023091Y0140795D01*
X0019685Y0142913D02*
X0019685Y0127165D01*
X0003937Y0127165D01*
X0003937Y0142913D01*
X0019685Y0142913D01*
X0154980Y0141594D02*
X0159980Y0141594D01*
X0159980Y0145807D02*
X0154980Y0145807D01*
X0161417Y0135827D02*
X0167323Y0135827D01*
X0167323Y0129528D02*
X0161417Y0129528D01*
X0160386Y0129272D02*
X0166386Y0129272D01*
X0166386Y0124272D02*
X0160386Y0124272D01*
X0167185Y0154980D02*
X0167185Y0159980D01*
X0171398Y0159980D02*
X0171398Y0154980D01*
X0171791Y0166291D02*
X0171791Y0172291D01*
X0166791Y0172291D02*
X0166791Y0166291D01*
X0161894Y0170823D02*
X0161896Y0170889D01*
X0161902Y0170955D01*
X0161912Y0171021D01*
X0161925Y0171086D01*
X0161943Y0171150D01*
X0161964Y0171212D01*
X0161989Y0171274D01*
X0162017Y0171334D01*
X0162049Y0171392D01*
X0162085Y0171448D01*
X0162123Y0171501D01*
X0162165Y0171553D01*
X0162210Y0171602D01*
X0162257Y0171648D01*
X0162308Y0171691D01*
X0162360Y0171731D01*
X0162415Y0171768D01*
X0162472Y0171802D01*
X0162531Y0171832D01*
X0162592Y0171859D01*
X0162654Y0171882D01*
X0162717Y0171901D01*
X0162782Y0171917D01*
X0162847Y0171929D01*
X0162913Y0171937D01*
X0162979Y0171941D01*
X0163045Y0171941D01*
X0163111Y0171937D01*
X0163177Y0171929D01*
X0163242Y0171917D01*
X0163307Y0171901D01*
X0163370Y0171882D01*
X0163432Y0171859D01*
X0163493Y0171832D01*
X0163552Y0171802D01*
X0163609Y0171768D01*
X0163664Y0171731D01*
X0163716Y0171691D01*
X0163767Y0171648D01*
X0163814Y0171602D01*
X0163859Y0171553D01*
X0163901Y0171501D01*
X0163939Y0171448D01*
X0163975Y0171392D01*
X0164007Y0171334D01*
X0164035Y0171274D01*
X0164060Y0171212D01*
X0164081Y0171150D01*
X0164099Y0171086D01*
X0164112Y0171021D01*
X0164122Y0170955D01*
X0164128Y0170889D01*
X0164130Y0170823D01*
X0164128Y0170757D01*
X0164122Y0170691D01*
X0164112Y0170625D01*
X0164099Y0170560D01*
X0164081Y0170496D01*
X0164060Y0170434D01*
X0164035Y0170372D01*
X0164007Y0170312D01*
X0163975Y0170254D01*
X0163939Y0170198D01*
X0163901Y0170145D01*
X0163859Y0170093D01*
X0163814Y0170044D01*
X0163767Y0169998D01*
X0163716Y0169955D01*
X0163664Y0169915D01*
X0163609Y0169878D01*
X0163552Y0169844D01*
X0163493Y0169814D01*
X0163432Y0169787D01*
X0163370Y0169764D01*
X0163307Y0169745D01*
X0163242Y0169729D01*
X0163177Y0169717D01*
X0163111Y0169709D01*
X0163045Y0169705D01*
X0162979Y0169705D01*
X0162913Y0169709D01*
X0162847Y0169717D01*
X0162782Y0169729D01*
X0162717Y0169745D01*
X0162654Y0169764D01*
X0162592Y0169787D01*
X0162531Y0169814D01*
X0162472Y0169844D01*
X0162415Y0169878D01*
X0162360Y0169915D01*
X0162308Y0169955D01*
X0162257Y0169998D01*
X0162210Y0170044D01*
X0162165Y0170093D01*
X0162123Y0170145D01*
X0162085Y0170198D01*
X0162049Y0170254D01*
X0162017Y0170312D01*
X0161989Y0170372D01*
X0161964Y0170434D01*
X0161943Y0170496D01*
X0161925Y0170560D01*
X0161912Y0170625D01*
X0161902Y0170691D01*
X0161896Y0170757D01*
X0161894Y0170823D01*
X0164512Y0181823D02*
X0162012Y0182823D01*
X0164512Y0183823D01*
D13*
X0165112Y0171923D02*
X0165112Y0168523D01*
X0165112Y0166123D01*
X0165112Y0162723D01*
X0145912Y0162723D02*
X0145912Y0171923D01*
X0111218Y0170806D02*
X0111218Y0168406D01*
X0111218Y0163113D01*
X0111118Y0162819D02*
X0099118Y0162819D01*
X0099018Y0163113D02*
X0099018Y0176100D01*
X0099118Y0176394D02*
X0111118Y0176394D01*
X0111218Y0176100D02*
X0111218Y0170806D01*
X0111149Y0170804D01*
X0111081Y0170798D01*
X0111013Y0170788D01*
X0110946Y0170775D01*
X0110880Y0170757D01*
X0110815Y0170736D01*
X0110751Y0170711D01*
X0110689Y0170683D01*
X0110628Y0170651D01*
X0110569Y0170616D01*
X0110513Y0170577D01*
X0110458Y0170535D01*
X0110407Y0170490D01*
X0110357Y0170442D01*
X0110311Y0170392D01*
X0110268Y0170339D01*
X0110227Y0170283D01*
X0110190Y0170226D01*
X0110157Y0170166D01*
X0110126Y0170104D01*
X0110100Y0170041D01*
X0110077Y0169977D01*
X0110057Y0169911D01*
X0110042Y0169844D01*
X0110030Y0169777D01*
X0110022Y0169709D01*
X0110018Y0169640D01*
X0110018Y0169572D01*
X0110022Y0169503D01*
X0110030Y0169435D01*
X0110042Y0169368D01*
X0110057Y0169301D01*
X0110077Y0169235D01*
X0110100Y0169171D01*
X0110126Y0169108D01*
X0110157Y0169046D01*
X0110190Y0168986D01*
X0110227Y0168929D01*
X0110268Y0168873D01*
X0110311Y0168820D01*
X0110357Y0168770D01*
X0110407Y0168722D01*
X0110458Y0168677D01*
X0110513Y0168635D01*
X0110569Y0168596D01*
X0110628Y0168561D01*
X0110689Y0168529D01*
X0110751Y0168501D01*
X0110815Y0168476D01*
X0110880Y0168455D01*
X0110946Y0168437D01*
X0111013Y0168424D01*
X0111081Y0168414D01*
X0111149Y0168408D01*
X0111218Y0168406D01*
X0087277Y0102120D02*
X0083877Y0102120D01*
X0081477Y0102120D01*
X0078077Y0102120D01*
X0078077Y0082920D02*
X0087277Y0082920D01*
X0088888Y0067561D02*
X0091899Y0067561D01*
X0088888Y0067561D02*
X0088888Y0064231D01*
X0086372Y0057750D02*
X0086372Y0054350D01*
X0086372Y0051950D01*
X0086372Y0048550D01*
X0100088Y0064231D02*
X0100088Y0067561D01*
X0096979Y0067561D01*
X0067172Y0057750D02*
X0067172Y0048550D01*
X0064655Y0064231D02*
X0064655Y0067561D01*
X0061546Y0067561D01*
X0056466Y0067561D02*
X0053455Y0067561D01*
X0053455Y0064231D01*
X0044037Y0089282D02*
X0040707Y0089282D01*
X0040707Y0092293D01*
X0040707Y0097372D02*
X0040707Y0100482D01*
X0044037Y0100482D01*
X0017517Y0079172D02*
X0017517Y0077972D01*
X0017517Y0075572D01*
X0017517Y0074372D01*
X0012717Y0073372D02*
X0010117Y0073372D01*
X0005317Y0074372D02*
X0005317Y0079172D01*
X0162447Y0079403D02*
X0162447Y0070203D01*
X0181647Y0070203D02*
X0181647Y0073603D01*
X0181647Y0076003D01*
X0181647Y0079403D01*
X0188445Y0087520D02*
X0185945Y0090020D01*
X0185945Y0095020D01*
X0188445Y0097520D01*
X0185945Y0100020D01*
X0185945Y0105020D01*
X0188445Y0107520D01*
X0185945Y0110020D01*
X0185945Y0115020D01*
X0188445Y0117520D01*
X0185945Y0120020D01*
X0185945Y0125020D01*
X0188445Y0127520D01*
X0185945Y0130020D01*
X0185945Y0135020D01*
X0188445Y0137520D01*
X0193445Y0137520D01*
X0195945Y0135020D01*
X0195945Y0130020D01*
X0193445Y0127520D01*
X0195945Y0125020D01*
X0195945Y0120020D01*
X0193445Y0117520D01*
X0195945Y0115020D01*
X0195945Y0110020D01*
X0193445Y0107520D01*
X0195945Y0105020D01*
X0195945Y0100020D01*
X0193445Y0097520D01*
X0195945Y0095020D01*
X0195945Y0090020D01*
X0193445Y0087520D01*
X0188445Y0087520D01*
X0176860Y0043151D02*
X0173750Y0043151D01*
X0176860Y0043151D02*
X0176860Y0039821D01*
X0168671Y0043151D02*
X0165660Y0043151D01*
X0165660Y0039821D01*
X0188445Y0137520D02*
X0193445Y0137520D01*
X0195945Y0140020D01*
X0195945Y0145020D01*
X0193445Y0147520D01*
X0195945Y0150020D01*
X0195945Y0155020D01*
X0193445Y0157520D01*
X0195945Y0160020D01*
X0195945Y0165020D01*
X0193445Y0167520D01*
X0188445Y0167520D01*
X0185945Y0165020D01*
X0185945Y0160020D01*
X0188445Y0157520D01*
X0185945Y0155020D01*
X0185945Y0150020D01*
X0188445Y0147520D01*
X0185945Y0145020D01*
X0185945Y0140020D01*
X0188445Y0137520D01*
D14*
X0187798Y0169298D02*
X0190158Y0172838D01*
X0191424Y0172248D02*
X0192014Y0172838D01*
X0193194Y0172838D01*
X0193784Y0172248D01*
X0193784Y0171658D01*
X0193194Y0171068D01*
X0193784Y0170478D01*
X0193784Y0169888D01*
X0193194Y0169298D01*
X0192014Y0169298D01*
X0191424Y0169888D01*
X0190158Y0169298D02*
X0187798Y0172838D01*
X0192604Y0171068D02*
X0193194Y0171068D01*
X0144561Y0164545D02*
X0142201Y0164545D01*
X0143971Y0166315D01*
X0143971Y0162775D01*
X0140936Y0163365D02*
X0140936Y0165725D01*
X0140346Y0166315D01*
X0138576Y0166315D01*
X0138576Y0162775D01*
X0140346Y0162775D01*
X0140936Y0163365D01*
X0070151Y0105882D02*
X0070151Y0105292D01*
X0069561Y0104702D01*
X0070151Y0104112D01*
X0070151Y0103522D01*
X0069561Y0102932D01*
X0068381Y0102932D01*
X0067791Y0103522D01*
X0066526Y0103522D02*
X0065936Y0102932D01*
X0064166Y0102932D01*
X0064166Y0106472D01*
X0065936Y0106472D01*
X0066526Y0105882D01*
X0066526Y0103522D01*
X0067791Y0105882D02*
X0068381Y0106472D01*
X0069561Y0106472D01*
X0070151Y0105882D01*
X0069561Y0104702D02*
X0068971Y0104702D01*
X0074009Y0055291D02*
X0074009Y0052931D01*
X0075189Y0051751D01*
X0076369Y0052931D01*
X0076369Y0055291D01*
X0077634Y0054701D02*
X0078224Y0055291D01*
X0079404Y0055291D01*
X0079994Y0054701D01*
X0079994Y0054111D01*
X0077634Y0051751D01*
X0079994Y0051751D01*
X0074487Y0012457D02*
X0073307Y0012457D01*
X0072717Y0011867D01*
X0072717Y0011277D01*
X0073307Y0010687D01*
X0074487Y0010687D01*
X0075077Y0010097D01*
X0075077Y0009507D01*
X0074487Y0008917D01*
X0073307Y0008917D01*
X0072717Y0009507D01*
X0072717Y0010097D01*
X0073307Y0010687D01*
X0074487Y0010687D02*
X0075077Y0011277D01*
X0075077Y0011867D01*
X0074487Y0012457D01*
X0078065Y0012063D02*
X0078065Y0009703D01*
X0079245Y0008523D01*
X0080425Y0009703D01*
X0080425Y0012063D01*
X0081690Y0010883D02*
X0082870Y0012063D01*
X0082870Y0008523D01*
X0081690Y0008523D02*
X0084050Y0008523D01*
X0085315Y0009113D02*
X0087675Y0011473D01*
X0087675Y0009113D01*
X0087085Y0008523D01*
X0085905Y0008523D01*
X0085315Y0009113D01*
X0085315Y0011473D01*
X0085905Y0012063D01*
X0087085Y0012063D01*
X0087675Y0011473D01*
X0071451Y0012457D02*
X0071451Y0010097D01*
X0070271Y0008917D01*
X0069091Y0010097D01*
X0069091Y0012457D01*
X0014053Y0031160D02*
X0014053Y0031750D01*
X0013463Y0032340D01*
X0011693Y0032340D01*
X0011693Y0031160D01*
X0012283Y0030570D01*
X0013463Y0030570D01*
X0014053Y0031160D01*
X0012873Y0033520D02*
X0011693Y0032340D01*
X0012873Y0033520D02*
X0014053Y0034110D01*
X0009248Y0034110D02*
X0009248Y0030570D01*
X0008068Y0030570D02*
X0010428Y0030570D01*
X0008068Y0032930D02*
X0009248Y0034110D01*
X0006803Y0034110D02*
X0006803Y0031750D01*
X0005623Y0030570D01*
X0004443Y0031750D01*
X0004443Y0034110D01*
X0154717Y0058050D02*
X0156487Y0058050D01*
X0157077Y0058640D01*
X0157077Y0061000D01*
X0156487Y0061590D01*
X0154717Y0061590D01*
X0154717Y0058050D01*
X0158342Y0058050D02*
X0160702Y0060410D01*
X0160702Y0061000D01*
X0160112Y0061590D01*
X0158932Y0061590D01*
X0158342Y0061000D01*
X0158342Y0058050D02*
X0160702Y0058050D01*
X0187320Y0083070D02*
X0189680Y0086610D01*
X0190945Y0086610D02*
X0190945Y0084840D01*
X0192125Y0085430D01*
X0192715Y0085430D01*
X0193305Y0084840D01*
X0193305Y0083660D01*
X0192715Y0083070D01*
X0191535Y0083070D01*
X0190945Y0083660D01*
X0189680Y0083070D02*
X0187320Y0086610D01*
X0190945Y0086610D02*
X0193305Y0086610D01*
D15*
X0123228Y0089370D02*
X0123174Y0089372D01*
X0123121Y0089377D01*
X0123068Y0089386D01*
X0123016Y0089399D01*
X0122964Y0089415D01*
X0122914Y0089435D01*
X0122866Y0089458D01*
X0122819Y0089485D01*
X0122774Y0089514D01*
X0122731Y0089547D01*
X0122691Y0089582D01*
X0122653Y0089620D01*
X0122618Y0089660D01*
X0122585Y0089703D01*
X0122556Y0089748D01*
X0122529Y0089795D01*
X0122506Y0089843D01*
X0122486Y0089893D01*
X0122470Y0089945D01*
X0122457Y0089997D01*
X0122448Y0090050D01*
X0122443Y0090103D01*
X0122441Y0090157D01*
X0117323Y0090157D01*
X0112205Y0090157D01*
X0112204Y0090157D02*
X0112202Y0090103D01*
X0112197Y0090050D01*
X0112188Y0089997D01*
X0112175Y0089945D01*
X0112159Y0089893D01*
X0112139Y0089843D01*
X0112116Y0089795D01*
X0112089Y0089748D01*
X0112060Y0089703D01*
X0112027Y0089660D01*
X0111992Y0089620D01*
X0111954Y0089582D01*
X0111914Y0089547D01*
X0111871Y0089514D01*
X0111826Y0089485D01*
X0111779Y0089458D01*
X0111731Y0089435D01*
X0111681Y0089415D01*
X0111629Y0089399D01*
X0111577Y0089386D01*
X0111524Y0089377D01*
X0111471Y0089372D01*
X0111417Y0089370D01*
X0111417Y0072047D02*
X0111471Y0072045D01*
X0111524Y0072040D01*
X0111577Y0072031D01*
X0111629Y0072018D01*
X0111681Y0072002D01*
X0111731Y0071982D01*
X0111779Y0071959D01*
X0111826Y0071932D01*
X0111871Y0071903D01*
X0111914Y0071870D01*
X0111954Y0071835D01*
X0111992Y0071797D01*
X0112027Y0071757D01*
X0112060Y0071714D01*
X0112089Y0071669D01*
X0112116Y0071622D01*
X0112139Y0071574D01*
X0112159Y0071524D01*
X0112175Y0071472D01*
X0112188Y0071420D01*
X0112197Y0071367D01*
X0112202Y0071314D01*
X0112204Y0071260D01*
X0112205Y0071260D02*
X0122441Y0071260D01*
X0122443Y0071314D01*
X0122448Y0071367D01*
X0122457Y0071420D01*
X0122470Y0071472D01*
X0122486Y0071524D01*
X0122506Y0071574D01*
X0122529Y0071622D01*
X0122556Y0071669D01*
X0122585Y0071714D01*
X0122618Y0071757D01*
X0122653Y0071797D01*
X0122691Y0071835D01*
X0122731Y0071870D01*
X0122774Y0071903D01*
X0122819Y0071932D01*
X0122866Y0071959D01*
X0122914Y0071982D01*
X0122964Y0072002D01*
X0123016Y0072018D01*
X0123068Y0072031D01*
X0123121Y0072040D01*
X0123174Y0072045D01*
X0123228Y0072047D01*
D16*
X0022386Y0157406D03*
X0022386Y0157906D03*
X0022386Y0160406D03*
X0019886Y0164406D03*
X0019886Y0164906D03*
X0019386Y0165906D03*
X0014386Y0164406D03*
X0013886Y0165406D03*
X0013886Y0166406D03*
X0013886Y0166906D03*
X0010886Y0163906D03*
X0010386Y0162906D03*
X0009886Y0162406D03*
X0005886Y0162406D03*
X0005886Y0161906D03*
X0005886Y0161406D03*
X0005386Y0152406D03*
X0004386Y0152406D03*
X0004386Y0151906D03*
X0004886Y0150906D03*
X0007386Y0150906D03*
X0020886Y0150906D03*
D17*
X0021136Y0151406D03*
X0021636Y0151906D03*
X0021636Y0152406D03*
X0021636Y0152906D03*
X0022136Y0153406D03*
X0022136Y0153906D03*
X0022136Y0154406D03*
X0022636Y0154906D03*
X0022636Y0155406D03*
X0022636Y0155906D03*
X0022636Y0156406D03*
X0022636Y0156906D03*
X0022636Y0158406D03*
X0022636Y0158906D03*
X0022636Y0159406D03*
X0022636Y0159906D03*
X0022136Y0160906D03*
X0022136Y0161406D03*
X0022136Y0161906D03*
X0022136Y0162406D03*
X0021636Y0163906D03*
X0021136Y0164906D03*
X0021136Y0165406D03*
X0020636Y0165906D03*
X0020636Y0166406D03*
X0019636Y0165406D03*
X0019636Y0163906D03*
X0019136Y0163406D03*
X0014636Y0163906D03*
X0014136Y0164906D03*
X0013636Y0165906D03*
X0014136Y0167406D03*
X0014636Y0167906D03*
X0015136Y0168406D03*
X0017636Y0168406D03*
X0018636Y0169906D03*
X0018636Y0170406D03*
X0018136Y0170906D03*
X0017636Y0171406D03*
X0016136Y0172406D03*
X0019136Y0169406D03*
X0019636Y0168406D03*
X0010636Y0164406D03*
X0010636Y0163406D03*
X0009636Y0161906D03*
X0009136Y0161406D03*
X0008636Y0160906D03*
X0006636Y0160906D03*
X0005636Y0162906D03*
X0006136Y0165406D03*
X0003636Y0165406D03*
X0003636Y0165906D03*
X0003136Y0163906D03*
X0003136Y0163406D03*
X0002636Y0162406D03*
X0002636Y0161906D03*
X0002636Y0161406D03*
X0002636Y0160906D03*
X0002636Y0160406D03*
X0002636Y0159906D03*
X0002636Y0159406D03*
X0002636Y0158906D03*
X0003136Y0157906D03*
X0003136Y0157406D03*
X0003136Y0156906D03*
X0003636Y0155406D03*
X0004136Y0154406D03*
X0004136Y0153906D03*
X0004636Y0151406D03*
X0006136Y0151906D03*
X0011636Y0156906D03*
X0016136Y0155906D03*
X0016636Y0156406D03*
X0016636Y0156906D03*
X0016636Y0157406D03*
X0016636Y0157906D03*
X0016636Y0158406D03*
X0006136Y0168906D03*
X0006636Y0169406D03*
X0007136Y0169906D03*
X0007136Y0170406D03*
X0005636Y0168406D03*
X0005136Y0167906D03*
D18*
X0004886Y0167406D03*
X0003886Y0166406D03*
X0003386Y0164906D03*
X0003386Y0164406D03*
X0002886Y0162906D03*
X0005886Y0164906D03*
X0006886Y0165906D03*
X0009886Y0165406D03*
X0010386Y0164906D03*
X0015386Y0163406D03*
X0019886Y0167906D03*
X0019386Y0168906D03*
X0016886Y0171906D03*
X0016386Y0169406D03*
X0021386Y0164406D03*
X0021886Y0163406D03*
X0021886Y0162906D03*
X0012386Y0155906D03*
X0011886Y0156406D03*
X0007386Y0160406D03*
X0002886Y0158406D03*
X0003386Y0156406D03*
X0003386Y0155906D03*
X0003886Y0154906D03*
X0004386Y0153406D03*
X0004886Y0152906D03*
X0006886Y0151406D03*
X0007886Y0170906D03*
D19*
X0008886Y0171406D03*
X0009886Y0171906D03*
X0016386Y0168906D03*
X0018386Y0166406D03*
X0014386Y0154906D03*
D20*
X0014386Y0155406D03*
X0013886Y0172906D03*
D21*
X0017386Y0162906D03*
D22*
X0017636Y0167906D03*
X0009136Y0165906D03*
X0006136Y0164406D03*
X0006136Y0163906D03*
X0006136Y0163406D03*
X0004136Y0166906D03*
D23*
X0008136Y0166406D03*
X0011636Y0172406D03*
D24*
X0018636Y0167406D03*
X0018636Y0166906D03*
D25*
X0017126Y0042126D02*
X0021260Y0039370D01*
X0017126Y0036417D01*
X0017126Y0042126D01*
X0069882Y0026575D02*
X0075591Y0026575D01*
X0072835Y0022441D01*
X0069882Y0026575D01*
X0079724Y0026575D02*
X0085433Y0026575D01*
X0082677Y0022441D01*
X0079724Y0026575D01*
D26*
X0082677Y0022244D03*
X0072835Y0022244D03*
D27*
X0021457Y0039370D03*
M02*
