%
M48
M72
T01C0.01575
T02C0.01969
T03C0.04000
T04C0.04331
T05C0.04500
T06C0.10236
%
T01
X22047Y129921
X29134Y159843
X25984Y129921
X29921Y129921
X29921Y139370
X88189Y124409
X98425Y151181
X98425Y144094
X113386Y181102
X99213Y192126
X96850Y183465
X130709Y193701
X148031Y169291
X137795Y151181
X165354Y143307
X143307Y127559
X148819Y104724
X166929Y103937
X160630Y118110
X156693Y92126
X144882Y88189
X168504Y77165
X158268Y63780
X170866Y50394
X191339Y60630
X126772Y63780
X128346Y73228
X66929Y55906
X65354Y66142
X50394Y68504
X48031Y82677
X98425Y96850
X114173Y111024
X113386Y98425
X167717Y177953
X3937Y125197
X3937Y144882
X9449Y76378
X13386Y76378
X17323Y64567
X25197Y62992
X14961Y51969
X3937Y46457
X3937Y62205
X37795Y101575
X62205Y114961
X62205Y111811
X54331Y111811
X54331Y114961
X92126Y175591
X96063Y167717
X122047Y148819
X98425Y39370
X88976Y48031
X102362Y55118
X105512Y66142
X149606Y47244
X145669Y69291
X191339Y79528
X183465Y96850
X183465Y88976
X166929Y90551
X170866Y126772
X172441Y131496
X172441Y134646
X170866Y119685
X127559Y127559
X143307Y180315
X122047Y167717
X96063Y179528
X43307Y84252
X160630Y103937
X134646Y109449
X146457Y132283
X175591Y162205
X124409Y133071
X112598Y147244
X162992Y72441
X81102Y105512
X116535Y107874
X129134Y122835
X93701Y76378
X140157Y103150
X100000Y71654
X136220Y101575
X106299Y28346
X82677Y81102
X144094Y106299
X117323Y114173
X170079Y114173
X170866Y107087
X121260Y110236
T02
X65354Y37008
T03
X190945Y162520
X190945Y152520
X190945Y142520
X190945Y92520
X190945Y102520
X190945Y112520
X190945Y122520
X190945Y132520
T04
X35433Y15748
X55433Y15748
T05
X96457Y13780
X106457Y13780
X116457Y13780
X126457Y13780
X136457Y13780
X146457Y13780
X156457Y13780
X166457Y13780
T06
X11811Y11811
X185039Y11811
X185039Y185039
X11811Y185039
M30
