G75*
%MOIN*%
%OFA0B0*%
%FSLAX25Y25*%
%IPPOS*%
%LPD*%
%AMOC8*
5,1,8,0,0,1.08239X$1,22.5*
%
%ADD10C,0.00000*%
%ADD11R,0.06750X0.06750*%
%ADD12C,0.06750*%
%ADD13R,0.06000X0.06000*%
%ADD14C,0.06000*%
%ADD15R,0.07874X0.07874*%
%ADD16C,0.07874*%
%ADD17R,0.21457X0.21457*%
%ADD18C,0.01181*%
%ADD19C,0.02775*%
%ADD20C,0.02953*%
%ADD21C,0.01969*%
%ADD22C,0.03169*%
%ADD23C,0.00787*%
D10*
X0000000Y0000000D02*
X0000000Y0196850D01*
X0196850Y0196850D01*
X0196850Y0000000D01*
X0000000Y0000000D01*
D11*
X0096457Y0013780D03*
D12*
X0106457Y0013780D03*
X0116457Y0013780D03*
X0126457Y0013780D03*
X0136457Y0013780D03*
X0146457Y0013780D03*
X0156457Y0013780D03*
X0166457Y0013780D03*
D13*
X0190945Y0092520D03*
X0190945Y0162520D03*
D14*
X0190945Y0152520D03*
X0190945Y0142520D03*
X0190945Y0132520D03*
X0190945Y0122520D03*
X0190945Y0112520D03*
X0190945Y0102520D03*
D15*
X0035433Y0015748D03*
D16*
X0055433Y0015748D03*
D17*
X0011811Y0011811D03*
X0185039Y0011811D03*
X0185039Y0185039D03*
X0011811Y0185039D03*
D18*
X0001591Y0185199D02*
X0195260Y0185199D01*
X0195260Y0184020D02*
X0001591Y0184020D01*
X0001591Y0182840D02*
X0195260Y0182840D01*
X0195260Y0181661D02*
X0097702Y0181661D01*
X0097574Y0181788D02*
X0096593Y0182194D01*
X0061674Y0182194D01*
X0060694Y0181788D01*
X0056757Y0177851D01*
X0056007Y0177101D01*
X0055601Y0176121D01*
X0055601Y0127265D01*
X0055332Y0127616D01*
X0055214Y0127632D01*
X0055129Y0127716D01*
X0054578Y0127716D01*
X0052251Y0128024D01*
X0051597Y0129603D01*
X0053024Y0131466D01*
X0053414Y0131857D01*
X0053414Y0131976D01*
X0053487Y0132070D01*
X0053414Y0132617D01*
X0053414Y0133169D01*
X0053330Y0133253D01*
X0053315Y0133371D01*
X0052877Y0133707D01*
X0051423Y0135160D01*
X0051088Y0135598D01*
X0050970Y0135614D01*
X0050885Y0135698D01*
X0050334Y0135698D01*
X0049787Y0135770D01*
X0049692Y0135698D01*
X0049573Y0135698D01*
X0049183Y0135308D01*
X0047320Y0133881D01*
X0045741Y0134535D01*
X0045433Y0136861D01*
X0045433Y0137413D01*
X0045349Y0137497D01*
X0045333Y0137615D01*
X0044895Y0137951D01*
X0044505Y0138341D01*
X0044386Y0138341D01*
X0044291Y0138413D01*
X0043744Y0138341D01*
X0041689Y0138341D01*
X0041142Y0138413D01*
X0041047Y0138341D01*
X0040928Y0138341D01*
X0040538Y0137951D01*
X0040100Y0137615D01*
X0040084Y0137497D01*
X0040000Y0137413D01*
X0040000Y0136861D01*
X0039692Y0134535D01*
X0038113Y0133881D01*
X0036250Y0135308D01*
X0035860Y0135698D01*
X0035741Y0135698D01*
X0035646Y0135770D01*
X0035099Y0135698D01*
X0034548Y0135698D01*
X0034463Y0135614D01*
X0034345Y0135598D01*
X0034010Y0135160D01*
X0032557Y0133707D01*
X0032118Y0133371D01*
X0032103Y0133253D01*
X0032019Y0133169D01*
X0032019Y0132617D01*
X0031946Y0132070D01*
X0032019Y0131976D01*
X0032019Y0131857D01*
X0032409Y0131466D01*
X0033836Y0129603D01*
X0033182Y0128024D01*
X0030855Y0127716D01*
X0030304Y0127716D01*
X0030219Y0127632D01*
X0030101Y0127616D01*
X0029766Y0127178D01*
X0029376Y0126788D01*
X0029376Y0126669D01*
X0029303Y0126575D01*
X0029376Y0126028D01*
X0029376Y0123972D01*
X0029303Y0123425D01*
X0029376Y0123331D01*
X0029376Y0123212D01*
X0029766Y0122822D01*
X0030101Y0122384D01*
X0030219Y0122368D01*
X0030304Y0122284D01*
X0030855Y0122284D01*
X0033182Y0121976D01*
X0033836Y0120397D01*
X0032409Y0118534D01*
X0032019Y0118143D01*
X0032019Y0118024D01*
X0031946Y0117930D01*
X0032019Y0117383D01*
X0032019Y0116831D01*
X0032103Y0116747D01*
X0032118Y0116629D01*
X0032556Y0116293D01*
X0034010Y0114840D01*
X0034345Y0114402D01*
X0034463Y0114386D01*
X0034548Y0114302D01*
X0035099Y0114302D01*
X0035646Y0114230D01*
X0035741Y0114302D01*
X0035860Y0114302D01*
X0036250Y0114692D01*
X0038145Y0116144D01*
X0038697Y0115857D01*
X0039948Y0116251D01*
X0039998Y0116346D01*
X0040554Y0117416D01*
X0042666Y0121471D01*
X0042271Y0122723D01*
X0041953Y0122888D01*
X0041689Y0123026D01*
X0041257Y0123319D01*
X0040654Y0124163D01*
X0040499Y0125189D01*
X0040825Y0126173D01*
X0041562Y0126903D01*
X0042549Y0127219D01*
X0043573Y0127054D01*
X0044411Y0126443D01*
X0044881Y0125519D01*
X0044942Y0125000D01*
X0044906Y0124598D01*
X0044619Y0123845D01*
X0044084Y0123244D01*
X0043744Y0123026D01*
X0043162Y0122723D01*
X0043149Y0122680D01*
X0042768Y0121471D01*
X0042768Y0121471D01*
X0042768Y0121471D01*
X0043374Y0120307D01*
X0044879Y0117416D01*
X0044879Y0117416D01*
X0045485Y0116251D01*
X0046736Y0115857D01*
X0047288Y0116144D01*
X0049183Y0114692D01*
X0049573Y0114302D01*
X0049692Y0114302D01*
X0049787Y0114230D01*
X0050334Y0114302D01*
X0050885Y0114302D01*
X0050970Y0114386D01*
X0051088Y0114402D01*
X0051423Y0114840D01*
X0052877Y0116293D01*
X0053315Y0116629D01*
X0053330Y0116747D01*
X0053414Y0116831D01*
X0053414Y0117383D01*
X0053487Y0117930D01*
X0053414Y0118024D01*
X0053414Y0118143D01*
X0053024Y0118534D01*
X0051597Y0120397D01*
X0052251Y0121976D01*
X0054578Y0122284D01*
X0055129Y0122284D01*
X0055214Y0122368D01*
X0055332Y0122384D01*
X0055601Y0122735D01*
X0055601Y0100317D01*
X0041046Y0085763D01*
X0040640Y0084782D01*
X0040640Y0083721D01*
X0041046Y0082741D01*
X0041796Y0081991D01*
X0042777Y0081585D01*
X0043838Y0081585D01*
X0044818Y0081991D01*
X0059778Y0096952D01*
X0059778Y0096952D01*
X0060529Y0097702D01*
X0060935Y0098682D01*
X0060935Y0103337D01*
X0079631Y0103337D01*
X0079642Y0103326D01*
X0080590Y0102934D01*
X0081615Y0102934D01*
X0082563Y0103326D01*
X0082573Y0103337D01*
X0100901Y0103337D01*
X0102476Y0104912D01*
X0105034Y0104912D01*
X0099991Y0099869D01*
X0099991Y0081112D01*
X0085255Y0081112D01*
X0085255Y0081615D01*
X0084863Y0082563D01*
X0084137Y0083288D01*
X0083190Y0083680D01*
X0082164Y0083680D01*
X0081217Y0083288D01*
X0080492Y0082563D01*
X0080099Y0081615D01*
X0080099Y0080590D01*
X0080492Y0079642D01*
X0081217Y0078917D01*
X0082164Y0078524D01*
X0083015Y0078524D01*
X0083596Y0077943D01*
X0091620Y0077943D01*
X0091515Y0077838D01*
X0091123Y0076891D01*
X0091123Y0075865D01*
X0091515Y0074918D01*
X0092240Y0074192D01*
X0093188Y0073800D01*
X0094214Y0073800D01*
X0095161Y0074192D01*
X0095762Y0074794D01*
X0100112Y0074794D01*
X0099550Y0074231D01*
X0099487Y0074231D01*
X0098540Y0073839D01*
X0097815Y0073114D01*
X0097422Y0072166D01*
X0097422Y0071141D01*
X0097815Y0070193D01*
X0098540Y0069468D01*
X0099487Y0069076D01*
X0100513Y0069076D01*
X0101460Y0069468D01*
X0102185Y0070193D01*
X0102578Y0071141D01*
X0102578Y0072166D01*
X0102399Y0072599D01*
X0105381Y0075581D01*
X0106309Y0076509D01*
X0106309Y0096982D01*
X0109318Y0099991D01*
X0134159Y0099991D01*
X0134760Y0099389D01*
X0135708Y0098997D01*
X0136733Y0098997D01*
X0137681Y0099389D01*
X0138406Y0100115D01*
X0138749Y0100943D01*
X0139645Y0100572D01*
X0140670Y0100572D01*
X0141618Y0100964D01*
X0142343Y0101689D01*
X0142735Y0102637D01*
X0142735Y0103662D01*
X0142488Y0104260D01*
X0142634Y0104114D01*
X0143582Y0103721D01*
X0144607Y0103721D01*
X0145555Y0104114D01*
X0146280Y0104839D01*
X0146672Y0105786D01*
X0146672Y0106812D01*
X0146481Y0107274D01*
X0154217Y0107274D01*
X0158052Y0103439D01*
X0158052Y0103424D01*
X0158444Y0102477D01*
X0159170Y0101752D01*
X0160117Y0101359D01*
X0160132Y0101359D01*
X0160817Y0100674D01*
X0160817Y0073912D01*
X0160807Y0073901D01*
X0160414Y0072954D01*
X0160414Y0071928D01*
X0160807Y0070981D01*
X0161532Y0070255D01*
X0162479Y0069863D01*
X0163505Y0069863D01*
X0164452Y0070255D01*
X0165178Y0070981D01*
X0165570Y0071928D01*
X0165570Y0072954D01*
X0165178Y0073901D01*
X0165167Y0073912D01*
X0165167Y0096324D01*
X0171146Y0090345D01*
X0186754Y0090345D01*
X0186754Y0089027D01*
X0187452Y0088329D01*
X0194438Y0088329D01*
X0195135Y0089027D01*
X0195135Y0096013D01*
X0194438Y0096710D01*
X0187452Y0096710D01*
X0186754Y0096013D01*
X0186754Y0094694D01*
X0172948Y0094694D01*
X0165167Y0102476D01*
X0163893Y0103750D01*
X0163208Y0104435D01*
X0163208Y0104450D01*
X0162815Y0105397D01*
X0162090Y0106122D01*
X0161143Y0106515D01*
X0161128Y0106515D01*
X0157293Y0110350D01*
X0156628Y0111014D01*
X0165400Y0111014D01*
X0168288Y0107548D01*
X0168288Y0106574D01*
X0168681Y0105626D01*
X0169406Y0104901D01*
X0170353Y0104509D01*
X0171379Y0104509D01*
X0172326Y0104901D01*
X0173052Y0105626D01*
X0173444Y0106574D01*
X0173444Y0107599D01*
X0173052Y0108547D01*
X0172326Y0109272D01*
X0171379Y0109665D01*
X0170649Y0109665D01*
X0168763Y0111928D01*
X0169566Y0111595D01*
X0170592Y0111595D01*
X0171539Y0111988D01*
X0172264Y0112713D01*
X0172657Y0113660D01*
X0172657Y0114686D01*
X0172264Y0115634D01*
X0171539Y0116359D01*
X0170592Y0116751D01*
X0169566Y0116751D01*
X0168618Y0116359D01*
X0168017Y0115757D01*
X0119384Y0115757D01*
X0118783Y0116359D01*
X0117836Y0116751D01*
X0116810Y0116751D01*
X0115863Y0116359D01*
X0115137Y0115634D01*
X0114745Y0114686D01*
X0114745Y0113660D01*
X0115137Y0112713D01*
X0115863Y0111988D01*
X0116810Y0111595D01*
X0117836Y0111595D01*
X0118783Y0111988D01*
X0119384Y0112589D01*
X0120203Y0112589D01*
X0119800Y0112422D01*
X0119074Y0111697D01*
X0118682Y0110749D01*
X0118682Y0109723D01*
X0118873Y0109261D01*
X0118751Y0109261D01*
X0118721Y0109334D01*
X0117996Y0110059D01*
X0117048Y0110452D01*
X0116023Y0110452D01*
X0115075Y0110059D01*
X0114350Y0109334D01*
X0114320Y0109261D01*
X0100674Y0109261D01*
X0099400Y0107987D01*
X0099099Y0107687D01*
X0082573Y0107687D01*
X0082563Y0107697D01*
X0081615Y0108090D01*
X0080590Y0108090D01*
X0079642Y0107697D01*
X0079631Y0107687D01*
X0060935Y0107687D01*
X0060935Y0174486D01*
X0063309Y0176861D01*
X0096593Y0176861D01*
X0097574Y0177267D01*
X0098324Y0178017D01*
X0098730Y0178997D01*
X0098730Y0180058D01*
X0098324Y0181038D01*
X0097574Y0181788D01*
X0098555Y0180481D02*
X0195260Y0180481D01*
X0195260Y0179301D02*
X0098730Y0179301D01*
X0098367Y0178122D02*
X0195260Y0178122D01*
X0195260Y0176942D02*
X0096790Y0176942D01*
X0111138Y0149430D02*
X0110413Y0148704D01*
X0110020Y0147757D01*
X0110020Y0146731D01*
X0110413Y0145784D01*
X0110424Y0145773D01*
X0110424Y0139257D01*
X0111698Y0137983D01*
X0118784Y0130896D01*
X0122938Y0130896D01*
X0122949Y0130885D01*
X0123897Y0130493D01*
X0124922Y0130493D01*
X0125870Y0130885D01*
X0126595Y0131611D01*
X0126987Y0132558D01*
X0126987Y0133584D01*
X0126595Y0134531D01*
X0125870Y0135256D01*
X0124922Y0135649D01*
X0123897Y0135649D01*
X0122949Y0135256D01*
X0122938Y0135246D01*
X0120586Y0135246D01*
X0114773Y0141058D01*
X0114773Y0145773D01*
X0114784Y0145784D01*
X0115176Y0146731D01*
X0115176Y0147757D01*
X0114784Y0148704D01*
X0114059Y0149430D01*
X0113111Y0149822D01*
X0112086Y0149822D01*
X0111138Y0149430D01*
X0112059Y0149811D02*
X0060935Y0149811D01*
X0060935Y0150991D02*
X0146644Y0150991D01*
X0146644Y0152170D02*
X0060935Y0152170D01*
X0060935Y0153350D02*
X0146644Y0153350D01*
X0146644Y0154529D02*
X0060935Y0154529D01*
X0060935Y0155709D02*
X0146644Y0155709D01*
X0146644Y0156806D02*
X0146644Y0135022D01*
X0146403Y0134861D01*
X0145944Y0134861D01*
X0144996Y0134469D01*
X0144271Y0133744D01*
X0143879Y0132796D01*
X0143879Y0131771D01*
X0144271Y0130823D01*
X0144996Y0130098D01*
X0145944Y0129706D01*
X0146969Y0129706D01*
X0147917Y0130098D01*
X0148642Y0130823D01*
X0148816Y0131242D01*
X0149477Y0131683D01*
X0149720Y0131683D01*
X0150204Y0132168D01*
X0150775Y0132548D01*
X0150822Y0132786D01*
X0150994Y0132957D01*
X0150994Y0133643D01*
X0151128Y0134315D01*
X0150994Y0134517D01*
X0150994Y0155005D01*
X0156019Y0160030D01*
X0174120Y0160030D01*
X0174130Y0160019D01*
X0175078Y0159627D01*
X0176103Y0159627D01*
X0177051Y0160019D01*
X0177776Y0160744D01*
X0178168Y0161692D01*
X0178168Y0162718D01*
X0177776Y0163665D01*
X0177051Y0164390D01*
X0176103Y0164783D01*
X0175078Y0164783D01*
X0174130Y0164390D01*
X0174120Y0164380D01*
X0154217Y0164380D01*
X0152943Y0163106D01*
X0146644Y0156806D01*
X0146726Y0156889D02*
X0060935Y0156889D01*
X0060935Y0158068D02*
X0147906Y0158068D01*
X0149086Y0159248D02*
X0060935Y0159248D01*
X0060935Y0160427D02*
X0150265Y0160427D01*
X0151445Y0161607D02*
X0060935Y0161607D01*
X0060935Y0162787D02*
X0152624Y0162787D01*
X0153804Y0163966D02*
X0060935Y0163966D01*
X0060935Y0165146D02*
X0186754Y0165146D01*
X0186754Y0166013D02*
X0186754Y0159027D01*
X0187452Y0158329D01*
X0194438Y0158329D01*
X0195135Y0159027D01*
X0195135Y0166013D01*
X0194438Y0166710D01*
X0187452Y0166710D01*
X0186754Y0166013D01*
X0187067Y0166326D02*
X0060935Y0166326D01*
X0060935Y0167505D02*
X0195260Y0167505D01*
X0195260Y0166326D02*
X0194823Y0166326D01*
X0195135Y0165146D02*
X0195260Y0165146D01*
X0195260Y0163966D02*
X0195135Y0163966D01*
X0195135Y0162787D02*
X0195260Y0162787D01*
X0195260Y0161607D02*
X0195135Y0161607D01*
X0195135Y0160427D02*
X0195260Y0160427D01*
X0195260Y0159248D02*
X0195135Y0159248D01*
X0195260Y0158068D02*
X0154057Y0158068D01*
X0152878Y0156889D02*
X0195260Y0156889D01*
X0195260Y0155709D02*
X0193682Y0155709D01*
X0193319Y0156072D02*
X0191778Y0156710D01*
X0190111Y0156710D01*
X0188571Y0156072D01*
X0187392Y0154893D01*
X0186754Y0153353D01*
X0186754Y0151686D01*
X0187392Y0150146D01*
X0188571Y0148967D01*
X0190111Y0148329D01*
X0191778Y0148329D01*
X0193319Y0148967D01*
X0194497Y0150146D01*
X0195135Y0151686D01*
X0195135Y0153353D01*
X0194497Y0154893D01*
X0193319Y0156072D01*
X0194648Y0154529D02*
X0195260Y0154529D01*
X0195260Y0153350D02*
X0195135Y0153350D01*
X0195135Y0152170D02*
X0195260Y0152170D01*
X0195260Y0150991D02*
X0194847Y0150991D01*
X0195260Y0149811D02*
X0194162Y0149811D01*
X0195260Y0148631D02*
X0192508Y0148631D01*
X0192020Y0146997D02*
X0191354Y0147103D01*
X0191354Y0142929D01*
X0190535Y0142929D01*
X0190535Y0142110D01*
X0186362Y0142110D01*
X0186467Y0141445D01*
X0186691Y0140758D01*
X0187019Y0140114D01*
X0187443Y0139529D01*
X0187954Y0139018D01*
X0188539Y0138593D01*
X0189183Y0138265D01*
X0189870Y0138042D01*
X0190535Y0137937D01*
X0190535Y0142110D01*
X0191354Y0142110D01*
X0191354Y0137937D01*
X0192020Y0138042D01*
X0192707Y0138265D01*
X0193351Y0138593D01*
X0193935Y0139018D01*
X0194446Y0139529D01*
X0194871Y0140114D01*
X0195199Y0140758D01*
X0195260Y0140944D01*
X0195260Y0124095D01*
X0195199Y0124282D01*
X0194871Y0124926D01*
X0194446Y0125510D01*
X0193935Y0126021D01*
X0193351Y0126446D01*
X0192707Y0126774D01*
X0192020Y0126997D01*
X0191354Y0127103D01*
X0191354Y0122929D01*
X0190535Y0122929D01*
X0190535Y0122110D01*
X0186362Y0122110D01*
X0186467Y0121445D01*
X0186691Y0120758D01*
X0187019Y0120114D01*
X0187443Y0119529D01*
X0187954Y0119018D01*
X0188539Y0118593D01*
X0189183Y0118265D01*
X0189870Y0118042D01*
X0190535Y0117937D01*
X0190535Y0122110D01*
X0191354Y0122110D01*
X0191354Y0117937D01*
X0192020Y0118042D01*
X0192707Y0118265D01*
X0193351Y0118593D01*
X0193935Y0119018D01*
X0194446Y0119529D01*
X0194871Y0120114D01*
X0195199Y0120758D01*
X0195260Y0120944D01*
X0195260Y0001591D01*
X0001591Y0001591D01*
X0001591Y0195260D01*
X0195260Y0195260D01*
X0195260Y0144095D01*
X0195199Y0144282D01*
X0194871Y0144926D01*
X0194446Y0145510D01*
X0193935Y0146021D01*
X0193351Y0146446D01*
X0192707Y0146774D01*
X0192020Y0146997D01*
X0191354Y0146272D02*
X0190535Y0146272D01*
X0190535Y0147103D02*
X0189870Y0146997D01*
X0189183Y0146774D01*
X0188539Y0146446D01*
X0187954Y0146021D01*
X0187443Y0145510D01*
X0187019Y0144926D01*
X0186691Y0144282D01*
X0186467Y0143595D01*
X0186362Y0142929D01*
X0190535Y0142929D01*
X0190535Y0147103D01*
X0189382Y0148631D02*
X0150994Y0148631D01*
X0150994Y0147452D02*
X0195260Y0147452D01*
X0195260Y0146272D02*
X0193590Y0146272D01*
X0194750Y0145092D02*
X0195260Y0145092D01*
X0191354Y0145092D02*
X0190535Y0145092D01*
X0190535Y0143913D02*
X0191354Y0143913D01*
X0190535Y0142733D02*
X0150994Y0142733D01*
X0150994Y0141554D02*
X0186450Y0141554D01*
X0186886Y0140374D02*
X0150994Y0140374D01*
X0150994Y0139194D02*
X0187778Y0139194D01*
X0190043Y0138015D02*
X0150994Y0138015D01*
X0150994Y0136835D02*
X0195260Y0136835D01*
X0195260Y0135656D02*
X0193735Y0135656D01*
X0193319Y0136072D02*
X0194497Y0134893D01*
X0195135Y0133353D01*
X0195135Y0131686D01*
X0194497Y0130146D01*
X0193319Y0128967D01*
X0191778Y0128329D01*
X0190111Y0128329D01*
X0189322Y0128656D01*
X0181916Y0121250D01*
X0131195Y0121250D01*
X0130594Y0120649D01*
X0129647Y0120257D01*
X0128621Y0120257D01*
X0127674Y0120649D01*
X0126948Y0121374D01*
X0126556Y0122322D01*
X0126556Y0123347D01*
X0126948Y0124295D01*
X0127674Y0125020D01*
X0128621Y0125413D01*
X0129647Y0125413D01*
X0130594Y0125020D01*
X0131195Y0124419D01*
X0180604Y0124419D01*
X0187081Y0130897D01*
X0186754Y0131686D01*
X0186754Y0133353D01*
X0187392Y0134893D01*
X0188571Y0136072D01*
X0190111Y0136710D01*
X0191778Y0136710D01*
X0193319Y0136072D01*
X0194670Y0134476D02*
X0195260Y0134476D01*
X0195260Y0133296D02*
X0195135Y0133296D01*
X0195135Y0132117D02*
X0195260Y0132117D01*
X0195260Y0130937D02*
X0194825Y0130937D01*
X0195260Y0129758D02*
X0194109Y0129758D01*
X0195260Y0128578D02*
X0192379Y0128578D01*
X0190535Y0127103D02*
X0189870Y0126997D01*
X0189183Y0126774D01*
X0188539Y0126446D01*
X0187954Y0126021D01*
X0187443Y0125510D01*
X0187019Y0124926D01*
X0186691Y0124282D01*
X0186467Y0123595D01*
X0186362Y0122929D01*
X0190535Y0122929D01*
X0190535Y0127103D01*
X0190535Y0126219D02*
X0191354Y0126219D01*
X0191354Y0125039D02*
X0190535Y0125039D01*
X0190535Y0123859D02*
X0191354Y0123859D01*
X0190535Y0122680D02*
X0183345Y0122680D01*
X0182166Y0121500D02*
X0186459Y0121500D01*
X0186913Y0120321D02*
X0129801Y0120321D01*
X0128467Y0120321D02*
X0060935Y0120321D01*
X0060935Y0121500D02*
X0126896Y0121500D01*
X0126556Y0122680D02*
X0060935Y0122680D01*
X0060935Y0123859D02*
X0126768Y0123859D01*
X0127719Y0125039D02*
X0060935Y0125039D01*
X0060935Y0126219D02*
X0182403Y0126219D01*
X0181224Y0125039D02*
X0130548Y0125039D01*
X0125921Y0130937D02*
X0144224Y0130937D01*
X0143879Y0132117D02*
X0126805Y0132117D01*
X0126987Y0133296D02*
X0144086Y0133296D01*
X0145013Y0134476D02*
X0126618Y0134476D01*
X0120176Y0135656D02*
X0146644Y0135656D01*
X0146644Y0136835D02*
X0118996Y0136835D01*
X0117817Y0138015D02*
X0146644Y0138015D01*
X0146644Y0139194D02*
X0116637Y0139194D01*
X0115457Y0140374D02*
X0146644Y0140374D01*
X0146644Y0141554D02*
X0114773Y0141554D01*
X0114773Y0142733D02*
X0146644Y0142733D01*
X0146644Y0143913D02*
X0114773Y0143913D01*
X0114773Y0145092D02*
X0146644Y0145092D01*
X0146644Y0146272D02*
X0114986Y0146272D01*
X0115176Y0147452D02*
X0146644Y0147452D01*
X0146644Y0148631D02*
X0114814Y0148631D01*
X0113138Y0149811D02*
X0146644Y0149811D01*
X0150994Y0149811D02*
X0187727Y0149811D01*
X0187042Y0150991D02*
X0150994Y0150991D01*
X0150994Y0152170D02*
X0186754Y0152170D01*
X0186754Y0153350D02*
X0150994Y0153350D01*
X0150994Y0154529D02*
X0187242Y0154529D01*
X0188208Y0155709D02*
X0151698Y0155709D01*
X0155237Y0159248D02*
X0186754Y0159248D01*
X0186754Y0160427D02*
X0177459Y0160427D01*
X0178133Y0161607D02*
X0186754Y0161607D01*
X0186754Y0162787D02*
X0178140Y0162787D01*
X0177475Y0163966D02*
X0186754Y0163966D01*
X0195260Y0168685D02*
X0060935Y0168685D01*
X0060935Y0169864D02*
X0195260Y0169864D01*
X0195260Y0171044D02*
X0060935Y0171044D01*
X0060935Y0172224D02*
X0195260Y0172224D01*
X0195260Y0173403D02*
X0060935Y0173403D01*
X0061032Y0174583D02*
X0195260Y0174583D01*
X0195260Y0175762D02*
X0062211Y0175762D01*
X0058207Y0179301D02*
X0001591Y0179301D01*
X0001591Y0178122D02*
X0057027Y0178122D01*
X0055941Y0176942D02*
X0001591Y0176942D01*
X0001591Y0175762D02*
X0055601Y0175762D01*
X0055601Y0174583D02*
X0001591Y0174583D01*
X0001591Y0173403D02*
X0055601Y0173403D01*
X0055601Y0172224D02*
X0001591Y0172224D01*
X0001591Y0171044D02*
X0055601Y0171044D01*
X0055601Y0169864D02*
X0001591Y0169864D01*
X0001591Y0168685D02*
X0055601Y0168685D01*
X0055601Y0167505D02*
X0001591Y0167505D01*
X0001591Y0166326D02*
X0055601Y0166326D01*
X0055601Y0165146D02*
X0001591Y0165146D01*
X0001591Y0163966D02*
X0055601Y0163966D01*
X0055601Y0162787D02*
X0001591Y0162787D01*
X0001591Y0161607D02*
X0055601Y0161607D01*
X0055601Y0160427D02*
X0001591Y0160427D01*
X0001591Y0159248D02*
X0055601Y0159248D01*
X0055601Y0158068D02*
X0001591Y0158068D01*
X0001591Y0156889D02*
X0055601Y0156889D01*
X0055601Y0155709D02*
X0001591Y0155709D01*
X0001591Y0154529D02*
X0055601Y0154529D01*
X0055601Y0153350D02*
X0001591Y0153350D01*
X0001591Y0152170D02*
X0055601Y0152170D01*
X0055601Y0150991D02*
X0001591Y0150991D01*
X0001591Y0149811D02*
X0055601Y0149811D01*
X0055601Y0148631D02*
X0001591Y0148631D01*
X0001591Y0147452D02*
X0055601Y0147452D01*
X0055601Y0146272D02*
X0001591Y0146272D01*
X0001591Y0145092D02*
X0055601Y0145092D01*
X0055601Y0143913D02*
X0001591Y0143913D01*
X0001591Y0142733D02*
X0055601Y0142733D01*
X0055601Y0141554D02*
X0001591Y0141554D01*
X0001591Y0140374D02*
X0055601Y0140374D01*
X0055601Y0139194D02*
X0001591Y0139194D01*
X0001591Y0138015D02*
X0040602Y0138015D01*
X0039997Y0136835D02*
X0001591Y0136835D01*
X0001591Y0135656D02*
X0034505Y0135656D01*
X0035902Y0135656D02*
X0039841Y0135656D01*
X0039550Y0134476D02*
X0037336Y0134476D01*
X0033326Y0134476D02*
X0001591Y0134476D01*
X0001591Y0133296D02*
X0032109Y0133296D01*
X0031952Y0132117D02*
X0001591Y0132117D01*
X0001591Y0130937D02*
X0032814Y0130937D01*
X0033718Y0129758D02*
X0001591Y0129758D01*
X0001591Y0128578D02*
X0033411Y0128578D01*
X0029934Y0127398D02*
X0001591Y0127398D01*
X0001591Y0126219D02*
X0029350Y0126219D01*
X0029376Y0125039D02*
X0001591Y0125039D01*
X0001591Y0123859D02*
X0029361Y0123859D01*
X0029874Y0122680D02*
X0001591Y0122680D01*
X0001591Y0121500D02*
X0033379Y0121500D01*
X0033778Y0120321D02*
X0001591Y0120321D01*
X0001591Y0119141D02*
X0032874Y0119141D01*
X0031970Y0117961D02*
X0001591Y0117961D01*
X0001591Y0116782D02*
X0032068Y0116782D01*
X0033248Y0115602D02*
X0001591Y0115602D01*
X0001591Y0114423D02*
X0034329Y0114423D01*
X0035980Y0114423D02*
X0049453Y0114423D01*
X0051104Y0114423D02*
X0055601Y0114423D01*
X0055601Y0115602D02*
X0052186Y0115602D01*
X0053365Y0116782D02*
X0055601Y0116782D01*
X0055601Y0117961D02*
X0053463Y0117961D01*
X0052559Y0119141D02*
X0055601Y0119141D01*
X0055601Y0120321D02*
X0051655Y0120321D01*
X0052054Y0121500D02*
X0055601Y0121500D01*
X0055559Y0122680D02*
X0055601Y0122680D01*
X0055601Y0127398D02*
X0055499Y0127398D01*
X0055601Y0128578D02*
X0052022Y0128578D01*
X0051715Y0129758D02*
X0055601Y0129758D01*
X0055601Y0130937D02*
X0052619Y0130937D01*
X0053481Y0132117D02*
X0055601Y0132117D01*
X0055601Y0133296D02*
X0053325Y0133296D01*
X0052107Y0134476D02*
X0055601Y0134476D01*
X0055601Y0135656D02*
X0050928Y0135656D01*
X0049531Y0135656D02*
X0045592Y0135656D01*
X0045436Y0136835D02*
X0055601Y0136835D01*
X0055601Y0138015D02*
X0044831Y0138015D01*
X0045883Y0134476D02*
X0048097Y0134476D01*
X0044525Y0126219D02*
X0040871Y0126219D01*
X0040521Y0125039D02*
X0044938Y0125039D01*
X0044625Y0123859D02*
X0040871Y0123859D01*
X0042284Y0122680D02*
X0043149Y0122680D01*
X0042777Y0121500D02*
X0042656Y0121500D01*
X0042067Y0120321D02*
X0043366Y0120321D01*
X0043374Y0120307D02*
X0043374Y0120307D01*
X0043980Y0119141D02*
X0041453Y0119141D01*
X0040838Y0117961D02*
X0044595Y0117961D01*
X0045209Y0116782D02*
X0040224Y0116782D01*
X0040554Y0117416D02*
X0040554Y0117416D01*
X0038697Y0115857D02*
X0038697Y0115857D01*
X0037438Y0115602D02*
X0047995Y0115602D01*
X0055601Y0113243D02*
X0001591Y0113243D01*
X0001591Y0112063D02*
X0055601Y0112063D01*
X0055601Y0110884D02*
X0001591Y0110884D01*
X0001591Y0109704D02*
X0055601Y0109704D01*
X0055601Y0108524D02*
X0001591Y0108524D01*
X0001591Y0107345D02*
X0055601Y0107345D01*
X0055601Y0106165D02*
X0001591Y0106165D01*
X0001591Y0104986D02*
X0055601Y0104986D01*
X0055601Y0103806D02*
X0001591Y0103806D01*
X0001591Y0102626D02*
X0055601Y0102626D01*
X0055601Y0101447D02*
X0001591Y0101447D01*
X0001591Y0100267D02*
X0055551Y0100267D01*
X0054371Y0099088D02*
X0001591Y0099088D01*
X0001591Y0097908D02*
X0053191Y0097908D01*
X0052012Y0096728D02*
X0001591Y0096728D01*
X0001591Y0095549D02*
X0050832Y0095549D01*
X0049653Y0094369D02*
X0001591Y0094369D01*
X0001591Y0093189D02*
X0048473Y0093189D01*
X0047293Y0092010D02*
X0001591Y0092010D01*
X0001591Y0090830D02*
X0046114Y0090830D01*
X0044934Y0089651D02*
X0001591Y0089651D01*
X0001591Y0088471D02*
X0043755Y0088471D01*
X0042575Y0087291D02*
X0001591Y0087291D01*
X0001591Y0086112D02*
X0041395Y0086112D01*
X0040702Y0084932D02*
X0001591Y0084932D01*
X0001591Y0083753D02*
X0040640Y0083753D01*
X0041214Y0082573D02*
X0001591Y0082573D01*
X0001591Y0081393D02*
X0080099Y0081393D01*
X0080255Y0080214D02*
X0001591Y0080214D01*
X0001591Y0079034D02*
X0081100Y0079034D01*
X0080502Y0082573D02*
X0045400Y0082573D01*
X0046579Y0083753D02*
X0099991Y0083753D01*
X0099991Y0084932D02*
X0047759Y0084932D01*
X0048939Y0086112D02*
X0099991Y0086112D01*
X0099991Y0087291D02*
X0050118Y0087291D01*
X0051298Y0088471D02*
X0099991Y0088471D01*
X0099991Y0089651D02*
X0052477Y0089651D01*
X0053657Y0090830D02*
X0099991Y0090830D01*
X0099991Y0092010D02*
X0054837Y0092010D01*
X0056016Y0093189D02*
X0099991Y0093189D01*
X0099991Y0094369D02*
X0057196Y0094369D01*
X0058375Y0095549D02*
X0099991Y0095549D01*
X0099991Y0096728D02*
X0059555Y0096728D01*
X0060614Y0097908D02*
X0099991Y0097908D01*
X0099991Y0099088D02*
X0060935Y0099088D01*
X0060935Y0100267D02*
X0100389Y0100267D01*
X0101569Y0101447D02*
X0060935Y0101447D01*
X0060935Y0102626D02*
X0102748Y0102626D01*
X0103928Y0103806D02*
X0101370Y0103806D01*
X0099937Y0108524D02*
X0060935Y0108524D01*
X0060935Y0109704D02*
X0114720Y0109704D01*
X0115787Y0112063D02*
X0060935Y0112063D01*
X0060935Y0110884D02*
X0118738Y0110884D01*
X0118690Y0109704D02*
X0118351Y0109704D01*
X0118859Y0112063D02*
X0119441Y0112063D01*
X0114918Y0113243D02*
X0060935Y0113243D01*
X0060935Y0114423D02*
X0114745Y0114423D01*
X0115124Y0115602D02*
X0060935Y0115602D01*
X0060935Y0116782D02*
X0195260Y0116782D01*
X0195260Y0117961D02*
X0191510Y0117961D01*
X0191354Y0117961D02*
X0190535Y0117961D01*
X0190380Y0117961D02*
X0060935Y0117961D01*
X0060935Y0119141D02*
X0187832Y0119141D01*
X0190535Y0119141D02*
X0191354Y0119141D01*
X0191354Y0120321D02*
X0190535Y0120321D01*
X0190535Y0121500D02*
X0191354Y0121500D01*
X0194976Y0120321D02*
X0195260Y0120321D01*
X0195260Y0119141D02*
X0194058Y0119141D01*
X0193319Y0116072D02*
X0191778Y0116710D01*
X0190111Y0116710D01*
X0188571Y0116072D01*
X0187392Y0114893D01*
X0186754Y0113353D01*
X0186754Y0111686D01*
X0187392Y0110146D01*
X0188571Y0108967D01*
X0190111Y0108329D01*
X0191778Y0108329D01*
X0193319Y0108967D01*
X0194497Y0110146D01*
X0195135Y0111686D01*
X0195135Y0113353D01*
X0194497Y0114893D01*
X0193319Y0116072D01*
X0193789Y0115602D02*
X0195260Y0115602D01*
X0195260Y0114423D02*
X0194693Y0114423D01*
X0195135Y0113243D02*
X0195260Y0113243D01*
X0195260Y0112063D02*
X0195135Y0112063D01*
X0195260Y0110884D02*
X0194803Y0110884D01*
X0195260Y0109704D02*
X0194056Y0109704D01*
X0195260Y0108524D02*
X0192250Y0108524D01*
X0191778Y0106710D02*
X0190111Y0106710D01*
X0188571Y0106072D01*
X0187392Y0104893D01*
X0186754Y0103353D01*
X0186754Y0101686D01*
X0187392Y0100146D01*
X0188571Y0098967D01*
X0190111Y0098329D01*
X0191778Y0098329D01*
X0193319Y0098967D01*
X0194497Y0100146D01*
X0195135Y0101686D01*
X0195135Y0103353D01*
X0194497Y0104893D01*
X0193319Y0106072D01*
X0191778Y0106710D01*
X0193094Y0106165D02*
X0195260Y0106165D01*
X0195260Y0104986D02*
X0194405Y0104986D01*
X0194948Y0103806D02*
X0195260Y0103806D01*
X0195260Y0102626D02*
X0195135Y0102626D01*
X0195036Y0101447D02*
X0195260Y0101447D01*
X0195260Y0100267D02*
X0194548Y0100267D01*
X0195260Y0099088D02*
X0193439Y0099088D01*
X0195260Y0097908D02*
X0169735Y0097908D01*
X0170914Y0096728D02*
X0195260Y0096728D01*
X0195260Y0095549D02*
X0195135Y0095549D01*
X0195135Y0094369D02*
X0195260Y0094369D01*
X0195260Y0093189D02*
X0195135Y0093189D01*
X0195135Y0092010D02*
X0195260Y0092010D01*
X0195260Y0090830D02*
X0195135Y0090830D01*
X0195135Y0089651D02*
X0195260Y0089651D01*
X0195260Y0088471D02*
X0194580Y0088471D01*
X0195260Y0087291D02*
X0165167Y0087291D01*
X0165167Y0086112D02*
X0195260Y0086112D01*
X0195260Y0084932D02*
X0165167Y0084932D01*
X0165167Y0083753D02*
X0195260Y0083753D01*
X0195260Y0082573D02*
X0165167Y0082573D01*
X0165167Y0081393D02*
X0195260Y0081393D01*
X0195260Y0080214D02*
X0165167Y0080214D01*
X0165167Y0079034D02*
X0195260Y0079034D01*
X0195260Y0077855D02*
X0165167Y0077855D01*
X0165167Y0076675D02*
X0195260Y0076675D01*
X0195260Y0075495D02*
X0165167Y0075495D01*
X0165167Y0074316D02*
X0195260Y0074316D01*
X0195260Y0073136D02*
X0165495Y0073136D01*
X0165570Y0071956D02*
X0195260Y0071956D01*
X0195260Y0070777D02*
X0164974Y0070777D01*
X0161010Y0070777D02*
X0102427Y0070777D01*
X0102578Y0071956D02*
X0160414Y0071956D01*
X0160490Y0073136D02*
X0102936Y0073136D01*
X0104115Y0074316D02*
X0160817Y0074316D01*
X0160817Y0075495D02*
X0105295Y0075495D01*
X0106309Y0076675D02*
X0160817Y0076675D01*
X0160817Y0077855D02*
X0106309Y0077855D01*
X0106309Y0079034D02*
X0160817Y0079034D01*
X0160817Y0080214D02*
X0106309Y0080214D01*
X0106309Y0081393D02*
X0160817Y0081393D01*
X0160817Y0082573D02*
X0106309Y0082573D01*
X0106309Y0083753D02*
X0160817Y0083753D01*
X0160817Y0084932D02*
X0106309Y0084932D01*
X0106309Y0086112D02*
X0160817Y0086112D01*
X0160817Y0087291D02*
X0106309Y0087291D01*
X0106309Y0088471D02*
X0160817Y0088471D01*
X0160817Y0089651D02*
X0106309Y0089651D01*
X0106309Y0090830D02*
X0160817Y0090830D01*
X0160817Y0092010D02*
X0106309Y0092010D01*
X0106309Y0093189D02*
X0160817Y0093189D01*
X0160817Y0094369D02*
X0106309Y0094369D01*
X0106309Y0095549D02*
X0160817Y0095549D01*
X0160817Y0096728D02*
X0106309Y0096728D01*
X0107235Y0097908D02*
X0160817Y0097908D01*
X0160817Y0099088D02*
X0136952Y0099088D01*
X0135489Y0099088D02*
X0108415Y0099088D01*
X0099991Y0082573D02*
X0084852Y0082573D01*
X0085255Y0081393D02*
X0099991Y0081393D01*
X0099634Y0074316D02*
X0095284Y0074316D01*
X0097837Y0073136D02*
X0001591Y0073136D01*
X0001591Y0071956D02*
X0097422Y0071956D01*
X0097573Y0070777D02*
X0001591Y0070777D01*
X0001591Y0069597D02*
X0098411Y0069597D01*
X0101589Y0069597D02*
X0195260Y0069597D01*
X0195260Y0068418D02*
X0001591Y0068418D01*
X0001591Y0067238D02*
X0195260Y0067238D01*
X0195260Y0066058D02*
X0001591Y0066058D01*
X0001591Y0064879D02*
X0195260Y0064879D01*
X0195260Y0063699D02*
X0001591Y0063699D01*
X0001591Y0062520D02*
X0195260Y0062520D01*
X0195260Y0061340D02*
X0001591Y0061340D01*
X0001591Y0060160D02*
X0195260Y0060160D01*
X0195260Y0058981D02*
X0001591Y0058981D01*
X0001591Y0057801D02*
X0195260Y0057801D01*
X0195260Y0056621D02*
X0001591Y0056621D01*
X0001591Y0055442D02*
X0195260Y0055442D01*
X0195260Y0054262D02*
X0001591Y0054262D01*
X0001591Y0053083D02*
X0195260Y0053083D01*
X0195260Y0051903D02*
X0001591Y0051903D01*
X0001591Y0050723D02*
X0195260Y0050723D01*
X0195260Y0049544D02*
X0001591Y0049544D01*
X0001591Y0048364D02*
X0195260Y0048364D01*
X0195260Y0047185D02*
X0001591Y0047185D01*
X0001591Y0046005D02*
X0195260Y0046005D01*
X0195260Y0044825D02*
X0001591Y0044825D01*
X0001591Y0043646D02*
X0195260Y0043646D01*
X0195260Y0042466D02*
X0001591Y0042466D01*
X0001591Y0041286D02*
X0195260Y0041286D01*
X0195260Y0040107D02*
X0001591Y0040107D01*
X0001591Y0038927D02*
X0063350Y0038927D01*
X0063002Y0038580D02*
X0062580Y0037560D01*
X0062580Y0036456D01*
X0063002Y0035436D01*
X0063783Y0034656D01*
X0064754Y0034253D01*
X0064754Y0018784D01*
X0066028Y0017510D01*
X0071934Y0011605D01*
X0091891Y0011605D01*
X0091891Y0009911D01*
X0092589Y0009214D01*
X0100325Y0009214D01*
X0101022Y0009911D01*
X0101022Y0017648D01*
X0100325Y0018345D01*
X0092589Y0018345D01*
X0091891Y0017648D01*
X0091891Y0015954D01*
X0073735Y0015954D01*
X0069104Y0020586D01*
X0069104Y0036334D01*
X0068129Y0037309D01*
X0068129Y0037560D01*
X0067707Y0038580D01*
X0066926Y0039360D01*
X0065906Y0039783D01*
X0064802Y0039783D01*
X0063783Y0039360D01*
X0063002Y0038580D01*
X0062657Y0037748D02*
X0001591Y0037748D01*
X0001591Y0036568D02*
X0062580Y0036568D01*
X0063050Y0035388D02*
X0001591Y0035388D01*
X0001591Y0034209D02*
X0064754Y0034209D01*
X0064754Y0033029D02*
X0001591Y0033029D01*
X0001591Y0031850D02*
X0064754Y0031850D01*
X0064754Y0030670D02*
X0001591Y0030670D01*
X0001591Y0029490D02*
X0064754Y0029490D01*
X0064754Y0028311D02*
X0001591Y0028311D01*
X0001591Y0027131D02*
X0064754Y0027131D01*
X0064754Y0025952D02*
X0001591Y0025952D01*
X0001591Y0024772D02*
X0064754Y0024772D01*
X0064754Y0023592D02*
X0001591Y0023592D01*
X0001591Y0022413D02*
X0064754Y0022413D01*
X0064754Y0021233D02*
X0039738Y0021233D01*
X0039579Y0021276D02*
X0035925Y0021276D01*
X0035925Y0016240D01*
X0034941Y0016240D01*
X0034941Y0015256D01*
X0029905Y0015256D01*
X0029906Y0011602D01*
X0030014Y0011197D01*
X0030223Y0010834D01*
X0030519Y0010538D01*
X0030882Y0010329D01*
X0031287Y0010220D01*
X0034941Y0010220D01*
X0034941Y0015256D01*
X0035925Y0015256D01*
X0035925Y0010220D01*
X0039579Y0010220D01*
X0039984Y0010329D01*
X0040347Y0010538D01*
X0040643Y0010834D01*
X0040852Y0011197D01*
X0040961Y0011602D01*
X0040961Y0015256D01*
X0035925Y0015256D01*
X0035925Y0016240D01*
X0040961Y0016240D01*
X0040961Y0019894D01*
X0040852Y0020299D01*
X0040643Y0020662D01*
X0040347Y0020958D01*
X0039984Y0021167D01*
X0039579Y0021276D01*
X0040918Y0020053D02*
X0052487Y0020053D01*
X0052529Y0020095D02*
X0051086Y0018653D01*
X0050306Y0016768D01*
X0050306Y0014728D01*
X0051086Y0012843D01*
X0052529Y0011401D01*
X0054413Y0010620D01*
X0056453Y0010620D01*
X0058338Y0011401D01*
X0059780Y0012843D01*
X0060561Y0014728D01*
X0060561Y0016768D01*
X0059780Y0018653D01*
X0058338Y0020095D01*
X0056453Y0020876D01*
X0054413Y0020876D01*
X0052529Y0020095D01*
X0051307Y0018874D02*
X0040961Y0018874D01*
X0040961Y0017694D02*
X0050689Y0017694D01*
X0050306Y0016515D02*
X0040961Y0016515D01*
X0040961Y0014155D02*
X0050543Y0014155D01*
X0050306Y0015335D02*
X0035925Y0015335D01*
X0034941Y0015335D02*
X0001591Y0015335D01*
X0001591Y0016515D02*
X0029906Y0016515D01*
X0029906Y0016240D02*
X0034941Y0016240D01*
X0034941Y0021276D01*
X0031287Y0021276D01*
X0030882Y0021167D01*
X0030519Y0020958D01*
X0030223Y0020662D01*
X0030014Y0020299D01*
X0029906Y0019894D01*
X0029906Y0016240D01*
X0029906Y0017694D02*
X0001591Y0017694D01*
X0001591Y0018874D02*
X0029906Y0018874D01*
X0029948Y0020053D02*
X0001591Y0020053D01*
X0001591Y0021233D02*
X0031128Y0021233D01*
X0034941Y0021233D02*
X0035925Y0021233D01*
X0035925Y0020053D02*
X0034941Y0020053D01*
X0034941Y0018874D02*
X0035925Y0018874D01*
X0035925Y0017694D02*
X0034941Y0017694D01*
X0034941Y0016515D02*
X0035925Y0016515D01*
X0035925Y0014155D02*
X0034941Y0014155D01*
X0034941Y0012976D02*
X0035925Y0012976D01*
X0035925Y0011796D02*
X0034941Y0011796D01*
X0034941Y0010617D02*
X0035925Y0010617D01*
X0040425Y0010617D02*
X0091891Y0010617D01*
X0092366Y0009437D02*
X0001591Y0009437D01*
X0001591Y0010617D02*
X0030441Y0010617D01*
X0029905Y0011796D02*
X0001591Y0011796D01*
X0001591Y0012976D02*
X0029905Y0012976D01*
X0029905Y0014155D02*
X0001591Y0014155D01*
X0001591Y0008257D02*
X0195260Y0008257D01*
X0195260Y0007078D02*
X0001591Y0007078D01*
X0001591Y0005898D02*
X0195260Y0005898D01*
X0195260Y0004718D02*
X0001591Y0004718D01*
X0001591Y0003539D02*
X0195260Y0003539D01*
X0195260Y0002359D02*
X0001591Y0002359D01*
X0040961Y0011796D02*
X0052133Y0011796D01*
X0051031Y0012976D02*
X0040961Y0012976D01*
X0058379Y0020053D02*
X0064754Y0020053D01*
X0064754Y0018874D02*
X0059559Y0018874D01*
X0060177Y0017694D02*
X0065844Y0017694D01*
X0067024Y0016515D02*
X0060561Y0016515D01*
X0060561Y0015335D02*
X0068204Y0015335D01*
X0069383Y0014155D02*
X0060323Y0014155D01*
X0059835Y0012976D02*
X0070563Y0012976D01*
X0071742Y0011796D02*
X0058733Y0011796D01*
X0069636Y0020053D02*
X0104124Y0020053D01*
X0104124Y0018874D02*
X0070816Y0018874D01*
X0071996Y0017694D02*
X0091938Y0017694D01*
X0091891Y0016515D02*
X0073175Y0016515D01*
X0069104Y0021233D02*
X0104124Y0021233D01*
X0104124Y0022413D02*
X0069104Y0022413D01*
X0069104Y0023592D02*
X0104124Y0023592D01*
X0104124Y0024772D02*
X0069104Y0024772D01*
X0069104Y0025952D02*
X0104124Y0025952D01*
X0104124Y0026875D02*
X0104124Y0017755D01*
X0103871Y0017650D01*
X0102586Y0016366D01*
X0101891Y0014688D01*
X0101891Y0012871D01*
X0102586Y0011193D01*
X0103871Y0009909D01*
X0105549Y0009214D01*
X0107365Y0009214D01*
X0109043Y0009909D01*
X0110327Y0011193D01*
X0111022Y0012871D01*
X0111022Y0014688D01*
X0110327Y0016366D01*
X0109043Y0017650D01*
X0108474Y0017886D01*
X0108474Y0026875D01*
X0108485Y0026886D01*
X0108877Y0027834D01*
X0108877Y0028859D01*
X0108485Y0029807D01*
X0107759Y0030532D01*
X0106812Y0030924D01*
X0105786Y0030924D01*
X0104839Y0030532D01*
X0104114Y0029807D01*
X0103721Y0028859D01*
X0103721Y0027834D01*
X0104114Y0026886D01*
X0104124Y0026875D01*
X0104012Y0027131D02*
X0069104Y0027131D01*
X0069104Y0028311D02*
X0103721Y0028311D01*
X0103983Y0029490D02*
X0069104Y0029490D01*
X0069104Y0030670D02*
X0105172Y0030670D01*
X0107426Y0030670D02*
X0195260Y0030670D01*
X0195260Y0031850D02*
X0069104Y0031850D01*
X0069104Y0033029D02*
X0195260Y0033029D01*
X0195260Y0034209D02*
X0069104Y0034209D01*
X0069104Y0035388D02*
X0195260Y0035388D01*
X0195260Y0036568D02*
X0068870Y0036568D01*
X0068051Y0037748D02*
X0195260Y0037748D01*
X0195260Y0038927D02*
X0067359Y0038927D01*
X0100976Y0017694D02*
X0103977Y0017694D01*
X0102735Y0016515D02*
X0101022Y0016515D01*
X0101022Y0015335D02*
X0102159Y0015335D01*
X0101891Y0014155D02*
X0101022Y0014155D01*
X0101022Y0012976D02*
X0101891Y0012976D01*
X0102337Y0011796D02*
X0101022Y0011796D01*
X0101022Y0010617D02*
X0103163Y0010617D01*
X0105010Y0009437D02*
X0100548Y0009437D01*
X0107903Y0009437D02*
X0115010Y0009437D01*
X0115549Y0009214D02*
X0117365Y0009214D01*
X0119043Y0009909D01*
X0120327Y0011193D01*
X0121022Y0012871D01*
X0121022Y0014688D01*
X0120327Y0016366D01*
X0119043Y0017650D01*
X0117365Y0018345D01*
X0115549Y0018345D01*
X0113871Y0017650D01*
X0112586Y0016366D01*
X0111891Y0014688D01*
X0111891Y0012871D01*
X0112586Y0011193D01*
X0113871Y0009909D01*
X0115549Y0009214D01*
X0117903Y0009437D02*
X0125010Y0009437D01*
X0125549Y0009214D02*
X0127365Y0009214D01*
X0129043Y0009909D01*
X0130327Y0011193D01*
X0131022Y0012871D01*
X0131022Y0014688D01*
X0130327Y0016366D01*
X0129043Y0017650D01*
X0127365Y0018345D01*
X0125549Y0018345D01*
X0123871Y0017650D01*
X0122586Y0016366D01*
X0121891Y0014688D01*
X0121891Y0012871D01*
X0122586Y0011193D01*
X0123871Y0009909D01*
X0125549Y0009214D01*
X0127903Y0009437D02*
X0135010Y0009437D01*
X0135549Y0009214D02*
X0137365Y0009214D01*
X0139043Y0009909D01*
X0140327Y0011193D01*
X0141022Y0012871D01*
X0141022Y0014688D01*
X0140327Y0016366D01*
X0139043Y0017650D01*
X0137365Y0018345D01*
X0135549Y0018345D01*
X0133871Y0017650D01*
X0132586Y0016366D01*
X0131891Y0014688D01*
X0131891Y0012871D01*
X0132586Y0011193D01*
X0133871Y0009909D01*
X0135549Y0009214D01*
X0133163Y0010617D02*
X0129750Y0010617D01*
X0130577Y0011796D02*
X0132337Y0011796D01*
X0131891Y0012976D02*
X0131022Y0012976D01*
X0131022Y0014155D02*
X0131891Y0014155D01*
X0132159Y0015335D02*
X0130754Y0015335D01*
X0130178Y0016515D02*
X0132735Y0016515D01*
X0133977Y0017694D02*
X0128936Y0017694D01*
X0123977Y0017694D02*
X0118936Y0017694D01*
X0120178Y0016515D02*
X0122735Y0016515D01*
X0122159Y0015335D02*
X0120754Y0015335D01*
X0121022Y0014155D02*
X0121891Y0014155D01*
X0121891Y0012976D02*
X0121022Y0012976D01*
X0120577Y0011796D02*
X0122337Y0011796D01*
X0123163Y0010617D02*
X0119750Y0010617D01*
X0113163Y0010617D02*
X0109750Y0010617D01*
X0110577Y0011796D02*
X0112337Y0011796D01*
X0111891Y0012976D02*
X0111022Y0012976D01*
X0111022Y0014155D02*
X0111891Y0014155D01*
X0112159Y0015335D02*
X0110754Y0015335D01*
X0110178Y0016515D02*
X0112735Y0016515D01*
X0113977Y0017694D02*
X0108936Y0017694D01*
X0108474Y0018874D02*
X0195260Y0018874D01*
X0195260Y0020053D02*
X0108474Y0020053D01*
X0108474Y0021233D02*
X0195260Y0021233D01*
X0195260Y0022413D02*
X0108474Y0022413D01*
X0108474Y0023592D02*
X0195260Y0023592D01*
X0195260Y0024772D02*
X0108474Y0024772D01*
X0108474Y0025952D02*
X0195260Y0025952D01*
X0195260Y0027131D02*
X0108586Y0027131D01*
X0108877Y0028311D02*
X0195260Y0028311D01*
X0195260Y0029490D02*
X0108616Y0029490D01*
X0138936Y0017694D02*
X0143397Y0017694D01*
X0143222Y0017567D02*
X0142669Y0017014D01*
X0142210Y0016382D01*
X0141855Y0015686D01*
X0141613Y0014942D01*
X0141514Y0014314D01*
X0145922Y0014314D01*
X0145922Y0013245D01*
X0141514Y0013245D01*
X0141613Y0012617D01*
X0141855Y0011873D01*
X0142210Y0011177D01*
X0142669Y0010545D01*
X0143222Y0009992D01*
X0143854Y0009533D01*
X0144551Y0009178D01*
X0145294Y0008936D01*
X0145922Y0008837D01*
X0145922Y0013245D01*
X0146991Y0013245D01*
X0146991Y0008837D01*
X0147619Y0008936D01*
X0148363Y0009178D01*
X0149059Y0009533D01*
X0149692Y0009992D01*
X0150244Y0010545D01*
X0150704Y0011177D01*
X0151058Y0011873D01*
X0151300Y0012617D01*
X0151399Y0013245D01*
X0146991Y0013245D01*
X0146991Y0014314D01*
X0145922Y0014314D01*
X0145922Y0018722D01*
X0145294Y0018623D01*
X0144551Y0018381D01*
X0143854Y0018026D01*
X0143222Y0017567D01*
X0142306Y0016515D02*
X0140178Y0016515D01*
X0140754Y0015335D02*
X0141741Y0015335D01*
X0141022Y0014155D02*
X0145922Y0014155D01*
X0146991Y0014155D02*
X0151891Y0014155D01*
X0151399Y0014314D02*
X0151300Y0014942D01*
X0151058Y0015686D01*
X0150704Y0016382D01*
X0150244Y0017014D01*
X0149692Y0017567D01*
X0149059Y0018026D01*
X0148363Y0018381D01*
X0147619Y0018623D01*
X0146991Y0018722D01*
X0146991Y0014314D01*
X0151399Y0014314D01*
X0151891Y0014688D02*
X0151891Y0012871D01*
X0152586Y0011193D01*
X0153871Y0009909D01*
X0155549Y0009214D01*
X0157365Y0009214D01*
X0159043Y0009909D01*
X0160327Y0011193D01*
X0161022Y0012871D01*
X0161022Y0014688D01*
X0160327Y0016366D01*
X0159043Y0017650D01*
X0157365Y0018345D01*
X0155549Y0018345D01*
X0153871Y0017650D01*
X0152586Y0016366D01*
X0151891Y0014688D01*
X0152159Y0015335D02*
X0151172Y0015335D01*
X0150607Y0016515D02*
X0152735Y0016515D01*
X0153977Y0017694D02*
X0149516Y0017694D01*
X0146991Y0017694D02*
X0145922Y0017694D01*
X0145922Y0016515D02*
X0146991Y0016515D01*
X0146991Y0015335D02*
X0145922Y0015335D01*
X0145922Y0012976D02*
X0146991Y0012976D01*
X0146991Y0011796D02*
X0145922Y0011796D01*
X0145922Y0010617D02*
X0146991Y0010617D01*
X0146991Y0009437D02*
X0145922Y0009437D01*
X0144042Y0009437D02*
X0137903Y0009437D01*
X0139750Y0010617D02*
X0142617Y0010617D01*
X0141894Y0011796D02*
X0140577Y0011796D01*
X0141022Y0012976D02*
X0141557Y0012976D01*
X0148871Y0009437D02*
X0155010Y0009437D01*
X0153163Y0010617D02*
X0150296Y0010617D01*
X0151019Y0011796D02*
X0152337Y0011796D01*
X0151891Y0012976D02*
X0151357Y0012976D01*
X0157903Y0009437D02*
X0165010Y0009437D01*
X0165549Y0009214D02*
X0167365Y0009214D01*
X0169043Y0009909D01*
X0170327Y0011193D01*
X0171022Y0012871D01*
X0171022Y0014688D01*
X0170327Y0016366D01*
X0169043Y0017650D01*
X0167365Y0018345D01*
X0165549Y0018345D01*
X0163871Y0017650D01*
X0162586Y0016366D01*
X0161891Y0014688D01*
X0161891Y0012871D01*
X0162586Y0011193D01*
X0163871Y0009909D01*
X0165549Y0009214D01*
X0167903Y0009437D02*
X0195260Y0009437D01*
X0195260Y0010617D02*
X0169750Y0010617D01*
X0170577Y0011796D02*
X0195260Y0011796D01*
X0195260Y0012976D02*
X0171022Y0012976D01*
X0171022Y0014155D02*
X0195260Y0014155D01*
X0195260Y0015335D02*
X0170754Y0015335D01*
X0170178Y0016515D02*
X0195260Y0016515D01*
X0195260Y0017694D02*
X0168936Y0017694D01*
X0163977Y0017694D02*
X0158936Y0017694D01*
X0160178Y0016515D02*
X0162735Y0016515D01*
X0162159Y0015335D02*
X0160754Y0015335D01*
X0161022Y0014155D02*
X0161891Y0014155D01*
X0161891Y0012976D02*
X0161022Y0012976D01*
X0160577Y0011796D02*
X0162337Y0011796D01*
X0163163Y0010617D02*
X0159750Y0010617D01*
X0092117Y0074316D02*
X0001591Y0074316D01*
X0001591Y0075495D02*
X0091276Y0075495D01*
X0091123Y0076675D02*
X0001591Y0076675D01*
X0001591Y0077855D02*
X0091532Y0077855D01*
X0138469Y0100267D02*
X0160817Y0100267D01*
X0159905Y0101447D02*
X0142100Y0101447D01*
X0142731Y0102626D02*
X0158382Y0102626D01*
X0157685Y0103806D02*
X0144812Y0103806D01*
X0143377Y0103806D02*
X0142676Y0103806D01*
X0146341Y0104986D02*
X0156506Y0104986D01*
X0155326Y0106165D02*
X0146672Y0106165D01*
X0156759Y0110884D02*
X0165508Y0110884D01*
X0166491Y0109704D02*
X0157938Y0109704D01*
X0159118Y0108524D02*
X0167474Y0108524D01*
X0168288Y0107345D02*
X0160298Y0107345D01*
X0161987Y0106165D02*
X0168457Y0106165D01*
X0169321Y0104986D02*
X0162986Y0104986D01*
X0163837Y0103806D02*
X0186942Y0103806D01*
X0186754Y0102626D02*
X0165016Y0102626D01*
X0166196Y0101447D02*
X0186853Y0101447D01*
X0187342Y0100267D02*
X0167375Y0100267D01*
X0168555Y0099088D02*
X0188451Y0099088D01*
X0186754Y0095549D02*
X0172094Y0095549D01*
X0169481Y0092010D02*
X0165167Y0092010D01*
X0165167Y0093189D02*
X0168302Y0093189D01*
X0167122Y0094369D02*
X0165167Y0094369D01*
X0165167Y0095549D02*
X0165943Y0095549D01*
X0165167Y0090830D02*
X0170661Y0090830D01*
X0165167Y0089651D02*
X0186754Y0089651D01*
X0187310Y0088471D02*
X0165167Y0088471D01*
X0172411Y0104986D02*
X0187484Y0104986D01*
X0188796Y0106165D02*
X0173275Y0106165D01*
X0173444Y0107345D02*
X0195260Y0107345D01*
X0189640Y0108524D02*
X0173061Y0108524D01*
X0170616Y0109704D02*
X0187834Y0109704D01*
X0187087Y0110884D02*
X0169633Y0110884D01*
X0171615Y0112063D02*
X0186754Y0112063D01*
X0186754Y0113243D02*
X0172484Y0113243D01*
X0172657Y0114423D02*
X0187197Y0114423D01*
X0188101Y0115602D02*
X0172277Y0115602D01*
X0183583Y0127398D02*
X0060935Y0127398D01*
X0060935Y0128578D02*
X0184763Y0128578D01*
X0185942Y0129758D02*
X0147095Y0129758D01*
X0145818Y0129758D02*
X0060935Y0129758D01*
X0060935Y0130937D02*
X0118743Y0130937D01*
X0117564Y0132117D02*
X0060935Y0132117D01*
X0060935Y0133296D02*
X0116384Y0133296D01*
X0115204Y0134476D02*
X0060935Y0134476D01*
X0060935Y0135656D02*
X0114025Y0135656D01*
X0112845Y0136835D02*
X0060935Y0136835D01*
X0060935Y0138015D02*
X0111665Y0138015D01*
X0110486Y0139194D02*
X0060935Y0139194D01*
X0060935Y0140374D02*
X0110424Y0140374D01*
X0110424Y0141554D02*
X0060935Y0141554D01*
X0060935Y0142733D02*
X0110424Y0142733D01*
X0110424Y0143913D02*
X0060935Y0143913D01*
X0060935Y0145092D02*
X0110424Y0145092D01*
X0110211Y0146272D02*
X0060935Y0146272D01*
X0060935Y0147452D02*
X0110020Y0147452D01*
X0110383Y0148631D02*
X0060935Y0148631D01*
X0059386Y0180481D02*
X0001591Y0180481D01*
X0001591Y0181661D02*
X0060566Y0181661D01*
X0001591Y0186379D02*
X0195260Y0186379D01*
X0195260Y0187559D02*
X0001591Y0187559D01*
X0001591Y0188738D02*
X0195260Y0188738D01*
X0195260Y0189918D02*
X0001591Y0189918D01*
X0001591Y0191097D02*
X0195260Y0191097D01*
X0195260Y0192277D02*
X0001591Y0192277D01*
X0001591Y0193457D02*
X0195260Y0193457D01*
X0195260Y0194636D02*
X0001591Y0194636D01*
X0148689Y0130937D02*
X0187065Y0130937D01*
X0186754Y0132117D02*
X0150153Y0132117D01*
X0150994Y0133296D02*
X0186754Y0133296D01*
X0187219Y0134476D02*
X0151021Y0134476D01*
X0150994Y0135656D02*
X0188154Y0135656D01*
X0190535Y0138015D02*
X0191354Y0138015D01*
X0191847Y0138015D02*
X0195260Y0138015D01*
X0195260Y0139194D02*
X0194112Y0139194D01*
X0195004Y0140374D02*
X0195260Y0140374D01*
X0191354Y0140374D02*
X0190535Y0140374D01*
X0190535Y0139194D02*
X0191354Y0139194D01*
X0191354Y0141554D02*
X0190535Y0141554D01*
X0186571Y0143913D02*
X0150994Y0143913D01*
X0150994Y0145092D02*
X0187140Y0145092D01*
X0188300Y0146272D02*
X0150994Y0146272D01*
X0184525Y0123859D02*
X0186553Y0123859D01*
X0187101Y0125039D02*
X0185705Y0125039D01*
X0186884Y0126219D02*
X0188226Y0126219D01*
X0188064Y0127398D02*
X0195260Y0127398D01*
X0195260Y0126219D02*
X0193664Y0126219D01*
X0194789Y0125039D02*
X0195260Y0125039D01*
X0189511Y0128578D02*
X0189244Y0128578D01*
D19*
X0172441Y0131496D03*
X0172441Y0134646D03*
X0170866Y0126772D03*
X0170866Y0119685D03*
X0170079Y0114173D03*
X0170866Y0107087D03*
X0166929Y0103937D03*
X0160630Y0103937D03*
X0148819Y0104724D03*
X0144094Y0106299D03*
X0140157Y0103150D03*
X0136220Y0101575D03*
X0134646Y0109449D03*
X0121260Y0110236D03*
X0116535Y0107874D03*
X0114173Y0111024D03*
X0117323Y0114173D03*
X0129134Y0122835D03*
X0127559Y0127559D03*
X0124409Y0133071D03*
X0112598Y0147244D03*
X0122047Y0148819D03*
X0137795Y0151181D03*
X0122047Y0167717D03*
X0113386Y0181102D03*
X0099213Y0192126D03*
X0096850Y0183465D03*
X0096063Y0179528D03*
X0092126Y0175591D03*
X0096063Y0167717D03*
X0098425Y0151181D03*
X0098425Y0144094D03*
X0088189Y0124409D03*
X0081102Y0105512D03*
X0098425Y0096850D03*
X0113386Y0098425D03*
X0093701Y0076378D03*
X0100000Y0071654D03*
X0105512Y0066142D03*
X0102362Y0055118D03*
X0088976Y0048031D03*
X0098425Y0039370D03*
X0106299Y0028346D03*
X0126772Y0063780D03*
X0128346Y0073228D03*
X0145669Y0069291D03*
X0158268Y0063780D03*
X0162992Y0072441D03*
X0168504Y0077165D03*
X0166929Y0090551D03*
X0156693Y0092126D03*
X0144882Y0088189D03*
X0160630Y0118110D03*
X0146457Y0132283D03*
X0143307Y0127559D03*
X0165354Y0143307D03*
X0175591Y0162205D03*
X0167717Y0177953D03*
X0148031Y0169291D03*
X0143307Y0180315D03*
X0130709Y0193701D03*
X0062205Y0114961D03*
X0062205Y0111811D03*
X0054331Y0111811D03*
X0054331Y0114961D03*
X0037795Y0101575D03*
X0043307Y0084252D03*
X0048031Y0082677D03*
X0050394Y0068504D03*
X0065354Y0066142D03*
X0066929Y0055906D03*
X0082677Y0081102D03*
X0029921Y0129921D03*
X0025984Y0129921D03*
X0022047Y0129921D03*
X0029921Y0139370D03*
X0029134Y0159843D03*
X0003937Y0144882D03*
X0003937Y0125197D03*
X0009449Y0076378D03*
X0013386Y0076378D03*
X0017323Y0064567D03*
X0025197Y0062992D03*
X0014961Y0051969D03*
X0003937Y0046457D03*
X0003937Y0062205D03*
X0149606Y0047244D03*
X0170866Y0050394D03*
X0191339Y0060630D03*
X0191339Y0079528D03*
X0183465Y0088976D03*
X0183465Y0096850D03*
D20*
X0096063Y0179528D02*
X0062205Y0179528D01*
X0058268Y0175591D01*
X0058268Y0105512D01*
X0058268Y0099213D01*
X0043307Y0084252D01*
D21*
X0058268Y0105512D02*
X0081102Y0105512D01*
X0100000Y0105512D01*
X0101575Y0107087D01*
X0115748Y0107087D01*
X0116535Y0107874D01*
X0118110Y0107087D01*
X0128346Y0107087D01*
X0130709Y0109449D01*
X0134646Y0109449D01*
X0155118Y0109449D01*
X0160630Y0103937D01*
X0162992Y0101575D01*
X0162992Y0072441D01*
X0172047Y0092520D02*
X0160630Y0103937D01*
X0172047Y0092520D02*
X0190945Y0092520D01*
X0148819Y0133858D02*
X0148819Y0155906D01*
X0155118Y0162205D01*
X0175591Y0162205D01*
X0148819Y0133858D02*
X0146457Y0132283D01*
X0124409Y0133071D02*
X0119685Y0133071D01*
X0112598Y0140157D01*
X0112598Y0147244D01*
X0065354Y0037008D02*
X0066929Y0035433D01*
X0066929Y0019685D01*
X0072835Y0013780D01*
X0096457Y0013780D01*
X0106299Y0013937D02*
X0106299Y0028346D01*
D22*
X0065354Y0037008D03*
D23*
X0100000Y0071654D02*
X0100000Y0072441D01*
X0104724Y0077165D01*
X0104724Y0097638D01*
X0108661Y0101575D01*
X0136220Y0101575D01*
X0133858Y0103150D02*
X0135433Y0104724D01*
X0138583Y0104724D01*
X0140157Y0103150D01*
X0144094Y0106299D02*
X0133858Y0106299D01*
X0132283Y0104724D01*
X0107087Y0104724D01*
X0101575Y0099213D01*
X0101575Y0080315D01*
X0100787Y0079528D01*
X0084252Y0079528D01*
X0082677Y0081102D01*
X0093701Y0076378D02*
X0101575Y0076378D01*
X0103150Y0077953D01*
X0103150Y0098425D01*
X0107874Y0103150D01*
X0133858Y0103150D01*
X0123622Y0112598D02*
X0121260Y0110236D01*
X0123622Y0112598D02*
X0166142Y0112598D01*
X0170079Y0107874D01*
X0170866Y0107087D01*
X0170079Y0114173D02*
X0117323Y0114173D01*
X0129134Y0122835D02*
X0181260Y0122835D01*
X0190945Y0132520D01*
X0190709Y0132283D01*
X0106299Y0013937D02*
X0106457Y0013780D01*
X0050229Y0115886D02*
X0047404Y0118051D01*
X0046587Y0117565D02*
X0044476Y0121620D01*
X0040957Y0121620D02*
X0038846Y0117565D01*
X0038029Y0118051D02*
X0035204Y0115886D01*
X0033603Y0117487D01*
X0035768Y0120313D01*
X0034489Y0123401D02*
X0030960Y0123868D01*
X0030960Y0126132D01*
X0034489Y0126599D01*
X0035768Y0129687D02*
X0033603Y0132513D01*
X0035204Y0134114D01*
X0038029Y0131949D01*
X0041117Y0133228D02*
X0041584Y0136757D01*
X0043849Y0136757D01*
X0044316Y0133228D01*
X0047404Y0131949D02*
X0050229Y0134114D01*
X0051830Y0132513D01*
X0049666Y0129687D01*
X0050945Y0126599D02*
X0054473Y0126132D01*
X0054473Y0123868D01*
X0050945Y0123401D01*
X0049666Y0120313D02*
X0051830Y0117487D01*
X0050229Y0115886D01*
X0038847Y0117565D02*
X0038679Y0117655D01*
X0038513Y0117748D01*
X0038350Y0117846D01*
X0038189Y0117946D01*
X0038030Y0118051D01*
X0046587Y0117565D02*
X0046755Y0117655D01*
X0046921Y0117748D01*
X0047084Y0117846D01*
X0047245Y0117946D01*
X0047404Y0118051D01*
X0047404Y0131949D02*
X0047239Y0132058D01*
X0047071Y0132163D01*
X0046901Y0132263D01*
X0046728Y0132360D01*
X0046553Y0132453D01*
X0046376Y0132541D01*
X0046197Y0132626D01*
X0046016Y0132706D01*
X0045833Y0132781D01*
X0045648Y0132853D01*
X0045462Y0132920D01*
X0045274Y0132982D01*
X0045085Y0133040D01*
X0044895Y0133094D01*
X0044703Y0133143D01*
X0044510Y0133188D01*
X0044316Y0133228D01*
X0046527Y0125000D02*
X0046525Y0124878D01*
X0046519Y0124756D01*
X0046509Y0124634D01*
X0046496Y0124512D01*
X0046478Y0124391D01*
X0046457Y0124271D01*
X0046431Y0124152D01*
X0046402Y0124033D01*
X0046369Y0123915D01*
X0046333Y0123798D01*
X0046292Y0123683D01*
X0046248Y0123569D01*
X0046200Y0123457D01*
X0046149Y0123346D01*
X0046094Y0123236D01*
X0046036Y0123129D01*
X0045974Y0123023D01*
X0045909Y0122920D01*
X0045841Y0122819D01*
X0045769Y0122720D01*
X0045694Y0122623D01*
X0045617Y0122529D01*
X0045536Y0122437D01*
X0045452Y0122348D01*
X0045366Y0122261D01*
X0045277Y0122178D01*
X0045185Y0122097D01*
X0045090Y0122019D01*
X0044993Y0121945D01*
X0044894Y0121873D01*
X0044793Y0121805D01*
X0044689Y0121740D01*
X0044584Y0121679D01*
X0044476Y0121620D01*
X0040958Y0121620D02*
X0040849Y0121679D01*
X0040743Y0121741D01*
X0040639Y0121807D01*
X0040537Y0121875D01*
X0040437Y0121947D01*
X0040340Y0122023D01*
X0040245Y0122101D01*
X0040152Y0122182D01*
X0040063Y0122267D01*
X0039976Y0122354D01*
X0039892Y0122444D01*
X0039811Y0122536D01*
X0039733Y0122632D01*
X0039658Y0122729D01*
X0039586Y0122829D01*
X0039517Y0122932D01*
X0039452Y0123036D01*
X0039390Y0123142D01*
X0039332Y0123251D01*
X0039277Y0123361D01*
X0039226Y0123473D01*
X0039179Y0123587D01*
X0039135Y0123702D01*
X0039095Y0123818D01*
X0039059Y0123936D01*
X0039026Y0124054D01*
X0038998Y0124174D01*
X0038973Y0124295D01*
X0038952Y0124416D01*
X0038935Y0124538D01*
X0038922Y0124660D01*
X0038913Y0124783D01*
X0038908Y0124906D01*
X0038907Y0125029D01*
X0038910Y0125152D01*
X0038917Y0125275D01*
X0038928Y0125398D01*
X0038943Y0125520D01*
X0038961Y0125642D01*
X0038984Y0125763D01*
X0039011Y0125883D01*
X0039041Y0126002D01*
X0039075Y0126120D01*
X0039114Y0126237D01*
X0039155Y0126353D01*
X0039201Y0126467D01*
X0039250Y0126580D01*
X0039303Y0126691D01*
X0039359Y0126801D01*
X0039419Y0126908D01*
X0039483Y0127014D01*
X0039549Y0127117D01*
X0039619Y0127218D01*
X0039693Y0127317D01*
X0039769Y0127414D01*
X0039849Y0127508D01*
X0039931Y0127599D01*
X0040017Y0127688D01*
X0040105Y0127774D01*
X0040196Y0127857D01*
X0040289Y0127936D01*
X0040386Y0128013D01*
X0040484Y0128087D01*
X0040585Y0128158D01*
X0040688Y0128225D01*
X0040793Y0128289D01*
X0040901Y0128349D01*
X0041010Y0128406D01*
X0041121Y0128459D01*
X0041233Y0128509D01*
X0041347Y0128555D01*
X0041463Y0128598D01*
X0041580Y0128636D01*
X0041698Y0128671D01*
X0041817Y0128702D01*
X0041937Y0128729D01*
X0042058Y0128753D01*
X0042179Y0128772D01*
X0042302Y0128787D01*
X0042424Y0128799D01*
X0042547Y0128806D01*
X0042670Y0128810D01*
X0042793Y0128809D01*
X0042916Y0128805D01*
X0043039Y0128796D01*
X0043161Y0128784D01*
X0043283Y0128768D01*
X0043405Y0128747D01*
X0043526Y0128723D01*
X0043645Y0128695D01*
X0043764Y0128663D01*
X0043882Y0128628D01*
X0043999Y0128588D01*
X0044114Y0128545D01*
X0044228Y0128498D01*
X0044340Y0128447D01*
X0044450Y0128393D01*
X0044559Y0128335D01*
X0044666Y0128274D01*
X0044771Y0128209D01*
X0044873Y0128141D01*
X0044973Y0128070D01*
X0045071Y0127995D01*
X0045167Y0127918D01*
X0045260Y0127837D01*
X0045350Y0127754D01*
X0045438Y0127667D01*
X0045523Y0127578D01*
X0045604Y0127486D01*
X0045683Y0127391D01*
X0045759Y0127294D01*
X0045831Y0127195D01*
X0045901Y0127093D01*
X0045967Y0126989D01*
X0046029Y0126883D01*
X0046088Y0126775D01*
X0046144Y0126665D01*
X0046196Y0126554D01*
X0046244Y0126440D01*
X0046289Y0126326D01*
X0046330Y0126210D01*
X0046367Y0126092D01*
X0046400Y0125974D01*
X0046430Y0125854D01*
X0046456Y0125734D01*
X0046477Y0125613D01*
X0046495Y0125491D01*
X0046509Y0125369D01*
X0046519Y0125246D01*
X0046525Y0125123D01*
X0046527Y0125000D01*
X0035768Y0129687D02*
X0035659Y0129522D01*
X0035554Y0129354D01*
X0035454Y0129184D01*
X0035357Y0129011D01*
X0035264Y0128836D01*
X0035176Y0128659D01*
X0035091Y0128480D01*
X0035011Y0128299D01*
X0034936Y0128116D01*
X0034864Y0127931D01*
X0034797Y0127745D01*
X0034735Y0127557D01*
X0034677Y0127368D01*
X0034623Y0127178D01*
X0034574Y0126986D01*
X0034529Y0126793D01*
X0034489Y0126599D01*
X0049666Y0120313D02*
X0049775Y0120478D01*
X0049880Y0120646D01*
X0049980Y0120816D01*
X0050077Y0120989D01*
X0050170Y0121164D01*
X0050258Y0121341D01*
X0050343Y0121520D01*
X0050423Y0121701D01*
X0050498Y0121884D01*
X0050570Y0122069D01*
X0050637Y0122255D01*
X0050699Y0122443D01*
X0050757Y0122632D01*
X0050811Y0122822D01*
X0050860Y0123014D01*
X0050905Y0123207D01*
X0050945Y0123401D01*
X0035768Y0120313D02*
X0035659Y0120478D01*
X0035554Y0120646D01*
X0035454Y0120816D01*
X0035357Y0120989D01*
X0035264Y0121164D01*
X0035176Y0121341D01*
X0035091Y0121520D01*
X0035011Y0121701D01*
X0034936Y0121884D01*
X0034864Y0122069D01*
X0034797Y0122255D01*
X0034735Y0122443D01*
X0034677Y0122632D01*
X0034623Y0122822D01*
X0034574Y0123014D01*
X0034529Y0123207D01*
X0034489Y0123401D01*
X0049666Y0129687D02*
X0049775Y0129522D01*
X0049880Y0129354D01*
X0049980Y0129184D01*
X0050077Y0129011D01*
X0050170Y0128836D01*
X0050258Y0128659D01*
X0050343Y0128480D01*
X0050423Y0128299D01*
X0050498Y0128116D01*
X0050570Y0127931D01*
X0050637Y0127745D01*
X0050699Y0127557D01*
X0050757Y0127368D01*
X0050811Y0127178D01*
X0050860Y0126986D01*
X0050905Y0126793D01*
X0050945Y0126599D01*
X0041118Y0133228D02*
X0040924Y0133188D01*
X0040731Y0133143D01*
X0040539Y0133094D01*
X0040349Y0133040D01*
X0040160Y0132982D01*
X0039972Y0132920D01*
X0039786Y0132853D01*
X0039601Y0132781D01*
X0039418Y0132706D01*
X0039237Y0132626D01*
X0039058Y0132541D01*
X0038881Y0132453D01*
X0038706Y0132360D01*
X0038533Y0132263D01*
X0038363Y0132163D01*
X0038195Y0132058D01*
X0038030Y0131949D01*
M02*
