G75*
%MOIN*%
%OFA0B0*%
%FSLAX25Y25*%
%IPPOS*%
%LPD*%
%AMOC8*
5,1,8,0,0,1.08239X$1,22.5*
%
%ADD10C,0.00000*%
%ADD11C,0.00400*%
%ADD12C,0.00500*%
%ADD13C,0.00787*%
%ADD14R,0.00500X0.00500*%
%ADD15R,0.01000X0.00500*%
%ADD16R,0.01500X0.00500*%
%ADD17R,0.02500X0.00500*%
%ADD18R,0.04500X0.00500*%
%ADD19R,0.03500X0.00500*%
%ADD20R,0.02000X0.00500*%
%ADD21R,0.03000X0.00500*%
%ADD22R,0.04000X0.00500*%
D10*
X0000000Y0000000D02*
X0000000Y0196850D01*
X0196850Y0196850D01*
X0196850Y0000000D01*
X0000000Y0000000D01*
D11*
X0033271Y0022214D02*
X0033271Y0023722D01*
X0034025Y0024477D01*
X0035533Y0024477D01*
X0035533Y0022968D01*
X0034025Y0021460D02*
X0033271Y0022214D01*
X0034025Y0021460D02*
X0037042Y0021460D01*
X0037796Y0022214D01*
X0037796Y0023722D01*
X0037042Y0024477D01*
X0037796Y0025991D02*
X0033271Y0029008D01*
X0037796Y0029008D01*
X0037796Y0030523D02*
X0037796Y0032785D01*
X0037042Y0033539D01*
X0034025Y0033539D01*
X0033271Y0032785D01*
X0033271Y0030523D01*
X0037796Y0030523D01*
X0037796Y0025991D02*
X0033271Y0025991D01*
X0053743Y0025991D02*
X0053743Y0029008D01*
X0053743Y0027500D02*
X0058268Y0027500D01*
X0056760Y0025991D01*
X0056006Y0024477D02*
X0056006Y0021460D01*
X0057514Y0022968D02*
X0054497Y0022968D01*
X0053743Y0030523D02*
X0056760Y0033539D01*
X0057514Y0033539D01*
X0058268Y0032785D01*
X0058268Y0031277D01*
X0057514Y0030523D01*
X0053743Y0030523D02*
X0053743Y0033539D01*
X0055252Y0035054D02*
X0053743Y0036562D01*
X0055252Y0038071D01*
X0058268Y0038071D01*
X0058268Y0035054D02*
X0055252Y0035054D01*
X0094688Y0034200D02*
X0096197Y0035709D01*
X0099213Y0035709D01*
X0099213Y0032692D02*
X0096197Y0032692D01*
X0094688Y0034200D01*
X0094688Y0031177D02*
X0094688Y0028160D01*
X0097705Y0031177D01*
X0098459Y0031177D01*
X0099213Y0030423D01*
X0099213Y0028915D01*
X0098459Y0028160D01*
X0099213Y0025137D02*
X0094688Y0025137D01*
X0094688Y0023629D02*
X0094688Y0026646D01*
X0097705Y0023629D02*
X0099213Y0025137D01*
X0096951Y0022114D02*
X0096951Y0019098D01*
X0098459Y0020606D02*
X0095442Y0020606D01*
X0104137Y0020606D02*
X0104137Y0019098D01*
X0104137Y0019852D02*
X0108662Y0019852D01*
X0108662Y0019098D02*
X0108662Y0020606D01*
X0107908Y0022119D02*
X0104891Y0022119D01*
X0104137Y0022873D01*
X0104137Y0024381D01*
X0104891Y0025135D01*
X0107908Y0025135D01*
X0108662Y0024381D01*
X0108662Y0022873D01*
X0107908Y0022119D01*
X0107908Y0026650D02*
X0104891Y0026650D01*
X0104137Y0027404D01*
X0104137Y0028913D01*
X0104891Y0029667D01*
X0104137Y0031181D02*
X0108662Y0031181D01*
X0107908Y0029667D02*
X0108662Y0028913D01*
X0108662Y0027404D01*
X0107908Y0026650D01*
X0106400Y0031181D02*
X0106400Y0034198D01*
X0107154Y0035713D02*
X0108662Y0037221D01*
X0104137Y0037221D01*
X0104137Y0035713D02*
X0104137Y0038730D01*
X0104137Y0034198D02*
X0108662Y0034198D01*
X0114373Y0034198D02*
X0118898Y0034198D01*
X0118144Y0035713D02*
X0118898Y0036467D01*
X0118898Y0037975D01*
X0118144Y0038730D01*
X0117390Y0038730D01*
X0114373Y0035713D01*
X0114373Y0038730D01*
X0116636Y0034198D02*
X0116636Y0031181D01*
X0118144Y0029667D02*
X0118898Y0028913D01*
X0118898Y0027404D01*
X0118144Y0026650D01*
X0115127Y0026650D01*
X0114373Y0027404D01*
X0114373Y0028913D01*
X0115127Y0029667D01*
X0114373Y0031181D02*
X0118898Y0031181D01*
X0118144Y0025135D02*
X0115127Y0025135D01*
X0114373Y0024381D01*
X0114373Y0022873D01*
X0115127Y0022119D01*
X0118144Y0022119D01*
X0118898Y0022873D01*
X0118898Y0024381D01*
X0118144Y0025135D01*
X0118898Y0020606D02*
X0118898Y0019098D01*
X0118898Y0019852D02*
X0114373Y0019852D01*
X0114373Y0019098D02*
X0114373Y0020606D01*
X0124609Y0020606D02*
X0124609Y0019098D01*
X0124609Y0019852D02*
X0129135Y0019852D01*
X0129135Y0019098D02*
X0129135Y0020606D01*
X0128380Y0022119D02*
X0125364Y0022119D01*
X0124609Y0022873D01*
X0124609Y0024381D01*
X0125364Y0025135D01*
X0128380Y0025135D01*
X0129135Y0024381D01*
X0129135Y0022873D01*
X0128380Y0022119D01*
X0128380Y0026650D02*
X0125364Y0026650D01*
X0124609Y0027404D01*
X0124609Y0028913D01*
X0125364Y0029667D01*
X0124609Y0031181D02*
X0129135Y0031181D01*
X0128380Y0029667D02*
X0129135Y0028913D01*
X0129135Y0027404D01*
X0128380Y0026650D01*
X0126872Y0031181D02*
X0126872Y0034198D01*
X0125364Y0035713D02*
X0124609Y0036467D01*
X0124609Y0037975D01*
X0125364Y0038730D01*
X0126118Y0038730D01*
X0126872Y0037975D01*
X0126872Y0037221D01*
X0126872Y0037975D02*
X0127626Y0038730D01*
X0128380Y0038730D01*
X0129135Y0037975D01*
X0129135Y0036467D01*
X0128380Y0035713D01*
X0129135Y0034198D02*
X0124609Y0034198D01*
X0134058Y0034198D02*
X0138583Y0034198D01*
X0136321Y0034198D02*
X0136321Y0031181D01*
X0137829Y0029667D02*
X0138583Y0028913D01*
X0138583Y0027404D01*
X0137829Y0026650D01*
X0134812Y0026650D01*
X0134058Y0027404D01*
X0134058Y0028913D01*
X0134812Y0029667D01*
X0134058Y0031181D02*
X0138583Y0031181D01*
X0144294Y0030423D02*
X0144294Y0028160D01*
X0148820Y0028160D01*
X0148820Y0030423D01*
X0148065Y0031177D01*
X0145049Y0031177D01*
X0144294Y0030423D01*
X0144294Y0026646D02*
X0148820Y0026646D01*
X0148820Y0023629D02*
X0144294Y0026646D01*
X0144294Y0023629D02*
X0148820Y0023629D01*
X0148065Y0022114D02*
X0148820Y0021360D01*
X0148820Y0019852D01*
X0148065Y0019098D01*
X0145049Y0019098D01*
X0144294Y0019852D01*
X0144294Y0021360D01*
X0145049Y0022114D01*
X0146557Y0022114D01*
X0146557Y0020606D01*
X0138583Y0020606D02*
X0138583Y0019098D01*
X0138583Y0019852D02*
X0134058Y0019852D01*
X0134058Y0019098D02*
X0134058Y0020606D01*
X0134812Y0022119D02*
X0134058Y0022873D01*
X0134058Y0024381D01*
X0134812Y0025135D01*
X0137829Y0025135D01*
X0138583Y0024381D01*
X0138583Y0022873D01*
X0137829Y0022119D01*
X0134812Y0022119D01*
X0136321Y0035713D02*
X0136321Y0038730D01*
X0138583Y0037975D02*
X0136321Y0035713D01*
X0138583Y0037975D02*
X0134058Y0037975D01*
X0153743Y0035709D02*
X0158268Y0035709D01*
X0156006Y0035709D02*
X0156006Y0032692D01*
X0158268Y0032692D02*
X0153743Y0032692D01*
X0153743Y0031177D02*
X0158268Y0028160D01*
X0158268Y0026646D02*
X0158268Y0023629D01*
X0158268Y0025137D02*
X0153743Y0025137D01*
X0153743Y0028160D02*
X0158268Y0031177D01*
X0163980Y0031177D02*
X0168505Y0028160D01*
X0168505Y0026646D02*
X0168505Y0023629D01*
X0168505Y0025137D02*
X0163980Y0025137D01*
X0163980Y0028160D02*
X0168505Y0031177D01*
X0168505Y0032692D02*
X0163980Y0032692D01*
X0163980Y0035709D01*
X0163980Y0022114D02*
X0165488Y0020606D01*
X0165488Y0021360D02*
X0165488Y0019098D01*
X0163980Y0019098D02*
X0168505Y0019098D01*
X0168505Y0021360D01*
X0167750Y0022114D01*
X0166242Y0022114D01*
X0165488Y0021360D01*
X0158268Y0021360D02*
X0158268Y0019098D01*
X0153743Y0019098D01*
X0155252Y0019098D02*
X0155252Y0021360D01*
X0156006Y0022114D01*
X0157514Y0022114D01*
X0158268Y0021360D01*
X0155252Y0020606D02*
X0153743Y0022114D01*
X0169770Y0090751D02*
X0171278Y0090751D01*
X0172033Y0091505D01*
X0173547Y0092260D02*
X0173547Y0095276D01*
X0172033Y0094522D02*
X0171278Y0095276D01*
X0169770Y0095276D01*
X0169016Y0094522D01*
X0169016Y0093768D01*
X0169770Y0093014D01*
X0169016Y0092260D01*
X0169016Y0091505D01*
X0169770Y0090751D01*
X0169770Y0093014D02*
X0170524Y0093014D01*
X0173547Y0092260D02*
X0175056Y0090751D01*
X0176564Y0092260D01*
X0176564Y0095276D01*
X0178079Y0094522D02*
X0178079Y0093768D01*
X0178833Y0093014D01*
X0178079Y0092260D01*
X0178079Y0091505D01*
X0178833Y0090751D01*
X0180341Y0090751D01*
X0181095Y0091505D01*
X0179587Y0093014D02*
X0178833Y0093014D01*
X0178079Y0094522D02*
X0178833Y0095276D01*
X0180341Y0095276D01*
X0181095Y0094522D01*
X0182610Y0093014D02*
X0185627Y0093014D01*
X0184118Y0094522D02*
X0184118Y0091505D01*
X0183364Y0100200D02*
X0184873Y0100200D01*
X0185627Y0100954D01*
X0184873Y0102463D02*
X0183364Y0102463D01*
X0182610Y0101708D01*
X0182610Y0100954D01*
X0183364Y0100200D01*
X0181095Y0100200D02*
X0179587Y0101708D01*
X0178079Y0100200D01*
X0178079Y0104725D01*
X0176564Y0104725D02*
X0174301Y0104725D01*
X0173547Y0103971D01*
X0173547Y0100954D01*
X0174301Y0100200D01*
X0176564Y0100200D01*
X0176564Y0104725D01*
X0181095Y0104725D02*
X0181095Y0100200D01*
X0182610Y0103971D02*
X0183364Y0104725D01*
X0184873Y0104725D01*
X0185627Y0103971D01*
X0185627Y0103217D01*
X0184873Y0102463D01*
X0184873Y0110436D02*
X0183364Y0110436D01*
X0182610Y0111190D01*
X0182610Y0111945D01*
X0183364Y0112699D01*
X0184873Y0112699D01*
X0185627Y0113453D01*
X0185627Y0114207D01*
X0184873Y0114961D01*
X0183364Y0114961D01*
X0182610Y0114207D01*
X0181095Y0114961D02*
X0181095Y0110436D01*
X0179587Y0111945D01*
X0178079Y0110436D01*
X0178079Y0114961D01*
X0176564Y0114207D02*
X0176564Y0111190D01*
X0175810Y0110436D01*
X0174301Y0110436D01*
X0173547Y0111190D01*
X0172033Y0110436D02*
X0169016Y0110436D01*
X0167501Y0110436D02*
X0167501Y0114961D01*
X0166747Y0112699D02*
X0164484Y0110436D01*
X0167501Y0111945D02*
X0164484Y0114961D01*
X0172033Y0114961D02*
X0172033Y0110436D01*
X0173547Y0114207D02*
X0174301Y0114961D01*
X0175810Y0114961D01*
X0176564Y0114207D01*
X0176564Y0119885D02*
X0174301Y0119885D01*
X0173547Y0120639D01*
X0173547Y0123656D01*
X0174301Y0124410D01*
X0176564Y0124410D01*
X0176564Y0119885D01*
X0178079Y0119885D02*
X0178079Y0124410D01*
X0181095Y0124410D02*
X0178079Y0119885D01*
X0181095Y0119885D02*
X0181095Y0124410D01*
X0182610Y0123656D02*
X0183364Y0124410D01*
X0184873Y0124410D01*
X0185627Y0123656D01*
X0185627Y0120639D01*
X0184873Y0119885D01*
X0183364Y0119885D01*
X0182610Y0120639D01*
X0182610Y0122148D01*
X0184118Y0122148D01*
X0182610Y0130909D02*
X0184118Y0132417D01*
X0183364Y0132417D02*
X0185627Y0132417D01*
X0185627Y0130909D02*
X0185627Y0135434D01*
X0183364Y0135434D01*
X0182610Y0134680D01*
X0182610Y0133171D01*
X0183364Y0132417D01*
X0181095Y0131663D02*
X0180341Y0130909D01*
X0178833Y0130909D01*
X0178079Y0131663D01*
X0178079Y0132417D01*
X0178833Y0133171D01*
X0180341Y0133171D01*
X0181095Y0133925D01*
X0181095Y0134680D01*
X0180341Y0135434D01*
X0178833Y0135434D01*
X0178079Y0134680D01*
X0176564Y0135434D02*
X0173547Y0135434D01*
X0175056Y0135434D02*
X0175056Y0130909D01*
X0172033Y0130909D02*
X0169016Y0130909D01*
X0172033Y0130909D02*
X0172033Y0135434D01*
X0174301Y0140357D02*
X0173547Y0141112D01*
X0173547Y0144128D01*
X0174301Y0144883D01*
X0176564Y0144883D01*
X0176564Y0140357D01*
X0174301Y0140357D01*
X0178079Y0140357D02*
X0178079Y0144883D01*
X0181095Y0144883D02*
X0178079Y0140357D01*
X0181095Y0140357D02*
X0181095Y0144883D01*
X0182610Y0144128D02*
X0183364Y0144883D01*
X0184873Y0144883D01*
X0185627Y0144128D01*
X0185627Y0141112D01*
X0184873Y0140357D01*
X0183364Y0140357D01*
X0182610Y0141112D01*
X0182610Y0142620D01*
X0184118Y0142620D01*
X0182610Y0150594D02*
X0184118Y0152102D01*
X0183364Y0152102D02*
X0185627Y0152102D01*
X0185627Y0150594D02*
X0185627Y0155119D01*
X0183364Y0155119D01*
X0182610Y0154365D01*
X0182610Y0152856D01*
X0183364Y0152102D01*
X0181095Y0150594D02*
X0178079Y0155119D01*
X0181095Y0155119D02*
X0178079Y0150594D01*
X0178079Y0160043D02*
X0181095Y0164568D01*
X0182610Y0164568D02*
X0185627Y0164568D01*
X0184118Y0164568D02*
X0184118Y0160043D01*
X0181095Y0160043D02*
X0178079Y0164568D01*
X0185627Y0111190D02*
X0184873Y0110436D01*
X0172033Y0104725D02*
X0170524Y0104725D01*
X0171278Y0104725D02*
X0171278Y0100200D01*
X0170524Y0100200D02*
X0172033Y0100200D01*
X0169012Y0100954D02*
X0168257Y0100200D01*
X0166749Y0100200D01*
X0165995Y0100954D01*
X0165995Y0103971D01*
X0166749Y0104725D01*
X0168257Y0104725D01*
X0169012Y0103971D01*
X0169012Y0100954D01*
D12*
X0076233Y0144344D02*
X0076233Y0149755D01*
X0075331Y0147050D02*
X0072626Y0144344D01*
X0070795Y0144344D02*
X0068992Y0144344D01*
X0069894Y0144344D02*
X0069894Y0149755D01*
X0070795Y0149755D02*
X0068992Y0149755D01*
X0067170Y0149755D02*
X0065367Y0147951D01*
X0063563Y0149755D01*
X0063563Y0144344D01*
X0061732Y0144344D02*
X0061732Y0149755D01*
X0059929Y0147951D01*
X0058126Y0149755D01*
X0058126Y0144344D01*
X0056295Y0145246D02*
X0055393Y0144344D01*
X0053590Y0144344D01*
X0052688Y0145246D01*
X0052688Y0148853D01*
X0053590Y0149755D01*
X0055393Y0149755D01*
X0056295Y0148853D01*
X0056295Y0145246D01*
X0050857Y0144344D02*
X0047250Y0144344D01*
X0045419Y0144344D02*
X0043616Y0144344D01*
X0044518Y0144344D02*
X0044518Y0149755D01*
X0045419Y0149755D02*
X0043616Y0149755D01*
X0043158Y0153203D02*
X0041355Y0153203D01*
X0040453Y0154104D01*
X0040453Y0157711D01*
X0044060Y0154104D01*
X0043158Y0153203D01*
X0044060Y0154104D02*
X0044060Y0157711D01*
X0043158Y0158613D01*
X0041355Y0158613D01*
X0040453Y0157711D01*
X0038622Y0157711D02*
X0037720Y0158613D01*
X0035917Y0158613D01*
X0035015Y0157711D01*
X0038622Y0154104D01*
X0037720Y0153203D01*
X0035917Y0153203D01*
X0035015Y0154104D01*
X0035015Y0157711D01*
X0038622Y0157711D02*
X0038622Y0154104D01*
X0035455Y0149755D02*
X0036356Y0148853D01*
X0035455Y0149755D02*
X0033651Y0149755D01*
X0032750Y0148853D01*
X0032750Y0147951D01*
X0036356Y0144344D01*
X0032750Y0144344D01*
X0030919Y0145246D02*
X0027312Y0148853D01*
X0027312Y0145246D01*
X0028214Y0144344D01*
X0030017Y0144344D01*
X0030919Y0145246D01*
X0030919Y0148853D01*
X0030017Y0149755D01*
X0028214Y0149755D01*
X0027312Y0148853D01*
X0025481Y0147951D02*
X0023678Y0149755D01*
X0023678Y0144344D01*
X0025481Y0144344D02*
X0021874Y0144344D01*
X0020043Y0145246D02*
X0020043Y0147050D01*
X0017338Y0147050D01*
X0016437Y0146148D01*
X0016437Y0145246D01*
X0017338Y0144344D01*
X0019142Y0144344D01*
X0020043Y0145246D01*
X0020043Y0147050D02*
X0018240Y0148853D01*
X0016437Y0149755D01*
X0017329Y0162061D02*
X0015526Y0162061D01*
X0014624Y0162963D01*
X0014624Y0163864D01*
X0015526Y0164766D01*
X0017329Y0164766D01*
X0018231Y0165668D01*
X0018231Y0166569D01*
X0017329Y0167471D01*
X0015526Y0167471D01*
X0014624Y0166569D01*
X0018231Y0162963D02*
X0017329Y0162061D01*
X0020062Y0164766D02*
X0020963Y0163864D01*
X0023669Y0163864D01*
X0023669Y0162061D02*
X0023669Y0167471D01*
X0020963Y0167471D01*
X0020062Y0166569D01*
X0020062Y0164766D01*
X0025499Y0164766D02*
X0025499Y0162963D01*
X0026401Y0162061D01*
X0028205Y0162061D01*
X0029106Y0162963D01*
X0029106Y0166569D01*
X0028205Y0167471D01*
X0026401Y0167471D01*
X0025499Y0166569D01*
X0025499Y0164766D02*
X0027303Y0164766D01*
X0036375Y0162061D02*
X0039982Y0162061D01*
X0039982Y0167471D01*
X0036375Y0167471D01*
X0038178Y0164766D02*
X0039982Y0164766D01*
X0041813Y0162061D02*
X0041813Y0167471D01*
X0045419Y0167471D02*
X0041813Y0162061D01*
X0045419Y0162061D02*
X0045419Y0167471D01*
X0047250Y0166569D02*
X0048152Y0167471D01*
X0049955Y0167471D01*
X0050857Y0166569D01*
X0050857Y0162963D01*
X0049955Y0162061D01*
X0048152Y0162061D01*
X0047250Y0162963D01*
X0047250Y0166569D01*
X0052688Y0167471D02*
X0056295Y0163864D01*
X0055393Y0164766D02*
X0052688Y0162061D01*
X0054047Y0158613D02*
X0054047Y0155006D01*
X0055851Y0153203D01*
X0057654Y0155006D01*
X0057654Y0158613D01*
X0058126Y0162061D02*
X0058126Y0165668D01*
X0059929Y0167471D01*
X0061732Y0165668D01*
X0061732Y0162061D01*
X0063563Y0162061D02*
X0067170Y0162061D01*
X0067170Y0167471D01*
X0069001Y0167471D02*
X0072608Y0167471D01*
X0072608Y0162061D01*
X0069001Y0162061D01*
X0070805Y0164766D02*
X0072608Y0164766D01*
X0074439Y0167471D02*
X0078046Y0167471D01*
X0076242Y0167471D02*
X0076242Y0162061D01*
X0072626Y0149755D02*
X0076233Y0146148D01*
X0067170Y0144344D02*
X0067170Y0149755D01*
X0052216Y0153203D02*
X0048610Y0153203D01*
X0050413Y0153203D02*
X0050413Y0158613D01*
X0052216Y0156810D01*
X0056295Y0162061D02*
X0056295Y0167471D01*
X0058126Y0164766D02*
X0061732Y0164766D01*
X0046779Y0154104D02*
X0045877Y0154104D01*
X0045877Y0153203D01*
X0046779Y0153203D01*
X0046779Y0154104D01*
X0050857Y0149755D02*
X0050857Y0144344D01*
D13*
X0043849Y0136757D02*
X0041584Y0136757D01*
X0041117Y0133228D01*
X0040034Y0132941D01*
X0038998Y0132512D01*
X0038029Y0131949D01*
X0035204Y0134114D01*
X0033603Y0132513D01*
X0035768Y0129687D01*
X0035204Y0128718D01*
X0034775Y0127683D01*
X0034489Y0126599D01*
X0030960Y0126132D01*
X0030960Y0123868D01*
X0034489Y0123401D01*
X0034775Y0122317D01*
X0035204Y0121282D01*
X0035768Y0120313D01*
X0033603Y0117487D01*
X0035204Y0115886D01*
X0038029Y0118051D01*
X0038846Y0117565D01*
X0040957Y0121620D01*
X0040344Y0122019D01*
X0039817Y0122528D01*
X0039398Y0123128D01*
X0039102Y0123797D01*
X0038938Y0124510D01*
X0038914Y0125242D01*
X0039031Y0125964D01*
X0039283Y0126651D01*
X0039662Y0127277D01*
X0040154Y0127819D01*
X0040740Y0128257D01*
X0041399Y0128575D01*
X0042107Y0128761D01*
X0042837Y0128808D01*
X0043563Y0128715D01*
X0044258Y0128484D01*
X0044896Y0128125D01*
X0045453Y0127651D01*
X0045909Y0127079D01*
X0046248Y0126430D01*
X0046456Y0125728D01*
X0046527Y0125000D01*
X0046464Y0124311D01*
X0046277Y0123645D01*
X0045974Y0123023D01*
X0045563Y0122467D01*
X0045058Y0121994D01*
X0044476Y0121620D01*
X0046587Y0117565D01*
X0047404Y0118051D01*
X0050229Y0115886D01*
X0051830Y0117487D01*
X0049666Y0120313D01*
X0050229Y0121282D01*
X0050658Y0122317D01*
X0050945Y0123401D01*
X0054473Y0123868D01*
X0054473Y0126132D01*
X0050945Y0126599D01*
X0050658Y0127683D01*
X0050229Y0128718D01*
X0049666Y0129687D01*
X0051830Y0132513D01*
X0050229Y0134114D01*
X0047404Y0131949D01*
X0046435Y0132512D01*
X0045399Y0132941D01*
X0044316Y0133228D01*
X0043849Y0136757D01*
X0043850Y0136749D02*
X0041583Y0136749D01*
X0041479Y0135963D02*
X0043954Y0135963D01*
X0044058Y0135177D02*
X0041375Y0135177D01*
X0041271Y0134391D02*
X0044162Y0134391D01*
X0044266Y0133605D02*
X0041167Y0133605D01*
X0039740Y0132819D02*
X0045693Y0132819D01*
X0047259Y0132033D02*
X0038175Y0132033D01*
X0037919Y0132033D02*
X0033970Y0132033D01*
X0033909Y0132819D02*
X0036893Y0132819D01*
X0035868Y0133605D02*
X0034695Y0133605D01*
X0034572Y0131247D02*
X0050861Y0131247D01*
X0050259Y0130462D02*
X0035174Y0130462D01*
X0035761Y0129676D02*
X0049672Y0129676D01*
X0050129Y0128890D02*
X0035304Y0128890D01*
X0034950Y0128104D02*
X0040535Y0128104D01*
X0039699Y0127318D02*
X0034679Y0127318D01*
X0033980Y0126532D02*
X0039239Y0126532D01*
X0038995Y0125746D02*
X0030960Y0125746D01*
X0030960Y0124960D02*
X0038923Y0124960D01*
X0039015Y0124174D02*
X0030960Y0124174D01*
X0034492Y0123388D02*
X0039283Y0123388D01*
X0039765Y0122602D02*
X0034700Y0122602D01*
X0034983Y0121816D02*
X0040656Y0121816D01*
X0040650Y0121031D02*
X0035350Y0121031D01*
X0035715Y0120245D02*
X0040241Y0120245D01*
X0039832Y0119459D02*
X0035113Y0119459D01*
X0034511Y0118673D02*
X0039423Y0118673D01*
X0039014Y0117887D02*
X0038305Y0117887D01*
X0037815Y0117887D02*
X0033909Y0117887D01*
X0033989Y0117101D02*
X0036789Y0117101D01*
X0035764Y0116315D02*
X0034775Y0116315D01*
X0044783Y0121031D02*
X0050083Y0121031D01*
X0049718Y0120245D02*
X0045192Y0120245D01*
X0045601Y0119459D02*
X0050320Y0119459D01*
X0050922Y0118673D02*
X0046010Y0118673D01*
X0046419Y0117887D02*
X0047128Y0117887D01*
X0047618Y0117887D02*
X0051524Y0117887D01*
X0051444Y0117101D02*
X0048644Y0117101D01*
X0049670Y0116315D02*
X0050658Y0116315D01*
X0050450Y0121816D02*
X0044781Y0121816D01*
X0045663Y0122602D02*
X0050733Y0122602D01*
X0050941Y0123388D02*
X0046152Y0123388D01*
X0046425Y0124174D02*
X0054473Y0124174D01*
X0054473Y0124960D02*
X0046523Y0124960D01*
X0046451Y0125746D02*
X0054473Y0125746D01*
X0051453Y0126532D02*
X0046195Y0126532D01*
X0045719Y0127318D02*
X0050754Y0127318D01*
X0050483Y0128104D02*
X0044921Y0128104D01*
X0047514Y0132033D02*
X0051463Y0132033D01*
X0051524Y0132819D02*
X0048540Y0132819D01*
X0049566Y0133605D02*
X0050738Y0133605D01*
D14*
X0051807Y0171102D03*
X0052307Y0172102D03*
X0052307Y0172602D03*
X0051307Y0172602D03*
X0049307Y0171102D03*
X0050807Y0181602D03*
X0050807Y0182102D03*
X0050807Y0182602D03*
X0046807Y0182602D03*
X0046307Y0183102D03*
X0045807Y0184102D03*
X0042807Y0185602D03*
X0042807Y0186602D03*
X0042807Y0187102D03*
X0042307Y0184602D03*
X0037307Y0186102D03*
X0036807Y0185102D03*
X0036807Y0184602D03*
X0034307Y0180602D03*
X0034307Y0178102D03*
X0034307Y0177602D03*
X0035807Y0171102D03*
D15*
X0035557Y0171602D03*
X0035057Y0172102D03*
X0035057Y0172602D03*
X0035057Y0173102D03*
X0034557Y0173602D03*
X0034557Y0174102D03*
X0034557Y0174602D03*
X0034057Y0175102D03*
X0034057Y0175602D03*
X0034057Y0176102D03*
X0034057Y0176602D03*
X0034057Y0177102D03*
X0034057Y0178602D03*
X0034057Y0179102D03*
X0034057Y0179602D03*
X0034057Y0180102D03*
X0034557Y0181102D03*
X0034557Y0181602D03*
X0034557Y0182102D03*
X0034557Y0182602D03*
X0035057Y0184102D03*
X0035557Y0185102D03*
X0035557Y0185602D03*
X0036057Y0186102D03*
X0036057Y0186602D03*
X0037057Y0185602D03*
X0037057Y0184102D03*
X0037557Y0183602D03*
X0042057Y0184102D03*
X0042557Y0185102D03*
X0043057Y0186102D03*
X0042557Y0187602D03*
X0042057Y0188102D03*
X0041557Y0188602D03*
X0039057Y0188602D03*
X0037557Y0189602D03*
X0038057Y0190102D03*
X0038057Y0190602D03*
X0038557Y0191102D03*
X0039057Y0191602D03*
X0040557Y0192602D03*
X0037057Y0188602D03*
X0046057Y0184602D03*
X0046057Y0183602D03*
X0047057Y0182102D03*
X0047557Y0181602D03*
X0048057Y0181102D03*
X0050057Y0181102D03*
X0051057Y0183102D03*
X0053557Y0183602D03*
X0053557Y0184102D03*
X0054057Y0182602D03*
X0054057Y0182102D03*
X0054057Y0181602D03*
X0054057Y0181102D03*
X0054057Y0180602D03*
X0054057Y0180102D03*
X0054057Y0179602D03*
X0054057Y0179102D03*
X0053557Y0178102D03*
X0053557Y0177602D03*
X0053557Y0177102D03*
X0053057Y0175602D03*
X0052557Y0174602D03*
X0052557Y0174102D03*
X0052057Y0171602D03*
X0050557Y0172102D03*
X0045057Y0177102D03*
X0040557Y0176102D03*
X0040057Y0176602D03*
X0040057Y0177102D03*
X0040057Y0177602D03*
X0040057Y0178102D03*
X0040057Y0178602D03*
X0050557Y0185602D03*
X0053057Y0185602D03*
X0053057Y0186102D03*
X0051557Y0188102D03*
X0051057Y0188602D03*
X0050557Y0189102D03*
X0050057Y0189602D03*
X0049557Y0190102D03*
X0049557Y0190602D03*
D16*
X0048807Y0191102D03*
X0051807Y0187602D03*
X0052807Y0186602D03*
X0053307Y0185102D03*
X0053307Y0184602D03*
X0053807Y0183102D03*
X0050807Y0185102D03*
X0049807Y0186102D03*
X0046807Y0185602D03*
X0046307Y0185102D03*
X0041307Y0183602D03*
X0036807Y0188102D03*
X0037307Y0189102D03*
X0040307Y0189602D03*
X0039807Y0192102D03*
X0035307Y0184602D03*
X0034807Y0183602D03*
X0034807Y0183102D03*
X0044307Y0176102D03*
X0044807Y0176602D03*
X0049307Y0180602D03*
X0053807Y0178602D03*
X0053307Y0176602D03*
X0053307Y0176102D03*
X0052807Y0175102D03*
X0052307Y0173602D03*
X0051807Y0173102D03*
X0049807Y0171602D03*
D17*
X0042307Y0175102D03*
X0038307Y0186602D03*
X0040307Y0189102D03*
X0046807Y0192102D03*
X0047807Y0191602D03*
D18*
X0042807Y0193102D03*
X0042307Y0175602D03*
D19*
X0039307Y0183102D03*
D20*
X0039057Y0188102D03*
X0047557Y0186102D03*
X0050557Y0184602D03*
X0050557Y0184102D03*
X0050557Y0183602D03*
X0052557Y0187102D03*
D21*
X0048557Y0186602D03*
X0045057Y0192602D03*
D22*
X0038057Y0187602D03*
X0038057Y0187102D03*
M02*
