G75*
%MOIN*%
%OFA0B0*%
%FSLAX25Y25*%
%IPPOS*%
%LPD*%
%AMOC8*
5,1,8,0,0,1.08239X$1,22.5*
%
%ADD10C,0.00000*%
%ADD11R,0.07087X0.03150*%
%ADD12R,0.07087X0.06299*%
%ADD13R,0.03150X0.03150*%
%ADD14R,0.05118X0.03543*%
%ADD15R,0.06299X0.07087*%
%ADD16R,0.03543X0.05118*%
%ADD17R,0.01339X0.05315*%
%ADD18R,0.05315X0.01339*%
%ADD19R,0.05512X0.03937*%
%ADD20R,0.02200X0.07800*%
%ADD21R,0.07800X0.02200*%
%ADD22R,0.01700X0.05600*%
%ADD23R,0.06299X0.07098*%
%ADD24R,0.05906X0.06299*%
%ADD25R,0.03740X0.03740*%
%ADD26R,0.02200X0.05000*%
%ADD27R,0.07098X0.06299*%
%ADD28R,0.06693X0.07087*%
%ADD29R,0.07087X0.06693*%
%ADD30R,0.03937X0.05512*%
%ADD31R,0.02362X0.04921*%
%ADD32R,0.06750X0.06750*%
%ADD33C,0.06750*%
%ADD34R,0.04134X0.03937*%
%ADD35R,0.08661X0.04134*%
%ADD36R,0.06000X0.06000*%
%ADD37C,0.06000*%
%ADD38R,0.07874X0.07874*%
%ADD39C,0.07874*%
%ADD40R,0.21457X0.21457*%
%ADD41R,0.07874X0.23622*%
%ADD42C,0.02165*%
%ADD43C,0.01575*%
%ADD44C,0.01969*%
%ADD45C,0.01181*%
%ADD46C,0.02775*%
%ADD47C,0.02953*%
%ADD48C,0.03937*%
%ADD49C,0.02756*%
%ADD50C,0.03169*%
%ADD51C,0.00787*%
D10*
X0000000Y0000000D02*
X0000000Y0196850D01*
X0196850Y0196850D01*
X0196850Y0000000D01*
X0000000Y0000000D01*
D11*
X0036654Y0130748D03*
X0036654Y0135079D03*
X0036654Y0139409D03*
X0036654Y0143740D03*
X0036654Y0148071D03*
X0036654Y0159882D03*
X0036654Y0164213D03*
X0036654Y0168543D03*
X0036654Y0172874D03*
X0036654Y0177205D03*
X0036654Y0181535D03*
X0036654Y0185866D03*
X0084685Y0185866D03*
X0084685Y0181535D03*
X0084685Y0177205D03*
X0084685Y0172874D03*
X0084685Y0168543D03*
X0084685Y0164213D03*
X0084685Y0159882D03*
X0084685Y0148071D03*
X0084685Y0143740D03*
X0084685Y0139409D03*
X0084685Y0135079D03*
X0084685Y0130748D03*
D12*
X0037008Y0078346D03*
X0029134Y0078346D03*
X0029134Y0067323D03*
X0037008Y0067323D03*
D13*
X0051575Y0073031D03*
X0051575Y0078937D03*
X0014370Y0064961D03*
X0008465Y0064961D03*
X0093504Y0104331D03*
X0099409Y0104331D03*
X0103346Y0096457D03*
X0109252Y0096457D03*
X0107087Y0089961D03*
X0107087Y0084055D03*
X0129921Y0083661D03*
X0129921Y0077756D03*
X0129331Y0059055D03*
X0125000Y0059055D03*
X0119094Y0059055D03*
X0113189Y0059055D03*
X0107283Y0059055D03*
X0135236Y0059055D03*
X0142717Y0059055D03*
X0148622Y0059055D03*
X0152559Y0074803D03*
X0158465Y0074803D03*
X0158465Y0080709D03*
X0152559Y0080709D03*
X0160827Y0108661D03*
X0166732Y0108661D03*
X0160433Y0143701D03*
X0154528Y0143701D03*
X0169291Y0154528D03*
X0169291Y0160433D03*
X0139764Y0184055D03*
X0133858Y0184055D03*
X0127953Y0184055D03*
X0127953Y0189961D03*
X0133858Y0189961D03*
X0139764Y0189961D03*
X0122047Y0189961D03*
X0122047Y0184055D03*
X0092520Y0186024D03*
X0092520Y0180118D03*
X0103346Y0151575D03*
X0109252Y0151575D03*
X0109252Y0143701D03*
X0103346Y0143701D03*
X0185630Y0065748D03*
X0191535Y0065748D03*
D14*
X0059055Y0045079D03*
X0059055Y0037598D03*
D15*
X0020866Y0057087D03*
X0009843Y0057087D03*
D16*
X0160433Y0132677D03*
X0167913Y0132677D03*
D17*
X0146260Y0142579D03*
X0144291Y0142579D03*
X0142323Y0142579D03*
X0140354Y0142579D03*
X0138386Y0142579D03*
X0136417Y0142579D03*
X0134449Y0142579D03*
X0132480Y0142579D03*
X0130512Y0142579D03*
X0128543Y0142579D03*
X0126575Y0142579D03*
X0124606Y0142579D03*
X0122638Y0142579D03*
X0120669Y0142579D03*
X0118701Y0142579D03*
X0116732Y0142579D03*
X0116732Y0096713D03*
X0118701Y0096713D03*
X0120669Y0096713D03*
X0122638Y0096713D03*
X0124606Y0096713D03*
X0126575Y0096713D03*
X0128543Y0096713D03*
X0130512Y0096713D03*
X0132480Y0096713D03*
X0134449Y0096713D03*
X0136417Y0096713D03*
X0138386Y0096713D03*
X0140354Y0096713D03*
X0142323Y0096713D03*
X0144291Y0096713D03*
X0146260Y0096713D03*
D18*
X0154429Y0104882D03*
X0154429Y0106850D03*
X0154429Y0108819D03*
X0154429Y0110787D03*
X0154429Y0112756D03*
X0154429Y0114724D03*
X0154429Y0116693D03*
X0154429Y0118661D03*
X0154429Y0120630D03*
X0154429Y0122598D03*
X0154429Y0124567D03*
X0154429Y0126535D03*
X0154429Y0128504D03*
X0154429Y0130472D03*
X0154429Y0132441D03*
X0154429Y0134409D03*
X0108563Y0134409D03*
X0108563Y0132441D03*
X0108563Y0130472D03*
X0108563Y0128504D03*
X0108563Y0126535D03*
X0108563Y0124567D03*
X0108563Y0122598D03*
X0108563Y0120630D03*
X0108563Y0118661D03*
X0108563Y0116693D03*
X0108563Y0114724D03*
X0108563Y0112756D03*
X0108563Y0110787D03*
X0108563Y0108819D03*
X0108563Y0106850D03*
X0108563Y0104882D03*
D19*
X0047638Y0098622D03*
X0047638Y0091142D03*
X0038976Y0094882D03*
D20*
X0069272Y0062450D03*
X0074272Y0062450D03*
X0079272Y0062450D03*
X0084272Y0062450D03*
X0084272Y0043850D03*
X0079272Y0043850D03*
X0074272Y0043850D03*
X0069272Y0043850D03*
X0164547Y0065503D03*
X0169547Y0065503D03*
X0174547Y0065503D03*
X0179547Y0065503D03*
X0179547Y0084103D03*
X0174547Y0084103D03*
X0169547Y0084103D03*
X0164547Y0084103D03*
X0163012Y0158023D03*
X0158012Y0158023D03*
X0153012Y0158023D03*
X0148012Y0158023D03*
X0148012Y0176623D03*
X0153012Y0176623D03*
X0158012Y0176623D03*
X0163012Y0176623D03*
D21*
X0091977Y0100020D03*
X0091977Y0095020D03*
X0091977Y0090020D03*
X0091977Y0085020D03*
X0073377Y0085020D03*
X0073377Y0090020D03*
X0073377Y0095020D03*
X0073377Y0100020D03*
D22*
X0101318Y0159038D03*
X0103818Y0159038D03*
X0106418Y0159038D03*
X0108918Y0159038D03*
X0108918Y0180175D03*
X0106418Y0180175D03*
X0103818Y0180175D03*
X0101318Y0180175D03*
D23*
X0041031Y0057087D03*
X0029835Y0057087D03*
X0037709Y0039370D03*
X0048906Y0039370D03*
X0165661Y0054331D03*
X0176858Y0054331D03*
D24*
X0121850Y0075787D03*
X0112795Y0075787D03*
X0112795Y0085630D03*
X0121850Y0085630D03*
D25*
X0099705Y0111417D03*
X0093996Y0111417D03*
X0088189Y0111516D03*
X0088189Y0105807D03*
X0075984Y0105807D03*
X0075984Y0111516D03*
X0092520Y0129035D03*
X0092520Y0134744D03*
X0054724Y0091043D03*
X0054724Y0085335D03*
X0046457Y0078839D03*
X0046457Y0073130D03*
X0068012Y0070866D03*
X0073720Y0070866D03*
X0079429Y0070866D03*
X0085138Y0070866D03*
X0091634Y0053150D03*
X0097343Y0053150D03*
X0107382Y0053150D03*
X0113091Y0053150D03*
X0119193Y0053150D03*
X0124902Y0053150D03*
X0129429Y0053150D03*
X0135138Y0053150D03*
X0142815Y0053150D03*
X0148524Y0053150D03*
X0152657Y0068898D03*
X0158366Y0068898D03*
X0186122Y0074803D03*
X0191831Y0074803D03*
X0180020Y0102362D03*
X0174311Y0102362D03*
X0174311Y0112205D03*
X0180020Y0112205D03*
X0166240Y0126772D03*
X0160531Y0126772D03*
X0169291Y0166437D03*
X0169291Y0172146D03*
X0154429Y0187795D03*
X0154429Y0192913D03*
X0148720Y0192913D03*
X0148720Y0187795D03*
X0109154Y0187795D03*
X0109154Y0192913D03*
X0103445Y0192913D03*
X0103445Y0187795D03*
X0028445Y0147638D03*
X0022736Y0147638D03*
X0025591Y0140650D03*
X0025591Y0134941D03*
X0021260Y0081594D03*
X0021260Y0075886D03*
X0021260Y0069783D03*
X0021260Y0064075D03*
X0056201Y0053150D03*
X0061909Y0053150D03*
D26*
X0015117Y0071672D03*
X0007717Y0071672D03*
X0007717Y0081872D03*
X0011417Y0081872D03*
X0015117Y0081872D03*
D27*
X0112205Y0044969D03*
X0122047Y0044969D03*
X0131890Y0044969D03*
X0141732Y0044969D03*
X0141732Y0033772D03*
X0131890Y0033772D03*
X0122047Y0033772D03*
X0112205Y0033772D03*
D28*
X0082677Y0033661D03*
X0072835Y0033661D03*
X0072835Y0017520D03*
X0082677Y0017520D03*
D29*
X0026181Y0039370D03*
X0010039Y0039370D03*
D30*
X0055315Y0060630D03*
X0062795Y0060630D03*
X0059055Y0069291D03*
X0090748Y0060630D03*
X0098228Y0060630D03*
X0094488Y0069291D03*
X0167520Y0036220D03*
X0175000Y0036220D03*
X0171260Y0044882D03*
D31*
X0102165Y0044291D03*
X0098425Y0044291D03*
X0094685Y0044291D03*
X0094685Y0034449D03*
X0098425Y0034449D03*
X0102165Y0034449D03*
D32*
X0096457Y0013780D03*
D33*
X0106457Y0013780D03*
X0116457Y0013780D03*
X0126457Y0013780D03*
X0136457Y0013780D03*
X0146457Y0013780D03*
X0156457Y0013780D03*
X0166457Y0013780D03*
D34*
X0017815Y0135039D03*
D35*
X0011811Y0129134D03*
X0011811Y0140945D03*
D36*
X0190945Y0162520D03*
X0190945Y0092520D03*
D37*
X0190945Y0102520D03*
X0190945Y0112520D03*
X0190945Y0122520D03*
X0190945Y0132520D03*
X0190945Y0142520D03*
X0190945Y0152520D03*
D38*
X0035433Y0015748D03*
D39*
X0055433Y0015748D03*
D40*
X0011811Y0011811D03*
X0185039Y0011811D03*
X0185039Y0185039D03*
X0011811Y0185039D03*
D41*
X0010827Y0098425D03*
X0023819Y0098425D03*
D42*
X0010827Y0098425D02*
X0010236Y0097835D01*
X0010236Y0088189D01*
X0007717Y0085670D01*
X0007717Y0081872D01*
X0007717Y0071672D02*
X0007717Y0065708D01*
X0008465Y0064961D01*
X0008465Y0062402D01*
X0008661Y0062205D01*
X0029134Y0078346D02*
X0029134Y0079528D01*
X0035433Y0084252D02*
X0036220Y0083465D01*
X0037008Y0082677D01*
D43*
X0069272Y0043850D02*
X0071654Y0043850D01*
X0074272Y0043850D01*
X0079272Y0043850D02*
X0079528Y0043594D01*
X0079528Y0043307D01*
X0080070Y0043850D01*
X0081890Y0043850D01*
X0084272Y0043850D01*
X0152657Y0068898D02*
X0152657Y0074705D01*
X0152559Y0074803D01*
X0152559Y0080709D01*
X0179547Y0065503D02*
X0185385Y0065503D01*
X0185630Y0065748D01*
X0180315Y0102362D02*
X0180020Y0102362D01*
X0180315Y0102362D02*
X0180472Y0102520D01*
X0190945Y0102520D01*
X0190945Y0112520D02*
X0180335Y0112520D01*
X0180020Y0112205D01*
X0165897Y0158023D02*
X0163012Y0158023D01*
X0165897Y0158023D02*
X0168307Y0160433D01*
X0169291Y0160433D01*
X0169291Y0160630D01*
X0169291Y0166437D01*
X0092520Y0186024D02*
X0092362Y0185866D01*
X0084685Y0185866D01*
X0084685Y0130748D02*
X0088937Y0130748D01*
X0090551Y0129134D01*
X0092421Y0129134D01*
X0092520Y0129035D01*
D44*
X0109449Y0143307D02*
X0109449Y0143701D01*
X0109449Y0144094D01*
X0112598Y0147244D01*
X0124409Y0133071D02*
X0132283Y0133071D01*
X0134646Y0130709D01*
X0136220Y0132283D01*
X0146457Y0132283D01*
X0134646Y0130709D02*
X0134646Y0109449D01*
X0160630Y0108465D02*
X0160630Y0103937D01*
X0160630Y0108465D02*
X0160827Y0108661D01*
X0162992Y0072441D02*
X0180315Y0072441D01*
X0182677Y0070079D01*
X0184252Y0070079D01*
X0185630Y0068701D01*
X0185630Y0065748D01*
X0174547Y0065503D02*
X0174547Y0056642D01*
X0176858Y0054331D01*
X0176858Y0038079D01*
X0175000Y0036220D01*
X0175000Y0034843D01*
X0170866Y0030709D01*
X0170866Y0018110D01*
X0166535Y0013780D01*
X0166457Y0013780D01*
X0165354Y0019685D02*
X0162205Y0019685D01*
X0156693Y0014173D01*
X0156693Y0014016D01*
X0156457Y0013780D01*
X0165354Y0019685D02*
X0167520Y0021850D01*
X0167520Y0036220D01*
X0165661Y0038079D01*
X0165661Y0054331D01*
X0169547Y0058217D01*
X0169547Y0065503D01*
X0162992Y0072441D02*
X0159449Y0068898D01*
X0158366Y0068898D01*
X0141732Y0033772D02*
X0141732Y0029134D01*
X0140945Y0028346D01*
X0137795Y0028346D01*
X0136457Y0027008D01*
X0136457Y0013780D01*
X0126457Y0013780D02*
X0126457Y0027244D01*
X0127559Y0028346D01*
X0130709Y0028346D01*
X0131890Y0029528D01*
X0131890Y0033772D01*
X0122047Y0033772D02*
X0122047Y0029134D01*
X0121260Y0028346D01*
X0117323Y0028346D01*
X0116457Y0027480D01*
X0116457Y0013780D01*
X0111024Y0028346D02*
X0106299Y0028346D01*
X0111024Y0028346D02*
X0112205Y0029528D01*
X0112205Y0033772D01*
X0084272Y0055138D02*
X0084272Y0062450D01*
X0084272Y0070000D01*
X0085138Y0070866D01*
X0074272Y0069823D02*
X0074272Y0062450D01*
X0074272Y0053799D01*
X0074016Y0053543D01*
X0082677Y0053543D01*
X0084272Y0055138D01*
X0074016Y0053543D02*
X0069291Y0053543D01*
X0064567Y0048819D01*
X0065354Y0048031D01*
X0065354Y0037008D01*
X0059055Y0045079D02*
X0059055Y0048031D01*
X0059843Y0048819D01*
X0064567Y0048819D01*
X0059055Y0045079D02*
X0026181Y0045079D01*
X0025984Y0044882D01*
X0025984Y0045669D01*
X0025197Y0046457D01*
X0029835Y0051094D01*
X0029835Y0057087D01*
X0025886Y0064075D02*
X0021260Y0064075D01*
X0021260Y0057480D01*
X0020866Y0057087D01*
X0021260Y0064075D02*
X0015256Y0064075D01*
X0014370Y0064961D01*
X0011417Y0067913D01*
X0011417Y0081872D01*
X0029134Y0067323D02*
X0025886Y0064075D01*
X0029134Y0067323D02*
X0037008Y0067323D01*
X0073228Y0070866D02*
X0073720Y0070866D01*
X0073228Y0070866D02*
X0074272Y0069823D01*
X0036654Y0135079D02*
X0025728Y0135079D01*
X0025591Y0134941D01*
X0017913Y0134941D01*
X0017815Y0135039D01*
X0025591Y0140650D02*
X0025591Y0142126D01*
X0022736Y0144980D01*
X0022736Y0147638D01*
X0028445Y0147638D02*
X0028878Y0148071D01*
X0036654Y0148071D01*
X0036654Y0143740D02*
X0032343Y0143740D01*
X0028445Y0147638D01*
X0169291Y0160630D02*
X0170866Y0162205D01*
X0175591Y0162205D01*
D45*
X0172441Y0165354D01*
X0172441Y0180315D01*
X0169291Y0183465D01*
X0144094Y0183465D01*
X0143504Y0184055D01*
X0139764Y0184055D01*
X0136998Y0184020D02*
X0136624Y0184020D01*
X0136624Y0185199D02*
X0136998Y0185199D01*
X0136998Y0186123D02*
X0136998Y0181987D01*
X0137696Y0181290D01*
X0141832Y0181290D01*
X0142529Y0181987D01*
X0142529Y0182274D01*
X0142766Y0182274D01*
X0143357Y0181683D01*
X0145823Y0181683D01*
X0145639Y0181499D01*
X0145430Y0181137D01*
X0145321Y0180732D01*
X0145321Y0176623D01*
X0148012Y0176623D01*
X0150702Y0176623D01*
X0150702Y0180732D01*
X0150594Y0181137D01*
X0150385Y0181499D01*
X0150201Y0181683D01*
X0151389Y0181683D01*
X0150721Y0181016D01*
X0150721Y0172230D01*
X0151419Y0171532D01*
X0154605Y0171532D01*
X0155302Y0172230D01*
X0155302Y0181016D01*
X0154635Y0181683D01*
X0156389Y0181683D01*
X0155721Y0181016D01*
X0155721Y0172230D01*
X0156419Y0171532D01*
X0156428Y0171532D01*
X0156428Y0168904D01*
X0156037Y0168513D01*
X0151312Y0168513D01*
X0150384Y0167585D01*
X0148809Y0166011D01*
X0148809Y0163113D01*
X0146419Y0163113D01*
X0145721Y0162416D01*
X0145721Y0158985D01*
X0145415Y0158679D01*
X0144085Y0157349D01*
X0144085Y0154987D01*
X0138770Y0149672D01*
X0138770Y0146427D01*
X0136033Y0146427D01*
X0136033Y0178806D01*
X0135443Y0179396D01*
X0135443Y0181290D01*
X0135926Y0181290D01*
X0136624Y0181987D01*
X0136624Y0186123D01*
X0135926Y0186820D01*
X0131790Y0186820D01*
X0131093Y0186123D01*
X0131093Y0181987D01*
X0131790Y0181290D01*
X0132274Y0181290D01*
X0132274Y0179415D01*
X0131365Y0180324D01*
X0129790Y0180324D01*
X0129537Y0180577D01*
X0129537Y0181290D01*
X0130021Y0181290D01*
X0130718Y0181987D01*
X0130718Y0186123D01*
X0130021Y0186820D01*
X0125885Y0186820D01*
X0125187Y0186123D01*
X0125187Y0181987D01*
X0125885Y0181290D01*
X0126369Y0181290D01*
X0126369Y0179265D01*
X0126884Y0178750D01*
X0125853Y0178750D01*
X0123631Y0180971D01*
X0123631Y0181290D01*
X0124115Y0181290D01*
X0124813Y0181987D01*
X0124813Y0186123D01*
X0124115Y0186820D01*
X0119979Y0186820D01*
X0119282Y0186123D01*
X0119282Y0185836D01*
X0112214Y0185836D01*
X0112214Y0186014D01*
X0115305Y0186014D01*
X0117470Y0188180D01*
X0119282Y0188180D01*
X0119282Y0187893D01*
X0119979Y0187195D01*
X0124115Y0187195D01*
X0124813Y0187893D01*
X0124813Y0191132D01*
X0125187Y0191132D01*
X0125187Y0187893D01*
X0125885Y0187195D01*
X0130021Y0187195D01*
X0130718Y0187893D01*
X0130718Y0192029D01*
X0130021Y0192726D01*
X0129478Y0192726D01*
X0127509Y0194694D01*
X0112214Y0194694D01*
X0112214Y0195260D01*
X0145660Y0195260D01*
X0145660Y0194694D01*
X0133908Y0194694D01*
X0132077Y0192864D01*
X0132077Y0192726D01*
X0131790Y0192726D01*
X0131093Y0192029D01*
X0131093Y0187893D01*
X0131790Y0187195D01*
X0135926Y0187195D01*
X0136624Y0187893D01*
X0136624Y0191132D01*
X0136998Y0191132D01*
X0136998Y0187893D01*
X0137696Y0187195D01*
X0141832Y0187195D01*
X0142529Y0187893D01*
X0142529Y0188180D01*
X0143160Y0188180D01*
X0145325Y0186014D01*
X0145660Y0186014D01*
X0145660Y0185432D01*
X0145846Y0185246D01*
X0144832Y0185246D01*
X0144242Y0185836D01*
X0142529Y0185836D01*
X0142529Y0186123D01*
X0141832Y0186820D01*
X0137696Y0186820D01*
X0136998Y0186123D01*
X0137254Y0186379D02*
X0136368Y0186379D01*
X0136290Y0187559D02*
X0137333Y0187559D01*
X0136998Y0188738D02*
X0136624Y0188738D01*
X0136624Y0189918D02*
X0136998Y0189918D01*
X0136998Y0191097D02*
X0136624Y0191097D01*
X0134646Y0192913D02*
X0133858Y0192126D01*
X0133858Y0189961D01*
X0134646Y0192913D02*
X0148720Y0192913D01*
X0148720Y0187795D02*
X0146063Y0187795D01*
X0143898Y0189961D01*
X0139764Y0189961D01*
X0142195Y0187559D02*
X0143781Y0187559D01*
X0144960Y0186379D02*
X0142273Y0186379D01*
X0142202Y0181661D02*
X0145800Y0181661D01*
X0145321Y0180481D02*
X0135443Y0180481D01*
X0135538Y0179301D02*
X0145321Y0179301D01*
X0145321Y0178122D02*
X0136033Y0178122D01*
X0136033Y0176942D02*
X0145321Y0176942D01*
X0145321Y0176623D02*
X0145321Y0172513D01*
X0145430Y0172109D01*
X0145639Y0171746D01*
X0145935Y0171450D01*
X0146298Y0171241D01*
X0146702Y0171132D01*
X0148012Y0171132D01*
X0149321Y0171132D01*
X0149726Y0171241D01*
X0150088Y0171450D01*
X0150385Y0171746D01*
X0150594Y0172109D01*
X0150702Y0172513D01*
X0150702Y0176623D01*
X0148012Y0176623D01*
X0148012Y0176623D01*
X0148012Y0171132D01*
X0148012Y0176623D01*
X0148012Y0176623D01*
X0148012Y0176623D01*
X0145321Y0176623D01*
X0145321Y0175762D02*
X0136033Y0175762D01*
X0136033Y0174583D02*
X0145321Y0174583D01*
X0145321Y0173403D02*
X0136033Y0173403D01*
X0136033Y0172224D02*
X0145399Y0172224D01*
X0148012Y0172224D02*
X0148012Y0172224D01*
X0148012Y0173403D02*
X0148012Y0173403D01*
X0148012Y0174583D02*
X0148012Y0174583D01*
X0148012Y0175762D02*
X0148012Y0175762D01*
X0150702Y0175762D02*
X0150721Y0175762D01*
X0150702Y0174583D02*
X0150721Y0174583D01*
X0150702Y0173403D02*
X0150721Y0173403D01*
X0150727Y0172224D02*
X0150625Y0172224D01*
X0155296Y0172224D02*
X0155727Y0172224D01*
X0155721Y0173403D02*
X0155302Y0173403D01*
X0155302Y0174583D02*
X0155721Y0174583D01*
X0155721Y0175762D02*
X0155302Y0175762D01*
X0155302Y0176942D02*
X0155721Y0176942D01*
X0155721Y0178122D02*
X0155302Y0178122D01*
X0155302Y0179301D02*
X0155721Y0179301D01*
X0155721Y0180481D02*
X0155302Y0180481D01*
X0154658Y0181661D02*
X0156366Y0181661D01*
X0157743Y0185246D02*
X0157781Y0185311D01*
X0157890Y0185716D01*
X0157890Y0187451D01*
X0154774Y0187451D01*
X0154774Y0188140D01*
X0157890Y0188140D01*
X0157890Y0189875D01*
X0157781Y0190279D01*
X0157738Y0190354D01*
X0157781Y0190429D01*
X0157890Y0190834D01*
X0157890Y0192569D01*
X0154774Y0192569D01*
X0154774Y0193258D01*
X0157890Y0193258D01*
X0157890Y0194993D01*
X0157818Y0195260D01*
X0195260Y0195260D01*
X0195260Y0144095D01*
X0195199Y0144282D01*
X0194871Y0144926D01*
X0194446Y0145510D01*
X0193935Y0146021D01*
X0193351Y0146446D01*
X0192707Y0146774D01*
X0192020Y0146997D01*
X0191354Y0147103D01*
X0191354Y0142929D01*
X0190535Y0142929D01*
X0190535Y0142110D01*
X0186362Y0142110D01*
X0186467Y0141445D01*
X0186691Y0140758D01*
X0187019Y0140114D01*
X0187443Y0139529D01*
X0187954Y0139018D01*
X0188539Y0138593D01*
X0189183Y0138265D01*
X0189870Y0138042D01*
X0190535Y0137937D01*
X0190535Y0142110D01*
X0191354Y0142110D01*
X0191354Y0137937D01*
X0192020Y0138042D01*
X0192707Y0138265D01*
X0193351Y0138593D01*
X0193935Y0139018D01*
X0194446Y0139529D01*
X0194871Y0140114D01*
X0195199Y0140758D01*
X0195260Y0140944D01*
X0195260Y0124095D01*
X0195199Y0124282D01*
X0194871Y0124926D01*
X0194446Y0125510D01*
X0193935Y0126021D01*
X0193351Y0126446D01*
X0192707Y0126774D01*
X0192020Y0126997D01*
X0191354Y0127103D01*
X0191354Y0122929D01*
X0190535Y0122929D01*
X0190535Y0122110D01*
X0186362Y0122110D01*
X0186467Y0121445D01*
X0186691Y0120758D01*
X0187019Y0120114D01*
X0187443Y0119529D01*
X0187954Y0119018D01*
X0188539Y0118593D01*
X0189183Y0118265D01*
X0189870Y0118042D01*
X0190535Y0117937D01*
X0190535Y0122110D01*
X0191354Y0122110D01*
X0191354Y0117937D01*
X0192020Y0118042D01*
X0192707Y0118265D01*
X0193351Y0118593D01*
X0193935Y0119018D01*
X0194446Y0119529D01*
X0194871Y0120114D01*
X0195199Y0120758D01*
X0195260Y0120944D01*
X0195260Y0077000D01*
X0195183Y0077287D01*
X0194974Y0077650D01*
X0194677Y0077946D01*
X0194315Y0078155D01*
X0193910Y0078264D01*
X0192175Y0078264D01*
X0192175Y0075148D01*
X0191486Y0075148D01*
X0191486Y0078264D01*
X0189751Y0078264D01*
X0189347Y0078155D01*
X0188984Y0077946D01*
X0188694Y0077655D01*
X0188485Y0077864D01*
X0183759Y0077864D01*
X0183061Y0077166D01*
X0183061Y0076387D01*
X0176247Y0076387D01*
X0176131Y0076503D01*
X0176131Y0079013D01*
X0176140Y0079013D01*
X0176838Y0079710D01*
X0176838Y0088496D01*
X0176140Y0089194D01*
X0176131Y0089194D01*
X0176131Y0091463D01*
X0175478Y0092117D01*
X0176509Y0092117D01*
X0177963Y0090663D01*
X0177963Y0089194D01*
X0177954Y0089194D01*
X0177257Y0088496D01*
X0177257Y0079710D01*
X0177954Y0079013D01*
X0181140Y0079013D01*
X0181838Y0079710D01*
X0181838Y0088496D01*
X0181140Y0089194D01*
X0181131Y0089194D01*
X0181131Y0091975D01*
X0180203Y0092903D01*
X0177822Y0095285D01*
X0170735Y0095285D01*
X0165223Y0100797D01*
X0156013Y0100797D01*
X0156013Y0103022D01*
X0157580Y0103022D01*
X0158052Y0103494D01*
X0158052Y0103424D01*
X0158444Y0102477D01*
X0159170Y0101752D01*
X0160117Y0101359D01*
X0161143Y0101359D01*
X0162090Y0101752D01*
X0162815Y0102477D01*
X0163208Y0103424D01*
X0163208Y0104450D01*
X0162815Y0105397D01*
X0162805Y0105408D01*
X0162805Y0105896D01*
X0162895Y0105896D01*
X0163592Y0106593D01*
X0163592Y0106783D01*
X0163675Y0106473D01*
X0163885Y0106110D01*
X0164181Y0105814D01*
X0164544Y0105604D01*
X0164948Y0105496D01*
X0166535Y0105496D01*
X0166535Y0108464D01*
X0166929Y0108464D01*
X0166929Y0105496D01*
X0168516Y0105496D01*
X0168749Y0105558D01*
X0169406Y0104901D01*
X0170353Y0104509D01*
X0171250Y0104509D01*
X0171250Y0099999D01*
X0171948Y0099302D01*
X0176674Y0099302D01*
X0177165Y0099793D01*
X0177656Y0099302D01*
X0182383Y0099302D01*
X0183080Y0099999D01*
X0183080Y0100542D01*
X0187228Y0100542D01*
X0187392Y0100146D01*
X0188571Y0098967D01*
X0190111Y0098329D01*
X0191778Y0098329D01*
X0193319Y0098967D01*
X0194497Y0100146D01*
X0195135Y0101686D01*
X0195135Y0103353D01*
X0194497Y0104893D01*
X0193319Y0106072D01*
X0191778Y0106710D01*
X0190111Y0106710D01*
X0188571Y0106072D01*
X0187392Y0104893D01*
X0187228Y0104498D01*
X0183080Y0104498D01*
X0183080Y0104725D01*
X0182383Y0105423D01*
X0177656Y0105423D01*
X0177165Y0104932D01*
X0176674Y0105423D01*
X0175895Y0105423D01*
X0175895Y0105873D01*
X0173885Y0107883D01*
X0173326Y0107883D01*
X0173052Y0108547D01*
X0172454Y0109144D01*
X0176674Y0109144D01*
X0177165Y0109635D01*
X0177656Y0109144D01*
X0182383Y0109144D01*
X0183080Y0109841D01*
X0183080Y0110542D01*
X0187228Y0110542D01*
X0187392Y0110146D01*
X0188571Y0108967D01*
X0190111Y0108329D01*
X0191778Y0108329D01*
X0193319Y0108967D01*
X0194497Y0110146D01*
X0195135Y0111686D01*
X0195135Y0113353D01*
X0194497Y0114893D01*
X0193319Y0116072D01*
X0191778Y0116710D01*
X0190111Y0116710D01*
X0188571Y0116072D01*
X0187392Y0114893D01*
X0187228Y0114498D01*
X0183080Y0114498D01*
X0183080Y0114568D01*
X0182383Y0115265D01*
X0177656Y0115265D01*
X0177165Y0114774D01*
X0176674Y0115265D01*
X0172417Y0115265D01*
X0172264Y0115634D01*
X0171539Y0116359D01*
X0170592Y0116751D01*
X0169566Y0116751D01*
X0168618Y0116359D01*
X0167893Y0115634D01*
X0167501Y0114686D01*
X0167501Y0113660D01*
X0167893Y0112713D01*
X0168618Y0111988D01*
X0169566Y0111595D01*
X0170416Y0111595D01*
X0170463Y0111548D01*
X0171250Y0110761D01*
X0171250Y0109841D01*
X0171462Y0109630D01*
X0171379Y0109665D01*
X0170353Y0109665D01*
X0169898Y0109476D01*
X0169898Y0110446D01*
X0169789Y0110850D01*
X0169580Y0111213D01*
X0169284Y0111509D01*
X0168921Y0111718D01*
X0168516Y0111827D01*
X0166929Y0111827D01*
X0166929Y0108858D01*
X0166535Y0108858D01*
X0166535Y0111827D01*
X0164948Y0111827D01*
X0164544Y0111718D01*
X0164181Y0111509D01*
X0163885Y0111213D01*
X0163675Y0110850D01*
X0163592Y0110540D01*
X0163592Y0110729D01*
X0162895Y0111427D01*
X0158759Y0111427D01*
X0158277Y0110945D01*
X0158277Y0123711D01*
X0162895Y0123711D01*
X0163103Y0123919D01*
X0163393Y0123629D01*
X0163756Y0123419D01*
X0164161Y0123311D01*
X0165896Y0123311D01*
X0165896Y0126427D01*
X0166585Y0126427D01*
X0166585Y0127116D01*
X0169701Y0127116D01*
X0169701Y0128528D01*
X0169894Y0128528D01*
X0170299Y0128636D01*
X0170662Y0128845D01*
X0170958Y0129141D01*
X0171167Y0129504D01*
X0171276Y0129909D01*
X0171276Y0132382D01*
X0168209Y0132382D01*
X0168209Y0132972D01*
X0171276Y0132972D01*
X0171276Y0135446D01*
X0171167Y0135850D01*
X0170958Y0136213D01*
X0170662Y0136509D01*
X0170299Y0136718D01*
X0169894Y0136827D01*
X0168209Y0136827D01*
X0168209Y0132973D01*
X0167618Y0132973D01*
X0167618Y0136827D01*
X0165932Y0136827D01*
X0165528Y0136718D01*
X0165165Y0136509D01*
X0164869Y0136213D01*
X0164660Y0135850D01*
X0164551Y0135446D01*
X0164551Y0132972D01*
X0167618Y0132972D01*
X0167618Y0132382D01*
X0164551Y0132382D01*
X0164551Y0130232D01*
X0164161Y0130232D01*
X0163756Y0130124D01*
X0163395Y0129916D01*
X0163395Y0135729D01*
X0162698Y0136427D01*
X0158168Y0136427D01*
X0157795Y0136054D01*
X0157580Y0136269D01*
X0156210Y0136269D01*
X0156210Y0140935D01*
X0156595Y0140935D01*
X0157293Y0141633D01*
X0157293Y0141823D01*
X0157376Y0141512D01*
X0157586Y0141149D01*
X0157882Y0140853D01*
X0158244Y0140644D01*
X0158649Y0140535D01*
X0160236Y0140535D01*
X0160236Y0143504D01*
X0160630Y0143504D01*
X0160630Y0143898D01*
X0160236Y0143898D01*
X0160236Y0146866D01*
X0159343Y0146866D01*
X0160499Y0148022D01*
X0180971Y0148022D01*
X0183885Y0150935D01*
X0187065Y0150935D01*
X0187392Y0150146D01*
X0188571Y0148967D01*
X0190111Y0148329D01*
X0191778Y0148329D01*
X0193319Y0148967D01*
X0194497Y0150146D01*
X0195135Y0151686D01*
X0195135Y0153353D01*
X0194497Y0154893D01*
X0193319Y0156072D01*
X0191778Y0156710D01*
X0190111Y0156710D01*
X0188571Y0156072D01*
X0187392Y0154893D01*
X0187065Y0154104D01*
X0183474Y0154104D01*
X0183474Y0159974D01*
X0184436Y0160935D01*
X0186754Y0160935D01*
X0186754Y0159027D01*
X0187452Y0158329D01*
X0194438Y0158329D01*
X0195135Y0159027D01*
X0195135Y0166013D01*
X0194438Y0166710D01*
X0187452Y0166710D01*
X0186754Y0166013D01*
X0186754Y0164104D01*
X0183123Y0164104D01*
X0180306Y0161286D01*
X0180306Y0154200D01*
X0178871Y0152765D01*
X0172457Y0152765D01*
X0172457Y0154331D01*
X0169488Y0154331D01*
X0169488Y0154724D01*
X0172457Y0154724D01*
X0172457Y0156312D01*
X0172348Y0156716D01*
X0172139Y0157079D01*
X0171843Y0157375D01*
X0171480Y0157585D01*
X0171169Y0157668D01*
X0171359Y0157668D01*
X0172057Y0158365D01*
X0172057Y0160030D01*
X0174120Y0160030D01*
X0174130Y0160019D01*
X0175078Y0159627D01*
X0176103Y0159627D01*
X0177051Y0160019D01*
X0177776Y0160744D01*
X0178168Y0161692D01*
X0178168Y0162718D01*
X0177776Y0163665D01*
X0177051Y0164390D01*
X0176103Y0164783D01*
X0175531Y0164783D01*
X0174222Y0166092D01*
X0174222Y0181053D01*
X0173179Y0182096D01*
X0170029Y0185246D01*
X0157743Y0185246D01*
X0157890Y0186379D02*
X0195260Y0186379D01*
X0195260Y0187559D02*
X0154774Y0187559D01*
X0154774Y0188140D02*
X0154085Y0188140D01*
X0154085Y0189453D01*
X0154085Y0192569D01*
X0154774Y0192569D01*
X0154774Y0188140D01*
X0154774Y0188738D02*
X0154085Y0188738D01*
X0154085Y0189918D02*
X0154774Y0189918D01*
X0154774Y0191097D02*
X0154085Y0191097D01*
X0154085Y0192277D02*
X0154774Y0192277D01*
X0157890Y0192277D02*
X0195260Y0192277D01*
X0195260Y0191097D02*
X0157890Y0191097D01*
X0157878Y0189918D02*
X0195260Y0189918D01*
X0195260Y0188738D02*
X0157890Y0188738D01*
X0157890Y0193457D02*
X0195260Y0193457D01*
X0195260Y0194636D02*
X0157890Y0194636D01*
X0170075Y0185199D02*
X0195260Y0185199D01*
X0195260Y0184020D02*
X0171255Y0184020D01*
X0172435Y0182840D02*
X0195260Y0182840D01*
X0195260Y0181661D02*
X0173614Y0181661D01*
X0174222Y0180481D02*
X0195260Y0180481D01*
X0195260Y0179301D02*
X0174222Y0179301D01*
X0174222Y0178122D02*
X0195260Y0178122D01*
X0195260Y0176942D02*
X0174222Y0176942D01*
X0174222Y0175762D02*
X0195260Y0175762D01*
X0195260Y0174583D02*
X0174222Y0174583D01*
X0174222Y0173403D02*
X0195260Y0173403D01*
X0195260Y0172224D02*
X0174222Y0172224D01*
X0174222Y0171044D02*
X0195260Y0171044D01*
X0195260Y0169864D02*
X0174222Y0169864D01*
X0174222Y0168685D02*
X0195260Y0168685D01*
X0195260Y0167505D02*
X0174222Y0167505D01*
X0174222Y0166326D02*
X0187067Y0166326D01*
X0186754Y0165146D02*
X0175168Y0165146D01*
X0177475Y0163966D02*
X0182986Y0163966D01*
X0181806Y0162787D02*
X0178140Y0162787D01*
X0178133Y0161607D02*
X0180626Y0161607D01*
X0180306Y0160427D02*
X0177459Y0160427D01*
X0180306Y0159248D02*
X0172057Y0159248D01*
X0171760Y0158068D02*
X0180306Y0158068D01*
X0180306Y0156889D02*
X0172249Y0156889D01*
X0172457Y0155709D02*
X0180306Y0155709D01*
X0180306Y0154529D02*
X0169488Y0154529D01*
X0169094Y0154529D02*
X0165302Y0154529D01*
X0166126Y0154724D02*
X0169094Y0154724D01*
X0169094Y0154331D01*
X0166126Y0154331D01*
X0166126Y0152765D01*
X0157611Y0152765D01*
X0157084Y0152238D01*
X0157084Y0152932D01*
X0159605Y0152932D01*
X0160302Y0153630D01*
X0160302Y0162416D01*
X0159736Y0162983D01*
X0161288Y0162983D01*
X0160721Y0162416D01*
X0160721Y0153630D01*
X0161419Y0152932D01*
X0164605Y0152932D01*
X0165302Y0153630D01*
X0165302Y0156045D01*
X0166126Y0156045D01*
X0166126Y0154724D01*
X0166126Y0155709D02*
X0165302Y0155709D01*
X0165022Y0153350D02*
X0166126Y0153350D01*
X0161001Y0153350D02*
X0160022Y0153350D01*
X0160302Y0154529D02*
X0160721Y0154529D01*
X0160721Y0155709D02*
X0160302Y0155709D01*
X0160302Y0156889D02*
X0160721Y0156889D01*
X0160721Y0158068D02*
X0160302Y0158068D01*
X0160302Y0159248D02*
X0160721Y0159248D01*
X0160721Y0160427D02*
X0160302Y0160427D01*
X0160302Y0161607D02*
X0160721Y0161607D01*
X0161092Y0162787D02*
X0159932Y0162787D01*
X0156208Y0168685D02*
X0136033Y0168685D01*
X0136033Y0169864D02*
X0156428Y0169864D01*
X0156428Y0171044D02*
X0136033Y0171044D01*
X0136033Y0167505D02*
X0150304Y0167505D01*
X0149124Y0166326D02*
X0136033Y0166326D01*
X0136033Y0165146D02*
X0148809Y0165146D01*
X0148809Y0163966D02*
X0136033Y0163966D01*
X0136033Y0162787D02*
X0146092Y0162787D01*
X0145721Y0161607D02*
X0136033Y0161607D01*
X0136033Y0160427D02*
X0145721Y0160427D01*
X0145721Y0159248D02*
X0136033Y0159248D01*
X0136033Y0158068D02*
X0144804Y0158068D01*
X0144085Y0156889D02*
X0136033Y0156889D01*
X0136033Y0155709D02*
X0144085Y0155709D01*
X0143628Y0154529D02*
X0136033Y0154529D01*
X0136033Y0153350D02*
X0142448Y0153350D01*
X0141268Y0152170D02*
X0136033Y0152170D01*
X0136033Y0150991D02*
X0140089Y0150991D01*
X0138909Y0149811D02*
X0136033Y0149811D01*
X0136033Y0148631D02*
X0138770Y0148631D01*
X0138770Y0147452D02*
X0136033Y0147452D01*
X0124991Y0147452D02*
X0115176Y0147452D01*
X0115176Y0147757D02*
X0114784Y0148704D01*
X0114059Y0149430D01*
X0113111Y0149822D01*
X0112086Y0149822D01*
X0112017Y0149794D01*
X0112017Y0153643D01*
X0111320Y0154340D01*
X0110699Y0154340D01*
X0110699Y0155485D01*
X0110959Y0155745D01*
X0110959Y0162331D01*
X0110261Y0163028D01*
X0105354Y0163028D01*
X0103513Y0164869D01*
X0102585Y0165797D01*
X0089419Y0165797D01*
X0089419Y0166281D01*
X0089321Y0166378D01*
X0089419Y0166475D01*
X0089419Y0166959D01*
X0092822Y0166959D01*
X0095144Y0169282D01*
X0122966Y0169282D01*
X0124991Y0167257D01*
X0124991Y0146427D01*
X0120429Y0146427D01*
X0120347Y0146509D01*
X0119984Y0146718D01*
X0119579Y0146827D01*
X0118701Y0146827D01*
X0118701Y0142579D01*
X0118701Y0142579D01*
X0118701Y0146827D01*
X0117822Y0146827D01*
X0117418Y0146718D01*
X0117055Y0146509D01*
X0116973Y0146427D01*
X0115570Y0146427D01*
X0114872Y0145729D01*
X0114872Y0145482D01*
X0114482Y0145482D01*
X0114784Y0145784D01*
X0115176Y0146731D01*
X0115176Y0147757D01*
X0114814Y0148631D02*
X0124991Y0148631D01*
X0124991Y0149811D02*
X0113138Y0149811D01*
X0112059Y0149811D02*
X0112017Y0149811D01*
X0112017Y0150991D02*
X0124991Y0150991D01*
X0124991Y0152170D02*
X0112017Y0152170D01*
X0112017Y0153350D02*
X0124991Y0153350D01*
X0124991Y0154529D02*
X0110699Y0154529D01*
X0110923Y0155709D02*
X0124991Y0155709D01*
X0124991Y0156889D02*
X0110959Y0156889D01*
X0110959Y0158068D02*
X0124991Y0158068D01*
X0124991Y0159248D02*
X0110959Y0159248D01*
X0110959Y0160427D02*
X0124991Y0160427D01*
X0124991Y0161607D02*
X0110959Y0161607D01*
X0110503Y0162787D02*
X0124991Y0162787D01*
X0124991Y0163966D02*
X0104416Y0163966D01*
X0103236Y0165146D02*
X0124991Y0165146D01*
X0124991Y0166326D02*
X0089374Y0166326D01*
X0093368Y0167505D02*
X0124743Y0167505D01*
X0123563Y0168685D02*
X0094547Y0168685D01*
X0089419Y0174458D02*
X0089419Y0174571D01*
X0089501Y0174653D01*
X0089710Y0175016D01*
X0089819Y0175421D01*
X0089819Y0177008D01*
X0084882Y0177008D01*
X0084882Y0177402D01*
X0089819Y0177402D01*
X0089819Y0177986D01*
X0090452Y0177353D01*
X0094466Y0177353D01*
X0094552Y0177267D01*
X0095532Y0176861D01*
X0096593Y0176861D01*
X0097574Y0177267D01*
X0098324Y0178017D01*
X0098730Y0178997D01*
X0098730Y0180058D01*
X0098324Y0181038D01*
X0097733Y0181629D01*
X0096983Y0182379D01*
X0096003Y0182785D01*
X0094686Y0182785D01*
X0094588Y0182883D01*
X0094398Y0182883D01*
X0094708Y0182967D01*
X0095071Y0183176D01*
X0095367Y0183472D01*
X0095577Y0183835D01*
X0095685Y0184239D01*
X0095685Y0185827D01*
X0092717Y0185827D01*
X0092717Y0186220D01*
X0095685Y0186220D01*
X0095685Y0187808D01*
X0095577Y0188212D01*
X0095367Y0188575D01*
X0095071Y0188871D01*
X0094708Y0189081D01*
X0094304Y0189189D01*
X0092717Y0189189D01*
X0092717Y0186221D01*
X0092323Y0186221D01*
X0092323Y0189189D01*
X0090735Y0189189D01*
X0090331Y0189081D01*
X0089968Y0188871D01*
X0089672Y0188575D01*
X0089541Y0188348D01*
X0089501Y0188418D01*
X0089205Y0188714D01*
X0088842Y0188923D01*
X0088438Y0189031D01*
X0084882Y0189031D01*
X0084882Y0186063D01*
X0089819Y0186063D01*
X0089819Y0186220D01*
X0092323Y0186220D01*
X0092323Y0185827D01*
X0089354Y0185827D01*
X0089354Y0185669D01*
X0084882Y0185669D01*
X0084882Y0186063D01*
X0084488Y0186063D01*
X0084488Y0185669D01*
X0079551Y0185669D01*
X0079551Y0184082D01*
X0079660Y0183677D01*
X0079869Y0183315D01*
X0079951Y0183233D01*
X0079951Y0179838D01*
X0079869Y0179756D01*
X0079660Y0179393D01*
X0079551Y0178989D01*
X0079551Y0177402D01*
X0084488Y0177402D01*
X0084488Y0177008D01*
X0079551Y0177008D01*
X0079551Y0175421D01*
X0079660Y0175016D01*
X0079869Y0174653D01*
X0079951Y0174571D01*
X0079951Y0170806D01*
X0080049Y0170709D01*
X0079951Y0170611D01*
X0079951Y0166475D01*
X0080049Y0166378D01*
X0079951Y0166281D01*
X0079951Y0162145D01*
X0080049Y0162047D01*
X0079951Y0161950D01*
X0079951Y0157814D01*
X0080649Y0157117D01*
X0088721Y0157117D01*
X0089419Y0157814D01*
X0089419Y0158298D01*
X0096155Y0158298D01*
X0096982Y0157471D01*
X0099278Y0157471D01*
X0099278Y0155745D01*
X0099975Y0155047D01*
X0107137Y0155047D01*
X0107137Y0154293D01*
X0106487Y0153643D01*
X0106487Y0153453D01*
X0106403Y0153764D01*
X0106194Y0154126D01*
X0105898Y0154422D01*
X0105535Y0154632D01*
X0105131Y0154740D01*
X0103543Y0154740D01*
X0103543Y0151772D01*
X0103150Y0151772D01*
X0103150Y0154740D01*
X0101562Y0154740D01*
X0101158Y0154632D01*
X0100795Y0154422D01*
X0100499Y0154126D01*
X0100289Y0153764D01*
X0100181Y0153359D01*
X0100181Y0151772D01*
X0103150Y0151772D01*
X0103150Y0151378D01*
X0103543Y0151378D01*
X0103543Y0148409D01*
X0105131Y0148409D01*
X0105535Y0148518D01*
X0105898Y0148727D01*
X0106194Y0149023D01*
X0106403Y0149386D01*
X0106487Y0149697D01*
X0106487Y0149507D01*
X0107184Y0148809D01*
X0107471Y0148809D01*
X0107471Y0146466D01*
X0107184Y0146466D01*
X0106487Y0145769D01*
X0106487Y0145579D01*
X0106403Y0145890D01*
X0106194Y0146252D01*
X0105898Y0146548D01*
X0105535Y0146758D01*
X0105131Y0146866D01*
X0103543Y0146866D01*
X0103543Y0143898D01*
X0103150Y0143898D01*
X0103150Y0146866D01*
X0101562Y0146866D01*
X0101158Y0146758D01*
X0100795Y0146548D01*
X0100499Y0146252D01*
X0100289Y0145890D01*
X0100181Y0145485D01*
X0100181Y0143898D01*
X0103150Y0143898D01*
X0103150Y0143504D01*
X0103543Y0143504D01*
X0103543Y0140535D01*
X0105131Y0140535D01*
X0105535Y0140644D01*
X0105898Y0140853D01*
X0106194Y0141149D01*
X0106403Y0141512D01*
X0106487Y0141823D01*
X0106487Y0141633D01*
X0107184Y0140935D01*
X0111320Y0140935D01*
X0112017Y0141633D01*
X0112017Y0141920D01*
X0114872Y0141920D01*
X0114872Y0139428D01*
X0115570Y0138731D01*
X0116973Y0138731D01*
X0117055Y0138648D01*
X0117418Y0138439D01*
X0117822Y0138331D01*
X0118701Y0138331D01*
X0119085Y0138331D01*
X0119085Y0133793D01*
X0119676Y0133202D01*
X0119676Y0115230D01*
X0119508Y0115634D01*
X0118783Y0116359D01*
X0118120Y0116634D01*
X0118120Y0133727D01*
X0117192Y0134655D01*
X0115853Y0135994D01*
X0111989Y0135994D01*
X0111714Y0136269D01*
X0105412Y0136269D01*
X0104715Y0135572D01*
X0104715Y0118277D01*
X0072730Y0118277D01*
X0071785Y0117332D01*
X0070857Y0116404D01*
X0070857Y0104734D01*
X0067848Y0104734D01*
X0067060Y0103946D01*
X0066132Y0103018D01*
X0066132Y0095407D01*
X0068104Y0093435D01*
X0068287Y0093435D01*
X0068287Y0093427D01*
X0068984Y0092729D01*
X0077770Y0092729D01*
X0078468Y0093427D01*
X0078468Y0096613D01*
X0077770Y0097310D01*
X0069301Y0097310D01*
X0069301Y0097729D01*
X0077770Y0097729D01*
X0078468Y0098427D01*
X0078468Y0098435D01*
X0084928Y0098435D01*
X0085696Y0099203D01*
X0086624Y0100131D01*
X0086624Y0102746D01*
X0090552Y0102746D01*
X0090739Y0102933D01*
X0090739Y0102706D01*
X0090343Y0102310D01*
X0087584Y0102310D01*
X0086887Y0101613D01*
X0086887Y0098427D01*
X0087584Y0097729D01*
X0096370Y0097729D01*
X0096860Y0098219D01*
X0100181Y0098219D01*
X0100181Y0096654D01*
X0103150Y0096654D01*
X0103150Y0096260D01*
X0103543Y0096260D01*
X0103543Y0093291D01*
X0105131Y0093291D01*
X0105535Y0093400D01*
X0105898Y0093609D01*
X0106194Y0093905D01*
X0106403Y0094268D01*
X0106487Y0094579D01*
X0106487Y0094389D01*
X0107184Y0093691D01*
X0110876Y0093691D01*
X0111073Y0093494D01*
X0114940Y0093494D01*
X0115512Y0092923D01*
X0112730Y0092923D01*
X0111014Y0091207D01*
X0111014Y0089970D01*
X0109349Y0089970D01*
X0109143Y0089764D01*
X0107284Y0089764D01*
X0107284Y0090157D01*
X0110252Y0090157D01*
X0110252Y0091745D01*
X0110144Y0092149D01*
X0109934Y0092512D01*
X0109638Y0092808D01*
X0109275Y0093018D01*
X0108871Y0093126D01*
X0107283Y0093126D01*
X0107283Y0090158D01*
X0106890Y0090158D01*
X0106890Y0093126D01*
X0105302Y0093126D01*
X0104898Y0093018D01*
X0104535Y0092808D01*
X0104239Y0092512D01*
X0104030Y0092149D01*
X0103921Y0091745D01*
X0103921Y0090157D01*
X0106890Y0090157D01*
X0106890Y0089764D01*
X0103921Y0089764D01*
X0103921Y0088176D01*
X0104030Y0087772D01*
X0104239Y0087409D01*
X0104535Y0087113D01*
X0104898Y0086904D01*
X0105208Y0086820D01*
X0105019Y0086820D01*
X0104321Y0086123D01*
X0104321Y0081987D01*
X0105019Y0081290D01*
X0109155Y0081290D01*
X0109252Y0081387D01*
X0109349Y0081290D01*
X0116241Y0081290D01*
X0116939Y0081987D01*
X0116939Y0089273D01*
X0116457Y0089754D01*
X0118189Y0089754D01*
X0117707Y0089273D01*
X0117707Y0081987D01*
X0118404Y0081290D01*
X0124991Y0081290D01*
X0124991Y0080128D01*
X0118404Y0080128D01*
X0117707Y0079430D01*
X0117707Y0072145D01*
X0118189Y0071663D01*
X0116457Y0071663D01*
X0116939Y0072145D01*
X0116939Y0079430D01*
X0116241Y0080128D01*
X0109349Y0080128D01*
X0108652Y0079430D01*
X0108652Y0072145D01*
X0109134Y0071663D01*
X0106168Y0071663D01*
X0097647Y0080184D01*
X0096719Y0081112D01*
X0089633Y0081112D01*
X0088415Y0082329D01*
X0091977Y0082329D01*
X0091977Y0085020D01*
X0091977Y0090020D01*
X0091977Y0095020D01*
X0091977Y0097710D01*
X0087868Y0097710D01*
X0087463Y0097602D01*
X0087101Y0097392D01*
X0086804Y0097096D01*
X0086595Y0096734D01*
X0086487Y0096329D01*
X0086487Y0095020D01*
X0091977Y0095020D01*
X0091977Y0095020D01*
X0091977Y0095020D01*
X0091977Y0097710D01*
X0096087Y0097710D01*
X0096491Y0097602D01*
X0096854Y0097392D01*
X0097150Y0097096D01*
X0097359Y0096734D01*
X0097468Y0096329D01*
X0097468Y0095020D01*
X0091977Y0095020D01*
X0091977Y0095020D01*
X0086487Y0095020D01*
X0086487Y0093710D01*
X0086595Y0093306D01*
X0086804Y0092943D01*
X0087101Y0092647D01*
X0087321Y0092520D01*
X0087101Y0092392D01*
X0086804Y0092096D01*
X0086595Y0091734D01*
X0086487Y0091329D01*
X0086487Y0090020D01*
X0091977Y0090020D01*
X0091977Y0090020D01*
X0091977Y0090020D01*
X0091977Y0092710D01*
X0091977Y0095020D01*
X0091977Y0095020D01*
X0097468Y0095020D01*
X0097468Y0093710D01*
X0097359Y0093306D01*
X0097150Y0092943D01*
X0096854Y0092647D01*
X0096633Y0092520D01*
X0096854Y0092392D01*
X0097150Y0092096D01*
X0097359Y0091734D01*
X0097468Y0091329D01*
X0097468Y0090020D01*
X0091977Y0090020D01*
X0091977Y0090020D01*
X0086487Y0090020D01*
X0086487Y0088710D01*
X0086595Y0088306D01*
X0086804Y0087943D01*
X0087101Y0087647D01*
X0087321Y0087520D01*
X0087101Y0087392D01*
X0086804Y0087096D01*
X0086595Y0086734D01*
X0086487Y0086329D01*
X0086487Y0085020D01*
X0091977Y0085020D01*
X0091977Y0085020D01*
X0091977Y0085020D01*
X0091977Y0087329D01*
X0091977Y0090020D01*
X0091977Y0090020D01*
X0097468Y0090020D01*
X0097468Y0088710D01*
X0097359Y0088306D01*
X0097150Y0087943D01*
X0096854Y0087647D01*
X0096633Y0087520D01*
X0096854Y0087392D01*
X0097150Y0087096D01*
X0097359Y0086734D01*
X0097468Y0086329D01*
X0097468Y0085020D01*
X0091977Y0085020D01*
X0091977Y0085020D01*
X0086487Y0085020D01*
X0086487Y0084258D01*
X0084908Y0085836D01*
X0081234Y0085836D01*
X0080306Y0084908D01*
X0078780Y0083383D01*
X0078868Y0083710D01*
X0078868Y0085020D01*
X0078868Y0086329D01*
X0078759Y0086734D01*
X0078550Y0087096D01*
X0078254Y0087392D01*
X0077891Y0087602D01*
X0077487Y0087710D01*
X0073377Y0087710D01*
X0069268Y0087710D01*
X0068863Y0087602D01*
X0068501Y0087392D01*
X0068204Y0087096D01*
X0067995Y0086734D01*
X0067887Y0086329D01*
X0067887Y0085020D01*
X0073377Y0085020D01*
X0073377Y0087710D01*
X0073377Y0085020D01*
X0073377Y0085020D01*
X0073377Y0085020D01*
X0078868Y0085020D01*
X0073377Y0085020D01*
X0073377Y0085020D01*
X0067887Y0085020D01*
X0067887Y0083710D01*
X0067995Y0083306D01*
X0068204Y0082943D01*
X0068461Y0082687D01*
X0057500Y0082687D01*
X0057785Y0082971D01*
X0057785Y0087698D01*
X0057294Y0088189D01*
X0057785Y0088680D01*
X0057785Y0093407D01*
X0057088Y0094104D01*
X0056446Y0094104D01*
X0055462Y0095088D01*
X0053887Y0096663D01*
X0051984Y0096663D01*
X0051984Y0098228D01*
X0048032Y0098228D01*
X0048032Y0099016D01*
X0051984Y0099016D01*
X0051984Y0100800D01*
X0051876Y0101204D01*
X0051666Y0101567D01*
X0051370Y0101863D01*
X0051008Y0102073D01*
X0050603Y0102181D01*
X0048031Y0102181D01*
X0048031Y0099016D01*
X0047244Y0099016D01*
X0047244Y0102181D01*
X0044672Y0102181D01*
X0044268Y0102073D01*
X0043905Y0101863D01*
X0043609Y0101567D01*
X0043400Y0101204D01*
X0043291Y0100800D01*
X0043291Y0099016D01*
X0047244Y0099016D01*
X0047244Y0098228D01*
X0043291Y0098228D01*
X0043291Y0096663D01*
X0042923Y0096663D01*
X0042923Y0097344D01*
X0042225Y0098041D01*
X0035727Y0098041D01*
X0035030Y0097344D01*
X0035030Y0092420D01*
X0035727Y0091723D01*
X0037195Y0091723D01*
X0037195Y0086958D01*
X0036807Y0086570D01*
X0035964Y0086919D01*
X0028946Y0086919D01*
X0028946Y0110729D01*
X0028249Y0111427D01*
X0019389Y0111427D01*
X0019379Y0111417D01*
X0015266Y0111417D01*
X0015257Y0111427D01*
X0006397Y0111427D01*
X0005699Y0110729D01*
X0005699Y0086867D01*
X0005444Y0086612D01*
X0005444Y0084882D01*
X0005427Y0084865D01*
X0005427Y0078879D01*
X0006124Y0078181D01*
X0009258Y0078181D01*
X0009341Y0078099D01*
X0009703Y0077889D01*
X0010108Y0077781D01*
X0011417Y0077781D01*
X0011417Y0081872D01*
X0011417Y0081872D01*
X0011417Y0077781D01*
X0012727Y0077781D01*
X0013131Y0077889D01*
X0013494Y0078099D01*
X0013576Y0078181D01*
X0016710Y0078181D01*
X0017408Y0078879D01*
X0017408Y0084865D01*
X0016840Y0085433D01*
X0019379Y0085433D01*
X0019389Y0085424D01*
X0021344Y0085424D01*
X0021558Y0084907D01*
X0021810Y0084655D01*
X0018897Y0084655D01*
X0018199Y0083958D01*
X0018199Y0079231D01*
X0018690Y0078740D01*
X0018199Y0078249D01*
X0018199Y0073523D01*
X0018887Y0072835D01*
X0018774Y0072721D01*
X0018042Y0073453D01*
X0017408Y0073453D01*
X0017408Y0074665D01*
X0016710Y0075362D01*
X0013524Y0075362D01*
X0012827Y0074665D01*
X0012827Y0068679D01*
X0013379Y0068126D01*
X0012586Y0068126D01*
X0012181Y0068018D01*
X0011819Y0067808D01*
X0011523Y0067512D01*
X0011313Y0067149D01*
X0011230Y0066839D01*
X0011230Y0067029D01*
X0010533Y0067726D01*
X0009991Y0067726D01*
X0009991Y0068661D01*
X0010008Y0068679D01*
X0010008Y0074665D01*
X0009310Y0075362D01*
X0006124Y0075362D01*
X0005427Y0074665D01*
X0005427Y0068679D01*
X0005444Y0068661D01*
X0005444Y0064766D01*
X0005699Y0064511D01*
X0005699Y0062893D01*
X0006093Y0062499D01*
X0006093Y0061714D01*
X0005502Y0061123D01*
X0005502Y0053050D01*
X0006200Y0052353D01*
X0006683Y0052353D01*
X0006683Y0048584D01*
X0007164Y0047423D01*
X0008053Y0046534D01*
X0010022Y0044566D01*
X0010647Y0044307D01*
X0010630Y0044307D01*
X0010630Y0039961D01*
X0009449Y0039961D01*
X0009449Y0044307D01*
X0006287Y0044307D01*
X0005882Y0044199D01*
X0005519Y0043989D01*
X0005223Y0043693D01*
X0005014Y0043330D01*
X0004906Y0042926D01*
X0004905Y0039961D01*
X0009449Y0039961D01*
X0009449Y0038780D01*
X0004906Y0038780D01*
X0004906Y0035814D01*
X0005014Y0035410D01*
X0005223Y0035047D01*
X0005519Y0034751D01*
X0005882Y0034541D01*
X0006287Y0034433D01*
X0009449Y0034433D01*
X0009449Y0038779D01*
X0010630Y0038779D01*
X0010630Y0034433D01*
X0013792Y0034433D01*
X0014197Y0034541D01*
X0014559Y0034751D01*
X0014855Y0035047D01*
X0015065Y0035410D01*
X0015173Y0035814D01*
X0015173Y0038780D01*
X0010630Y0038780D01*
X0010630Y0039961D01*
X0015173Y0039961D01*
X0015173Y0042926D01*
X0015065Y0043330D01*
X0014855Y0043693D01*
X0014559Y0043989D01*
X0014393Y0044085D01*
X0023022Y0044085D01*
X0023022Y0043907D01*
X0022145Y0043907D01*
X0021447Y0043210D01*
X0021447Y0035530D01*
X0022145Y0034833D01*
X0030218Y0034833D01*
X0030915Y0035530D01*
X0030915Y0036211D01*
X0033369Y0036211D01*
X0033369Y0035328D01*
X0034066Y0034630D01*
X0041351Y0034630D01*
X0042049Y0035328D01*
X0042049Y0042904D01*
X0044565Y0042904D01*
X0044565Y0035328D01*
X0045263Y0034630D01*
X0045660Y0034630D01*
X0045660Y0029293D01*
X0046141Y0028132D01*
X0047029Y0027243D01*
X0047029Y0027243D01*
X0052274Y0021999D01*
X0052274Y0019840D01*
X0051086Y0018653D01*
X0050306Y0016768D01*
X0050306Y0014728D01*
X0051086Y0012843D01*
X0052529Y0011401D01*
X0054413Y0010620D01*
X0056453Y0010620D01*
X0058338Y0011401D01*
X0059780Y0012843D01*
X0060561Y0014728D01*
X0060561Y0016768D01*
X0059780Y0018653D01*
X0058592Y0019840D01*
X0058592Y0023935D01*
X0058111Y0025097D01*
X0057223Y0025985D01*
X0057223Y0025985D01*
X0051978Y0031230D01*
X0051978Y0034630D01*
X0052548Y0034630D01*
X0053246Y0035328D01*
X0053246Y0042904D01*
X0055306Y0042904D01*
X0055306Y0042814D01*
X0056003Y0042117D01*
X0062107Y0042117D01*
X0062805Y0042814D01*
X0062805Y0046644D01*
X0063180Y0046644D01*
X0063180Y0039673D01*
X0063096Y0039984D01*
X0062887Y0040347D01*
X0062591Y0040643D01*
X0062228Y0040852D01*
X0061824Y0040961D01*
X0059350Y0040961D01*
X0059350Y0037894D01*
X0058760Y0037894D01*
X0058760Y0040961D01*
X0056287Y0040961D01*
X0055882Y0040852D01*
X0055519Y0040643D01*
X0055223Y0040347D01*
X0055014Y0039984D01*
X0054906Y0039579D01*
X0054906Y0037894D01*
X0058760Y0037894D01*
X0058760Y0037303D01*
X0059350Y0037303D01*
X0059350Y0034236D01*
X0061824Y0034236D01*
X0062228Y0034345D01*
X0062591Y0034554D01*
X0062887Y0034850D01*
X0063096Y0035213D01*
X0063124Y0035314D01*
X0063783Y0034656D01*
X0064802Y0034233D01*
X0065906Y0034233D01*
X0066926Y0034656D01*
X0067707Y0035436D01*
X0068129Y0036456D01*
X0068129Y0037560D01*
X0067707Y0038580D01*
X0067529Y0038757D01*
X0067529Y0038908D01*
X0067679Y0038759D01*
X0068494Y0038759D01*
X0068494Y0037895D01*
X0068298Y0037698D01*
X0068298Y0029625D01*
X0068995Y0028928D01*
X0076674Y0028928D01*
X0077372Y0029625D01*
X0077372Y0037698D01*
X0076674Y0038395D01*
X0074813Y0038395D01*
X0074813Y0038759D01*
X0075865Y0038759D01*
X0076562Y0039456D01*
X0076562Y0048243D01*
X0075865Y0048940D01*
X0072679Y0048940D01*
X0071981Y0048243D01*
X0071981Y0045828D01*
X0071562Y0045828D01*
X0071562Y0048243D01*
X0070865Y0048940D01*
X0067764Y0048940D01*
X0070192Y0051369D01*
X0083578Y0051369D01*
X0085172Y0052963D01*
X0086446Y0054237D01*
X0086446Y0057941D01*
X0086562Y0058056D01*
X0086562Y0066843D01*
X0086446Y0066958D01*
X0086446Y0067806D01*
X0087501Y0067806D01*
X0088198Y0068503D01*
X0088198Y0069125D01*
X0088770Y0068554D01*
X0089813Y0067510D01*
X0091329Y0067510D01*
X0091329Y0066042D01*
X0091739Y0065633D01*
X0091329Y0065223D01*
X0090682Y0064576D01*
X0088286Y0064576D01*
X0087589Y0063879D01*
X0087589Y0057381D01*
X0088286Y0056683D01*
X0088967Y0056683D01*
X0088967Y0056546D01*
X0089302Y0056210D01*
X0089271Y0056210D01*
X0088573Y0055513D01*
X0088573Y0050786D01*
X0089271Y0050089D01*
X0093997Y0050089D01*
X0094205Y0050297D01*
X0094496Y0050007D01*
X0094859Y0049797D01*
X0095263Y0049689D01*
X0096998Y0049689D01*
X0096998Y0052805D01*
X0097687Y0052805D01*
X0097687Y0049689D01*
X0099422Y0049689D01*
X0099827Y0049797D01*
X0100189Y0050007D01*
X0100485Y0050303D01*
X0100695Y0050666D01*
X0100803Y0051070D01*
X0100803Y0052805D01*
X0097687Y0052805D01*
X0097687Y0053494D01*
X0100803Y0053494D01*
X0100803Y0055229D01*
X0100695Y0055634D01*
X0100485Y0055996D01*
X0100198Y0056283D01*
X0100406Y0056283D01*
X0100811Y0056392D01*
X0101173Y0056601D01*
X0101470Y0056897D01*
X0101679Y0057260D01*
X0101787Y0057665D01*
X0101787Y0060236D01*
X0098622Y0060236D01*
X0098622Y0061024D01*
X0101787Y0061024D01*
X0101787Y0063595D01*
X0101679Y0064000D01*
X0101470Y0064362D01*
X0101173Y0064659D01*
X0100811Y0064868D01*
X0100406Y0064976D01*
X0099500Y0064976D01*
X0100656Y0066132D01*
X0101584Y0067060D01*
X0101584Y0069592D01*
X0102185Y0070193D01*
X0102470Y0070880D01*
X0104856Y0068494D01*
X0112711Y0068494D01*
X0111605Y0067388D01*
X0111605Y0061820D01*
X0111121Y0061820D01*
X0110424Y0061123D01*
X0110424Y0060933D01*
X0110340Y0061244D01*
X0110131Y0061607D01*
X0109835Y0061903D01*
X0109472Y0062112D01*
X0109068Y0062220D01*
X0107480Y0062220D01*
X0107480Y0059252D01*
X0107087Y0059252D01*
X0107087Y0062220D01*
X0105499Y0062220D01*
X0105095Y0062112D01*
X0104732Y0061903D01*
X0104436Y0061607D01*
X0104227Y0061244D01*
X0104118Y0060839D01*
X0104118Y0059252D01*
X0107087Y0059252D01*
X0107087Y0058858D01*
X0107480Y0058858D01*
X0107480Y0055890D01*
X0107726Y0055890D01*
X0107726Y0053494D01*
X0107037Y0053494D01*
X0107037Y0052805D01*
X0103921Y0052805D01*
X0103921Y0051070D01*
X0104030Y0050666D01*
X0104239Y0050303D01*
X0104535Y0050007D01*
X0104898Y0049797D01*
X0105302Y0049689D01*
X0107037Y0049689D01*
X0107037Y0052805D01*
X0107726Y0052805D01*
X0107726Y0049689D01*
X0109461Y0049689D01*
X0109866Y0049797D01*
X0110229Y0050007D01*
X0110519Y0050297D01*
X0110645Y0050172D01*
X0110424Y0049950D01*
X0110424Y0049309D01*
X0108162Y0049309D01*
X0107465Y0048611D01*
X0107465Y0041742D01*
X0104537Y0041742D01*
X0104537Y0047245D01*
X0103840Y0047943D01*
X0100665Y0047943D01*
X0100583Y0048025D01*
X0100220Y0048234D01*
X0099816Y0048343D01*
X0098425Y0048342D01*
X0098425Y0048343D02*
X0097035Y0048343D01*
X0096630Y0048234D01*
X0096267Y0048025D01*
X0096185Y0047943D01*
X0093011Y0047943D01*
X0092313Y0047245D01*
X0092313Y0045876D01*
X0091667Y0045876D01*
X0090682Y0044891D01*
X0089754Y0043963D01*
X0089754Y0024714D01*
X0089233Y0024714D01*
X0088253Y0024308D01*
X0087503Y0023558D01*
X0086715Y0022771D01*
X0086501Y0022254D01*
X0078838Y0022254D01*
X0078140Y0021556D01*
X0078140Y0013483D01*
X0078838Y0012786D01*
X0086517Y0012786D01*
X0087214Y0013483D01*
X0087214Y0014853D01*
X0088129Y0014853D01*
X0089109Y0015259D01*
X0090487Y0016637D01*
X0091237Y0017387D01*
X0091643Y0018367D01*
X0091643Y0019380D01*
X0112281Y0019380D01*
X0113790Y0017872D01*
X0113790Y0017569D01*
X0112586Y0016366D01*
X0111891Y0014688D01*
X0111891Y0012871D01*
X0112586Y0011193D01*
X0113871Y0009909D01*
X0115549Y0009214D01*
X0117365Y0009214D01*
X0119043Y0009909D01*
X0120327Y0011193D01*
X0121022Y0012871D01*
X0121022Y0014688D01*
X0120327Y0016366D01*
X0119124Y0017569D01*
X0119124Y0019507D01*
X0118718Y0020487D01*
X0118631Y0020573D01*
X0118631Y0026172D01*
X0122161Y0026172D01*
X0122948Y0026959D01*
X0122948Y0026959D01*
X0124222Y0028233D01*
X0124222Y0029431D01*
X0125568Y0029431D01*
X0125384Y0029247D01*
X0124282Y0028145D01*
X0124282Y0017820D01*
X0123871Y0017650D01*
X0122586Y0016366D01*
X0121891Y0014688D01*
X0121891Y0012871D01*
X0122586Y0011193D01*
X0123871Y0009909D01*
X0125549Y0009214D01*
X0127365Y0009214D01*
X0129043Y0009909D01*
X0130327Y0011193D01*
X0131022Y0012871D01*
X0131022Y0014688D01*
X0130327Y0016366D01*
X0129043Y0017650D01*
X0128631Y0017820D01*
X0128631Y0026172D01*
X0131609Y0026172D01*
X0134065Y0028627D01*
X0134065Y0029431D01*
X0135805Y0029431D01*
X0134282Y0027909D01*
X0134282Y0017820D01*
X0133871Y0017650D01*
X0132586Y0016366D01*
X0131891Y0014688D01*
X0131891Y0012871D01*
X0132586Y0011193D01*
X0133871Y0009909D01*
X0135549Y0009214D01*
X0137365Y0009214D01*
X0139043Y0009909D01*
X0140327Y0011193D01*
X0141022Y0012871D01*
X0141022Y0014688D01*
X0140327Y0016366D01*
X0139043Y0017650D01*
X0138631Y0017820D01*
X0138631Y0026107D01*
X0138696Y0026172D01*
X0141846Y0026172D01*
X0143120Y0027446D01*
X0143907Y0028233D01*
X0143907Y0029431D01*
X0145775Y0029431D01*
X0146472Y0030129D01*
X0146472Y0037414D01*
X0145775Y0038112D01*
X0143317Y0038112D01*
X0143317Y0040026D01*
X0142714Y0040628D01*
X0145775Y0040628D01*
X0146472Y0041326D01*
X0146472Y0048611D01*
X0145775Y0049309D01*
X0144596Y0049309D01*
X0144596Y0050089D01*
X0145178Y0050089D01*
X0145386Y0050297D01*
X0145677Y0050007D01*
X0146040Y0049797D01*
X0146444Y0049689D01*
X0148179Y0049689D01*
X0148179Y0052805D01*
X0148868Y0052805D01*
X0148868Y0049689D01*
X0150603Y0049689D01*
X0151008Y0049797D01*
X0151370Y0050007D01*
X0151666Y0050303D01*
X0151876Y0050666D01*
X0151984Y0051070D01*
X0151984Y0052805D01*
X0148868Y0052805D01*
X0148868Y0053494D01*
X0148179Y0053494D01*
X0148179Y0055890D01*
X0148425Y0055890D01*
X0148425Y0058858D01*
X0148819Y0058858D01*
X0148819Y0055890D01*
X0148868Y0055890D01*
X0148868Y0053494D01*
X0151984Y0053494D01*
X0151984Y0055229D01*
X0151876Y0055634D01*
X0151666Y0055996D01*
X0151370Y0056292D01*
X0151299Y0056333D01*
X0151470Y0056504D01*
X0151679Y0056866D01*
X0151787Y0057271D01*
X0151787Y0058858D01*
X0148819Y0058858D01*
X0148819Y0059252D01*
X0151787Y0059252D01*
X0151787Y0060839D01*
X0151679Y0061244D01*
X0151470Y0061607D01*
X0151173Y0061903D01*
X0150811Y0062112D01*
X0150406Y0062220D01*
X0148819Y0062220D01*
X0148819Y0059252D01*
X0148425Y0059252D01*
X0148425Y0062220D01*
X0146838Y0062220D01*
X0146433Y0062112D01*
X0146071Y0061903D01*
X0145774Y0061607D01*
X0145565Y0061244D01*
X0145482Y0060933D01*
X0145482Y0061123D01*
X0144784Y0061820D01*
X0144301Y0061820D01*
X0144301Y0065814D01*
X0140954Y0069160D01*
X0140954Y0089633D01*
X0140026Y0090561D01*
X0138122Y0092465D01*
X0138386Y0092465D01*
X0138875Y0092465D01*
X0139951Y0091388D01*
X0140995Y0090345D01*
X0148869Y0090345D01*
X0150778Y0088435D01*
X0150778Y0083474D01*
X0150491Y0083474D01*
X0149794Y0082777D01*
X0149794Y0078641D01*
X0150491Y0077943D01*
X0150581Y0077943D01*
X0150581Y0077568D01*
X0150491Y0077568D01*
X0149794Y0076871D01*
X0149794Y0072735D01*
X0150491Y0072038D01*
X0150680Y0072038D01*
X0150680Y0071958D01*
X0150294Y0071958D01*
X0149597Y0071261D01*
X0149597Y0066534D01*
X0150294Y0065837D01*
X0155021Y0065837D01*
X0155512Y0066328D01*
X0156003Y0065837D01*
X0160729Y0065837D01*
X0161427Y0066534D01*
X0161427Y0067800D01*
X0161857Y0068230D01*
X0161857Y0065503D01*
X0161857Y0061394D01*
X0161965Y0060989D01*
X0162174Y0060627D01*
X0162471Y0060330D01*
X0162833Y0060121D01*
X0163238Y0060013D01*
X0164547Y0060013D01*
X0164547Y0065503D01*
X0161857Y0065503D01*
X0164547Y0065503D01*
X0164547Y0065503D01*
X0164547Y0065503D01*
X0164547Y0060013D01*
X0165857Y0060013D01*
X0166261Y0060121D01*
X0166624Y0060330D01*
X0166920Y0060627D01*
X0167129Y0060989D01*
X0167238Y0061394D01*
X0167238Y0065503D01*
X0164547Y0065503D01*
X0164547Y0065503D01*
X0167238Y0065503D01*
X0167238Y0069613D01*
X0167129Y0070017D01*
X0166986Y0070266D01*
X0167627Y0070266D01*
X0167257Y0069896D01*
X0167257Y0061110D01*
X0167372Y0060994D01*
X0167372Y0059117D01*
X0167326Y0059070D01*
X0162019Y0059070D01*
X0161321Y0058373D01*
X0161321Y0050288D01*
X0162019Y0049591D01*
X0163487Y0049591D01*
X0163487Y0037178D01*
X0164361Y0036304D01*
X0164361Y0032971D01*
X0165058Y0032274D01*
X0165345Y0032274D01*
X0165345Y0022751D01*
X0164453Y0021860D01*
X0161304Y0021860D01*
X0157665Y0018221D01*
X0157365Y0018345D01*
X0155549Y0018345D01*
X0153871Y0017650D01*
X0152586Y0016366D01*
X0151891Y0014688D01*
X0151891Y0012871D01*
X0152586Y0011193D01*
X0153871Y0009909D01*
X0155549Y0009214D01*
X0157365Y0009214D01*
X0159043Y0009909D01*
X0160327Y0011193D01*
X0161022Y0012871D01*
X0161022Y0014688D01*
X0160806Y0015210D01*
X0163106Y0017510D01*
X0163731Y0017510D01*
X0162586Y0016366D01*
X0161891Y0014688D01*
X0161891Y0012871D01*
X0162586Y0011193D01*
X0163871Y0009909D01*
X0165549Y0009214D01*
X0167365Y0009214D01*
X0169043Y0009909D01*
X0170327Y0011193D01*
X0171022Y0012871D01*
X0171022Y0014688D01*
X0170875Y0015043D01*
X0171767Y0015935D01*
X0173041Y0017209D01*
X0173041Y0029808D01*
X0175507Y0032274D01*
X0177462Y0032274D01*
X0178159Y0032971D01*
X0178159Y0036304D01*
X0179033Y0037178D01*
X0179033Y0049591D01*
X0180501Y0049591D01*
X0181198Y0050288D01*
X0181198Y0058373D01*
X0180501Y0059070D01*
X0176722Y0059070D01*
X0176722Y0060994D01*
X0176838Y0061110D01*
X0176838Y0069896D01*
X0176468Y0070266D01*
X0177627Y0070266D01*
X0177257Y0069896D01*
X0177257Y0061110D01*
X0177954Y0060413D01*
X0181140Y0060413D01*
X0181838Y0061110D01*
X0181838Y0063525D01*
X0183019Y0063525D01*
X0183562Y0062983D01*
X0187698Y0062983D01*
X0188395Y0063680D01*
X0188395Y0063870D01*
X0188478Y0063559D01*
X0188688Y0063197D01*
X0188984Y0062900D01*
X0189347Y0062691D01*
X0189751Y0062583D01*
X0191339Y0062583D01*
X0191339Y0065551D01*
X0191732Y0065551D01*
X0191732Y0062583D01*
X0193320Y0062583D01*
X0193724Y0062691D01*
X0194087Y0062900D01*
X0194383Y0063197D01*
X0194592Y0063559D01*
X0194701Y0063964D01*
X0194701Y0065551D01*
X0191732Y0065551D01*
X0191732Y0065945D01*
X0191339Y0065945D01*
X0191339Y0068913D01*
X0189751Y0068913D01*
X0189347Y0068805D01*
X0188984Y0068596D01*
X0188688Y0068299D01*
X0188478Y0067937D01*
X0188395Y0067626D01*
X0188395Y0067816D01*
X0187805Y0068407D01*
X0187805Y0069602D01*
X0186531Y0070876D01*
X0186531Y0070876D01*
X0185664Y0071743D01*
X0188485Y0071743D01*
X0188694Y0071951D01*
X0188984Y0071660D01*
X0189347Y0071451D01*
X0189751Y0071343D01*
X0191486Y0071343D01*
X0191486Y0074459D01*
X0192175Y0074459D01*
X0192175Y0071343D01*
X0193910Y0071343D01*
X0194315Y0071451D01*
X0194677Y0071660D01*
X0194974Y0071956D01*
X0195260Y0071956D01*
X0194974Y0071956D02*
X0195183Y0072319D01*
X0195260Y0072606D01*
X0195260Y0001591D01*
X0001591Y0001591D01*
X0001591Y0195260D01*
X0100056Y0195260D01*
X0099984Y0194993D01*
X0099984Y0193258D01*
X0103100Y0193258D01*
X0103100Y0192569D01*
X0099984Y0192569D01*
X0099984Y0190834D01*
X0100093Y0190429D01*
X0100136Y0190354D01*
X0100093Y0190279D01*
X0099984Y0189875D01*
X0099984Y0188140D01*
X0103100Y0188140D01*
X0103100Y0187451D01*
X0099984Y0187451D01*
X0099984Y0186508D01*
X0099222Y0187270D01*
X0099222Y0189633D01*
X0098294Y0190561D01*
X0095932Y0192923D01*
X0030840Y0192923D01*
X0029265Y0191348D01*
X0028337Y0190420D01*
X0028337Y0178084D01*
X0029872Y0176548D01*
X0030800Y0175620D01*
X0031920Y0175620D01*
X0031920Y0175137D01*
X0032017Y0175039D01*
X0031920Y0174942D01*
X0031920Y0170806D01*
X0032017Y0170709D01*
X0031920Y0170611D01*
X0031920Y0166475D01*
X0032017Y0166378D01*
X0031920Y0166281D01*
X0031920Y0162516D01*
X0031837Y0162433D01*
X0031628Y0162071D01*
X0031520Y0161666D01*
X0031520Y0160079D01*
X0036457Y0160079D01*
X0036457Y0159685D01*
X0036850Y0159685D01*
X0036850Y0156717D01*
X0040406Y0156717D01*
X0040811Y0156825D01*
X0041173Y0157034D01*
X0041470Y0157330D01*
X0041679Y0157693D01*
X0041787Y0158098D01*
X0041787Y0159685D01*
X0036850Y0159685D01*
X0036850Y0160079D01*
X0041787Y0160079D01*
X0041787Y0161666D01*
X0041679Y0162071D01*
X0041470Y0162433D01*
X0041387Y0162516D01*
X0041387Y0166281D01*
X0041290Y0166378D01*
X0041387Y0166475D01*
X0041387Y0170611D01*
X0041290Y0170709D01*
X0041387Y0170806D01*
X0041387Y0174942D01*
X0041290Y0175039D01*
X0041387Y0175137D01*
X0041387Y0179273D01*
X0041290Y0179370D01*
X0041387Y0179467D01*
X0041387Y0183603D01*
X0041290Y0183701D01*
X0041387Y0183798D01*
X0041387Y0187934D01*
X0040690Y0188631D01*
X0032617Y0188631D01*
X0031920Y0187934D01*
X0031920Y0183798D01*
X0032017Y0183701D01*
X0031920Y0183603D01*
X0031920Y0179467D01*
X0032017Y0179370D01*
X0031920Y0179273D01*
X0031920Y0178982D01*
X0031505Y0179396D01*
X0031505Y0189108D01*
X0032152Y0189754D01*
X0094619Y0189754D01*
X0096054Y0188320D01*
X0096054Y0185958D01*
X0098416Y0183596D01*
X0098878Y0183134D01*
X0098878Y0180175D01*
X0101318Y0180175D01*
X0101318Y0180175D01*
X0098878Y0180175D01*
X0098878Y0177165D01*
X0098986Y0176761D01*
X0099195Y0176398D01*
X0099491Y0176102D01*
X0099854Y0175893D01*
X0100259Y0175784D01*
X0101318Y0175784D01*
X0101318Y0180175D01*
X0103759Y0180175D01*
X0103818Y0180175D01*
X0103818Y0180175D01*
X0106259Y0180175D01*
X0106418Y0180175D01*
X0106418Y0180175D01*
X0103818Y0180175D01*
X0103818Y0180175D01*
X0101318Y0180175D01*
X0101318Y0180175D01*
X0101318Y0180175D01*
X0101318Y0175784D01*
X0102378Y0175784D01*
X0102568Y0175835D01*
X0102759Y0175784D01*
X0103818Y0175784D01*
X0103818Y0180175D01*
X0103818Y0180175D01*
X0103818Y0175784D01*
X0104878Y0175784D01*
X0105118Y0175849D01*
X0105359Y0175784D01*
X0106418Y0175784D01*
X0106418Y0180175D01*
X0108859Y0180175D01*
X0108918Y0180175D01*
X0108918Y0180175D01*
X0111359Y0180175D01*
X0111359Y0182668D01*
X0119282Y0182668D01*
X0119282Y0181987D01*
X0119979Y0181290D01*
X0120463Y0181290D01*
X0120463Y0179659D01*
X0121391Y0178731D01*
X0124541Y0175581D01*
X0128928Y0175581D01*
X0128928Y0170951D01*
X0125420Y0174458D01*
X0089419Y0174458D01*
X0089431Y0174583D02*
X0128928Y0174583D01*
X0128928Y0173403D02*
X0126475Y0173403D01*
X0127655Y0172224D02*
X0128928Y0172224D01*
X0128928Y0171044D02*
X0128834Y0171044D01*
X0124359Y0175762D02*
X0089819Y0175762D01*
X0089819Y0176942D02*
X0095336Y0176942D01*
X0096790Y0176942D02*
X0098937Y0176942D01*
X0098878Y0178122D02*
X0098367Y0178122D01*
X0098730Y0179301D02*
X0098878Y0179301D01*
X0098878Y0180481D02*
X0098555Y0180481D01*
X0098878Y0181661D02*
X0097702Y0181661D01*
X0097733Y0181629D02*
X0097733Y0181629D01*
X0098878Y0182840D02*
X0094631Y0182840D01*
X0095626Y0184020D02*
X0097992Y0184020D01*
X0096812Y0185199D02*
X0095685Y0185199D01*
X0095685Y0186379D02*
X0096054Y0186379D01*
X0096054Y0187559D02*
X0095685Y0187559D01*
X0095636Y0188738D02*
X0095204Y0188738D01*
X0092717Y0188738D02*
X0092323Y0188738D01*
X0092323Y0187559D02*
X0092717Y0187559D01*
X0092717Y0186379D02*
X0092323Y0186379D01*
X0089835Y0188738D02*
X0089163Y0188738D01*
X0084882Y0188738D02*
X0084488Y0188738D01*
X0084488Y0189031D02*
X0080932Y0189031D01*
X0080528Y0188923D01*
X0080165Y0188714D01*
X0079869Y0188418D01*
X0079660Y0188055D01*
X0079551Y0187650D01*
X0079551Y0186063D01*
X0084488Y0186063D01*
X0084488Y0189031D01*
X0084488Y0187559D02*
X0084882Y0187559D01*
X0084882Y0186379D02*
X0084488Y0186379D01*
X0080208Y0188738D02*
X0031505Y0188738D01*
X0031505Y0187559D02*
X0031920Y0187559D01*
X0031920Y0186379D02*
X0031505Y0186379D01*
X0031505Y0185199D02*
X0031920Y0185199D01*
X0031920Y0184020D02*
X0031505Y0184020D01*
X0031505Y0182840D02*
X0031920Y0182840D01*
X0031920Y0181661D02*
X0031505Y0181661D01*
X0031505Y0180481D02*
X0031920Y0180481D01*
X0031948Y0179301D02*
X0031601Y0179301D01*
X0029479Y0176942D02*
X0001591Y0176942D01*
X0001591Y0175762D02*
X0030659Y0175762D01*
X0031920Y0174583D02*
X0001591Y0174583D01*
X0001591Y0173403D02*
X0031920Y0173403D01*
X0031920Y0172224D02*
X0001591Y0172224D01*
X0001591Y0171044D02*
X0031920Y0171044D01*
X0031920Y0169864D02*
X0001591Y0169864D01*
X0001591Y0168685D02*
X0031920Y0168685D01*
X0031920Y0167505D02*
X0001591Y0167505D01*
X0001591Y0166326D02*
X0031965Y0166326D01*
X0031920Y0165146D02*
X0001591Y0165146D01*
X0001591Y0163966D02*
X0031920Y0163966D01*
X0031920Y0162787D02*
X0001591Y0162787D01*
X0001591Y0161607D02*
X0031520Y0161607D01*
X0031520Y0160427D02*
X0001591Y0160427D01*
X0001591Y0159248D02*
X0031520Y0159248D01*
X0031520Y0159685D02*
X0031520Y0158098D01*
X0031628Y0157693D01*
X0031837Y0157330D01*
X0032134Y0157034D01*
X0032496Y0156825D01*
X0032901Y0156717D01*
X0036457Y0156717D01*
X0036457Y0159685D01*
X0031520Y0159685D01*
X0031528Y0158068D02*
X0001591Y0158068D01*
X0001591Y0156889D02*
X0032386Y0156889D01*
X0036457Y0156889D02*
X0036850Y0156889D01*
X0036850Y0158068D02*
X0036457Y0158068D01*
X0036457Y0159248D02*
X0036850Y0159248D01*
X0040921Y0156889D02*
X0099278Y0156889D01*
X0099313Y0155709D02*
X0001591Y0155709D01*
X0001591Y0154529D02*
X0100980Y0154529D01*
X0100181Y0153350D02*
X0001591Y0153350D01*
X0001591Y0152170D02*
X0100181Y0152170D01*
X0100181Y0151378D02*
X0100181Y0149791D01*
X0100289Y0149386D01*
X0100499Y0149023D01*
X0100795Y0148727D01*
X0101158Y0148518D01*
X0101562Y0148409D01*
X0103150Y0148409D01*
X0103150Y0151378D01*
X0100181Y0151378D01*
X0100181Y0150991D02*
X0001591Y0150991D01*
X0001591Y0149811D02*
X0019676Y0149811D01*
X0019676Y0150001D02*
X0019676Y0145275D01*
X0020373Y0144577D01*
X0020561Y0144577D01*
X0020561Y0144079D01*
X0022530Y0142111D01*
X0022530Y0138286D01*
X0023021Y0137795D01*
X0022530Y0137304D01*
X0022530Y0137116D01*
X0021072Y0137116D01*
X0021072Y0137501D01*
X0020375Y0138198D01*
X0017586Y0138198D01*
X0017624Y0138264D01*
X0017732Y0138669D01*
X0017732Y0140502D01*
X0012254Y0140502D01*
X0012254Y0141388D01*
X0011368Y0141388D01*
X0011368Y0144602D01*
X0007271Y0144602D01*
X0006866Y0144494D01*
X0006504Y0144285D01*
X0006208Y0143988D01*
X0005998Y0143626D01*
X0005890Y0143221D01*
X0005890Y0141388D01*
X0011368Y0141388D01*
X0011368Y0140502D01*
X0005890Y0140502D01*
X0005890Y0139764D01*
X0005023Y0139764D01*
X0004331Y0139072D01*
X0004331Y0131007D01*
X0005023Y0130315D01*
X0005890Y0130315D01*
X0005890Y0129577D01*
X0011368Y0129577D01*
X0011368Y0128691D01*
X0005890Y0128691D01*
X0005890Y0126858D01*
X0005998Y0126453D01*
X0006208Y0126090D01*
X0006504Y0125794D01*
X0006866Y0125585D01*
X0007271Y0125476D01*
X0011368Y0125476D01*
X0011368Y0128691D01*
X0012254Y0128691D01*
X0012254Y0129577D01*
X0017732Y0129577D01*
X0017732Y0131410D01*
X0017624Y0131815D01*
X0017586Y0131880D01*
X0020375Y0131880D01*
X0021072Y0132578D01*
X0021072Y0132766D01*
X0022530Y0132766D01*
X0022530Y0132578D01*
X0023227Y0131880D01*
X0027954Y0131880D01*
X0028651Y0132578D01*
X0028651Y0132904D01*
X0031619Y0132904D01*
X0031520Y0132532D01*
X0031520Y0130945D01*
X0036457Y0130945D01*
X0036457Y0130551D01*
X0036850Y0130551D01*
X0036850Y0127583D01*
X0040406Y0127583D01*
X0040811Y0127691D01*
X0041173Y0127900D01*
X0041470Y0128197D01*
X0041679Y0128559D01*
X0041787Y0128964D01*
X0041787Y0130551D01*
X0036850Y0130551D01*
X0036850Y0130945D01*
X0041787Y0130945D01*
X0041787Y0132532D01*
X0041679Y0132937D01*
X0041470Y0133299D01*
X0041387Y0133382D01*
X0041387Y0136776D01*
X0041470Y0136858D01*
X0041679Y0137221D01*
X0041787Y0137625D01*
X0041787Y0139213D01*
X0036850Y0139213D01*
X0036850Y0139606D01*
X0041787Y0139606D01*
X0041787Y0141194D01*
X0041679Y0141598D01*
X0041470Y0141961D01*
X0041387Y0142043D01*
X0041387Y0145808D01*
X0041290Y0145906D01*
X0041387Y0146003D01*
X0041387Y0150139D01*
X0040690Y0150836D01*
X0032617Y0150836D01*
X0032027Y0150246D01*
X0031261Y0150246D01*
X0030808Y0150698D01*
X0026082Y0150698D01*
X0025591Y0150207D01*
X0025099Y0150698D01*
X0020373Y0150698D01*
X0019676Y0150001D01*
X0019676Y0148631D02*
X0001591Y0148631D01*
X0001591Y0147452D02*
X0019676Y0147452D01*
X0019676Y0146272D02*
X0001591Y0146272D01*
X0001591Y0145092D02*
X0019858Y0145092D01*
X0020728Y0143913D02*
X0017458Y0143913D01*
X0017414Y0143988D02*
X0017624Y0143626D01*
X0017732Y0143221D01*
X0017732Y0141388D01*
X0012254Y0141388D01*
X0012254Y0144602D01*
X0016351Y0144602D01*
X0016756Y0144494D01*
X0017118Y0144285D01*
X0017414Y0143988D01*
X0017732Y0142733D02*
X0021908Y0142733D01*
X0022530Y0141554D02*
X0017732Y0141554D01*
X0017732Y0140374D02*
X0022530Y0140374D01*
X0022530Y0139194D02*
X0017732Y0139194D01*
X0020559Y0138015D02*
X0022802Y0138015D01*
X0027082Y0143710D02*
X0026215Y0144577D01*
X0028430Y0144577D01*
X0031442Y0141565D01*
X0031619Y0141565D01*
X0031520Y0141194D01*
X0031520Y0139606D01*
X0036457Y0139606D01*
X0036457Y0139213D01*
X0031520Y0139213D01*
X0031520Y0137625D01*
X0031619Y0137254D01*
X0028651Y0137254D01*
X0028651Y0137304D01*
X0028160Y0137795D01*
X0028651Y0138286D01*
X0028651Y0143013D01*
X0027954Y0143710D01*
X0027082Y0143710D01*
X0026879Y0143913D02*
X0029094Y0143913D01*
X0028651Y0142733D02*
X0030274Y0142733D01*
X0031616Y0141554D02*
X0028651Y0141554D01*
X0028651Y0140374D02*
X0031520Y0140374D01*
X0031520Y0139194D02*
X0028651Y0139194D01*
X0028380Y0138015D02*
X0031520Y0138015D01*
X0031520Y0132117D02*
X0028190Y0132117D01*
X0031520Y0130551D02*
X0031520Y0128964D01*
X0031628Y0128559D01*
X0031837Y0128197D01*
X0032134Y0127900D01*
X0032496Y0127691D01*
X0032901Y0127583D01*
X0036457Y0127583D01*
X0036457Y0130551D01*
X0031520Y0130551D01*
X0031520Y0129758D02*
X0017732Y0129758D01*
X0017732Y0128691D02*
X0012254Y0128691D01*
X0012254Y0125476D01*
X0016351Y0125476D01*
X0016756Y0125585D01*
X0017118Y0125794D01*
X0017414Y0126090D01*
X0017624Y0126453D01*
X0017732Y0126858D01*
X0017732Y0128691D01*
X0017732Y0128578D02*
X0031623Y0128578D01*
X0036457Y0128578D02*
X0036850Y0128578D01*
X0036850Y0129758D02*
X0036457Y0129758D01*
X0036457Y0130937D02*
X0017732Y0130937D01*
X0020611Y0132117D02*
X0022991Y0132117D01*
X0017732Y0127398D02*
X0089059Y0127398D01*
X0088842Y0127691D02*
X0089059Y0127816D01*
X0089059Y0126956D01*
X0089167Y0126551D01*
X0089377Y0126189D01*
X0089673Y0125893D01*
X0090036Y0125683D01*
X0090440Y0125575D01*
X0092175Y0125575D01*
X0092175Y0128691D01*
X0089746Y0128691D01*
X0089819Y0128964D01*
X0089819Y0129380D01*
X0092175Y0129380D01*
X0092175Y0128691D01*
X0092864Y0128691D01*
X0092864Y0125575D01*
X0094599Y0125575D01*
X0095004Y0125683D01*
X0095366Y0125893D01*
X0095663Y0126189D01*
X0095872Y0126551D01*
X0095980Y0126956D01*
X0095980Y0128691D01*
X0092864Y0128691D01*
X0092864Y0129380D01*
X0095980Y0129380D01*
X0095980Y0131115D01*
X0095872Y0131519D01*
X0095663Y0131882D01*
X0095372Y0132173D01*
X0095580Y0132381D01*
X0095580Y0137107D01*
X0094883Y0137805D01*
X0090156Y0137805D01*
X0089459Y0137107D01*
X0089459Y0136860D01*
X0089419Y0136860D01*
X0089419Y0137147D01*
X0089321Y0137244D01*
X0089419Y0137341D01*
X0089419Y0141477D01*
X0089321Y0141575D01*
X0089419Y0141672D01*
X0089419Y0145808D01*
X0089321Y0145905D01*
X0089419Y0146003D01*
X0089419Y0150139D01*
X0088721Y0150836D01*
X0080649Y0150836D01*
X0079951Y0150139D01*
X0079951Y0146003D01*
X0080049Y0145905D01*
X0079951Y0145808D01*
X0079951Y0141672D01*
X0080049Y0141575D01*
X0079951Y0141477D01*
X0079951Y0137341D01*
X0080049Y0137244D01*
X0079951Y0137147D01*
X0079951Y0133382D01*
X0079869Y0133299D01*
X0079660Y0132937D01*
X0079551Y0132532D01*
X0079551Y0130945D01*
X0084488Y0130945D01*
X0084488Y0130551D01*
X0084882Y0130551D01*
X0084882Y0127583D01*
X0088438Y0127583D01*
X0088842Y0127691D01*
X0089360Y0126219D02*
X0017489Y0126219D01*
X0012254Y0126219D02*
X0011368Y0126219D01*
X0011368Y0127398D02*
X0012254Y0127398D01*
X0012254Y0128578D02*
X0011368Y0128578D01*
X0005890Y0128578D02*
X0001591Y0128578D01*
X0001591Y0129758D02*
X0005890Y0129758D01*
X0004400Y0130937D02*
X0001591Y0130937D01*
X0001591Y0132117D02*
X0004331Y0132117D01*
X0004331Y0133296D02*
X0001591Y0133296D01*
X0001591Y0134476D02*
X0004331Y0134476D01*
X0004331Y0135656D02*
X0001591Y0135656D01*
X0001591Y0136835D02*
X0004331Y0136835D01*
X0004331Y0138015D02*
X0001591Y0138015D01*
X0001591Y0139194D02*
X0004453Y0139194D01*
X0005890Y0140374D02*
X0001591Y0140374D01*
X0001591Y0141554D02*
X0005890Y0141554D01*
X0005890Y0142733D02*
X0001591Y0142733D01*
X0001591Y0143913D02*
X0006164Y0143913D01*
X0011368Y0143913D02*
X0012254Y0143913D01*
X0012254Y0142733D02*
X0011368Y0142733D01*
X0011368Y0141554D02*
X0012254Y0141554D01*
X0005890Y0127398D02*
X0001591Y0127398D01*
X0001591Y0126219D02*
X0006133Y0126219D01*
X0001591Y0125039D02*
X0104715Y0125039D01*
X0104715Y0123859D02*
X0001591Y0123859D01*
X0001591Y0122680D02*
X0104715Y0122680D01*
X0104715Y0121500D02*
X0001591Y0121500D01*
X0001591Y0120321D02*
X0104715Y0120321D01*
X0104715Y0119141D02*
X0001591Y0119141D01*
X0001591Y0117961D02*
X0072414Y0117961D01*
X0071234Y0116782D02*
X0001591Y0116782D01*
X0001591Y0115602D02*
X0070857Y0115602D01*
X0070857Y0114423D02*
X0001591Y0114423D01*
X0001591Y0113243D02*
X0070857Y0113243D01*
X0070857Y0112063D02*
X0001591Y0112063D01*
X0001591Y0110884D02*
X0005854Y0110884D01*
X0005699Y0109704D02*
X0001591Y0109704D01*
X0001591Y0108524D02*
X0005699Y0108524D01*
X0005699Y0107345D02*
X0001591Y0107345D01*
X0001591Y0106165D02*
X0005699Y0106165D01*
X0005699Y0104986D02*
X0001591Y0104986D01*
X0001591Y0103806D02*
X0005699Y0103806D01*
X0005699Y0102626D02*
X0001591Y0102626D01*
X0001591Y0101447D02*
X0005699Y0101447D01*
X0005699Y0100267D02*
X0001591Y0100267D01*
X0001591Y0099088D02*
X0005699Y0099088D01*
X0005699Y0097908D02*
X0001591Y0097908D01*
X0001591Y0096728D02*
X0005699Y0096728D01*
X0005699Y0095549D02*
X0001591Y0095549D01*
X0001591Y0094369D02*
X0005699Y0094369D01*
X0005699Y0093189D02*
X0001591Y0093189D01*
X0001591Y0092010D02*
X0005699Y0092010D01*
X0005699Y0090830D02*
X0001591Y0090830D01*
X0001591Y0089651D02*
X0005699Y0089651D01*
X0005699Y0088471D02*
X0001591Y0088471D01*
X0001591Y0087291D02*
X0005699Y0087291D01*
X0005444Y0086112D02*
X0001591Y0086112D01*
X0001591Y0084932D02*
X0005444Y0084932D01*
X0005427Y0083753D02*
X0001591Y0083753D01*
X0001591Y0082573D02*
X0005427Y0082573D01*
X0005427Y0081393D02*
X0001591Y0081393D01*
X0001591Y0080214D02*
X0005427Y0080214D01*
X0005427Y0079034D02*
X0001591Y0079034D01*
X0001591Y0077855D02*
X0009834Y0077855D01*
X0011417Y0077855D02*
X0011417Y0077855D01*
X0011417Y0079034D02*
X0011417Y0079034D01*
X0011417Y0080214D02*
X0011417Y0080214D01*
X0011417Y0081393D02*
X0011417Y0081393D01*
X0013001Y0077855D02*
X0018199Y0077855D01*
X0018199Y0076675D02*
X0001591Y0076675D01*
X0001591Y0075495D02*
X0018199Y0075495D01*
X0018199Y0074316D02*
X0017408Y0074316D01*
X0018359Y0073136D02*
X0018586Y0073136D01*
X0017305Y0071672D02*
X0015117Y0071672D01*
X0017305Y0071672D02*
X0019193Y0069783D01*
X0021260Y0069783D01*
X0021260Y0075886D01*
X0024320Y0075495D02*
X0024400Y0075495D01*
X0024400Y0074704D02*
X0025097Y0074006D01*
X0041044Y0074006D01*
X0041742Y0074704D01*
X0041742Y0081585D01*
X0043256Y0081585D01*
X0043104Y0081323D01*
X0042996Y0080918D01*
X0042996Y0079183D01*
X0046112Y0079183D01*
X0046112Y0078494D01*
X0042996Y0078494D01*
X0042996Y0076759D01*
X0043104Y0076355D01*
X0043314Y0075992D01*
X0043604Y0075701D01*
X0043396Y0075493D01*
X0043396Y0070767D01*
X0044093Y0070069D01*
X0044872Y0070069D01*
X0044872Y0061628D01*
X0044674Y0061826D01*
X0037389Y0061826D01*
X0036691Y0061129D01*
X0036691Y0053044D01*
X0037389Y0052347D01*
X0044674Y0052347D01*
X0045372Y0053044D01*
X0045372Y0055502D01*
X0045932Y0055502D01*
X0047113Y0056683D01*
X0048041Y0057611D01*
X0048041Y0070069D01*
X0048820Y0070069D01*
X0049262Y0070511D01*
X0049507Y0070266D01*
X0053643Y0070266D01*
X0053731Y0070354D01*
X0053731Y0064576D01*
X0052853Y0064576D01*
X0052156Y0063879D01*
X0052156Y0057381D01*
X0052853Y0056683D01*
X0053337Y0056683D01*
X0053337Y0055955D01*
X0053460Y0055832D01*
X0053140Y0055513D01*
X0053140Y0050786D01*
X0053838Y0050089D01*
X0058037Y0050089D01*
X0057668Y0049720D01*
X0056880Y0048932D01*
X0056880Y0048041D01*
X0056003Y0048041D01*
X0055306Y0047344D01*
X0055306Y0047254D01*
X0029069Y0047254D01*
X0032009Y0050194D01*
X0032009Y0052347D01*
X0033477Y0052347D01*
X0034175Y0053044D01*
X0034175Y0061129D01*
X0033477Y0061826D01*
X0026192Y0061826D01*
X0025521Y0061156D01*
X0025498Y0061244D01*
X0025288Y0061607D01*
X0024992Y0061903D01*
X0024720Y0062060D01*
X0024720Y0062839D01*
X0024977Y0062691D01*
X0025381Y0062583D01*
X0028543Y0062583D01*
X0028543Y0066732D01*
X0029724Y0066732D01*
X0029724Y0062583D01*
X0032887Y0062583D01*
X0033071Y0062632D01*
X0033255Y0062583D01*
X0036417Y0062583D01*
X0036417Y0066732D01*
X0029724Y0066732D01*
X0029724Y0067913D01*
X0028543Y0067913D01*
X0028543Y0072063D01*
X0025381Y0072063D01*
X0024977Y0071955D01*
X0024614Y0071745D01*
X0024320Y0071452D01*
X0024320Y0072147D01*
X0023632Y0072835D01*
X0024320Y0073523D01*
X0024320Y0078249D01*
X0024036Y0078534D01*
X0024400Y0078534D01*
X0024400Y0074704D01*
X0024320Y0074316D02*
X0024788Y0074316D01*
X0023934Y0073136D02*
X0043396Y0073136D01*
X0043396Y0071956D02*
X0041158Y0071956D01*
X0041165Y0071955D02*
X0040761Y0072063D01*
X0037598Y0072063D01*
X0037598Y0067913D01*
X0036417Y0067913D01*
X0036417Y0066732D01*
X0037598Y0066732D01*
X0037598Y0062583D01*
X0040761Y0062583D01*
X0041165Y0062691D01*
X0041528Y0062900D01*
X0041824Y0063197D01*
X0042033Y0063559D01*
X0042142Y0063964D01*
X0042142Y0066732D01*
X0037598Y0066732D01*
X0037598Y0067913D01*
X0042142Y0067913D01*
X0042142Y0070682D01*
X0042033Y0071086D01*
X0041824Y0071449D01*
X0041528Y0071745D01*
X0041165Y0071955D01*
X0042116Y0070777D02*
X0043396Y0070777D01*
X0042142Y0069597D02*
X0044872Y0069597D01*
X0044872Y0068418D02*
X0042142Y0068418D01*
X0044872Y0067238D02*
X0037598Y0067238D01*
X0037598Y0068418D02*
X0036417Y0068418D01*
X0036417Y0067913D02*
X0036417Y0072063D01*
X0033255Y0072063D01*
X0033071Y0072014D01*
X0032887Y0072063D01*
X0029724Y0072063D01*
X0029724Y0067913D01*
X0031874Y0067913D01*
X0036417Y0067913D01*
X0036417Y0067238D02*
X0029724Y0067238D01*
X0029724Y0068418D02*
X0028543Y0068418D01*
X0028543Y0069597D02*
X0029724Y0069597D01*
X0029724Y0070777D02*
X0028543Y0070777D01*
X0028543Y0071956D02*
X0029724Y0071956D01*
X0024984Y0071956D02*
X0024320Y0071956D01*
X0024320Y0076675D02*
X0024400Y0076675D01*
X0024400Y0077855D02*
X0024320Y0077855D01*
X0024409Y0080315D02*
X0028346Y0080315D01*
X0029134Y0079528D01*
X0024409Y0080315D02*
X0023130Y0081594D01*
X0021260Y0081594D01*
X0018199Y0081393D02*
X0017408Y0081393D01*
X0017408Y0080214D02*
X0018199Y0080214D01*
X0018396Y0079034D02*
X0017408Y0079034D01*
X0017408Y0082573D02*
X0018199Y0082573D01*
X0018199Y0083753D02*
X0017408Y0083753D01*
X0017340Y0084932D02*
X0021547Y0084932D01*
X0028946Y0087291D02*
X0037195Y0087291D01*
X0037195Y0088471D02*
X0028946Y0088471D01*
X0028946Y0089651D02*
X0037195Y0089651D01*
X0037195Y0090830D02*
X0028946Y0090830D01*
X0028946Y0092010D02*
X0035440Y0092010D01*
X0035030Y0093189D02*
X0028946Y0093189D01*
X0028946Y0094369D02*
X0035030Y0094369D01*
X0035030Y0095549D02*
X0028946Y0095549D01*
X0028946Y0096728D02*
X0035030Y0096728D01*
X0035594Y0097908D02*
X0028946Y0097908D01*
X0028946Y0099088D02*
X0043291Y0099088D01*
X0043291Y0100267D02*
X0028946Y0100267D01*
X0028946Y0101447D02*
X0043540Y0101447D01*
X0047244Y0101447D02*
X0048031Y0101447D01*
X0048031Y0100267D02*
X0047244Y0100267D01*
X0047244Y0099088D02*
X0048031Y0099088D01*
X0051736Y0101447D02*
X0066132Y0101447D01*
X0066132Y0102626D02*
X0028946Y0102626D01*
X0028946Y0103806D02*
X0066920Y0103806D01*
X0066132Y0100267D02*
X0051984Y0100267D01*
X0051984Y0099088D02*
X0066132Y0099088D01*
X0066132Y0097908D02*
X0051984Y0097908D01*
X0051984Y0096728D02*
X0066132Y0096728D01*
X0066132Y0095549D02*
X0055002Y0095549D01*
X0056181Y0094369D02*
X0067170Y0094369D01*
X0068524Y0093189D02*
X0057785Y0093189D01*
X0057785Y0092010D02*
X0068684Y0092010D01*
X0068984Y0092310D02*
X0068287Y0091613D01*
X0068287Y0088427D01*
X0068984Y0087729D01*
X0077770Y0087729D01*
X0078468Y0088427D01*
X0078468Y0091613D01*
X0077770Y0092310D01*
X0068984Y0092310D01*
X0068287Y0090830D02*
X0057785Y0090830D01*
X0057785Y0089651D02*
X0068287Y0089651D01*
X0068287Y0088471D02*
X0057576Y0088471D01*
X0057785Y0087291D02*
X0068400Y0087291D01*
X0067887Y0086112D02*
X0057785Y0086112D01*
X0057785Y0084932D02*
X0067887Y0084932D01*
X0067887Y0083753D02*
X0057785Y0083753D01*
X0054724Y0085335D02*
X0049311Y0085335D01*
X0047638Y0087008D01*
X0047638Y0091142D01*
X0045857Y0087983D02*
X0044389Y0087983D01*
X0043691Y0088680D01*
X0043691Y0093101D01*
X0042923Y0093101D01*
X0042923Y0092420D01*
X0042225Y0091723D01*
X0040757Y0091723D01*
X0040757Y0086919D01*
X0043838Y0086919D01*
X0044818Y0086513D01*
X0045568Y0085763D01*
X0045974Y0084782D01*
X0045974Y0083721D01*
X0045568Y0082741D01*
X0045126Y0082299D01*
X0046112Y0082299D01*
X0046112Y0079183D01*
X0046801Y0079183D01*
X0046801Y0082299D01*
X0048536Y0082299D01*
X0048941Y0082191D01*
X0049303Y0081981D01*
X0049326Y0081959D01*
X0049386Y0081994D01*
X0049791Y0082102D01*
X0051378Y0082102D01*
X0051378Y0079134D01*
X0051772Y0079134D01*
X0054740Y0079134D01*
X0054740Y0079518D01*
X0056018Y0079518D01*
X0054740Y0078240D01*
X0054740Y0078740D01*
X0051772Y0078740D01*
X0051772Y0079134D01*
X0051772Y0082102D01*
X0053140Y0082102D01*
X0053140Y0082274D01*
X0052361Y0082274D01*
X0051664Y0082971D01*
X0051664Y0083554D01*
X0048573Y0083554D01*
X0047530Y0084597D01*
X0045857Y0086270D01*
X0045857Y0087983D01*
X0045857Y0087291D02*
X0040757Y0087291D01*
X0040757Y0088471D02*
X0043900Y0088471D01*
X0043691Y0089651D02*
X0040757Y0089651D01*
X0040757Y0090830D02*
X0043691Y0090830D01*
X0043691Y0092010D02*
X0042512Y0092010D01*
X0038976Y0094882D02*
X0053150Y0094882D01*
X0054724Y0093307D01*
X0054724Y0091043D01*
X0052062Y0082573D02*
X0045400Y0082573D01*
X0045974Y0083753D02*
X0048374Y0083753D01*
X0047195Y0084932D02*
X0045912Y0084932D01*
X0046015Y0086112D02*
X0045219Y0086112D01*
X0046112Y0081393D02*
X0046801Y0081393D01*
X0046801Y0080214D02*
X0046112Y0080214D01*
X0046112Y0079034D02*
X0041742Y0079034D01*
X0041742Y0077855D02*
X0042996Y0077855D01*
X0043019Y0076675D02*
X0041742Y0076675D01*
X0041742Y0075495D02*
X0043398Y0075495D01*
X0043396Y0074316D02*
X0041354Y0074316D01*
X0037598Y0071956D02*
X0036417Y0071956D01*
X0036417Y0070777D02*
X0037598Y0070777D01*
X0037598Y0069597D02*
X0036417Y0069597D01*
X0036417Y0066058D02*
X0037598Y0066058D01*
X0037598Y0064879D02*
X0036417Y0064879D01*
X0036417Y0063699D02*
X0037598Y0063699D01*
X0036902Y0061340D02*
X0033964Y0061340D01*
X0034175Y0060160D02*
X0036691Y0060160D01*
X0036691Y0058981D02*
X0034175Y0058981D01*
X0034175Y0057801D02*
X0036691Y0057801D01*
X0036691Y0056621D02*
X0034175Y0056621D01*
X0034175Y0055442D02*
X0036691Y0055442D01*
X0036691Y0054262D02*
X0034175Y0054262D01*
X0034175Y0053083D02*
X0036691Y0053083D01*
X0032009Y0051903D02*
X0053140Y0051903D01*
X0053140Y0053083D02*
X0045372Y0053083D01*
X0045372Y0054262D02*
X0053140Y0054262D01*
X0053140Y0055442D02*
X0045372Y0055442D01*
X0047051Y0056621D02*
X0053337Y0056621D01*
X0052156Y0057801D02*
X0048041Y0057801D01*
X0048041Y0058981D02*
X0052156Y0058981D01*
X0052156Y0060160D02*
X0048041Y0060160D01*
X0048041Y0061340D02*
X0052156Y0061340D01*
X0052156Y0062520D02*
X0048041Y0062520D01*
X0048041Y0063699D02*
X0052156Y0063699D01*
X0053731Y0064879D02*
X0048041Y0064879D01*
X0048041Y0066058D02*
X0053731Y0066058D01*
X0053731Y0067238D02*
X0048041Y0067238D01*
X0048041Y0068418D02*
X0053731Y0068418D01*
X0053731Y0069597D02*
X0048041Y0069597D01*
X0044872Y0066058D02*
X0042142Y0066058D01*
X0042142Y0064879D02*
X0044872Y0064879D01*
X0044872Y0063699D02*
X0042071Y0063699D01*
X0044872Y0062520D02*
X0024720Y0062520D01*
X0025442Y0061340D02*
X0025705Y0061340D01*
X0028543Y0063699D02*
X0029724Y0063699D01*
X0029724Y0064879D02*
X0028543Y0064879D01*
X0028543Y0066058D02*
X0029724Y0066058D01*
X0021604Y0063730D02*
X0021604Y0062220D01*
X0021457Y0062220D01*
X0021457Y0057677D01*
X0020276Y0057677D01*
X0020276Y0060614D01*
X0020915Y0060614D01*
X0020915Y0063730D01*
X0017799Y0063730D01*
X0017799Y0062220D01*
X0017507Y0062220D01*
X0017103Y0062112D01*
X0016740Y0061903D01*
X0016444Y0061607D01*
X0016234Y0061244D01*
X0016126Y0060839D01*
X0016126Y0057677D01*
X0020276Y0057677D01*
X0020276Y0056496D01*
X0021457Y0056496D01*
X0021457Y0051953D01*
X0024225Y0051953D01*
X0024630Y0052061D01*
X0024992Y0052271D01*
X0025288Y0052567D01*
X0025498Y0052929D01*
X0025521Y0053017D01*
X0026192Y0052347D01*
X0027660Y0052347D01*
X0027660Y0051995D01*
X0025766Y0050102D01*
X0025038Y0050403D01*
X0013120Y0050403D01*
X0013002Y0050521D01*
X0013002Y0052353D01*
X0013485Y0052353D01*
X0014183Y0053050D01*
X0014183Y0061123D01*
X0013510Y0061795D01*
X0014173Y0061795D01*
X0014173Y0064764D01*
X0014567Y0064764D01*
X0014567Y0065157D01*
X0017535Y0065157D01*
X0017535Y0066745D01*
X0017427Y0067149D01*
X0017218Y0067512D01*
X0016921Y0067808D01*
X0016622Y0067981D01*
X0016710Y0067981D01*
X0017408Y0068679D01*
X0017408Y0069050D01*
X0018199Y0068258D01*
X0018199Y0067420D01*
X0018407Y0067212D01*
X0018117Y0066921D01*
X0017908Y0066559D01*
X0017799Y0066154D01*
X0017799Y0064419D01*
X0020915Y0064419D01*
X0020915Y0063730D01*
X0021604Y0063730D01*
X0021604Y0063699D02*
X0020915Y0063699D01*
X0020915Y0062520D02*
X0021604Y0062520D01*
X0021457Y0061340D02*
X0020915Y0061340D01*
X0021457Y0060160D02*
X0020276Y0060160D01*
X0020276Y0058981D02*
X0021457Y0058981D01*
X0021457Y0057801D02*
X0020276Y0057801D01*
X0020276Y0056621D02*
X0014183Y0056621D01*
X0014183Y0055442D02*
X0016126Y0055442D01*
X0016126Y0056496D02*
X0016126Y0053334D01*
X0016234Y0052929D01*
X0016444Y0052567D01*
X0016740Y0052271D01*
X0017103Y0052061D01*
X0017507Y0051953D01*
X0020276Y0051953D01*
X0020276Y0056496D01*
X0016126Y0056496D01*
X0016126Y0057801D02*
X0014183Y0057801D01*
X0014183Y0058981D02*
X0016126Y0058981D01*
X0016126Y0060160D02*
X0014183Y0060160D01*
X0013966Y0061340D02*
X0016290Y0061340D01*
X0016154Y0061795D02*
X0016559Y0061904D01*
X0016921Y0062113D01*
X0017218Y0062409D01*
X0017427Y0062772D01*
X0017535Y0063176D01*
X0017535Y0064764D01*
X0014567Y0064764D01*
X0014567Y0061795D01*
X0016154Y0061795D01*
X0017281Y0062520D02*
X0017799Y0062520D01*
X0017799Y0063699D02*
X0017535Y0063699D01*
X0017799Y0064879D02*
X0014567Y0064879D01*
X0014567Y0063699D02*
X0014173Y0063699D01*
X0014173Y0062520D02*
X0014567Y0062520D01*
X0017535Y0066058D02*
X0017799Y0066058D01*
X0017376Y0067238D02*
X0018381Y0067238D01*
X0018040Y0068418D02*
X0017147Y0068418D01*
X0013088Y0068418D02*
X0009991Y0068418D01*
X0010008Y0069597D02*
X0012827Y0069597D01*
X0012827Y0070777D02*
X0010008Y0070777D01*
X0010008Y0071956D02*
X0012827Y0071956D01*
X0012827Y0073136D02*
X0010008Y0073136D01*
X0010008Y0074316D02*
X0012827Y0074316D01*
X0011364Y0067238D02*
X0011020Y0067238D01*
X0005699Y0063699D02*
X0001591Y0063699D01*
X0001591Y0062520D02*
X0006072Y0062520D01*
X0005719Y0061340D02*
X0001591Y0061340D01*
X0001591Y0060160D02*
X0005502Y0060160D01*
X0005502Y0058981D02*
X0001591Y0058981D01*
X0001591Y0057801D02*
X0005502Y0057801D01*
X0005502Y0056621D02*
X0001591Y0056621D01*
X0001591Y0055442D02*
X0005502Y0055442D01*
X0005502Y0054262D02*
X0001591Y0054262D01*
X0001591Y0053083D02*
X0005502Y0053083D01*
X0006683Y0051903D02*
X0001591Y0051903D01*
X0001591Y0050723D02*
X0006683Y0050723D01*
X0006683Y0049544D02*
X0001591Y0049544D01*
X0001591Y0048364D02*
X0006775Y0048364D01*
X0007403Y0047185D02*
X0001591Y0047185D01*
X0001591Y0046005D02*
X0008583Y0046005D01*
X0009762Y0044825D02*
X0001591Y0044825D01*
X0001591Y0043646D02*
X0005196Y0043646D01*
X0004906Y0042466D02*
X0001591Y0042466D01*
X0001591Y0041286D02*
X0004906Y0041286D01*
X0004906Y0040107D02*
X0001591Y0040107D01*
X0001591Y0038927D02*
X0009449Y0038927D01*
X0009449Y0037748D02*
X0010630Y0037748D01*
X0010630Y0038927D02*
X0021447Y0038927D01*
X0021447Y0037748D02*
X0015173Y0037748D01*
X0015173Y0036568D02*
X0021447Y0036568D01*
X0021589Y0035388D02*
X0015053Y0035388D01*
X0010630Y0035388D02*
X0009449Y0035388D01*
X0009449Y0036568D02*
X0010630Y0036568D01*
X0010630Y0040107D02*
X0009449Y0040107D01*
X0009449Y0041286D02*
X0010630Y0041286D01*
X0010630Y0042466D02*
X0009449Y0042466D01*
X0009449Y0043646D02*
X0010630Y0043646D01*
X0014883Y0043646D02*
X0021883Y0043646D01*
X0021447Y0042466D02*
X0015173Y0042466D01*
X0015173Y0041286D02*
X0021447Y0041286D01*
X0021447Y0040107D02*
X0015173Y0040107D01*
X0004906Y0037748D02*
X0001591Y0037748D01*
X0001591Y0036568D02*
X0004906Y0036568D01*
X0005026Y0035388D02*
X0001591Y0035388D01*
X0001591Y0034209D02*
X0045660Y0034209D01*
X0045660Y0033029D02*
X0001591Y0033029D01*
X0001591Y0031850D02*
X0045660Y0031850D01*
X0045660Y0030670D02*
X0001591Y0030670D01*
X0001591Y0029490D02*
X0045660Y0029490D01*
X0046067Y0028311D02*
X0001591Y0028311D01*
X0001591Y0027131D02*
X0047141Y0027131D01*
X0048321Y0025952D02*
X0001591Y0025952D01*
X0001591Y0024772D02*
X0049501Y0024772D01*
X0050680Y0023592D02*
X0001591Y0023592D01*
X0001591Y0022413D02*
X0051860Y0022413D01*
X0052274Y0021233D02*
X0039738Y0021233D01*
X0039579Y0021276D02*
X0035925Y0021276D01*
X0035925Y0016240D01*
X0034941Y0016240D01*
X0034941Y0015256D01*
X0029905Y0015256D01*
X0029906Y0011602D01*
X0030014Y0011197D01*
X0030223Y0010834D01*
X0030519Y0010538D01*
X0030882Y0010329D01*
X0031287Y0010220D01*
X0034941Y0010220D01*
X0034941Y0015256D01*
X0035925Y0015256D01*
X0035925Y0010220D01*
X0039579Y0010220D01*
X0039984Y0010329D01*
X0040347Y0010538D01*
X0040643Y0010834D01*
X0040852Y0011197D01*
X0040961Y0011602D01*
X0040961Y0015256D01*
X0035925Y0015256D01*
X0035925Y0016240D01*
X0040961Y0016240D01*
X0040961Y0019894D01*
X0040852Y0020299D01*
X0040643Y0020662D01*
X0040347Y0020958D01*
X0039984Y0021167D01*
X0039579Y0021276D01*
X0040918Y0020053D02*
X0052274Y0020053D01*
X0051307Y0018874D02*
X0040961Y0018874D01*
X0040961Y0017694D02*
X0050689Y0017694D01*
X0050306Y0016515D02*
X0040961Y0016515D01*
X0040961Y0014155D02*
X0050543Y0014155D01*
X0050306Y0015335D02*
X0035925Y0015335D01*
X0034941Y0015335D02*
X0001591Y0015335D01*
X0001591Y0016515D02*
X0029906Y0016515D01*
X0029906Y0016240D02*
X0034941Y0016240D01*
X0034941Y0021276D01*
X0031287Y0021276D01*
X0030882Y0021167D01*
X0030519Y0020958D01*
X0030223Y0020662D01*
X0030014Y0020299D01*
X0029906Y0019894D01*
X0029906Y0016240D01*
X0029906Y0017694D02*
X0001591Y0017694D01*
X0001591Y0018874D02*
X0029906Y0018874D01*
X0029948Y0020053D02*
X0001591Y0020053D01*
X0001591Y0021233D02*
X0031128Y0021233D01*
X0034941Y0021233D02*
X0035925Y0021233D01*
X0035925Y0020053D02*
X0034941Y0020053D01*
X0034941Y0018874D02*
X0035925Y0018874D01*
X0035925Y0017694D02*
X0034941Y0017694D01*
X0034941Y0016515D02*
X0035925Y0016515D01*
X0035925Y0014155D02*
X0034941Y0014155D01*
X0034941Y0012976D02*
X0035925Y0012976D01*
X0035925Y0011796D02*
X0034941Y0011796D01*
X0034941Y0010617D02*
X0035925Y0010617D01*
X0040425Y0010617D02*
X0070168Y0010617D01*
X0070168Y0011796D02*
X0058733Y0011796D01*
X0059835Y0012976D02*
X0068805Y0012976D01*
X0068995Y0012786D02*
X0070168Y0012786D01*
X0070168Y0009312D01*
X0070574Y0008332D01*
X0074904Y0004001D01*
X0075655Y0003251D01*
X0076635Y0002845D01*
X0105255Y0002845D01*
X0106235Y0003251D01*
X0108718Y0005733D01*
X0109124Y0006714D01*
X0109124Y0009990D01*
X0110327Y0011193D01*
X0111022Y0012871D01*
X0111022Y0014688D01*
X0110327Y0016366D01*
X0109043Y0017650D01*
X0107365Y0018345D01*
X0105549Y0018345D01*
X0103871Y0017650D01*
X0102586Y0016366D01*
X0101891Y0014688D01*
X0101891Y0012871D01*
X0102586Y0011193D01*
X0103790Y0009990D01*
X0103790Y0008349D01*
X0103620Y0008179D01*
X0078270Y0008179D01*
X0075502Y0010947D01*
X0075502Y0012786D01*
X0076674Y0012786D01*
X0077372Y0013483D01*
X0077372Y0021556D01*
X0076674Y0022254D01*
X0068995Y0022254D01*
X0068298Y0021556D01*
X0068298Y0013483D01*
X0068995Y0012786D01*
X0068298Y0014155D02*
X0060323Y0014155D01*
X0060561Y0015335D02*
X0068298Y0015335D01*
X0068298Y0016515D02*
X0060561Y0016515D01*
X0060177Y0017694D02*
X0068298Y0017694D01*
X0068298Y0018874D02*
X0059559Y0018874D01*
X0058592Y0020053D02*
X0068298Y0020053D01*
X0068298Y0021233D02*
X0058592Y0021233D01*
X0058592Y0022413D02*
X0086567Y0022413D01*
X0087537Y0023592D02*
X0058592Y0023592D01*
X0058246Y0024772D02*
X0089754Y0024772D01*
X0089754Y0025952D02*
X0057256Y0025952D01*
X0056077Y0027131D02*
X0089754Y0027131D01*
X0089754Y0028311D02*
X0054897Y0028311D01*
X0053717Y0029490D02*
X0068432Y0029490D01*
X0068298Y0030670D02*
X0052538Y0030670D01*
X0051978Y0031850D02*
X0068298Y0031850D01*
X0068298Y0033029D02*
X0051978Y0033029D01*
X0051978Y0034209D02*
X0068298Y0034209D01*
X0068298Y0035388D02*
X0067659Y0035388D01*
X0068129Y0036568D02*
X0068298Y0036568D01*
X0068347Y0037748D02*
X0068051Y0037748D01*
X0063180Y0040107D02*
X0063025Y0040107D01*
X0063180Y0041286D02*
X0053246Y0041286D01*
X0053246Y0040107D02*
X0055085Y0040107D01*
X0054906Y0038927D02*
X0053246Y0038927D01*
X0053246Y0037748D02*
X0058760Y0037748D01*
X0058760Y0037303D02*
X0054906Y0037303D01*
X0054906Y0035617D01*
X0055014Y0035213D01*
X0055223Y0034850D01*
X0055519Y0034554D01*
X0055882Y0034345D01*
X0056287Y0034236D01*
X0058760Y0034236D01*
X0058760Y0037303D01*
X0058760Y0036568D02*
X0059350Y0036568D01*
X0059350Y0035388D02*
X0058760Y0035388D01*
X0058760Y0038927D02*
X0059350Y0038927D01*
X0059350Y0040107D02*
X0058760Y0040107D01*
X0062457Y0042466D02*
X0063180Y0042466D01*
X0063180Y0043646D02*
X0062805Y0043646D01*
X0062805Y0044825D02*
X0063180Y0044825D01*
X0063180Y0046005D02*
X0062805Y0046005D01*
X0056880Y0048364D02*
X0030180Y0048364D01*
X0031360Y0049544D02*
X0057492Y0049544D01*
X0056201Y0053150D02*
X0056201Y0055610D01*
X0055118Y0056693D01*
X0055118Y0060630D01*
X0055315Y0060630D01*
X0058474Y0060160D02*
X0059236Y0060160D01*
X0059236Y0060236D02*
X0059236Y0057665D01*
X0059345Y0057260D01*
X0059554Y0056897D01*
X0059841Y0056610D01*
X0059830Y0056610D01*
X0059425Y0056502D01*
X0059063Y0056292D01*
X0058772Y0056002D01*
X0058564Y0056210D01*
X0057982Y0056210D01*
X0057982Y0056348D01*
X0057646Y0056683D01*
X0057777Y0056683D01*
X0058474Y0057381D01*
X0058474Y0063879D01*
X0057777Y0064576D01*
X0056899Y0064576D01*
X0056899Y0065345D01*
X0061517Y0065345D01*
X0062214Y0066042D01*
X0062214Y0067510D01*
X0064517Y0067510D01*
X0065231Y0068224D01*
X0065649Y0067806D01*
X0067491Y0067806D01*
X0067491Y0067352D01*
X0066981Y0066843D01*
X0066981Y0058056D01*
X0067679Y0057359D01*
X0070865Y0057359D01*
X0071562Y0058056D01*
X0071562Y0066843D01*
X0071053Y0067352D01*
X0071053Y0068110D01*
X0071357Y0067806D01*
X0072097Y0067806D01*
X0072097Y0066958D01*
X0071981Y0066843D01*
X0071981Y0058056D01*
X0072097Y0057941D01*
X0072097Y0055718D01*
X0068391Y0055718D01*
X0067117Y0054444D01*
X0065370Y0052698D01*
X0065370Y0052805D01*
X0062254Y0052805D01*
X0062254Y0053494D01*
X0065370Y0053494D01*
X0065370Y0055229D01*
X0065262Y0055634D01*
X0065052Y0055996D01*
X0064765Y0056283D01*
X0064973Y0056283D01*
X0065378Y0056392D01*
X0065740Y0056601D01*
X0066037Y0056897D01*
X0066246Y0057260D01*
X0066354Y0057665D01*
X0066354Y0060236D01*
X0063189Y0060236D01*
X0063189Y0061024D01*
X0062402Y0061024D01*
X0062402Y0064976D01*
X0060617Y0064976D01*
X0060213Y0064868D01*
X0059850Y0064659D01*
X0059554Y0064362D01*
X0059345Y0064000D01*
X0059236Y0063595D01*
X0059236Y0061024D01*
X0062401Y0061024D01*
X0062401Y0060236D01*
X0059236Y0060236D01*
X0059236Y0061340D02*
X0058474Y0061340D01*
X0058474Y0062520D02*
X0059236Y0062520D01*
X0059264Y0063699D02*
X0058474Y0063699D01*
X0056899Y0064879D02*
X0060253Y0064879D01*
X0062402Y0064879D02*
X0063189Y0064879D01*
X0063189Y0064976D02*
X0063189Y0061024D01*
X0066354Y0061024D01*
X0066354Y0063595D01*
X0066246Y0064000D01*
X0066037Y0064362D01*
X0065740Y0064659D01*
X0065378Y0064868D01*
X0064973Y0064976D01*
X0063189Y0064976D01*
X0063189Y0063699D02*
X0062402Y0063699D01*
X0062402Y0062520D02*
X0063189Y0062520D01*
X0063189Y0061340D02*
X0062402Y0061340D01*
X0059236Y0058981D02*
X0058474Y0058981D01*
X0058474Y0057801D02*
X0059236Y0057801D01*
X0059830Y0056621D02*
X0057708Y0056621D01*
X0062254Y0053083D02*
X0065755Y0053083D01*
X0065370Y0054262D02*
X0066935Y0054262D01*
X0067117Y0054444D02*
X0067117Y0054444D01*
X0068114Y0055442D02*
X0065313Y0055442D01*
X0065761Y0056621D02*
X0072097Y0056621D01*
X0072097Y0057801D02*
X0071307Y0057801D01*
X0071562Y0058981D02*
X0071981Y0058981D01*
X0071981Y0060160D02*
X0071562Y0060160D01*
X0071562Y0061340D02*
X0071981Y0061340D01*
X0071981Y0062520D02*
X0071562Y0062520D01*
X0071562Y0063699D02*
X0071981Y0063699D01*
X0071981Y0064879D02*
X0071562Y0064879D01*
X0071562Y0066058D02*
X0071981Y0066058D01*
X0072097Y0067238D02*
X0071167Y0067238D01*
X0069272Y0069606D02*
X0068012Y0070866D01*
X0065354Y0070866D01*
X0063780Y0069291D01*
X0059055Y0069291D01*
X0062214Y0067238D02*
X0067376Y0067238D01*
X0066981Y0066058D02*
X0062214Y0066058D01*
X0065337Y0064879D02*
X0066981Y0064879D01*
X0066981Y0063699D02*
X0066326Y0063699D01*
X0066354Y0062520D02*
X0066981Y0062520D01*
X0066981Y0061340D02*
X0066354Y0061340D01*
X0066354Y0060160D02*
X0066981Y0060160D01*
X0066981Y0058981D02*
X0066354Y0058981D01*
X0066354Y0057801D02*
X0067236Y0057801D01*
X0069272Y0062450D02*
X0069272Y0069606D01*
X0079272Y0070610D02*
X0079272Y0062450D01*
X0086562Y0062520D02*
X0087589Y0062520D01*
X0087589Y0063699D02*
X0086562Y0063699D01*
X0086562Y0064879D02*
X0090985Y0064879D01*
X0091329Y0066058D02*
X0086562Y0066058D01*
X0086446Y0067238D02*
X0091329Y0067238D01*
X0090551Y0069291D02*
X0094488Y0069291D01*
X0090551Y0069291D02*
X0089764Y0070079D01*
X0089764Y0073228D01*
X0088189Y0074803D01*
X0080315Y0074803D01*
X0079429Y0073917D01*
X0079429Y0070866D01*
X0079528Y0070866D01*
X0079272Y0070610D01*
X0088113Y0068418D02*
X0088906Y0068418D01*
X0093907Y0062983D02*
X0094669Y0062983D01*
X0094669Y0061024D01*
X0097835Y0061024D01*
X0097835Y0060236D01*
X0094669Y0060236D01*
X0094669Y0057665D01*
X0094778Y0057260D01*
X0094987Y0056897D01*
X0095274Y0056610D01*
X0095263Y0056610D01*
X0094859Y0056502D01*
X0094496Y0056292D01*
X0094205Y0056002D01*
X0093997Y0056210D01*
X0093415Y0056210D01*
X0093415Y0056889D01*
X0093907Y0057381D01*
X0093907Y0062983D01*
X0093907Y0062520D02*
X0094669Y0062520D01*
X0094669Y0061340D02*
X0093907Y0061340D01*
X0093907Y0060160D02*
X0094669Y0060160D01*
X0094669Y0058981D02*
X0093907Y0058981D01*
X0093907Y0057801D02*
X0094669Y0057801D01*
X0095263Y0056621D02*
X0093415Y0056621D01*
X0091634Y0056398D02*
X0090748Y0057283D01*
X0090748Y0060630D01*
X0087589Y0060160D02*
X0086562Y0060160D01*
X0086562Y0058981D02*
X0087589Y0058981D01*
X0087589Y0057801D02*
X0086446Y0057801D01*
X0086446Y0056621D02*
X0088967Y0056621D01*
X0088573Y0055442D02*
X0086446Y0055442D01*
X0086446Y0054262D02*
X0088573Y0054262D01*
X0088573Y0053083D02*
X0085292Y0053083D01*
X0084112Y0051903D02*
X0088573Y0051903D01*
X0088636Y0050723D02*
X0069547Y0050723D01*
X0068367Y0049544D02*
X0110424Y0049544D01*
X0112205Y0049213D02*
X0113091Y0050098D01*
X0113091Y0053150D01*
X0113091Y0058957D01*
X0113189Y0059055D01*
X0110640Y0061340D02*
X0110285Y0061340D01*
X0111605Y0062520D02*
X0101787Y0062520D01*
X0101760Y0063699D02*
X0111605Y0063699D01*
X0111605Y0064879D02*
X0100771Y0064879D01*
X0100582Y0066058D02*
X0111605Y0066058D01*
X0111605Y0067238D02*
X0101584Y0067238D01*
X0101584Y0068418D02*
X0112634Y0068418D01*
X0108840Y0071956D02*
X0105875Y0071956D01*
X0104695Y0073136D02*
X0108652Y0073136D01*
X0108652Y0074316D02*
X0103515Y0074316D01*
X0102336Y0075495D02*
X0108652Y0075495D01*
X0108652Y0076675D02*
X0101156Y0076675D01*
X0099977Y0077855D02*
X0108652Y0077855D01*
X0108652Y0079034D02*
X0098797Y0079034D01*
X0097617Y0080214D02*
X0124991Y0080214D01*
X0127065Y0075219D02*
X0126640Y0074794D01*
X0125994Y0074794D01*
X0125994Y0072145D01*
X0125512Y0071663D01*
X0131487Y0071663D01*
X0131487Y0074591D01*
X0130118Y0074591D01*
X0130118Y0077559D01*
X0129724Y0077559D01*
X0129724Y0074591D01*
X0128137Y0074591D01*
X0127733Y0074699D01*
X0127370Y0074908D01*
X0127074Y0075204D01*
X0127065Y0075219D01*
X0125994Y0074316D02*
X0131487Y0074316D01*
X0131487Y0073136D02*
X0125994Y0073136D01*
X0125805Y0071956D02*
X0131487Y0071956D01*
X0130118Y0075495D02*
X0129724Y0075495D01*
X0129724Y0076675D02*
X0130118Y0076675D01*
X0140954Y0076675D02*
X0149794Y0076675D01*
X0149794Y0075495D02*
X0140954Y0075495D01*
X0140954Y0074316D02*
X0149794Y0074316D01*
X0149794Y0073136D02*
X0140954Y0073136D01*
X0140954Y0071956D02*
X0150292Y0071956D01*
X0149597Y0070777D02*
X0140954Y0070777D01*
X0140954Y0069597D02*
X0149597Y0069597D01*
X0149597Y0068418D02*
X0141697Y0068418D01*
X0142876Y0067238D02*
X0149597Y0067238D01*
X0150073Y0066058D02*
X0144056Y0066058D01*
X0144301Y0064879D02*
X0161857Y0064879D01*
X0161857Y0066058D02*
X0160951Y0066058D01*
X0161427Y0067238D02*
X0161857Y0067238D01*
X0161857Y0063699D02*
X0144301Y0063699D01*
X0144301Y0062520D02*
X0161857Y0062520D01*
X0161871Y0061340D02*
X0151624Y0061340D01*
X0151787Y0060160D02*
X0162765Y0060160D01*
X0161929Y0058981D02*
X0148819Y0058981D01*
X0148819Y0060160D02*
X0148425Y0060160D01*
X0148425Y0061340D02*
X0148819Y0061340D01*
X0145621Y0061340D02*
X0145265Y0061340D01*
X0142815Y0058957D02*
X0142717Y0059055D01*
X0142815Y0058957D02*
X0142815Y0053150D01*
X0142815Y0049902D01*
X0141732Y0048819D01*
X0141732Y0044969D01*
X0146472Y0044825D02*
X0163487Y0044825D01*
X0163487Y0043646D02*
X0146472Y0043646D01*
X0146472Y0042466D02*
X0163487Y0042466D01*
X0163487Y0041286D02*
X0146433Y0041286D01*
X0143236Y0040107D02*
X0163487Y0040107D01*
X0163487Y0038927D02*
X0143317Y0038927D01*
X0146139Y0037748D02*
X0163487Y0037748D01*
X0164096Y0036568D02*
X0146472Y0036568D01*
X0146472Y0035388D02*
X0164361Y0035388D01*
X0164361Y0034209D02*
X0146472Y0034209D01*
X0146472Y0033029D02*
X0164361Y0033029D01*
X0165345Y0031850D02*
X0146472Y0031850D01*
X0146472Y0030670D02*
X0165345Y0030670D01*
X0165345Y0029490D02*
X0145833Y0029490D01*
X0143907Y0028311D02*
X0165345Y0028311D01*
X0165345Y0027131D02*
X0142805Y0027131D01*
X0138631Y0025952D02*
X0165345Y0025952D01*
X0165345Y0024772D02*
X0138631Y0024772D01*
X0138631Y0023592D02*
X0165345Y0023592D01*
X0165006Y0022413D02*
X0138631Y0022413D01*
X0138631Y0021233D02*
X0160677Y0021233D01*
X0159497Y0020053D02*
X0138631Y0020053D01*
X0138631Y0018874D02*
X0158318Y0018874D01*
X0160930Y0015335D02*
X0162159Y0015335D01*
X0162110Y0016515D02*
X0162735Y0016515D01*
X0161891Y0014155D02*
X0161022Y0014155D01*
X0161022Y0012976D02*
X0161891Y0012976D01*
X0162337Y0011796D02*
X0160577Y0011796D01*
X0159750Y0010617D02*
X0163163Y0010617D01*
X0165010Y0009437D02*
X0157903Y0009437D01*
X0155010Y0009437D02*
X0148871Y0009437D01*
X0149059Y0009533D02*
X0149692Y0009992D01*
X0150244Y0010545D01*
X0150704Y0011177D01*
X0151058Y0011873D01*
X0151300Y0012617D01*
X0151399Y0013245D01*
X0146991Y0013245D01*
X0146991Y0008837D01*
X0147619Y0008936D01*
X0148363Y0009178D01*
X0149059Y0009533D01*
X0150296Y0010617D02*
X0153163Y0010617D01*
X0152337Y0011796D02*
X0151019Y0011796D01*
X0151357Y0012976D02*
X0151891Y0012976D01*
X0151891Y0014155D02*
X0146991Y0014155D01*
X0146991Y0014314D02*
X0151399Y0014314D01*
X0151300Y0014942D01*
X0151058Y0015686D01*
X0150704Y0016382D01*
X0150244Y0017014D01*
X0149692Y0017567D01*
X0149059Y0018026D01*
X0148363Y0018381D01*
X0147619Y0018623D01*
X0146991Y0018722D01*
X0146991Y0014314D01*
X0145922Y0014314D01*
X0145922Y0013245D01*
X0141514Y0013245D01*
X0141613Y0012617D01*
X0141855Y0011873D01*
X0142210Y0011177D01*
X0142669Y0010545D01*
X0143222Y0009992D01*
X0143854Y0009533D01*
X0144551Y0009178D01*
X0145294Y0008936D01*
X0145922Y0008837D01*
X0145922Y0013245D01*
X0146991Y0013245D01*
X0146991Y0014314D01*
X0146991Y0015335D02*
X0145922Y0015335D01*
X0145922Y0014314D02*
X0145922Y0018722D01*
X0145294Y0018623D01*
X0144551Y0018381D01*
X0143854Y0018026D01*
X0143222Y0017567D01*
X0142669Y0017014D01*
X0142210Y0016382D01*
X0141855Y0015686D01*
X0141613Y0014942D01*
X0141514Y0014314D01*
X0145922Y0014314D01*
X0145922Y0014155D02*
X0141022Y0014155D01*
X0141022Y0012976D02*
X0141557Y0012976D01*
X0141894Y0011796D02*
X0140577Y0011796D01*
X0139750Y0010617D02*
X0142617Y0010617D01*
X0144042Y0009437D02*
X0137903Y0009437D01*
X0135010Y0009437D02*
X0127903Y0009437D01*
X0129750Y0010617D02*
X0133163Y0010617D01*
X0132337Y0011796D02*
X0130577Y0011796D01*
X0131022Y0012976D02*
X0131891Y0012976D01*
X0131891Y0014155D02*
X0131022Y0014155D01*
X0130754Y0015335D02*
X0132159Y0015335D01*
X0132735Y0016515D02*
X0130178Y0016515D01*
X0128936Y0017694D02*
X0133977Y0017694D01*
X0134282Y0018874D02*
X0128631Y0018874D01*
X0128631Y0020053D02*
X0134282Y0020053D01*
X0134282Y0021233D02*
X0128631Y0021233D01*
X0128631Y0022413D02*
X0134282Y0022413D01*
X0134282Y0023592D02*
X0128631Y0023592D01*
X0128631Y0024772D02*
X0134282Y0024772D01*
X0134282Y0025952D02*
X0128631Y0025952D01*
X0132569Y0027131D02*
X0134282Y0027131D01*
X0134684Y0028311D02*
X0133749Y0028311D01*
X0124448Y0028311D02*
X0124222Y0028311D01*
X0124282Y0027131D02*
X0123120Y0027131D01*
X0124282Y0025952D02*
X0118631Y0025952D01*
X0118631Y0024772D02*
X0124282Y0024772D01*
X0124282Y0023592D02*
X0118631Y0023592D01*
X0118631Y0022413D02*
X0124282Y0022413D01*
X0124282Y0021233D02*
X0118631Y0021233D01*
X0118897Y0020053D02*
X0124282Y0020053D01*
X0124282Y0018874D02*
X0119124Y0018874D01*
X0119124Y0017694D02*
X0123977Y0017694D01*
X0122735Y0016515D02*
X0120178Y0016515D01*
X0120754Y0015335D02*
X0122159Y0015335D01*
X0121891Y0014155D02*
X0121022Y0014155D01*
X0121022Y0012976D02*
X0121891Y0012976D01*
X0122337Y0011796D02*
X0120577Y0011796D01*
X0119750Y0010617D02*
X0123163Y0010617D01*
X0125010Y0009437D02*
X0117903Y0009437D01*
X0115010Y0009437D02*
X0109124Y0009437D01*
X0109124Y0008257D02*
X0195260Y0008257D01*
X0195260Y0007078D02*
X0109124Y0007078D01*
X0108786Y0005898D02*
X0195260Y0005898D01*
X0195260Y0004718D02*
X0107703Y0004718D01*
X0106523Y0003539D02*
X0195260Y0003539D01*
X0195260Y0002359D02*
X0001591Y0002359D01*
X0001591Y0003539D02*
X0075367Y0003539D01*
X0074187Y0004718D02*
X0001591Y0004718D01*
X0001591Y0005898D02*
X0073007Y0005898D01*
X0071828Y0007078D02*
X0001591Y0007078D01*
X0001591Y0008257D02*
X0070648Y0008257D01*
X0070168Y0009437D02*
X0001591Y0009437D01*
X0001591Y0010617D02*
X0030441Y0010617D01*
X0029905Y0011796D02*
X0001591Y0011796D01*
X0001591Y0012976D02*
X0029905Y0012976D01*
X0029905Y0014155D02*
X0001591Y0014155D01*
X0030773Y0035388D02*
X0033369Y0035388D01*
X0042049Y0035388D02*
X0044565Y0035388D01*
X0044565Y0036568D02*
X0042049Y0036568D01*
X0042049Y0037748D02*
X0044565Y0037748D01*
X0044565Y0038927D02*
X0042049Y0038927D01*
X0042049Y0040107D02*
X0044565Y0040107D01*
X0044565Y0041286D02*
X0042049Y0041286D01*
X0042049Y0042466D02*
X0044565Y0042466D01*
X0053246Y0042466D02*
X0055653Y0042466D01*
X0054906Y0036568D02*
X0053246Y0036568D01*
X0053246Y0035388D02*
X0054967Y0035388D01*
X0053203Y0050723D02*
X0032009Y0050723D01*
X0027568Y0051903D02*
X0013002Y0051903D01*
X0013002Y0050723D02*
X0026388Y0050723D01*
X0021457Y0053083D02*
X0020276Y0053083D01*
X0020276Y0054262D02*
X0021457Y0054262D01*
X0021457Y0055442D02*
X0020276Y0055442D01*
X0016126Y0054262D02*
X0014183Y0054262D01*
X0014183Y0053083D02*
X0016193Y0053083D01*
X0005444Y0064879D02*
X0001591Y0064879D01*
X0001591Y0066058D02*
X0005444Y0066058D01*
X0005444Y0067238D02*
X0001591Y0067238D01*
X0001591Y0068418D02*
X0005444Y0068418D01*
X0005427Y0069597D02*
X0001591Y0069597D01*
X0001591Y0070777D02*
X0005427Y0070777D01*
X0005427Y0071956D02*
X0001591Y0071956D01*
X0001591Y0073136D02*
X0005427Y0073136D01*
X0005427Y0074316D02*
X0001591Y0074316D01*
X0028946Y0104986D02*
X0070857Y0104986D01*
X0070857Y0106165D02*
X0028946Y0106165D01*
X0028946Y0107345D02*
X0070857Y0107345D01*
X0070857Y0108524D02*
X0028946Y0108524D01*
X0028946Y0109704D02*
X0070857Y0109704D01*
X0070857Y0110884D02*
X0028792Y0110884D01*
X0042358Y0097908D02*
X0043291Y0097908D01*
X0043291Y0096728D02*
X0042923Y0096728D01*
X0038976Y0094882D02*
X0038976Y0086220D01*
X0036220Y0083465D01*
X0041742Y0081393D02*
X0043145Y0081393D01*
X0042996Y0080214D02*
X0041742Y0080214D01*
X0046801Y0079183D02*
X0048409Y0079183D01*
X0048409Y0079134D01*
X0051378Y0079134D01*
X0051378Y0078740D01*
X0048409Y0078740D01*
X0048409Y0078494D01*
X0046801Y0078494D01*
X0046801Y0079183D01*
X0046801Y0079034D02*
X0051378Y0079034D01*
X0051772Y0079034D02*
X0055534Y0079034D01*
X0051772Y0080214D02*
X0051378Y0080214D01*
X0051378Y0081393D02*
X0051772Y0081393D01*
X0073377Y0086112D02*
X0073377Y0086112D01*
X0073377Y0087291D02*
X0073377Y0087291D01*
X0078071Y0092010D02*
X0086755Y0092010D01*
X0086662Y0093189D02*
X0078231Y0093189D01*
X0078468Y0094369D02*
X0086487Y0094369D01*
X0086487Y0095549D02*
X0078468Y0095549D01*
X0078352Y0096728D02*
X0086594Y0096728D01*
X0087405Y0097908D02*
X0077949Y0097908D01*
X0078468Y0090830D02*
X0086487Y0090830D01*
X0086487Y0089651D02*
X0078468Y0089651D01*
X0078468Y0088471D02*
X0086551Y0088471D01*
X0087000Y0087291D02*
X0078355Y0087291D01*
X0078868Y0086112D02*
X0086487Y0086112D01*
X0086487Y0084932D02*
X0085812Y0084932D01*
X0089351Y0081393D02*
X0104915Y0081393D01*
X0104321Y0082573D02*
X0096726Y0082573D01*
X0096854Y0082647D02*
X0097150Y0082943D01*
X0097359Y0083306D01*
X0097468Y0083710D01*
X0097468Y0085020D01*
X0091977Y0085020D01*
X0091977Y0085020D01*
X0091977Y0082329D01*
X0096087Y0082329D01*
X0096491Y0082438D01*
X0096854Y0082647D01*
X0097468Y0083753D02*
X0104321Y0083753D01*
X0104321Y0084932D02*
X0097468Y0084932D01*
X0097468Y0086112D02*
X0104321Y0086112D01*
X0104357Y0087291D02*
X0096955Y0087291D01*
X0097404Y0088471D02*
X0103921Y0088471D01*
X0103921Y0089651D02*
X0097468Y0089651D01*
X0097468Y0090830D02*
X0103921Y0090830D01*
X0103992Y0092010D02*
X0097200Y0092010D01*
X0097292Y0093189D02*
X0115245Y0093189D01*
X0115295Y0095276D02*
X0111811Y0095276D01*
X0110630Y0096457D01*
X0109252Y0096457D01*
X0109252Y0104193D01*
X0108691Y0104754D01*
X0108661Y0104724D01*
X0113386Y0104724D01*
X0116535Y0107874D01*
X0114720Y0109704D02*
X0112411Y0109704D01*
X0112411Y0108579D02*
X0112411Y0132825D01*
X0114541Y0132825D01*
X0114951Y0132415D01*
X0114951Y0115184D01*
X0114745Y0114686D01*
X0114745Y0113660D01*
X0115137Y0112713D01*
X0115863Y0111988D01*
X0116810Y0111595D01*
X0117836Y0111595D01*
X0118783Y0111988D01*
X0119508Y0112713D01*
X0119676Y0113117D01*
X0119676Y0112298D01*
X0119074Y0111697D01*
X0118682Y0110749D01*
X0118682Y0109723D01*
X0119074Y0108776D01*
X0119800Y0108051D01*
X0120747Y0107658D01*
X0121773Y0107658D01*
X0122720Y0108051D01*
X0123445Y0108776D01*
X0123838Y0109723D01*
X0123838Y0110749D01*
X0123445Y0111697D01*
X0122844Y0112298D01*
X0122844Y0130990D01*
X0122949Y0130885D01*
X0123897Y0130493D01*
X0124922Y0130493D01*
X0125870Y0130885D01*
X0125880Y0130896D01*
X0131383Y0130896D01*
X0132471Y0129808D01*
X0132471Y0110920D01*
X0132460Y0110909D01*
X0132068Y0109962D01*
X0132068Y0108936D01*
X0132460Y0107989D01*
X0133185Y0107263D01*
X0134133Y0106871D01*
X0135158Y0106871D01*
X0136106Y0107263D01*
X0136831Y0107989D01*
X0136998Y0108392D01*
X0136998Y0106168D01*
X0134636Y0103806D01*
X0134636Y0103636D01*
X0134035Y0103035D01*
X0133643Y0102088D01*
X0133643Y0101062D01*
X0133850Y0100561D01*
X0130128Y0100561D01*
X0130128Y0120456D01*
X0130594Y0120649D01*
X0131319Y0121374D01*
X0131712Y0122322D01*
X0131712Y0123347D01*
X0131319Y0124295D01*
X0130594Y0125020D01*
X0129647Y0125413D01*
X0128621Y0125413D01*
X0127674Y0125020D01*
X0126948Y0124295D01*
X0126556Y0123347D01*
X0126556Y0122322D01*
X0126948Y0121374D01*
X0126959Y0121364D01*
X0126959Y0100561D01*
X0115570Y0100561D01*
X0114872Y0099863D01*
X0114872Y0097372D01*
X0114558Y0097057D01*
X0112549Y0097057D01*
X0112017Y0097588D01*
X0112017Y0098525D01*
X0111320Y0099222D01*
X0111033Y0099222D01*
X0111033Y0102215D01*
X0111230Y0102412D01*
X0111230Y0102943D01*
X0114124Y0102943D01*
X0116476Y0105296D01*
X0117048Y0105296D01*
X0117996Y0105689D01*
X0118721Y0106414D01*
X0119113Y0107361D01*
X0119113Y0108387D01*
X0118721Y0109334D01*
X0117996Y0110059D01*
X0117048Y0110452D01*
X0116023Y0110452D01*
X0115075Y0110059D01*
X0114350Y0109334D01*
X0113957Y0108387D01*
X0113957Y0107815D01*
X0112811Y0106668D01*
X0112811Y0106850D01*
X0108563Y0106850D01*
X0108563Y0106850D01*
X0104315Y0106850D01*
X0104315Y0105972D01*
X0104423Y0105567D01*
X0104633Y0105204D01*
X0104715Y0105122D01*
X0104715Y0103719D01*
X0105412Y0103022D01*
X0106802Y0103022D01*
X0105561Y0101781D01*
X0102258Y0101781D01*
X0102466Y0102142D01*
X0102575Y0102546D01*
X0102575Y0104134D01*
X0099606Y0104134D01*
X0099606Y0104528D01*
X0099213Y0104528D01*
X0099213Y0107496D01*
X0097625Y0107496D01*
X0097221Y0107388D01*
X0096858Y0107178D01*
X0096562Y0106882D01*
X0096352Y0106519D01*
X0096269Y0106209D01*
X0096269Y0106399D01*
X0095572Y0107096D01*
X0093257Y0107096D01*
X0092765Y0107588D01*
X0091250Y0107588D01*
X0091250Y0108170D01*
X0090758Y0108661D01*
X0090785Y0108688D01*
X0090853Y0108571D01*
X0091149Y0108274D01*
X0091512Y0108065D01*
X0091917Y0107957D01*
X0093652Y0107957D01*
X0093652Y0111073D01*
X0094341Y0111073D01*
X0094341Y0107957D01*
X0096076Y0107957D01*
X0096480Y0108065D01*
X0096843Y0108274D01*
X0097133Y0108565D01*
X0097341Y0108357D01*
X0102068Y0108357D01*
X0102765Y0109054D01*
X0102765Y0109186D01*
X0102899Y0109320D01*
X0103249Y0109490D01*
X0103346Y0109766D01*
X0104715Y0111136D01*
X0104715Y0109981D01*
X0104715Y0108579D01*
X0104633Y0108496D01*
X0104423Y0108134D01*
X0104315Y0107729D01*
X0104315Y0106850D01*
X0108563Y0106850D01*
X0108563Y0106850D01*
X0104488Y0106850D01*
X0101969Y0104331D01*
X0099409Y0104331D01*
X0099409Y0106890D01*
X0098425Y0107874D01*
X0094488Y0107874D01*
X0093996Y0108366D01*
X0093996Y0111417D01*
X0093652Y0110884D02*
X0094341Y0110884D01*
X0094341Y0109704D02*
X0093652Y0109704D01*
X0093652Y0108524D02*
X0094341Y0108524D01*
X0093009Y0107345D02*
X0097147Y0107345D01*
X0097174Y0108524D02*
X0097093Y0108524D01*
X0099213Y0107345D02*
X0099606Y0107345D01*
X0099606Y0107496D02*
X0099606Y0104528D01*
X0102575Y0104528D01*
X0102575Y0106115D01*
X0102466Y0106519D01*
X0102257Y0106882D01*
X0101961Y0107178D01*
X0101598Y0107388D01*
X0101194Y0107496D01*
X0099606Y0107496D01*
X0099606Y0106165D02*
X0099213Y0106165D01*
X0099213Y0104986D02*
X0099606Y0104986D01*
X0102575Y0104986D02*
X0104715Y0104986D01*
X0104715Y0103806D02*
X0102575Y0103806D01*
X0102575Y0102626D02*
X0106407Y0102626D01*
X0106299Y0100000D02*
X0091997Y0100000D01*
X0091977Y0100020D01*
X0091977Y0101426D01*
X0092913Y0102362D01*
X0092913Y0103740D01*
X0093504Y0104331D01*
X0092028Y0105807D01*
X0088189Y0105807D01*
X0090895Y0108524D02*
X0090899Y0108524D01*
X0090659Y0102626D02*
X0086624Y0102626D01*
X0086624Y0101447D02*
X0086887Y0101447D01*
X0086887Y0100267D02*
X0086624Y0100267D01*
X0086887Y0099088D02*
X0085580Y0099088D01*
X0091977Y0096728D02*
X0091977Y0096728D01*
X0091977Y0095549D02*
X0091977Y0095549D01*
X0091977Y0094369D02*
X0091977Y0094369D01*
X0091977Y0093189D02*
X0091977Y0093189D01*
X0091977Y0092010D02*
X0091977Y0092010D01*
X0091977Y0090830D02*
X0091977Y0090830D01*
X0091977Y0089651D02*
X0091977Y0089651D01*
X0091977Y0088471D02*
X0091977Y0088471D01*
X0091977Y0087291D02*
X0091977Y0087291D01*
X0091977Y0086112D02*
X0091977Y0086112D01*
X0091977Y0084932D02*
X0091977Y0084932D01*
X0091977Y0083753D02*
X0091977Y0083753D01*
X0091977Y0082573D02*
X0091977Y0082573D01*
X0097468Y0094369D02*
X0100262Y0094369D01*
X0100289Y0094268D02*
X0100499Y0093905D01*
X0100795Y0093609D01*
X0101158Y0093400D01*
X0101562Y0093291D01*
X0103150Y0093291D01*
X0103150Y0096260D01*
X0100181Y0096260D01*
X0100181Y0094672D01*
X0100289Y0094268D01*
X0100181Y0095549D02*
X0097468Y0095549D01*
X0097361Y0096728D02*
X0100181Y0096728D01*
X0100181Y0097908D02*
X0096549Y0097908D01*
X0103150Y0095549D02*
X0103543Y0095549D01*
X0103543Y0094369D02*
X0103150Y0094369D01*
X0106430Y0094369D02*
X0106506Y0094369D01*
X0106890Y0092010D02*
X0107283Y0092010D01*
X0107283Y0090830D02*
X0106890Y0090830D01*
X0110252Y0090830D02*
X0111014Y0090830D01*
X0111817Y0092010D02*
X0110181Y0092010D01*
X0115295Y0095276D02*
X0116732Y0096713D01*
X0114872Y0097908D02*
X0112017Y0097908D01*
X0111454Y0099088D02*
X0114872Y0099088D01*
X0115276Y0100267D02*
X0111033Y0100267D01*
X0111033Y0101447D02*
X0126959Y0101447D01*
X0126959Y0102626D02*
X0111230Y0102626D01*
X0109449Y0103150D02*
X0106299Y0100000D01*
X0109449Y0103150D02*
X0109449Y0104724D01*
X0109291Y0104882D01*
X0108563Y0104882D01*
X0108691Y0104754D01*
X0108563Y0106850D02*
X0112811Y0106850D01*
X0112811Y0107729D01*
X0112703Y0108134D01*
X0112493Y0108496D01*
X0112411Y0108579D01*
X0112465Y0108524D02*
X0114015Y0108524D01*
X0113487Y0107345D02*
X0112811Y0107345D01*
X0112411Y0110884D02*
X0118738Y0110884D01*
X0118690Y0109704D02*
X0118351Y0109704D01*
X0119056Y0108524D02*
X0119326Y0108524D01*
X0119107Y0107345D02*
X0126959Y0107345D01*
X0126959Y0108524D02*
X0123194Y0108524D01*
X0123830Y0109704D02*
X0126959Y0109704D01*
X0126959Y0110884D02*
X0123782Y0110884D01*
X0123079Y0112063D02*
X0126959Y0112063D01*
X0126959Y0113243D02*
X0122844Y0113243D01*
X0122844Y0114423D02*
X0126959Y0114423D01*
X0126959Y0115602D02*
X0122844Y0115602D01*
X0122844Y0116782D02*
X0126959Y0116782D01*
X0126959Y0117961D02*
X0122844Y0117961D01*
X0122844Y0119141D02*
X0126959Y0119141D01*
X0126959Y0120321D02*
X0122844Y0120321D01*
X0122844Y0121500D02*
X0126896Y0121500D01*
X0126556Y0122680D02*
X0122844Y0122680D01*
X0122844Y0123859D02*
X0126768Y0123859D01*
X0127719Y0125039D02*
X0122844Y0125039D01*
X0122844Y0126219D02*
X0132471Y0126219D01*
X0132471Y0127398D02*
X0122844Y0127398D01*
X0122844Y0128578D02*
X0132471Y0128578D01*
X0132471Y0129758D02*
X0122844Y0129758D01*
X0122844Y0130937D02*
X0122897Y0130937D01*
X0119676Y0130937D02*
X0118120Y0130937D01*
X0118120Y0129758D02*
X0119676Y0129758D01*
X0119676Y0128578D02*
X0118120Y0128578D01*
X0118120Y0127398D02*
X0119676Y0127398D01*
X0119676Y0126219D02*
X0118120Y0126219D01*
X0118120Y0125039D02*
X0119676Y0125039D01*
X0119676Y0123859D02*
X0118120Y0123859D01*
X0118120Y0122680D02*
X0119676Y0122680D01*
X0119676Y0121500D02*
X0118120Y0121500D01*
X0118120Y0120321D02*
X0119676Y0120321D01*
X0119676Y0119141D02*
X0118120Y0119141D01*
X0118120Y0117961D02*
X0119676Y0117961D01*
X0119676Y0116782D02*
X0118120Y0116782D01*
X0119521Y0115602D02*
X0119676Y0115602D01*
X0119441Y0112063D02*
X0118859Y0112063D01*
X0115787Y0112063D02*
X0112411Y0112063D01*
X0112411Y0113243D02*
X0114918Y0113243D01*
X0114745Y0114423D02*
X0112411Y0114423D01*
X0112411Y0115602D02*
X0114951Y0115602D01*
X0114951Y0116782D02*
X0112411Y0116782D01*
X0112411Y0117961D02*
X0114951Y0117961D01*
X0114951Y0119141D02*
X0112411Y0119141D01*
X0112411Y0120321D02*
X0114951Y0120321D01*
X0114951Y0121500D02*
X0112411Y0121500D01*
X0112411Y0122680D02*
X0114951Y0122680D01*
X0114951Y0123859D02*
X0112411Y0123859D01*
X0112411Y0125039D02*
X0114951Y0125039D01*
X0114951Y0126219D02*
X0112411Y0126219D01*
X0112411Y0127398D02*
X0114951Y0127398D01*
X0114951Y0128578D02*
X0112411Y0128578D01*
X0112411Y0129758D02*
X0114951Y0129758D01*
X0114951Y0130937D02*
X0112411Y0130937D01*
X0112411Y0132117D02*
X0114951Y0132117D01*
X0117371Y0134476D02*
X0119085Y0134476D01*
X0119085Y0135656D02*
X0116191Y0135656D01*
X0118120Y0133296D02*
X0119581Y0133296D01*
X0119676Y0132117D02*
X0118120Y0132117D01*
X0119085Y0136835D02*
X0095580Y0136835D01*
X0095580Y0135656D02*
X0104799Y0135656D01*
X0104715Y0134476D02*
X0095580Y0134476D01*
X0095580Y0133296D02*
X0104715Y0133296D01*
X0104715Y0132117D02*
X0095428Y0132117D01*
X0095980Y0130937D02*
X0104715Y0130937D01*
X0104715Y0129758D02*
X0095980Y0129758D01*
X0095980Y0128578D02*
X0104715Y0128578D01*
X0104715Y0127398D02*
X0095980Y0127398D01*
X0095680Y0126219D02*
X0104715Y0126219D01*
X0092864Y0126219D02*
X0092175Y0126219D01*
X0092175Y0127398D02*
X0092864Y0127398D01*
X0092864Y0128578D02*
X0092175Y0128578D01*
X0089059Y0130551D02*
X0084882Y0130551D01*
X0084882Y0130945D01*
X0089059Y0130945D01*
X0089059Y0130551D01*
X0089059Y0130937D02*
X0084882Y0130937D01*
X0084488Y0130937D02*
X0036850Y0130937D01*
X0041787Y0129758D02*
X0079551Y0129758D01*
X0079551Y0130551D02*
X0079551Y0128964D01*
X0079660Y0128559D01*
X0079869Y0128197D01*
X0080165Y0127900D01*
X0080528Y0127691D01*
X0080932Y0127583D01*
X0084488Y0127583D01*
X0084488Y0130551D01*
X0079551Y0130551D01*
X0079551Y0132117D02*
X0041787Y0132117D01*
X0041471Y0133296D02*
X0079867Y0133296D01*
X0079951Y0134476D02*
X0041387Y0134476D01*
X0041387Y0135656D02*
X0079951Y0135656D01*
X0079951Y0136835D02*
X0041447Y0136835D01*
X0041787Y0138015D02*
X0079951Y0138015D01*
X0079951Y0139194D02*
X0041787Y0139194D01*
X0041787Y0140374D02*
X0079951Y0140374D01*
X0080027Y0141554D02*
X0041691Y0141554D01*
X0041387Y0142733D02*
X0079951Y0142733D01*
X0079951Y0143913D02*
X0041387Y0143913D01*
X0041387Y0145092D02*
X0079951Y0145092D01*
X0079951Y0146272D02*
X0041387Y0146272D01*
X0041387Y0147452D02*
X0079951Y0147452D01*
X0079951Y0148631D02*
X0041387Y0148631D01*
X0041387Y0149811D02*
X0079951Y0149811D01*
X0079951Y0158068D02*
X0041779Y0158068D01*
X0041787Y0159248D02*
X0079951Y0159248D01*
X0079951Y0160427D02*
X0041787Y0160427D01*
X0041787Y0161607D02*
X0079951Y0161607D01*
X0079951Y0162787D02*
X0041387Y0162787D01*
X0041387Y0163966D02*
X0079951Y0163966D01*
X0079951Y0165146D02*
X0041387Y0165146D01*
X0041342Y0166326D02*
X0079996Y0166326D01*
X0079951Y0167505D02*
X0041387Y0167505D01*
X0041387Y0168685D02*
X0079951Y0168685D01*
X0079951Y0169864D02*
X0041387Y0169864D01*
X0041387Y0171044D02*
X0079951Y0171044D01*
X0079951Y0172224D02*
X0041387Y0172224D01*
X0041387Y0173403D02*
X0079951Y0173403D01*
X0079939Y0174583D02*
X0041387Y0174583D01*
X0041387Y0175762D02*
X0079551Y0175762D01*
X0079551Y0176942D02*
X0041387Y0176942D01*
X0041387Y0178122D02*
X0079551Y0178122D01*
X0079635Y0179301D02*
X0041359Y0179301D01*
X0041387Y0180481D02*
X0079951Y0180481D01*
X0079951Y0181661D02*
X0041387Y0181661D01*
X0041387Y0182840D02*
X0079951Y0182840D01*
X0079568Y0184020D02*
X0041387Y0184020D01*
X0041387Y0185199D02*
X0079551Y0185199D01*
X0079551Y0186379D02*
X0041387Y0186379D01*
X0041387Y0187559D02*
X0079551Y0187559D01*
X0096578Y0192277D02*
X0099984Y0192277D01*
X0099984Y0191097D02*
X0097757Y0191097D01*
X0098937Y0189918D02*
X0099996Y0189918D01*
X0099984Y0188738D02*
X0099222Y0188738D01*
X0099222Y0187559D02*
X0103100Y0187559D01*
X0103100Y0188140D02*
X0103100Y0191256D01*
X0103100Y0192569D01*
X0103789Y0192569D01*
X0103789Y0188140D01*
X0103100Y0188140D01*
X0103100Y0188738D02*
X0103789Y0188738D01*
X0103789Y0189918D02*
X0103100Y0189918D01*
X0103100Y0191097D02*
X0103789Y0191097D01*
X0103789Y0192277D02*
X0103100Y0192277D01*
X0099984Y0193457D02*
X0001591Y0193457D01*
X0001591Y0194636D02*
X0099984Y0194636D01*
X0109154Y0192913D02*
X0126772Y0192913D01*
X0127953Y0191732D01*
X0127953Y0189961D01*
X0130718Y0189918D02*
X0131093Y0189918D01*
X0131093Y0191097D02*
X0130718Y0191097D01*
X0130470Y0192277D02*
X0131341Y0192277D01*
X0132670Y0193457D02*
X0128747Y0193457D01*
X0127568Y0194636D02*
X0133850Y0194636D01*
X0131093Y0188738D02*
X0130718Y0188738D01*
X0130384Y0187559D02*
X0131427Y0187559D01*
X0131349Y0186379D02*
X0130462Y0186379D01*
X0130718Y0185199D02*
X0131093Y0185199D01*
X0131093Y0184020D02*
X0130718Y0184020D01*
X0130718Y0182840D02*
X0131093Y0182840D01*
X0131420Y0181661D02*
X0130391Y0181661D01*
X0129634Y0180481D02*
X0132274Y0180481D01*
X0136297Y0181661D02*
X0137325Y0181661D01*
X0136998Y0182840D02*
X0136624Y0182840D01*
X0126369Y0180481D02*
X0124122Y0180481D01*
X0124486Y0181661D02*
X0125514Y0181661D01*
X0125187Y0182840D02*
X0124813Y0182840D01*
X0124813Y0184020D02*
X0125187Y0184020D01*
X0125187Y0185199D02*
X0124813Y0185199D01*
X0124557Y0186379D02*
X0125443Y0186379D01*
X0125522Y0187559D02*
X0124478Y0187559D01*
X0124813Y0188738D02*
X0125187Y0188738D01*
X0125187Y0189918D02*
X0124813Y0189918D01*
X0124813Y0191097D02*
X0125187Y0191097D01*
X0122047Y0189961D02*
X0116732Y0189961D01*
X0114567Y0187795D01*
X0109154Y0187795D01*
X0111359Y0181661D02*
X0119609Y0181661D01*
X0120463Y0180481D02*
X0111359Y0180481D01*
X0111359Y0180175D02*
X0108918Y0180175D01*
X0108918Y0180175D01*
X0106418Y0180175D01*
X0106418Y0180175D01*
X0106418Y0180175D01*
X0106418Y0175784D01*
X0107478Y0175784D01*
X0107668Y0175835D01*
X0107859Y0175784D01*
X0108918Y0175784D01*
X0108918Y0180175D01*
X0108918Y0180175D01*
X0108918Y0175784D01*
X0109978Y0175784D01*
X0110382Y0175893D01*
X0110745Y0176102D01*
X0111041Y0176398D01*
X0111250Y0176761D01*
X0111359Y0177165D01*
X0111359Y0180175D01*
X0111359Y0179301D02*
X0120820Y0179301D01*
X0122000Y0178122D02*
X0111359Y0178122D01*
X0111299Y0176942D02*
X0123180Y0176942D01*
X0125301Y0179301D02*
X0126369Y0179301D01*
X0119538Y0186379D02*
X0115669Y0186379D01*
X0116849Y0187559D02*
X0119616Y0187559D01*
X0108918Y0179301D02*
X0108918Y0179301D01*
X0108918Y0178122D02*
X0108918Y0178122D01*
X0108918Y0176942D02*
X0108918Y0176942D01*
X0106418Y0176942D02*
X0106418Y0176942D01*
X0106418Y0178122D02*
X0106418Y0178122D01*
X0106418Y0179301D02*
X0106418Y0179301D01*
X0103818Y0179301D02*
X0103818Y0179301D01*
X0103818Y0178122D02*
X0103818Y0178122D01*
X0103818Y0176942D02*
X0103818Y0176942D01*
X0101318Y0176942D02*
X0101318Y0176942D01*
X0101318Y0178122D02*
X0101318Y0178122D01*
X0101318Y0179301D02*
X0101318Y0179301D01*
X0108918Y0159038D02*
X0108918Y0151909D01*
X0109252Y0151575D01*
X0109252Y0143898D01*
X0109449Y0143701D01*
X0115610Y0143701D01*
X0116732Y0142579D01*
X0118701Y0142579D02*
X0118701Y0142579D01*
X0118701Y0138331D01*
X0118701Y0142579D01*
X0118701Y0142733D02*
X0118701Y0142733D01*
X0118701Y0141554D02*
X0118701Y0141554D01*
X0118701Y0140374D02*
X0118701Y0140374D01*
X0118701Y0139194D02*
X0118701Y0139194D01*
X0119085Y0138015D02*
X0089419Y0138015D01*
X0089419Y0139194D02*
X0115106Y0139194D01*
X0114872Y0140374D02*
X0089419Y0140374D01*
X0089343Y0141554D02*
X0100278Y0141554D01*
X0100289Y0141512D02*
X0100499Y0141149D01*
X0100795Y0140853D01*
X0101158Y0140644D01*
X0101562Y0140535D01*
X0103150Y0140535D01*
X0103150Y0143504D01*
X0100181Y0143504D01*
X0100181Y0141917D01*
X0100289Y0141512D01*
X0100181Y0142733D02*
X0089419Y0142733D01*
X0089419Y0143913D02*
X0100181Y0143913D01*
X0100181Y0145092D02*
X0089419Y0145092D01*
X0089419Y0146272D02*
X0100519Y0146272D01*
X0100961Y0148631D02*
X0089419Y0148631D01*
X0089419Y0147452D02*
X0107471Y0147452D01*
X0107471Y0148631D02*
X0105732Y0148631D01*
X0103543Y0148631D02*
X0103150Y0148631D01*
X0103150Y0149811D02*
X0103543Y0149811D01*
X0103543Y0150991D02*
X0103150Y0150991D01*
X0103150Y0152170D02*
X0103543Y0152170D01*
X0103543Y0153350D02*
X0103150Y0153350D01*
X0103150Y0154529D02*
X0103543Y0154529D01*
X0105712Y0154529D02*
X0107137Y0154529D01*
X0106990Y0146272D02*
X0106174Y0146272D01*
X0103543Y0146272D02*
X0103150Y0146272D01*
X0103150Y0145092D02*
X0103543Y0145092D01*
X0103543Y0143913D02*
X0103150Y0143913D01*
X0103150Y0142733D02*
X0103543Y0142733D01*
X0103543Y0141554D02*
X0103150Y0141554D01*
X0106415Y0141554D02*
X0106566Y0141554D01*
X0109252Y0143701D02*
X0109449Y0143701D01*
X0111938Y0141554D02*
X0114872Y0141554D01*
X0118701Y0143913D02*
X0118701Y0143913D01*
X0118701Y0145092D02*
X0118701Y0145092D01*
X0118701Y0146272D02*
X0118701Y0146272D01*
X0115415Y0146272D02*
X0114986Y0146272D01*
X0100181Y0149811D02*
X0089419Y0149811D01*
X0089419Y0158068D02*
X0096384Y0158068D01*
X0092185Y0135079D02*
X0084685Y0135079D01*
X0084488Y0129758D02*
X0084882Y0129758D01*
X0084882Y0128578D02*
X0084488Y0128578D01*
X0079655Y0128578D02*
X0041684Y0128578D01*
X0075984Y0105807D02*
X0080807Y0105807D01*
X0081102Y0105512D01*
X0101672Y0107345D02*
X0104315Y0107345D01*
X0104315Y0106165D02*
X0102561Y0106165D01*
X0102236Y0108524D02*
X0104661Y0108524D01*
X0104715Y0109704D02*
X0103324Y0109704D01*
X0104463Y0110884D02*
X0104715Y0110884D01*
X0114986Y0103806D02*
X0126959Y0103806D01*
X0126959Y0104986D02*
X0116166Y0104986D01*
X0118472Y0106165D02*
X0126959Y0106165D01*
X0130128Y0106165D02*
X0136996Y0106165D01*
X0136998Y0107345D02*
X0136187Y0107345D01*
X0136998Y0110505D02*
X0136831Y0110909D01*
X0136820Y0110920D01*
X0136820Y0129808D01*
X0137121Y0130109D01*
X0144986Y0130109D01*
X0144996Y0130098D01*
X0145944Y0129706D01*
X0146969Y0129706D01*
X0147917Y0130098D01*
X0148642Y0130823D01*
X0149002Y0131691D01*
X0150181Y0132369D01*
X0150181Y0131562D01*
X0150289Y0131158D01*
X0150499Y0130795D01*
X0150581Y0130713D01*
X0150581Y0122214D01*
X0139659Y0122214D01*
X0138731Y0121286D01*
X0136998Y0119554D01*
X0136998Y0110505D01*
X0136998Y0110884D02*
X0136842Y0110884D01*
X0136820Y0112063D02*
X0136998Y0112063D01*
X0136998Y0113243D02*
X0136820Y0113243D01*
X0136820Y0114423D02*
X0136998Y0114423D01*
X0136998Y0115602D02*
X0136820Y0115602D01*
X0136820Y0116782D02*
X0136998Y0116782D01*
X0136998Y0117961D02*
X0136820Y0117961D01*
X0136820Y0119141D02*
X0136998Y0119141D01*
X0136820Y0120321D02*
X0137765Y0120321D01*
X0136820Y0121500D02*
X0138945Y0121500D01*
X0136820Y0122680D02*
X0150581Y0122680D01*
X0150581Y0123859D02*
X0136820Y0123859D01*
X0136820Y0125039D02*
X0150581Y0125039D01*
X0150581Y0126219D02*
X0136820Y0126219D01*
X0136820Y0127398D02*
X0150581Y0127398D01*
X0150581Y0128578D02*
X0136820Y0128578D01*
X0136820Y0129758D02*
X0145818Y0129758D01*
X0147095Y0129758D02*
X0150581Y0129758D01*
X0150394Y0130709D02*
X0148031Y0128346D01*
X0144094Y0128346D01*
X0143307Y0127559D01*
X0148689Y0130937D02*
X0150417Y0130937D01*
X0150394Y0130709D02*
X0150394Y0132283D01*
X0150551Y0132441D01*
X0154429Y0132441D01*
X0150307Y0132441D01*
X0150306Y0132441D01*
X0154429Y0132441D01*
X0154429Y0132441D01*
X0154429Y0134409D02*
X0150157Y0134409D01*
X0146457Y0132283D01*
X0149742Y0132117D02*
X0150181Y0132117D01*
X0154429Y0130472D02*
X0158228Y0130472D01*
X0160433Y0132677D01*
X0163395Y0132117D02*
X0164551Y0132117D01*
X0164551Y0133296D02*
X0163395Y0133296D01*
X0163395Y0134476D02*
X0164551Y0134476D01*
X0164607Y0135656D02*
X0163395Y0135656D01*
X0167618Y0135656D02*
X0168209Y0135656D01*
X0168209Y0134476D02*
X0167618Y0134476D01*
X0167618Y0133296D02*
X0168209Y0133296D01*
X0164551Y0130937D02*
X0163395Y0130937D01*
X0160531Y0126772D02*
X0160295Y0126535D01*
X0154429Y0126535D01*
X0158277Y0122680D02*
X0190535Y0122680D01*
X0190535Y0122929D02*
X0186362Y0122929D01*
X0186467Y0123595D01*
X0186691Y0124282D01*
X0187019Y0124926D01*
X0187443Y0125510D01*
X0187954Y0126021D01*
X0188539Y0126446D01*
X0189183Y0126774D01*
X0189870Y0126997D01*
X0190535Y0127103D01*
X0190535Y0122929D01*
X0190535Y0123859D02*
X0191354Y0123859D01*
X0191354Y0125039D02*
X0190535Y0125039D01*
X0190535Y0126219D02*
X0191354Y0126219D01*
X0191778Y0128329D02*
X0190111Y0128329D01*
X0188571Y0128967D01*
X0187392Y0130146D01*
X0186754Y0131686D01*
X0186754Y0133353D01*
X0187392Y0134893D01*
X0188571Y0136072D01*
X0190111Y0136710D01*
X0191778Y0136710D01*
X0193319Y0136072D01*
X0194497Y0134893D01*
X0195135Y0133353D01*
X0195135Y0131686D01*
X0194497Y0130146D01*
X0193319Y0128967D01*
X0191778Y0128329D01*
X0192379Y0128578D02*
X0195260Y0128578D01*
X0195260Y0129758D02*
X0194109Y0129758D01*
X0194825Y0130937D02*
X0195260Y0130937D01*
X0195260Y0132117D02*
X0195135Y0132117D01*
X0195135Y0133296D02*
X0195260Y0133296D01*
X0195260Y0134476D02*
X0194670Y0134476D01*
X0195260Y0135656D02*
X0193735Y0135656D01*
X0195260Y0136835D02*
X0156210Y0136835D01*
X0156210Y0138015D02*
X0190043Y0138015D01*
X0190535Y0138015D02*
X0191354Y0138015D01*
X0191847Y0138015D02*
X0195260Y0138015D01*
X0195260Y0139194D02*
X0194112Y0139194D01*
X0195004Y0140374D02*
X0195260Y0140374D01*
X0191354Y0140374D02*
X0190535Y0140374D01*
X0190535Y0139194D02*
X0191354Y0139194D01*
X0191354Y0141554D02*
X0190535Y0141554D01*
X0190535Y0142733D02*
X0163598Y0142733D01*
X0163598Y0143504D02*
X0160630Y0143504D01*
X0160630Y0140535D01*
X0162217Y0140535D01*
X0162622Y0140644D01*
X0162984Y0140853D01*
X0163281Y0141149D01*
X0163490Y0141512D01*
X0163598Y0141917D01*
X0163598Y0143504D01*
X0163598Y0143898D02*
X0163598Y0145485D01*
X0163490Y0145890D01*
X0163281Y0146252D01*
X0162984Y0146548D01*
X0162622Y0146758D01*
X0162217Y0146866D01*
X0160630Y0146866D01*
X0160630Y0143898D01*
X0163598Y0143898D01*
X0163598Y0143913D02*
X0186571Y0143913D01*
X0186467Y0143595D02*
X0186362Y0142929D01*
X0190535Y0142929D01*
X0190535Y0147103D01*
X0189870Y0146997D01*
X0189183Y0146774D01*
X0188539Y0146446D01*
X0187954Y0146021D01*
X0187443Y0145510D01*
X0187019Y0144926D01*
X0186691Y0144282D01*
X0186467Y0143595D01*
X0187140Y0145092D02*
X0163598Y0145092D01*
X0163261Y0146272D02*
X0188300Y0146272D01*
X0190535Y0146272D02*
X0191354Y0146272D01*
X0191354Y0145092D02*
X0190535Y0145092D01*
X0190535Y0143913D02*
X0191354Y0143913D01*
X0194750Y0145092D02*
X0195260Y0145092D01*
X0195260Y0146272D02*
X0193590Y0146272D01*
X0195260Y0147452D02*
X0159928Y0147452D01*
X0160236Y0146272D02*
X0160630Y0146272D01*
X0160630Y0145092D02*
X0160236Y0145092D01*
X0160236Y0143913D02*
X0160630Y0143913D01*
X0160630Y0142733D02*
X0160236Y0142733D01*
X0160236Y0141554D02*
X0160630Y0141554D01*
X0163501Y0141554D02*
X0186450Y0141554D01*
X0186886Y0140374D02*
X0156210Y0140374D01*
X0156210Y0139194D02*
X0187778Y0139194D01*
X0188154Y0135656D02*
X0171219Y0135656D01*
X0171276Y0134476D02*
X0187219Y0134476D01*
X0186754Y0133296D02*
X0171276Y0133296D01*
X0171276Y0132117D02*
X0186754Y0132117D01*
X0187065Y0130937D02*
X0171276Y0130937D01*
X0171235Y0129758D02*
X0187781Y0129758D01*
X0189511Y0128578D02*
X0170082Y0128578D01*
X0169701Y0127398D02*
X0195260Y0127398D01*
X0195260Y0126219D02*
X0193664Y0126219D01*
X0194789Y0125039D02*
X0195260Y0125039D01*
X0195260Y0120321D02*
X0194976Y0120321D01*
X0195260Y0119141D02*
X0194058Y0119141D01*
X0195260Y0117961D02*
X0191510Y0117961D01*
X0191354Y0117961D02*
X0190535Y0117961D01*
X0190380Y0117961D02*
X0158277Y0117961D01*
X0158277Y0116782D02*
X0195260Y0116782D01*
X0195260Y0115602D02*
X0193789Y0115602D01*
X0194693Y0114423D02*
X0195260Y0114423D01*
X0195260Y0113243D02*
X0195135Y0113243D01*
X0195135Y0112063D02*
X0195260Y0112063D01*
X0195260Y0110884D02*
X0194803Y0110884D01*
X0195260Y0109704D02*
X0194056Y0109704D01*
X0195260Y0108524D02*
X0192250Y0108524D01*
X0193094Y0106165D02*
X0195260Y0106165D01*
X0195260Y0104986D02*
X0194405Y0104986D01*
X0194948Y0103806D02*
X0195260Y0103806D01*
X0195260Y0102626D02*
X0195135Y0102626D01*
X0195036Y0101447D02*
X0195260Y0101447D01*
X0195260Y0100267D02*
X0194548Y0100267D01*
X0195260Y0099088D02*
X0193439Y0099088D01*
X0195260Y0097908D02*
X0168112Y0097908D01*
X0166932Y0099088D02*
X0188451Y0099088D01*
X0187342Y0100267D02*
X0183080Y0100267D01*
X0182820Y0104986D02*
X0187484Y0104986D01*
X0188796Y0106165D02*
X0175603Y0106165D01*
X0174423Y0107345D02*
X0195260Y0107345D01*
X0189640Y0108524D02*
X0173061Y0108524D01*
X0171388Y0109704D02*
X0169898Y0109704D01*
X0169770Y0110884D02*
X0171128Y0110884D01*
X0168543Y0112063D02*
X0158277Y0112063D01*
X0158277Y0113243D02*
X0167674Y0113243D01*
X0167501Y0114423D02*
X0158277Y0114423D01*
X0158277Y0115602D02*
X0167880Y0115602D01*
X0172277Y0115602D02*
X0188101Y0115602D01*
X0187832Y0119141D02*
X0158277Y0119141D01*
X0158277Y0120321D02*
X0186913Y0120321D01*
X0186459Y0121500D02*
X0158277Y0121500D01*
X0163043Y0123859D02*
X0163163Y0123859D01*
X0165896Y0123859D02*
X0166585Y0123859D01*
X0166585Y0123311D02*
X0168320Y0123311D01*
X0168724Y0123419D01*
X0169087Y0123629D01*
X0169383Y0123925D01*
X0169592Y0124288D01*
X0169701Y0124692D01*
X0169701Y0126427D01*
X0166585Y0126427D01*
X0166585Y0123311D01*
X0166585Y0125039D02*
X0165896Y0125039D01*
X0165896Y0126219D02*
X0166585Y0126219D01*
X0169701Y0126219D02*
X0188226Y0126219D01*
X0187101Y0125039D02*
X0169701Y0125039D01*
X0169317Y0123859D02*
X0186553Y0123859D01*
X0190535Y0121500D02*
X0191354Y0121500D01*
X0191354Y0120321D02*
X0190535Y0120321D01*
X0190535Y0119141D02*
X0191354Y0119141D01*
X0187834Y0109704D02*
X0182943Y0109704D01*
X0177219Y0104986D02*
X0177111Y0104986D01*
X0171250Y0103806D02*
X0163208Y0103806D01*
X0162986Y0104986D02*
X0169321Y0104986D01*
X0166929Y0106165D02*
X0166535Y0106165D01*
X0166535Y0107345D02*
X0166929Y0107345D01*
X0166929Y0109704D02*
X0166535Y0109704D01*
X0166535Y0110884D02*
X0166929Y0110884D01*
X0163695Y0110884D02*
X0163438Y0110884D01*
X0160827Y0108661D02*
X0160669Y0108819D01*
X0154429Y0108819D01*
X0154429Y0106850D02*
X0154429Y0106850D01*
X0150181Y0106850D01*
X0150181Y0105972D01*
X0150289Y0105567D01*
X0150499Y0105204D01*
X0150581Y0105122D01*
X0150581Y0103719D01*
X0151279Y0103022D01*
X0152845Y0103022D01*
X0152845Y0099245D01*
X0152868Y0099222D01*
X0150403Y0099222D01*
X0150403Y0100656D01*
X0149475Y0101584D01*
X0148688Y0102372D01*
X0145557Y0102372D01*
X0145679Y0102493D01*
X0145679Y0104238D01*
X0146280Y0104839D01*
X0146672Y0105786D01*
X0146672Y0106812D01*
X0146280Y0107759D01*
X0145555Y0108485D01*
X0144607Y0108877D01*
X0143582Y0108877D01*
X0142634Y0108485D01*
X0141909Y0107759D01*
X0141742Y0107356D01*
X0141742Y0116667D01*
X0142152Y0117077D01*
X0150581Y0117077D01*
X0150581Y0108579D01*
X0150499Y0108496D01*
X0150289Y0108134D01*
X0150181Y0107729D01*
X0150181Y0106850D01*
X0154429Y0106850D01*
X0150527Y0108524D02*
X0145459Y0108524D01*
X0146452Y0107345D02*
X0150181Y0107345D01*
X0150181Y0106165D02*
X0146672Y0106165D01*
X0146341Y0104986D02*
X0150581Y0104986D01*
X0150581Y0103806D02*
X0145679Y0103806D01*
X0145679Y0102626D02*
X0152845Y0102626D01*
X0152845Y0101447D02*
X0149613Y0101447D01*
X0150403Y0100267D02*
X0152845Y0100267D01*
X0156013Y0101447D02*
X0159905Y0101447D01*
X0161354Y0101447D02*
X0171250Y0101447D01*
X0171250Y0102626D02*
X0162877Y0102626D01*
X0165753Y0100267D02*
X0171250Y0100267D01*
X0169292Y0096728D02*
X0195260Y0096728D01*
X0195135Y0096013D02*
X0194438Y0096710D01*
X0187452Y0096710D01*
X0186754Y0096013D01*
X0186754Y0089027D01*
X0187452Y0088329D01*
X0194438Y0088329D01*
X0195135Y0089027D01*
X0195135Y0096013D01*
X0195135Y0095549D02*
X0195260Y0095549D01*
X0195260Y0094369D02*
X0195135Y0094369D01*
X0195135Y0093189D02*
X0195260Y0093189D01*
X0195260Y0092010D02*
X0195135Y0092010D01*
X0195135Y0090830D02*
X0195260Y0090830D01*
X0195260Y0089651D02*
X0195135Y0089651D01*
X0195260Y0088471D02*
X0194580Y0088471D01*
X0195260Y0087291D02*
X0181838Y0087291D01*
X0181838Y0086112D02*
X0195260Y0086112D01*
X0195260Y0084932D02*
X0181838Y0084932D01*
X0181838Y0083753D02*
X0195260Y0083753D01*
X0195260Y0082573D02*
X0181838Y0082573D01*
X0181838Y0081393D02*
X0195260Y0081393D01*
X0195260Y0080214D02*
X0181838Y0080214D01*
X0181162Y0079034D02*
X0195260Y0079034D01*
X0195260Y0077855D02*
X0194769Y0077855D01*
X0192175Y0077855D02*
X0191486Y0077855D01*
X0191486Y0076675D02*
X0192175Y0076675D01*
X0192175Y0075495D02*
X0191486Y0075495D01*
X0191486Y0074316D02*
X0192175Y0074316D01*
X0192175Y0073136D02*
X0191486Y0073136D01*
X0191486Y0071956D02*
X0192175Y0071956D01*
X0191732Y0068913D02*
X0191732Y0065945D01*
X0194701Y0065945D01*
X0194701Y0067532D01*
X0194592Y0067937D01*
X0194383Y0068299D01*
X0194087Y0068596D01*
X0193724Y0068805D01*
X0193320Y0068913D01*
X0191732Y0068913D01*
X0191732Y0068418D02*
X0191339Y0068418D01*
X0191339Y0067238D02*
X0191732Y0067238D01*
X0191732Y0066058D02*
X0191339Y0066058D01*
X0191339Y0064879D02*
X0191732Y0064879D01*
X0191732Y0063699D02*
X0191339Y0063699D01*
X0194630Y0063699D02*
X0195260Y0063699D01*
X0195260Y0062520D02*
X0181838Y0062520D01*
X0181838Y0061340D02*
X0195260Y0061340D01*
X0195260Y0060160D02*
X0176722Y0060160D01*
X0176838Y0061340D02*
X0177257Y0061340D01*
X0177257Y0062520D02*
X0176838Y0062520D01*
X0176838Y0063699D02*
X0177257Y0063699D01*
X0177257Y0064879D02*
X0176838Y0064879D01*
X0176838Y0066058D02*
X0177257Y0066058D01*
X0177257Y0067238D02*
X0176838Y0067238D01*
X0176838Y0068418D02*
X0177257Y0068418D01*
X0177257Y0069597D02*
X0176838Y0069597D01*
X0172627Y0070266D02*
X0172257Y0069896D01*
X0172257Y0061110D01*
X0172372Y0060994D01*
X0172372Y0055741D01*
X0172518Y0055595D01*
X0172518Y0050288D01*
X0173216Y0049591D01*
X0174683Y0049591D01*
X0174683Y0048299D01*
X0174501Y0048614D01*
X0174205Y0048911D01*
X0173842Y0049120D01*
X0173438Y0049228D01*
X0171654Y0049228D01*
X0171654Y0045276D01*
X0170866Y0045276D01*
X0170866Y0049228D01*
X0169082Y0049228D01*
X0168677Y0049120D01*
X0168315Y0048911D01*
X0168019Y0048614D01*
X0167836Y0048299D01*
X0167836Y0049591D01*
X0169304Y0049591D01*
X0170002Y0050288D01*
X0170002Y0055595D01*
X0171722Y0057316D01*
X0171722Y0060994D01*
X0171838Y0061110D01*
X0171838Y0069896D01*
X0171468Y0070266D01*
X0172627Y0070266D01*
X0172257Y0069597D02*
X0171838Y0069597D01*
X0171838Y0068418D02*
X0172257Y0068418D01*
X0172257Y0067238D02*
X0171838Y0067238D01*
X0171838Y0066058D02*
X0172257Y0066058D01*
X0172257Y0064879D02*
X0171838Y0064879D01*
X0171838Y0063699D02*
X0172257Y0063699D01*
X0172257Y0062520D02*
X0171838Y0062520D01*
X0171838Y0061340D02*
X0172257Y0061340D01*
X0172372Y0060160D02*
X0171722Y0060160D01*
X0171722Y0058981D02*
X0172372Y0058981D01*
X0172372Y0057801D02*
X0171722Y0057801D01*
X0172372Y0056621D02*
X0171028Y0056621D01*
X0170002Y0055442D02*
X0172518Y0055442D01*
X0172518Y0054262D02*
X0170002Y0054262D01*
X0170002Y0053083D02*
X0172518Y0053083D01*
X0172518Y0051903D02*
X0170002Y0051903D01*
X0170002Y0050723D02*
X0172518Y0050723D01*
X0174683Y0049544D02*
X0167836Y0049544D01*
X0167836Y0048364D02*
X0167874Y0048364D01*
X0170866Y0048364D02*
X0171654Y0048364D01*
X0171654Y0047185D02*
X0170866Y0047185D01*
X0170866Y0046005D02*
X0171654Y0046005D01*
X0171654Y0044488D02*
X0170866Y0044488D01*
X0170866Y0040535D01*
X0169082Y0040535D01*
X0168677Y0040644D01*
X0168315Y0040853D01*
X0168019Y0041149D01*
X0167836Y0041465D01*
X0167836Y0040167D01*
X0169981Y0040167D01*
X0170679Y0039470D01*
X0170679Y0033597D01*
X0171841Y0034759D01*
X0171841Y0039470D01*
X0172538Y0040167D01*
X0174683Y0040167D01*
X0174683Y0041465D01*
X0174501Y0041149D01*
X0174205Y0040853D01*
X0173842Y0040644D01*
X0173438Y0040535D01*
X0171654Y0040535D01*
X0171654Y0044488D01*
X0171654Y0043646D02*
X0170866Y0043646D01*
X0170866Y0042466D02*
X0171654Y0042466D01*
X0171654Y0041286D02*
X0170866Y0041286D01*
X0170041Y0040107D02*
X0172478Y0040107D01*
X0171841Y0038927D02*
X0170679Y0038927D01*
X0170679Y0037748D02*
X0171841Y0037748D01*
X0171841Y0036568D02*
X0170679Y0036568D01*
X0170679Y0035388D02*
X0171841Y0035388D01*
X0171291Y0034209D02*
X0170679Y0034209D01*
X0173903Y0030670D02*
X0195260Y0030670D01*
X0195260Y0031850D02*
X0175083Y0031850D01*
X0173041Y0029490D02*
X0195260Y0029490D01*
X0195260Y0028311D02*
X0173041Y0028311D01*
X0173041Y0027131D02*
X0195260Y0027131D01*
X0195260Y0025952D02*
X0173041Y0025952D01*
X0173041Y0024772D02*
X0195260Y0024772D01*
X0195260Y0023592D02*
X0173041Y0023592D01*
X0173041Y0022413D02*
X0195260Y0022413D01*
X0195260Y0021233D02*
X0173041Y0021233D01*
X0173041Y0020053D02*
X0195260Y0020053D01*
X0195260Y0018874D02*
X0173041Y0018874D01*
X0173041Y0017694D02*
X0195260Y0017694D01*
X0195260Y0016515D02*
X0172346Y0016515D01*
X0171166Y0015335D02*
X0195260Y0015335D01*
X0195260Y0014155D02*
X0171022Y0014155D01*
X0171022Y0012976D02*
X0195260Y0012976D01*
X0195260Y0011796D02*
X0170577Y0011796D01*
X0169750Y0010617D02*
X0195260Y0010617D01*
X0195260Y0009437D02*
X0167903Y0009437D01*
X0153977Y0017694D02*
X0149516Y0017694D01*
X0150607Y0016515D02*
X0152735Y0016515D01*
X0152159Y0015335D02*
X0151172Y0015335D01*
X0146991Y0016515D02*
X0145922Y0016515D01*
X0145922Y0017694D02*
X0146991Y0017694D01*
X0143397Y0017694D02*
X0138936Y0017694D01*
X0140178Y0016515D02*
X0142306Y0016515D01*
X0141741Y0015335D02*
X0140754Y0015335D01*
X0145922Y0012976D02*
X0146991Y0012976D01*
X0146991Y0011796D02*
X0145922Y0011796D01*
X0145922Y0010617D02*
X0146991Y0010617D01*
X0146991Y0009437D02*
X0145922Y0009437D01*
X0113790Y0017694D02*
X0108936Y0017694D01*
X0110178Y0016515D02*
X0112735Y0016515D01*
X0112159Y0015335D02*
X0110754Y0015335D01*
X0111022Y0014155D02*
X0111891Y0014155D01*
X0111891Y0012976D02*
X0111022Y0012976D01*
X0110577Y0011796D02*
X0112337Y0011796D01*
X0113163Y0010617D02*
X0109750Y0010617D01*
X0103790Y0009437D02*
X0100548Y0009437D01*
X0100325Y0009214D02*
X0101022Y0009911D01*
X0101022Y0017648D01*
X0100325Y0018345D01*
X0092589Y0018345D01*
X0091891Y0017648D01*
X0091891Y0009911D01*
X0092589Y0009214D01*
X0100325Y0009214D01*
X0101022Y0010617D02*
X0103163Y0010617D01*
X0102337Y0011796D02*
X0101022Y0011796D01*
X0101022Y0012976D02*
X0101891Y0012976D01*
X0101891Y0014155D02*
X0101022Y0014155D01*
X0101022Y0015335D02*
X0102159Y0015335D01*
X0102735Y0016515D02*
X0101022Y0016515D01*
X0100976Y0017694D02*
X0103977Y0017694D01*
X0112788Y0018874D02*
X0091643Y0018874D01*
X0091365Y0017694D02*
X0091938Y0017694D01*
X0091891Y0016515D02*
X0090365Y0016515D01*
X0089185Y0015335D02*
X0091891Y0015335D01*
X0091891Y0014155D02*
X0087214Y0014155D01*
X0086707Y0012976D02*
X0091891Y0012976D01*
X0091891Y0011796D02*
X0075502Y0011796D01*
X0075832Y0010617D02*
X0091891Y0010617D01*
X0092366Y0009437D02*
X0077012Y0009437D01*
X0078191Y0008257D02*
X0103698Y0008257D01*
X0086517Y0028928D02*
X0087214Y0029625D01*
X0087214Y0037698D01*
X0086517Y0038395D01*
X0085049Y0038395D01*
X0085049Y0038759D01*
X0085865Y0038759D01*
X0086562Y0039456D01*
X0086562Y0048243D01*
X0085865Y0048940D01*
X0082679Y0048940D01*
X0081981Y0048243D01*
X0081981Y0045828D01*
X0081562Y0045828D01*
X0081562Y0048243D01*
X0080865Y0048940D01*
X0077679Y0048940D01*
X0076981Y0048243D01*
X0076981Y0039456D01*
X0077679Y0038759D01*
X0078731Y0038759D01*
X0078731Y0038288D01*
X0078140Y0037698D01*
X0078140Y0029625D01*
X0078838Y0028928D01*
X0086517Y0028928D01*
X0087080Y0029490D02*
X0089754Y0029490D01*
X0089754Y0030670D02*
X0087214Y0030670D01*
X0087214Y0031850D02*
X0089754Y0031850D01*
X0089754Y0033029D02*
X0087214Y0033029D01*
X0087214Y0034209D02*
X0089754Y0034209D01*
X0089754Y0035388D02*
X0087214Y0035388D01*
X0087214Y0036568D02*
X0089754Y0036568D01*
X0089754Y0037748D02*
X0087164Y0037748D01*
X0086033Y0038927D02*
X0089754Y0038927D01*
X0089754Y0040107D02*
X0086562Y0040107D01*
X0086562Y0041286D02*
X0089754Y0041286D01*
X0089754Y0042466D02*
X0086562Y0042466D01*
X0086562Y0043646D02*
X0089754Y0043646D01*
X0090616Y0044825D02*
X0086562Y0044825D01*
X0086562Y0046005D02*
X0092313Y0046005D01*
X0092313Y0047185D02*
X0086562Y0047185D01*
X0086441Y0048364D02*
X0107465Y0048364D01*
X0107465Y0047185D02*
X0104537Y0047185D01*
X0104537Y0046005D02*
X0107465Y0046005D01*
X0107465Y0044825D02*
X0104537Y0044825D01*
X0104537Y0043646D02*
X0107465Y0043646D01*
X0107465Y0042466D02*
X0104537Y0042466D01*
X0101565Y0039501D02*
X0101697Y0039370D01*
X0101565Y0039239D01*
X0100581Y0038255D01*
X0100581Y0038183D01*
X0100220Y0038392D01*
X0099816Y0038500D01*
X0098425Y0038500D01*
X0097035Y0038500D01*
X0096630Y0038392D01*
X0096267Y0038182D01*
X0096185Y0038100D01*
X0093011Y0038100D01*
X0092923Y0038012D01*
X0092923Y0040728D01*
X0093011Y0040640D01*
X0096185Y0040640D01*
X0096267Y0040558D01*
X0096630Y0040349D01*
X0097035Y0040240D01*
X0098425Y0040240D01*
X0098425Y0044291D01*
X0098425Y0044291D01*
X0098425Y0040240D01*
X0099816Y0040240D01*
X0100220Y0040349D01*
X0100581Y0040557D01*
X0100581Y0040486D01*
X0101565Y0039501D01*
X0101254Y0038927D02*
X0092923Y0038927D01*
X0092923Y0040107D02*
X0100960Y0040107D01*
X0098425Y0041286D02*
X0098425Y0041286D01*
X0098425Y0042466D02*
X0098425Y0042466D01*
X0098425Y0043646D02*
X0098425Y0043646D01*
X0098425Y0044291D02*
X0098425Y0048343D01*
X0098425Y0048342D02*
X0098425Y0044291D01*
X0098425Y0044291D01*
X0098425Y0044825D02*
X0098425Y0044825D01*
X0098425Y0046005D02*
X0098425Y0046005D01*
X0098425Y0047185D02*
X0098425Y0047185D01*
X0097687Y0050723D02*
X0096998Y0050723D01*
X0096998Y0051903D02*
X0097687Y0051903D01*
X0097687Y0053083D02*
X0107037Y0053083D01*
X0107037Y0053494D02*
X0103921Y0053494D01*
X0103921Y0055229D01*
X0104030Y0055634D01*
X0104239Y0055996D01*
X0104535Y0056292D01*
X0104606Y0056333D01*
X0104436Y0056504D01*
X0104227Y0056866D01*
X0104118Y0057271D01*
X0104118Y0058858D01*
X0107087Y0058858D01*
X0107087Y0055890D01*
X0107037Y0055890D01*
X0107037Y0053494D01*
X0107037Y0054262D02*
X0107726Y0054262D01*
X0107726Y0055442D02*
X0107037Y0055442D01*
X0107087Y0056621D02*
X0107480Y0056621D01*
X0107480Y0057801D02*
X0107087Y0057801D01*
X0107087Y0058981D02*
X0101787Y0058981D01*
X0101787Y0060160D02*
X0104118Y0060160D01*
X0104282Y0061340D02*
X0101787Y0061340D01*
X0101787Y0057801D02*
X0104118Y0057801D01*
X0104368Y0056621D02*
X0101194Y0056621D01*
X0100746Y0055442D02*
X0103978Y0055442D01*
X0103921Y0054262D02*
X0100803Y0054262D01*
X0100803Y0051903D02*
X0103921Y0051903D01*
X0104014Y0050723D02*
X0100710Y0050723D01*
X0107037Y0050723D02*
X0107726Y0050723D01*
X0107726Y0051903D02*
X0107037Y0051903D01*
X0112205Y0049213D02*
X0112205Y0044969D01*
X0119193Y0050098D02*
X0119685Y0049606D01*
X0121260Y0049606D01*
X0122047Y0048819D01*
X0122047Y0044969D01*
X0123828Y0049309D02*
X0123828Y0049557D01*
X0123696Y0049689D01*
X0124557Y0049689D01*
X0124557Y0052805D01*
X0125246Y0052805D01*
X0125246Y0049689D01*
X0126981Y0049689D01*
X0127165Y0049738D01*
X0127350Y0049689D01*
X0129085Y0049689D01*
X0129085Y0052805D01*
X0129774Y0052805D01*
X0129774Y0049689D01*
X0130109Y0049689D01*
X0130109Y0049309D01*
X0127847Y0049309D01*
X0127150Y0048611D01*
X0127150Y0041742D01*
X0126787Y0041742D01*
X0126787Y0048611D01*
X0126090Y0049309D01*
X0123828Y0049309D01*
X0123828Y0049544D02*
X0130109Y0049544D01*
X0129774Y0050723D02*
X0129085Y0050723D01*
X0129085Y0051903D02*
X0129774Y0051903D01*
X0129085Y0052805D02*
X0125246Y0052805D01*
X0125246Y0053494D01*
X0128362Y0053494D01*
X0129085Y0053494D01*
X0129085Y0055890D01*
X0129134Y0055890D01*
X0129134Y0058858D01*
X0129528Y0058858D01*
X0129528Y0055890D01*
X0129774Y0055890D01*
X0129774Y0053494D01*
X0129085Y0053494D01*
X0129085Y0052805D01*
X0129085Y0053083D02*
X0125246Y0053083D01*
X0125246Y0053494D02*
X0124557Y0053494D01*
X0124557Y0055890D01*
X0124803Y0055890D01*
X0124803Y0058858D01*
X0125197Y0058858D01*
X0125197Y0055890D01*
X0125246Y0055890D01*
X0125246Y0053494D01*
X0125246Y0054262D02*
X0124557Y0054262D01*
X0124557Y0055442D02*
X0125246Y0055442D01*
X0125197Y0056621D02*
X0124803Y0056621D01*
X0124803Y0057801D02*
X0125197Y0057801D01*
X0125197Y0058858D02*
X0125197Y0059252D01*
X0126165Y0059252D01*
X0129134Y0059252D01*
X0129134Y0062220D01*
X0127546Y0062220D01*
X0127165Y0062118D01*
X0126784Y0062220D01*
X0125197Y0062220D01*
X0125197Y0059252D01*
X0124803Y0059252D01*
X0124803Y0062220D01*
X0123216Y0062220D01*
X0122811Y0062112D01*
X0122449Y0061903D01*
X0122152Y0061607D01*
X0121943Y0061244D01*
X0121860Y0060933D01*
X0121860Y0061123D01*
X0121162Y0061820D01*
X0120679Y0061820D01*
X0120679Y0064895D01*
X0121129Y0065345D01*
X0133652Y0065345D01*
X0133652Y0065289D01*
X0133652Y0061820D01*
X0133168Y0061820D01*
X0132471Y0061123D01*
X0132471Y0060933D01*
X0132388Y0061244D01*
X0132178Y0061607D01*
X0131882Y0061903D01*
X0131519Y0062112D01*
X0131115Y0062220D01*
X0129528Y0062220D01*
X0129528Y0059252D01*
X0129134Y0059252D01*
X0129134Y0058858D01*
X0125197Y0058858D01*
X0125197Y0058981D02*
X0129134Y0058981D01*
X0129134Y0060160D02*
X0129528Y0060160D01*
X0129528Y0061340D02*
X0129134Y0061340D01*
X0132332Y0061340D02*
X0132688Y0061340D01*
X0133652Y0062520D02*
X0120679Y0062520D01*
X0120679Y0063699D02*
X0133652Y0063699D01*
X0133652Y0064879D02*
X0120679Y0064879D01*
X0121643Y0061340D02*
X0121999Y0061340D01*
X0119094Y0059055D02*
X0118898Y0059055D01*
X0119193Y0058760D01*
X0119193Y0053150D01*
X0119193Y0050098D01*
X0124557Y0050723D02*
X0125246Y0050723D01*
X0125246Y0051903D02*
X0124557Y0051903D01*
X0126787Y0048364D02*
X0127150Y0048364D01*
X0127150Y0047185D02*
X0126787Y0047185D01*
X0126787Y0046005D02*
X0127150Y0046005D01*
X0127150Y0044825D02*
X0126787Y0044825D01*
X0126787Y0043646D02*
X0127150Y0043646D01*
X0127150Y0042466D02*
X0126787Y0042466D01*
X0131890Y0044969D02*
X0131890Y0049213D01*
X0132283Y0049606D01*
X0134646Y0049606D01*
X0135138Y0050098D01*
X0135138Y0053150D01*
X0135138Y0058957D01*
X0135236Y0059055D01*
X0129528Y0057801D02*
X0129134Y0057801D01*
X0129134Y0056621D02*
X0129528Y0056621D01*
X0129774Y0055442D02*
X0129085Y0055442D01*
X0129085Y0054262D02*
X0129774Y0054262D01*
X0125197Y0060160D02*
X0124803Y0060160D01*
X0124803Y0061340D02*
X0125197Y0061340D01*
X0117895Y0071956D02*
X0116750Y0071956D01*
X0116939Y0073136D02*
X0117707Y0073136D01*
X0117707Y0074316D02*
X0116939Y0074316D01*
X0116939Y0075495D02*
X0117707Y0075495D01*
X0117707Y0076675D02*
X0116939Y0076675D01*
X0116939Y0077855D02*
X0117707Y0077855D01*
X0117707Y0079034D02*
X0116939Y0079034D01*
X0116345Y0081393D02*
X0118301Y0081393D01*
X0117707Y0082573D02*
X0116939Y0082573D01*
X0116939Y0083753D02*
X0117707Y0083753D01*
X0117707Y0084932D02*
X0116939Y0084932D01*
X0116939Y0086112D02*
X0117707Y0086112D01*
X0117707Y0087291D02*
X0116939Y0087291D01*
X0116939Y0088471D02*
X0117707Y0088471D01*
X0118085Y0089651D02*
X0116561Y0089651D01*
X0130128Y0101447D02*
X0133643Y0101447D01*
X0133866Y0102626D02*
X0130128Y0102626D01*
X0130128Y0103806D02*
X0134636Y0103806D01*
X0135816Y0104986D02*
X0130128Y0104986D01*
X0130128Y0107345D02*
X0133104Y0107345D01*
X0132238Y0108524D02*
X0130128Y0108524D01*
X0130128Y0109704D02*
X0132068Y0109704D01*
X0132450Y0110884D02*
X0130128Y0110884D01*
X0130128Y0112063D02*
X0132471Y0112063D01*
X0132471Y0113243D02*
X0130128Y0113243D01*
X0130128Y0114423D02*
X0132471Y0114423D01*
X0132471Y0115602D02*
X0130128Y0115602D01*
X0130128Y0116782D02*
X0132471Y0116782D01*
X0132471Y0117961D02*
X0130128Y0117961D01*
X0130128Y0119141D02*
X0132471Y0119141D01*
X0132471Y0120321D02*
X0130128Y0120321D01*
X0131371Y0121500D02*
X0132471Y0121500D01*
X0132471Y0122680D02*
X0131712Y0122680D01*
X0131500Y0123859D02*
X0132471Y0123859D01*
X0132471Y0125039D02*
X0130548Y0125039D01*
X0141857Y0116782D02*
X0150581Y0116782D01*
X0150581Y0115602D02*
X0141742Y0115602D01*
X0141742Y0114423D02*
X0150581Y0114423D01*
X0150581Y0113243D02*
X0141742Y0113243D01*
X0141742Y0112063D02*
X0150581Y0112063D01*
X0150581Y0110884D02*
X0141742Y0110884D01*
X0141742Y0109704D02*
X0150581Y0109704D01*
X0142730Y0108524D02*
X0141742Y0108524D01*
X0140354Y0096713D02*
X0140354Y0093504D01*
X0141732Y0092126D01*
X0149606Y0092126D01*
X0152559Y0089173D01*
X0152559Y0080709D01*
X0149794Y0080214D02*
X0140954Y0080214D01*
X0140954Y0081393D02*
X0149794Y0081393D01*
X0149794Y0082573D02*
X0140954Y0082573D01*
X0140954Y0083753D02*
X0150778Y0083753D01*
X0150778Y0084932D02*
X0140954Y0084932D01*
X0140954Y0086112D02*
X0150778Y0086112D01*
X0150778Y0087291D02*
X0140954Y0087291D01*
X0140954Y0088471D02*
X0150742Y0088471D01*
X0149563Y0089651D02*
X0140936Y0089651D01*
X0140509Y0090830D02*
X0139757Y0090830D01*
X0139330Y0092010D02*
X0138577Y0092010D01*
X0138386Y0092465D02*
X0138386Y0096712D01*
X0138386Y0096712D01*
X0138386Y0092465D01*
X0138386Y0093189D02*
X0138386Y0093189D01*
X0138386Y0094369D02*
X0138386Y0094369D01*
X0138386Y0095549D02*
X0138386Y0095549D01*
X0148120Y0094479D02*
X0162336Y0094479D01*
X0162963Y0093852D01*
X0162963Y0089194D01*
X0162954Y0089194D01*
X0162257Y0088496D01*
X0162257Y0079710D01*
X0162954Y0079013D01*
X0166140Y0079013D01*
X0166838Y0079710D01*
X0166838Y0088496D01*
X0166140Y0089194D01*
X0166131Y0089194D01*
X0166131Y0093045D01*
X0167963Y0091214D01*
X0167963Y0089194D01*
X0167954Y0089194D01*
X0167257Y0088496D01*
X0167257Y0079710D01*
X0167954Y0079013D01*
X0171140Y0079013D01*
X0171838Y0079710D01*
X0171838Y0088496D01*
X0171140Y0089194D01*
X0171131Y0089194D01*
X0171131Y0090286D01*
X0172828Y0090286D01*
X0172963Y0090151D01*
X0172963Y0089194D01*
X0172954Y0089194D01*
X0172257Y0088496D01*
X0172257Y0079710D01*
X0172954Y0079013D01*
X0172963Y0079013D01*
X0172963Y0075190D01*
X0173537Y0074616D01*
X0164463Y0074616D01*
X0164452Y0074626D01*
X0163505Y0075019D01*
X0162479Y0075019D01*
X0161532Y0074626D01*
X0161512Y0074606D01*
X0158661Y0074606D01*
X0158661Y0075000D01*
X0158268Y0075000D01*
X0158268Y0077543D01*
X0158268Y0080512D01*
X0158661Y0080512D01*
X0158661Y0075000D01*
X0161630Y0075000D01*
X0161630Y0076587D01*
X0161522Y0076992D01*
X0161312Y0077355D01*
X0161016Y0077651D01*
X0160834Y0077756D01*
X0161016Y0077861D01*
X0161312Y0078157D01*
X0161522Y0078520D01*
X0161630Y0078924D01*
X0161630Y0080512D01*
X0158661Y0080512D01*
X0158661Y0080906D01*
X0158268Y0080906D01*
X0158268Y0083874D01*
X0156680Y0083874D01*
X0156276Y0083766D01*
X0155913Y0083556D01*
X0155617Y0083260D01*
X0155408Y0082897D01*
X0155324Y0082587D01*
X0155324Y0082777D01*
X0154627Y0083474D01*
X0154340Y0083474D01*
X0154340Y0089911D01*
X0153297Y0090954D01*
X0150344Y0093907D01*
X0148120Y0093907D01*
X0148120Y0094479D01*
X0148120Y0094369D02*
X0162446Y0094369D01*
X0162963Y0093189D02*
X0151062Y0093189D01*
X0152241Y0092010D02*
X0162963Y0092010D01*
X0162963Y0090830D02*
X0153421Y0090830D01*
X0154340Y0089651D02*
X0162963Y0089651D01*
X0162257Y0088471D02*
X0154340Y0088471D01*
X0154340Y0087291D02*
X0162257Y0087291D01*
X0162257Y0086112D02*
X0154340Y0086112D01*
X0154340Y0084932D02*
X0162257Y0084932D01*
X0162257Y0083753D02*
X0160676Y0083753D01*
X0160653Y0083766D02*
X0160249Y0083874D01*
X0158661Y0083874D01*
X0158661Y0080906D01*
X0161630Y0080906D01*
X0161630Y0082493D01*
X0161522Y0082897D01*
X0161312Y0083260D01*
X0161016Y0083556D01*
X0160653Y0083766D01*
X0161608Y0082573D02*
X0162257Y0082573D01*
X0162257Y0081393D02*
X0161630Y0081393D01*
X0161630Y0080214D02*
X0162257Y0080214D01*
X0161630Y0079034D02*
X0162933Y0079034D01*
X0161005Y0077855D02*
X0172963Y0077855D01*
X0172933Y0079034D02*
X0171162Y0079034D01*
X0171838Y0080214D02*
X0172257Y0080214D01*
X0172257Y0081393D02*
X0171838Y0081393D01*
X0171838Y0082573D02*
X0172257Y0082573D01*
X0172257Y0083753D02*
X0171838Y0083753D01*
X0171838Y0084932D02*
X0172257Y0084932D01*
X0172257Y0086112D02*
X0171838Y0086112D01*
X0171838Y0087291D02*
X0172257Y0087291D01*
X0172257Y0088471D02*
X0171838Y0088471D01*
X0171131Y0089651D02*
X0172963Y0089651D01*
X0176131Y0089651D02*
X0177963Y0089651D01*
X0177795Y0090830D02*
X0176131Y0090830D01*
X0176616Y0092010D02*
X0175585Y0092010D01*
X0178737Y0094369D02*
X0186754Y0094369D01*
X0186754Y0093189D02*
X0179917Y0093189D01*
X0181097Y0092010D02*
X0186754Y0092010D01*
X0186754Y0090830D02*
X0181131Y0090830D01*
X0181131Y0089651D02*
X0186754Y0089651D01*
X0187310Y0088471D02*
X0181838Y0088471D01*
X0177257Y0088471D02*
X0176838Y0088471D01*
X0176838Y0087291D02*
X0177257Y0087291D01*
X0177257Y0086112D02*
X0176838Y0086112D01*
X0176838Y0084932D02*
X0177257Y0084932D01*
X0177257Y0083753D02*
X0176838Y0083753D01*
X0176838Y0082573D02*
X0177257Y0082573D01*
X0177257Y0081393D02*
X0176838Y0081393D01*
X0176838Y0080214D02*
X0177257Y0080214D01*
X0177933Y0079034D02*
X0176162Y0079034D01*
X0176131Y0077855D02*
X0183750Y0077855D01*
X0183061Y0076675D02*
X0176131Y0076675D01*
X0172963Y0076675D02*
X0161606Y0076675D01*
X0161630Y0075495D02*
X0172963Y0075495D01*
X0167933Y0079034D02*
X0166162Y0079034D01*
X0166838Y0080214D02*
X0167257Y0080214D01*
X0167257Y0081393D02*
X0166838Y0081393D01*
X0166838Y0082573D02*
X0167257Y0082573D01*
X0167257Y0083753D02*
X0166838Y0083753D01*
X0166838Y0084932D02*
X0167257Y0084932D01*
X0167257Y0086112D02*
X0166838Y0086112D01*
X0166838Y0087291D02*
X0167257Y0087291D01*
X0167257Y0088471D02*
X0166838Y0088471D01*
X0166131Y0089651D02*
X0167963Y0089651D01*
X0167963Y0090830D02*
X0166131Y0090830D01*
X0166131Y0092010D02*
X0167167Y0092010D01*
X0170471Y0095549D02*
X0186754Y0095549D01*
X0188495Y0077855D02*
X0188893Y0077855D01*
X0186630Y0070777D02*
X0195260Y0070777D01*
X0195260Y0069597D02*
X0187805Y0069597D01*
X0187805Y0068418D02*
X0188806Y0068418D01*
X0194265Y0068418D02*
X0195260Y0068418D01*
X0195260Y0067238D02*
X0194701Y0067238D01*
X0194701Y0066058D02*
X0195260Y0066058D01*
X0195260Y0064879D02*
X0194701Y0064879D01*
X0195260Y0058981D02*
X0180591Y0058981D01*
X0181198Y0057801D02*
X0195260Y0057801D01*
X0195260Y0056621D02*
X0181198Y0056621D01*
X0181198Y0055442D02*
X0195260Y0055442D01*
X0195260Y0054262D02*
X0181198Y0054262D01*
X0181198Y0053083D02*
X0195260Y0053083D01*
X0195260Y0051903D02*
X0181198Y0051903D01*
X0181198Y0050723D02*
X0195260Y0050723D01*
X0195260Y0049544D02*
X0179033Y0049544D01*
X0179033Y0048364D02*
X0195260Y0048364D01*
X0195260Y0047185D02*
X0179033Y0047185D01*
X0179033Y0046005D02*
X0195260Y0046005D01*
X0195260Y0044825D02*
X0179033Y0044825D01*
X0179033Y0043646D02*
X0195260Y0043646D01*
X0195260Y0042466D02*
X0179033Y0042466D01*
X0179033Y0041286D02*
X0195260Y0041286D01*
X0195260Y0040107D02*
X0179033Y0040107D01*
X0179033Y0038927D02*
X0195260Y0038927D01*
X0195260Y0037748D02*
X0179033Y0037748D01*
X0178423Y0036568D02*
X0195260Y0036568D01*
X0195260Y0035388D02*
X0178159Y0035388D01*
X0178159Y0034209D02*
X0195260Y0034209D01*
X0195260Y0033029D02*
X0178159Y0033029D01*
X0174683Y0041286D02*
X0174580Y0041286D01*
X0167939Y0041286D02*
X0167836Y0041286D01*
X0163487Y0046005D02*
X0146472Y0046005D01*
X0146472Y0047185D02*
X0163487Y0047185D01*
X0163487Y0048364D02*
X0146472Y0048364D01*
X0144596Y0049544D02*
X0163487Y0049544D01*
X0161321Y0050723D02*
X0151891Y0050723D01*
X0151984Y0051903D02*
X0161321Y0051903D01*
X0161321Y0053083D02*
X0148868Y0053083D01*
X0148868Y0054262D02*
X0148179Y0054262D01*
X0148179Y0055442D02*
X0148868Y0055442D01*
X0148819Y0056621D02*
X0148425Y0056621D01*
X0148425Y0057801D02*
X0148819Y0057801D01*
X0151538Y0056621D02*
X0161321Y0056621D01*
X0161321Y0055442D02*
X0151927Y0055442D01*
X0151984Y0054262D02*
X0161321Y0054262D01*
X0161321Y0057801D02*
X0151787Y0057801D01*
X0148868Y0051903D02*
X0148179Y0051903D01*
X0148179Y0050723D02*
X0148868Y0050723D01*
X0155242Y0066058D02*
X0155782Y0066058D01*
X0164547Y0064879D02*
X0164547Y0064879D01*
X0164547Y0063699D02*
X0164547Y0063699D01*
X0164547Y0062520D02*
X0164547Y0062520D01*
X0164547Y0061340D02*
X0164547Y0061340D01*
X0164547Y0060160D02*
X0164547Y0060160D01*
X0166329Y0060160D02*
X0167372Y0060160D01*
X0167257Y0061340D02*
X0167223Y0061340D01*
X0167238Y0062520D02*
X0167257Y0062520D01*
X0167238Y0063699D02*
X0167257Y0063699D01*
X0167238Y0064879D02*
X0167257Y0064879D01*
X0167238Y0066058D02*
X0167257Y0066058D01*
X0167238Y0067238D02*
X0167257Y0067238D01*
X0167238Y0068418D02*
X0167257Y0068418D01*
X0167238Y0069597D02*
X0167257Y0069597D01*
X0158661Y0075495D02*
X0158268Y0075495D01*
X0158268Y0076675D02*
X0158661Y0076675D01*
X0158661Y0077855D02*
X0158268Y0077855D01*
X0158268Y0079034D02*
X0158661Y0079034D01*
X0158661Y0080214D02*
X0158268Y0080214D01*
X0158268Y0081393D02*
X0158661Y0081393D01*
X0158661Y0082573D02*
X0158268Y0082573D01*
X0158268Y0083753D02*
X0158661Y0083753D01*
X0156253Y0083753D02*
X0154340Y0083753D01*
X0149794Y0079034D02*
X0140954Y0079034D01*
X0140954Y0077855D02*
X0150581Y0077855D01*
X0156013Y0102626D02*
X0158382Y0102626D01*
X0163164Y0106165D02*
X0163853Y0106165D01*
X0154429Y0134409D02*
X0154429Y0143602D01*
X0154528Y0143701D01*
X0157214Y0141554D02*
X0157365Y0141554D01*
X0172457Y0153350D02*
X0179456Y0153350D01*
X0183474Y0154529D02*
X0187242Y0154529D01*
X0188208Y0155709D02*
X0183474Y0155709D01*
X0183474Y0156889D02*
X0195260Y0156889D01*
X0195260Y0158068D02*
X0183474Y0158068D01*
X0183474Y0159248D02*
X0186754Y0159248D01*
X0186754Y0160427D02*
X0183928Y0160427D01*
X0193682Y0155709D02*
X0195260Y0155709D01*
X0195260Y0154529D02*
X0194648Y0154529D01*
X0195135Y0153350D02*
X0195260Y0153350D01*
X0195260Y0152170D02*
X0195135Y0152170D01*
X0195260Y0150991D02*
X0194847Y0150991D01*
X0195260Y0149811D02*
X0194162Y0149811D01*
X0195260Y0148631D02*
X0192508Y0148631D01*
X0189382Y0148631D02*
X0181580Y0148631D01*
X0182760Y0149811D02*
X0187727Y0149811D01*
X0195135Y0159248D02*
X0195260Y0159248D01*
X0195260Y0160427D02*
X0195135Y0160427D01*
X0195135Y0161607D02*
X0195260Y0161607D01*
X0195260Y0162787D02*
X0195135Y0162787D01*
X0195135Y0163966D02*
X0195260Y0163966D01*
X0195260Y0165146D02*
X0195135Y0165146D01*
X0195260Y0166326D02*
X0194823Y0166326D01*
X0170660Y0175206D02*
X0166928Y0175206D01*
X0166231Y0174509D01*
X0166231Y0173730D01*
X0165302Y0173730D01*
X0165302Y0181016D01*
X0164635Y0181683D01*
X0168554Y0181683D01*
X0170660Y0179577D01*
X0170660Y0175206D01*
X0170660Y0175762D02*
X0165302Y0175762D01*
X0165302Y0174583D02*
X0166305Y0174583D01*
X0163012Y0176623D02*
X0163012Y0177146D01*
X0162992Y0177165D01*
X0165302Y0176942D02*
X0170660Y0176942D01*
X0170660Y0178122D02*
X0165302Y0178122D01*
X0165302Y0179301D02*
X0170660Y0179301D01*
X0169756Y0180481D02*
X0165302Y0180481D01*
X0164658Y0181661D02*
X0168577Y0181661D01*
X0151366Y0181661D02*
X0150223Y0181661D01*
X0150702Y0180481D02*
X0150721Y0180481D01*
X0150702Y0179301D02*
X0150721Y0179301D01*
X0150702Y0178122D02*
X0150721Y0178122D01*
X0150702Y0176942D02*
X0150721Y0176942D01*
X0092520Y0134744D02*
X0092185Y0135079D01*
X0080330Y0084932D02*
X0078868Y0084932D01*
X0078868Y0083753D02*
X0079150Y0083753D01*
X0101589Y0069597D02*
X0103753Y0069597D01*
X0102573Y0070777D02*
X0102427Y0070777D01*
X0107087Y0061340D02*
X0107480Y0061340D01*
X0107480Y0060160D02*
X0107087Y0060160D01*
X0091634Y0056398D02*
X0091634Y0053150D01*
X0087589Y0061340D02*
X0086562Y0061340D01*
X0082103Y0048364D02*
X0081441Y0048364D01*
X0081562Y0047185D02*
X0081981Y0047185D01*
X0081981Y0046005D02*
X0081562Y0046005D01*
X0076981Y0046005D02*
X0076562Y0046005D01*
X0076562Y0047185D02*
X0076981Y0047185D01*
X0077103Y0048364D02*
X0076441Y0048364D01*
X0076562Y0044825D02*
X0076981Y0044825D01*
X0076981Y0043646D02*
X0076562Y0043646D01*
X0076562Y0042466D02*
X0076981Y0042466D01*
X0076981Y0041286D02*
X0076562Y0041286D01*
X0076562Y0040107D02*
X0076981Y0040107D01*
X0077510Y0038927D02*
X0076033Y0038927D01*
X0077322Y0037748D02*
X0078190Y0037748D01*
X0078140Y0036568D02*
X0077372Y0036568D01*
X0077372Y0035388D02*
X0078140Y0035388D01*
X0078140Y0034209D02*
X0077372Y0034209D01*
X0077372Y0033029D02*
X0078140Y0033029D01*
X0078140Y0031850D02*
X0077372Y0031850D01*
X0077372Y0030670D02*
X0078140Y0030670D01*
X0078275Y0029490D02*
X0077237Y0029490D01*
X0077372Y0021233D02*
X0078140Y0021233D01*
X0078140Y0020053D02*
X0077372Y0020053D01*
X0077372Y0018874D02*
X0078140Y0018874D01*
X0078140Y0017694D02*
X0077372Y0017694D01*
X0077372Y0016515D02*
X0078140Y0016515D01*
X0078140Y0015335D02*
X0077372Y0015335D01*
X0077372Y0014155D02*
X0078140Y0014155D01*
X0078648Y0012976D02*
X0076864Y0012976D01*
X0096072Y0029931D02*
X0096072Y0030798D01*
X0096185Y0030798D01*
X0096267Y0030715D01*
X0096630Y0030506D01*
X0097035Y0030398D01*
X0098425Y0030398D01*
X0098425Y0034449D01*
X0098425Y0038500D01*
X0098425Y0034449D01*
X0098425Y0034449D01*
X0098425Y0034449D01*
X0098425Y0030398D01*
X0099816Y0030398D01*
X0100220Y0030506D01*
X0100583Y0030715D01*
X0100665Y0030798D01*
X0103840Y0030798D01*
X0104537Y0031495D01*
X0104537Y0036998D01*
X0107465Y0036998D01*
X0107465Y0030654D01*
X0106812Y0030924D01*
X0105786Y0030924D01*
X0104839Y0030532D01*
X0104238Y0029931D01*
X0096072Y0029931D01*
X0096072Y0030670D02*
X0096346Y0030670D01*
X0098425Y0030670D02*
X0098425Y0030670D01*
X0098425Y0031850D02*
X0098425Y0031850D01*
X0098425Y0033029D02*
X0098425Y0033029D01*
X0098425Y0034209D02*
X0098425Y0034209D01*
X0098425Y0035388D02*
X0098425Y0035388D01*
X0098425Y0036568D02*
X0098425Y0036568D01*
X0098425Y0037748D02*
X0098425Y0037748D01*
X0104537Y0036568D02*
X0107465Y0036568D01*
X0107465Y0035388D02*
X0104537Y0035388D01*
X0104537Y0034209D02*
X0107465Y0034209D01*
X0107465Y0033029D02*
X0104537Y0033029D01*
X0104537Y0031850D02*
X0107465Y0031850D01*
X0107426Y0030670D02*
X0107465Y0030670D01*
X0105172Y0030670D02*
X0100504Y0030670D01*
X0071981Y0046005D02*
X0071562Y0046005D01*
X0071562Y0047185D02*
X0071981Y0047185D01*
X0072103Y0048364D02*
X0071441Y0048364D01*
X0051031Y0012976D02*
X0040961Y0012976D01*
X0040961Y0011796D02*
X0052133Y0011796D01*
X0174646Y0048364D02*
X0174683Y0048364D01*
X0188395Y0063699D02*
X0188441Y0063699D01*
X0030194Y0192277D02*
X0001591Y0192277D01*
X0001591Y0191097D02*
X0029014Y0191097D01*
X0028337Y0189918D02*
X0001591Y0189918D01*
X0001591Y0188738D02*
X0028337Y0188738D01*
X0028337Y0187559D02*
X0001591Y0187559D01*
X0001591Y0186379D02*
X0028337Y0186379D01*
X0028337Y0185199D02*
X0001591Y0185199D01*
X0001591Y0184020D02*
X0028337Y0184020D01*
X0028337Y0182840D02*
X0001591Y0182840D01*
X0001591Y0181661D02*
X0028337Y0181661D01*
X0028337Y0180481D02*
X0001591Y0180481D01*
X0001591Y0179301D02*
X0028337Y0179301D01*
X0028337Y0178122D02*
X0001591Y0178122D01*
D46*
X0029134Y0159843D03*
X0029921Y0139370D03*
X0029921Y0129921D03*
X0025984Y0129921D03*
X0022047Y0129921D03*
X0003937Y0125197D03*
X0003937Y0144882D03*
X0037795Y0101575D03*
X0054331Y0111811D03*
X0054331Y0114961D03*
X0062205Y0114961D03*
X0062205Y0111811D03*
X0081102Y0105512D03*
X0098425Y0096850D03*
X0113386Y0098425D03*
X0116535Y0107874D03*
X0114173Y0111024D03*
X0117323Y0114173D03*
X0121260Y0110236D03*
X0134646Y0109449D03*
X0140157Y0103150D03*
X0144094Y0106299D03*
X0148819Y0104724D03*
X0136220Y0101575D03*
X0144882Y0088189D03*
X0156693Y0092126D03*
X0166929Y0090551D03*
X0168504Y0077165D03*
X0162992Y0072441D03*
X0158268Y0063780D03*
X0145669Y0069291D03*
X0128346Y0073228D03*
X0126772Y0063780D03*
X0105512Y0066142D03*
X0100000Y0071654D03*
X0093701Y0076378D03*
X0082677Y0081102D03*
X0065354Y0066142D03*
X0066929Y0055906D03*
X0050394Y0068504D03*
X0048031Y0082677D03*
X0043307Y0084252D03*
X0025197Y0062992D03*
X0017323Y0064567D03*
X0013386Y0076378D03*
X0009449Y0076378D03*
X0003937Y0062205D03*
X0014961Y0051969D03*
X0003937Y0046457D03*
X0088976Y0048031D03*
X0098425Y0039370D03*
X0106299Y0028346D03*
X0102362Y0055118D03*
X0149606Y0047244D03*
X0170866Y0050394D03*
X0191339Y0060630D03*
X0191339Y0079528D03*
X0183465Y0088976D03*
X0183465Y0096850D03*
X0170866Y0107087D03*
X0166929Y0103937D03*
X0160630Y0103937D03*
X0170079Y0114173D03*
X0170866Y0119685D03*
X0170866Y0126772D03*
X0172441Y0131496D03*
X0172441Y0134646D03*
X0165354Y0143307D03*
X0175591Y0162205D03*
X0167717Y0177953D03*
X0148031Y0169291D03*
X0143307Y0180315D03*
X0130709Y0193701D03*
X0113386Y0181102D03*
X0099213Y0192126D03*
X0096850Y0183465D03*
X0096063Y0179528D03*
X0092126Y0175591D03*
X0096063Y0167717D03*
X0098425Y0151181D03*
X0098425Y0144094D03*
X0112598Y0147244D03*
X0122047Y0148819D03*
X0137795Y0151181D03*
X0122047Y0167717D03*
X0124409Y0133071D03*
X0127559Y0127559D03*
X0129134Y0122835D03*
X0143307Y0127559D03*
X0146457Y0132283D03*
X0160630Y0118110D03*
X0088189Y0124409D03*
D47*
X0043307Y0084252D02*
X0038583Y0084252D01*
X0037008Y0082677D01*
X0037008Y0078346D01*
X0035433Y0084252D02*
X0029134Y0084252D01*
X0029134Y0079528D01*
X0029134Y0084252D02*
X0025984Y0084252D01*
X0023819Y0086417D01*
X0023819Y0098425D01*
X0089764Y0022047D02*
X0088976Y0021260D01*
X0088976Y0018898D01*
X0087598Y0017520D01*
X0082677Y0017520D01*
X0089764Y0022047D02*
X0092126Y0022047D01*
X0113386Y0022047D01*
X0116457Y0018976D01*
X0116457Y0013780D01*
X0106457Y0013780D02*
X0106457Y0007244D01*
X0104724Y0005512D01*
X0077165Y0005512D01*
X0072835Y0009843D01*
X0072835Y0017520D01*
X0096063Y0179528D02*
X0095472Y0180118D01*
X0092520Y0180118D01*
X0091102Y0181535D01*
X0084685Y0181535D01*
D48*
X0009843Y0061024D02*
X0009843Y0057087D01*
X0009843Y0049213D01*
X0011811Y0047244D01*
X0024409Y0047244D01*
X0025197Y0046457D01*
X0026181Y0045472D01*
X0026181Y0039370D01*
X0037709Y0039370D01*
X0038583Y0039370D01*
X0048819Y0039370D02*
X0048819Y0029921D01*
X0055433Y0023307D01*
X0055433Y0015748D01*
X0072835Y0033661D02*
X0072835Y0035039D01*
X0071654Y0036220D01*
X0071654Y0042520D01*
X0081890Y0042520D02*
X0081890Y0034646D01*
X0082677Y0033858D01*
X0082677Y0033661D01*
X0048906Y0039370D02*
X0048819Y0039370D01*
D49*
X0009843Y0061024D02*
X0008661Y0062205D01*
D50*
X0065354Y0037008D03*
D51*
X0071654Y0042520D02*
X0071654Y0043850D01*
X0081890Y0043850D02*
X0081890Y0042520D01*
X0091339Y0043307D02*
X0091339Y0022835D01*
X0092126Y0022047D01*
X0095276Y0028346D02*
X0106299Y0028346D01*
X0102165Y0034449D02*
X0102165Y0037598D01*
X0103150Y0038583D01*
X0131496Y0038583D01*
X0131890Y0038189D01*
X0131890Y0033772D01*
X0141732Y0033772D02*
X0141732Y0039370D01*
X0140945Y0040157D01*
X0103150Y0040157D01*
X0102165Y0041142D01*
X0102165Y0044291D01*
X0094685Y0044291D02*
X0092323Y0044291D01*
X0091339Y0043307D01*
X0094685Y0034449D02*
X0094488Y0034252D01*
X0094488Y0029134D01*
X0095276Y0028346D01*
X0113189Y0059055D02*
X0113189Y0066732D01*
X0114961Y0068504D01*
X0133071Y0068504D01*
X0134646Y0070079D01*
X0134646Y0086614D01*
X0130512Y0090748D01*
X0130512Y0096713D01*
X0132480Y0096713D02*
X0132480Y0091142D01*
X0136220Y0087402D01*
X0136220Y0069291D01*
X0133858Y0066929D01*
X0120472Y0066929D01*
X0119094Y0065551D01*
X0119094Y0059055D01*
X0132283Y0070079D02*
X0133071Y0070866D01*
X0133071Y0085827D01*
X0128543Y0090354D01*
X0128543Y0096713D01*
X0128543Y0122244D01*
X0129134Y0122835D01*
X0138583Y0118898D02*
X0140315Y0120630D01*
X0154429Y0120630D01*
X0154429Y0118661D02*
X0141496Y0118661D01*
X0140157Y0117323D01*
X0140157Y0103150D01*
X0142323Y0101378D02*
X0144094Y0103150D01*
X0144094Y0106299D01*
X0142323Y0101378D02*
X0142323Y0096713D01*
X0144291Y0096713D02*
X0144291Y0100197D01*
X0144882Y0100787D01*
X0148031Y0100787D01*
X0148819Y0100000D01*
X0148819Y0098425D01*
X0149606Y0097638D01*
X0163780Y0097638D01*
X0169547Y0091870D01*
X0173484Y0091870D01*
X0174547Y0090807D01*
X0174547Y0084103D01*
X0174547Y0075846D01*
X0175591Y0074803D01*
X0186122Y0074803D01*
X0179547Y0084103D02*
X0179547Y0091319D01*
X0177165Y0093701D01*
X0170079Y0093701D01*
X0164567Y0099213D01*
X0155118Y0099213D01*
X0154429Y0099902D01*
X0154429Y0104882D01*
X0146260Y0096713D02*
X0146909Y0096063D01*
X0162992Y0096063D01*
X0164547Y0094508D01*
X0164547Y0084103D01*
X0169547Y0084103D02*
X0169547Y0091870D01*
X0174311Y0102362D02*
X0174311Y0105217D01*
X0173228Y0106299D01*
X0171654Y0106299D01*
X0170866Y0107087D01*
X0172047Y0112205D02*
X0174311Y0112205D01*
X0172047Y0112205D02*
X0170079Y0114173D01*
X0148031Y0135433D02*
X0150394Y0137795D01*
X0150394Y0145669D01*
X0151181Y0146457D01*
X0156693Y0146457D01*
X0159843Y0149606D01*
X0180315Y0149606D01*
X0183228Y0152520D01*
X0190945Y0152520D01*
X0181890Y0153543D02*
X0181890Y0160630D01*
X0183780Y0162520D01*
X0190945Y0162520D01*
X0181890Y0153543D02*
X0179528Y0151181D01*
X0158268Y0151181D01*
X0155118Y0148031D01*
X0150394Y0148031D01*
X0148819Y0146457D01*
X0148819Y0138583D01*
X0147244Y0137008D01*
X0125984Y0137008D01*
X0124606Y0138386D01*
X0124606Y0142579D01*
X0122638Y0142579D02*
X0122638Y0137992D01*
X0125197Y0135433D01*
X0148031Y0135433D01*
X0146260Y0142579D02*
X0146260Y0147835D01*
X0148031Y0149606D01*
X0154106Y0149606D01*
X0155500Y0151000D01*
X0155500Y0163374D01*
X0156693Y0164567D01*
X0162205Y0164567D01*
X0162992Y0165354D01*
X0162992Y0172441D01*
X0163287Y0172146D01*
X0169291Y0172146D01*
X0162992Y0172441D02*
X0162992Y0177165D01*
X0158012Y0176623D02*
X0158012Y0168248D01*
X0156693Y0166929D01*
X0151969Y0166929D01*
X0150394Y0165354D01*
X0150394Y0153543D01*
X0149606Y0152756D01*
X0146457Y0152756D01*
X0142323Y0148622D01*
X0142323Y0142579D01*
X0144291Y0142579D02*
X0144291Y0148228D01*
X0147244Y0151181D01*
X0151969Y0151181D01*
X0153012Y0152224D01*
X0153012Y0158023D01*
X0148012Y0158023D02*
X0146999Y0158023D01*
X0145669Y0156693D01*
X0145669Y0154331D01*
X0140354Y0149016D01*
X0140354Y0142579D01*
X0134449Y0142579D02*
X0134449Y0178150D01*
X0133858Y0178740D01*
X0133858Y0184055D01*
X0127953Y0184055D02*
X0127953Y0179921D01*
X0129134Y0178740D01*
X0130709Y0178740D01*
X0132480Y0176969D01*
X0132480Y0142579D01*
X0130512Y0142579D02*
X0130512Y0176575D01*
X0129921Y0177165D01*
X0125197Y0177165D01*
X0122047Y0180315D01*
X0122047Y0184055D01*
X0121850Y0184252D01*
X0100000Y0184252D01*
X0097638Y0186614D01*
X0097638Y0188976D01*
X0095276Y0191339D01*
X0031496Y0191339D01*
X0029921Y0189764D01*
X0029921Y0178740D01*
X0031457Y0177205D01*
X0036654Y0177205D01*
X0084685Y0172874D02*
X0124764Y0172874D01*
X0128543Y0169094D01*
X0128543Y0142579D01*
X0126575Y0142579D02*
X0126575Y0167913D01*
X0123622Y0170866D01*
X0094488Y0170866D01*
X0092165Y0168543D01*
X0084685Y0168543D01*
X0084685Y0164213D02*
X0101929Y0164213D01*
X0103818Y0162324D01*
X0103818Y0159038D01*
X0101318Y0159038D02*
X0101301Y0159055D01*
X0097638Y0159055D01*
X0096811Y0159882D01*
X0084685Y0159882D01*
X0108563Y0134409D02*
X0115197Y0134409D01*
X0116535Y0133071D01*
X0116535Y0114173D01*
X0117323Y0114173D01*
X0121260Y0110236D02*
X0121260Y0133858D01*
X0120669Y0134449D01*
X0120669Y0142579D01*
X0138583Y0118898D02*
X0138583Y0105512D01*
X0136220Y0103150D01*
X0136220Y0101575D01*
X0136417Y0096713D02*
X0136417Y0091929D01*
X0139370Y0088976D01*
X0139370Y0068504D01*
X0142717Y0065157D01*
X0142717Y0059055D01*
X0135236Y0059055D02*
X0135236Y0065945D01*
X0137795Y0068504D01*
X0137795Y0088189D01*
X0134449Y0091535D01*
X0134449Y0096713D01*
X0126575Y0096713D02*
X0126575Y0084252D01*
X0126772Y0083661D01*
X0129921Y0083661D01*
X0126575Y0084252D02*
X0126575Y0076969D01*
X0125984Y0076378D01*
X0123228Y0076378D01*
X0121850Y0075787D01*
X0111614Y0084055D02*
X0112598Y0085827D01*
X0112795Y0085630D01*
X0112598Y0085827D02*
X0110236Y0085827D01*
X0111614Y0084055D02*
X0107087Y0084055D01*
X0112598Y0085827D02*
X0112598Y0090551D01*
X0113386Y0091339D01*
X0123622Y0091339D01*
X0124606Y0092323D01*
X0124606Y0096713D01*
X0108563Y0112756D02*
X0104094Y0112756D01*
X0101969Y0110630D01*
X0099705Y0111417D01*
X0108563Y0114724D02*
X0086378Y0114724D01*
X0085039Y0113386D01*
X0085039Y0111811D01*
X0085335Y0111516D01*
X0088189Y0111516D01*
X0085039Y0111811D02*
X0085039Y0100787D01*
X0084272Y0100020D01*
X0073377Y0100020D01*
X0071654Y0103150D02*
X0068504Y0103150D01*
X0067717Y0102362D01*
X0067717Y0096063D01*
X0068760Y0095020D01*
X0073377Y0095020D01*
X0071654Y0103150D02*
X0072441Y0103937D01*
X0072441Y0111811D01*
X0072736Y0111516D01*
X0075984Y0111516D01*
X0072441Y0111811D02*
X0072441Y0115748D01*
X0073386Y0116693D01*
X0108563Y0116693D01*
X0084252Y0084252D02*
X0081890Y0084252D01*
X0078740Y0081102D01*
X0055118Y0081102D01*
X0054724Y0081496D01*
X0054724Y0085335D01*
X0058268Y0079528D02*
X0081102Y0079528D01*
X0082677Y0081102D01*
X0084252Y0084252D02*
X0088976Y0079528D01*
X0096063Y0079528D01*
X0105512Y0070079D01*
X0132283Y0070079D01*
X0100000Y0071654D02*
X0100000Y0067717D01*
X0096850Y0064567D01*
X0092913Y0064567D01*
X0090748Y0062402D01*
X0090748Y0060630D01*
X0093701Y0076378D02*
X0092126Y0077953D01*
X0059055Y0077953D01*
X0055315Y0074213D01*
X0055315Y0060630D01*
X0046457Y0058268D02*
X0045276Y0057087D01*
X0041031Y0057087D01*
X0046457Y0058268D02*
X0046457Y0073130D01*
X0051476Y0073130D01*
X0051575Y0073031D01*
X0051772Y0073031D01*
X0058268Y0079528D01*
M02*
