G75*
%MOIN*%
%OFA0B0*%
%FSLAX25Y25*%
%IPPOS*%
%LPD*%
%AMOC8*
5,1,8,0,0,1.08239X$1,22.5*
%
%ADD10C,0.00000*%
%ADD11R,0.07087X0.03150*%
%ADD12R,0.07087X0.06299*%
%ADD13R,0.03150X0.03150*%
%ADD14R,0.05118X0.03543*%
%ADD15R,0.06299X0.07087*%
%ADD16R,0.03543X0.05118*%
%ADD17R,0.01339X0.05315*%
%ADD18R,0.05315X0.01339*%
%ADD19R,0.05512X0.03937*%
%ADD20R,0.02200X0.07800*%
%ADD21R,0.07800X0.02200*%
%ADD22R,0.01700X0.05600*%
%ADD23R,0.06299X0.07098*%
%ADD24R,0.05906X0.06299*%
%ADD25R,0.03740X0.03740*%
%ADD26R,0.02200X0.05000*%
%ADD27R,0.07098X0.06299*%
%ADD28R,0.06693X0.07087*%
%ADD29R,0.07087X0.06693*%
%ADD30R,0.03937X0.05512*%
%ADD31R,0.02362X0.04921*%
%ADD32R,0.04134X0.03937*%
%ADD33R,0.08661X0.04134*%
%ADD34R,0.07874X0.23622*%
D10*
X0000000Y0000000D02*
X0000000Y0196850D01*
X0196850Y0196850D01*
X0196850Y0000000D01*
X0000000Y0000000D01*
D11*
X0036654Y0130748D03*
X0036654Y0135079D03*
X0036654Y0139409D03*
X0036654Y0143740D03*
X0036654Y0148071D03*
X0036654Y0159882D03*
X0036654Y0164213D03*
X0036654Y0168543D03*
X0036654Y0172874D03*
X0036654Y0177205D03*
X0036654Y0181535D03*
X0036654Y0185866D03*
X0084685Y0185866D03*
X0084685Y0181535D03*
X0084685Y0177205D03*
X0084685Y0172874D03*
X0084685Y0168543D03*
X0084685Y0164213D03*
X0084685Y0159882D03*
X0084685Y0148071D03*
X0084685Y0143740D03*
X0084685Y0139409D03*
X0084685Y0135079D03*
X0084685Y0130748D03*
D12*
X0037008Y0078346D03*
X0029134Y0078346D03*
X0029134Y0067323D03*
X0037008Y0067323D03*
D13*
X0051575Y0073031D03*
X0051575Y0078937D03*
X0014370Y0064961D03*
X0008465Y0064961D03*
X0093504Y0104331D03*
X0099409Y0104331D03*
X0103346Y0096457D03*
X0109252Y0096457D03*
X0107087Y0089961D03*
X0107087Y0084055D03*
X0129921Y0083661D03*
X0129921Y0077756D03*
X0129331Y0059055D03*
X0125000Y0059055D03*
X0119094Y0059055D03*
X0113189Y0059055D03*
X0107283Y0059055D03*
X0135236Y0059055D03*
X0142717Y0059055D03*
X0148622Y0059055D03*
X0152559Y0074803D03*
X0158465Y0074803D03*
X0158465Y0080709D03*
X0152559Y0080709D03*
X0160827Y0108661D03*
X0166732Y0108661D03*
X0160433Y0143701D03*
X0154528Y0143701D03*
X0169291Y0154528D03*
X0169291Y0160433D03*
X0139764Y0184055D03*
X0133858Y0184055D03*
X0127953Y0184055D03*
X0127953Y0189961D03*
X0133858Y0189961D03*
X0139764Y0189961D03*
X0122047Y0189961D03*
X0122047Y0184055D03*
X0092520Y0186024D03*
X0092520Y0180118D03*
X0103346Y0151575D03*
X0109252Y0151575D03*
X0109252Y0143701D03*
X0103346Y0143701D03*
X0185630Y0065748D03*
X0191535Y0065748D03*
D14*
X0059055Y0045079D03*
X0059055Y0037598D03*
D15*
X0020866Y0057087D03*
X0009843Y0057087D03*
D16*
X0160433Y0132677D03*
X0167913Y0132677D03*
D17*
X0146260Y0142579D03*
X0144291Y0142579D03*
X0142323Y0142579D03*
X0140354Y0142579D03*
X0138386Y0142579D03*
X0136417Y0142579D03*
X0134449Y0142579D03*
X0132480Y0142579D03*
X0130512Y0142579D03*
X0128543Y0142579D03*
X0126575Y0142579D03*
X0124606Y0142579D03*
X0122638Y0142579D03*
X0120669Y0142579D03*
X0118701Y0142579D03*
X0116732Y0142579D03*
X0116732Y0096713D03*
X0118701Y0096713D03*
X0120669Y0096713D03*
X0122638Y0096713D03*
X0124606Y0096713D03*
X0126575Y0096713D03*
X0128543Y0096713D03*
X0130512Y0096713D03*
X0132480Y0096713D03*
X0134449Y0096713D03*
X0136417Y0096713D03*
X0138386Y0096713D03*
X0140354Y0096713D03*
X0142323Y0096713D03*
X0144291Y0096713D03*
X0146260Y0096713D03*
D18*
X0154429Y0104882D03*
X0154429Y0106850D03*
X0154429Y0108819D03*
X0154429Y0110787D03*
X0154429Y0112756D03*
X0154429Y0114724D03*
X0154429Y0116693D03*
X0154429Y0118661D03*
X0154429Y0120630D03*
X0154429Y0122598D03*
X0154429Y0124567D03*
X0154429Y0126535D03*
X0154429Y0128504D03*
X0154429Y0130472D03*
X0154429Y0132441D03*
X0154429Y0134409D03*
X0108563Y0134409D03*
X0108563Y0132441D03*
X0108563Y0130472D03*
X0108563Y0128504D03*
X0108563Y0126535D03*
X0108563Y0124567D03*
X0108563Y0122598D03*
X0108563Y0120630D03*
X0108563Y0118661D03*
X0108563Y0116693D03*
X0108563Y0114724D03*
X0108563Y0112756D03*
X0108563Y0110787D03*
X0108563Y0108819D03*
X0108563Y0106850D03*
X0108563Y0104882D03*
D19*
X0047638Y0098622D03*
X0047638Y0091142D03*
X0038976Y0094882D03*
D20*
X0069272Y0062450D03*
X0074272Y0062450D03*
X0079272Y0062450D03*
X0084272Y0062450D03*
X0084272Y0043850D03*
X0079272Y0043850D03*
X0074272Y0043850D03*
X0069272Y0043850D03*
X0164547Y0065503D03*
X0169547Y0065503D03*
X0174547Y0065503D03*
X0179547Y0065503D03*
X0179547Y0084103D03*
X0174547Y0084103D03*
X0169547Y0084103D03*
X0164547Y0084103D03*
X0163012Y0158023D03*
X0158012Y0158023D03*
X0153012Y0158023D03*
X0148012Y0158023D03*
X0148012Y0176623D03*
X0153012Y0176623D03*
X0158012Y0176623D03*
X0163012Y0176623D03*
D21*
X0091977Y0100020D03*
X0091977Y0095020D03*
X0091977Y0090020D03*
X0091977Y0085020D03*
X0073377Y0085020D03*
X0073377Y0090020D03*
X0073377Y0095020D03*
X0073377Y0100020D03*
D22*
X0101318Y0159038D03*
X0103818Y0159038D03*
X0106418Y0159038D03*
X0108918Y0159038D03*
X0108918Y0180175D03*
X0106418Y0180175D03*
X0103818Y0180175D03*
X0101318Y0180175D03*
D23*
X0041031Y0057087D03*
X0029835Y0057087D03*
X0037709Y0039370D03*
X0048906Y0039370D03*
X0165661Y0054331D03*
X0176858Y0054331D03*
D24*
X0121850Y0075787D03*
X0112795Y0075787D03*
X0112795Y0085630D03*
X0121850Y0085630D03*
D25*
X0099705Y0111417D03*
X0093996Y0111417D03*
X0088189Y0111516D03*
X0088189Y0105807D03*
X0075984Y0105807D03*
X0075984Y0111516D03*
X0092520Y0129035D03*
X0092520Y0134744D03*
X0054724Y0091043D03*
X0054724Y0085335D03*
X0046457Y0078839D03*
X0046457Y0073130D03*
X0068012Y0070866D03*
X0073720Y0070866D03*
X0079429Y0070866D03*
X0085138Y0070866D03*
X0091634Y0053150D03*
X0097343Y0053150D03*
X0107382Y0053150D03*
X0113091Y0053150D03*
X0119193Y0053150D03*
X0124902Y0053150D03*
X0129429Y0053150D03*
X0135138Y0053150D03*
X0142815Y0053150D03*
X0148524Y0053150D03*
X0152657Y0068898D03*
X0158366Y0068898D03*
X0186122Y0074803D03*
X0191831Y0074803D03*
X0180020Y0102362D03*
X0174311Y0102362D03*
X0174311Y0112205D03*
X0180020Y0112205D03*
X0166240Y0126772D03*
X0160531Y0126772D03*
X0169291Y0166437D03*
X0169291Y0172146D03*
X0154429Y0187795D03*
X0154429Y0192913D03*
X0148720Y0192913D03*
X0148720Y0187795D03*
X0109154Y0187795D03*
X0109154Y0192913D03*
X0103445Y0192913D03*
X0103445Y0187795D03*
X0028445Y0147638D03*
X0022736Y0147638D03*
X0025591Y0140650D03*
X0025591Y0134941D03*
X0021260Y0081594D03*
X0021260Y0075886D03*
X0021260Y0069783D03*
X0021260Y0064075D03*
X0056201Y0053150D03*
X0061909Y0053150D03*
D26*
X0015117Y0071672D03*
X0007717Y0071672D03*
X0007717Y0081872D03*
X0011417Y0081872D03*
X0015117Y0081872D03*
D27*
X0112205Y0044969D03*
X0122047Y0044969D03*
X0131890Y0044969D03*
X0141732Y0044969D03*
X0141732Y0033772D03*
X0131890Y0033772D03*
X0122047Y0033772D03*
X0112205Y0033772D03*
D28*
X0082677Y0033661D03*
X0072835Y0033661D03*
X0072835Y0017520D03*
X0082677Y0017520D03*
D29*
X0026181Y0039370D03*
X0010039Y0039370D03*
D30*
X0055315Y0060630D03*
X0062795Y0060630D03*
X0059055Y0069291D03*
X0090748Y0060630D03*
X0098228Y0060630D03*
X0094488Y0069291D03*
X0167520Y0036220D03*
X0175000Y0036220D03*
X0171260Y0044882D03*
D31*
X0102165Y0044291D03*
X0098425Y0044291D03*
X0094685Y0044291D03*
X0094685Y0034449D03*
X0098425Y0034449D03*
X0102165Y0034449D03*
D32*
X0017815Y0135039D03*
D33*
X0011811Y0129134D03*
X0011811Y0140945D03*
D34*
X0010827Y0098425D03*
X0023819Y0098425D03*
M02*
